<svg xmlns="http://www.w3.org/2000/svg" width="512" height="300.423" viewBox="0 0 512 300.423">
  <path id="cloud" d="M2737.75,1922.328v18a27.83,27.83,0,0,0-.915,3.322c-6.661,44.152-44.278,77.483-88.727,77.579q-166.371.352-332.739,0c-40.81-.077-76.795-28.765-86.854-68.315-1.059-4.163-1.85-8.392-2.766-12.59v-18a31.623,31.623,0,0,0,.9-3.323c4.907-30.38,21.2-52.783,48.159-67.142,8.261-4.4,17.533-6.909,26.4-10.307,3.281-54.424,28.539-95.224,81.4-113.041,59.244-19.968,106.712.664,142.569,50.756.782-.415,1.664-.863,2.527-1.343a89.732,89.732,0,0,1,132.063,60.413c.741,3.535,2.583,4.284,5.565,5.014q55.125,13.48,70.173,68.272C2736.471,1915.138,2737.014,1918.76,2737.75,1922.328Z" transform="translate(-2225.75 -1720.976)" fill="#4ba2f9" fill-rule="evenodd"/>
</svg>
