<svg xmlns="http://www.w3.org/2000/svg" width="512" height="511.998" viewBox="0 0 512 511.998">
  <path id="Connecting_line" data-name="Connecting line" d="M903.4,505.3c7.9,1.8,16.01,3,23.687,5.5,47.843,15.564,78.912,58.471,79.127,109.2.167,38.162.04,76.329.04,114.491,0,46.667-.108,93.329.029,139.991.127,41.809,27.8,75.663,68.578,84.275,49.912,10.549,99.02-27.236,101.687-78.26.2-3.657.235-7.329.235-10.99q.029-95.493.029-190.986c.02-32.108,12.941-57.726,40.235-74.75,27.627-17.226,56.921-18.2,85.539-2.721,28.794,15.579,44.216,40.7,44.677,73.525.666,47.485.107,94.991.235,142.491.068,28.088,18.049,50.618,44.979,56.692,3.716.838,7.56,1.137,11.922,1.77v57.143c-9.216-1.348-18.146-1.932-26.716-4.025-51.676-12.627-86.882-57.544-87.1-111.089-.187-46.829-.01-93.657-.068-140.491-.02-14.417-8.657-25.735-21.628-28.711-17.735-4.074-33.892,8.147-35.156,26.632-.138,1.99-.079,4-.079,6-.049,66.329.51,132.667-.294,198.981-.833,69.647-56.774,129.422-126.167,136.427a29.573,29.573,0,0,0-3.794.907h-23a43.289,43.289,0,0,0-4.362-.888c-14.52-1.5-28.638-4.9-41.765-11.23C979.5,978.75,950.151,935.1,949.544,874.166c-.844-84.662-.167-169.334-.235-254-.029-32.6-24.745-57.613-56.912-57.873v-57Z" transform="translate(-892.396 -505.296)" fill="#4ba2f9" fill-rule="evenodd"/>
</svg>
