<svg xmlns="http://www.w3.org/2000/svg" width="512" height="452.462" viewBox="0 0 512 452.462">
  <path id="heart" d="M2576.8,488.871v21a33.1,33.1,0,0,0-.731,3.848c-2.253,30.161-13.322,57.156-29.72,82.172-17.746,27.075-39.349,50.984-63.385,72.4-49.5,44.111-99.749,87.393-149.737,130.96-8.814,7.683-15.985,7.621-24.842-.011q-59.639-51.4-119.181-102.9c-30.2-26.283-59.29-53.719-83.6-85.755-16.13-21.258-29.2-44.185-35.543-70.349-2.415-9.963-3.547-20.237-5.264-30.37v-21c.32-1.946.729-3.882.945-5.839,4.664-42.089,21.456-77.968,55.826-103.732,33.72-25.277,71.72-32.533,112.534-21.674,29.836,7.939,52.639,26.436,70.952,50.749,5.563,7.386,10.468,15.265,15.929,23.29,1.262-1.981,2.29-3.831,3.543-5.513,8.042-10.788,15.136-22.5,24.385-32.135,37.159-38.723,82.352-50.752,133.257-34.351,48.51,15.63,76.784,51.288,89.489,99.808C2574.171,469.064,2575.129,479.061,2576.8,488.871Z" transform="translate(-2064.8 -352.528)" fill="#4ba2f9" fill-rule="evenodd"/>
</svg>
