<svg xmlns="http://www.w3.org/2000/svg" width="45.25" height="45.25" viewBox="0 0 45.25 45.25">
  <g id="Icon_ionic-ios-close-circle-outline" data-name="Icon ionic-ios-close-circle-outline" transform="translate(-3.375 -3.375)">
    <path id="Path_33" data-name="Path 33" d="M29.276,26.821l-5.732-5.732,5.732-5.732A1.738,1.738,0,0,0,26.818,12.9L21.085,18.63,15.353,12.9a1.738,1.738,0,0,0-2.458,2.458l5.732,5.732-5.732,5.732a1.681,1.681,0,0,0,0,2.458,1.727,1.727,0,0,0,2.458,0l5.732-5.732,5.732,5.732a1.746,1.746,0,0,0,2.458,0A1.727,1.727,0,0,0,29.276,26.821Z" transform="translate(4.915 4.912)"/>
    <path id="Path_34" data-name="Path 34" d="M26,6.421a19.572,19.572,0,1,1-13.847,5.732A19.45,19.45,0,0,1,26,6.421m0-3.046A22.625,22.625,0,1,0,48.625,26,22.622,22.622,0,0,0,26,3.375Z"/>
  </g>
</svg>
