<svg xmlns="http://www.w3.org/2000/svg" width="24.867" height="19.893" viewBox="0 0 24.867 19.893">
  <path id="Icon_awesome-user-alt-slash" data-name="Icon awesome-user-alt-slash" d="M24.627,17.8l-9.488-7.336A5.579,5.579,0,1,0,7.034,4.2L1.769.132A.624.624,0,0,0,.895.241L.133,1.22a.619.619,0,0,0,.109.87L23.1,19.757a.624.624,0,0,0,.874-.109l.762-.983a.616.616,0,0,0-.113-.866ZM7.71,12.433a5.223,5.223,0,0,0-5.222,5.222v.373a1.865,1.865,0,0,0,1.865,1.865H19.2l-9.651-7.46Z" transform="translate(-0.002)" fill="#e66d11"/>
</svg>
