<svg xmlns="http://www.w3.org/2000/svg" width="28" height="35.02" viewBox="0 0 28 35.02">
  <g id="Icon_ionic-ios-notifications" data-name="Icon ionic-ios-notifications" transform="translate(-6.761 -3.93)">
    <path id="Path_7" data-name="Path 7" d="M17.993,32.063c2.187,0,3.382-1.547,3.382-3.727H14.6C14.6,30.516,15.8,32.063,17.993,32.063Z" transform="translate(2.747 6.888)"/>
    <path id="Path_8" data-name="Path 8" d="M34.406,30.985c-1.348-1.854-4-2.94-4-11.24,0-8.519-3.606-11.943-6.967-12.765-.315-.082-.543-.192-.543-.539V6.177a2.138,2.138,0,1,0-4.271,0v.265c0,.338-.228.457-.543.539-3.37.831-6.967,4.246-6.967,12.765,0,8.3-2.652,9.377-4,11.24a1.819,1.819,0,0,0,1.392,2.9H33.023A1.82,1.82,0,0,0,34.406,30.985Z" transform="translate(0 0)"/>
  </g>
</svg>
