<svg xmlns="http://www.w3.org/2000/svg" width="35" height="35.982" viewBox="0 0 35 35.982">
  <path id="Icon_material-settings" data-name="Icon material-settings" d="M34.277,22.754a14.02,14.02,0,0,0,.126-1.763,14.02,14.02,0,0,0-.126-1.763l3.8-2.969a.908.908,0,0,0,.216-1.151l-3.6-6.225a.9.9,0,0,0-1.1-.4l-4.48,1.8a13.144,13.144,0,0,0-3.04-1.763L25.39,3.756A.877.877,0,0,0,24.508,3h-7.2a.877.877,0,0,0-.882.756l-.684,4.768a13.822,13.822,0,0,0-3.04,1.763l-4.48-1.8a.878.878,0,0,0-1.1.4l-3.6,6.225a.887.887,0,0,0,.216,1.151l3.8,2.969a14.268,14.268,0,0,0-.126,1.763,14.268,14.268,0,0,0,.126,1.763l-3.8,2.969a.908.908,0,0,0-.216,1.151l3.6,6.225a.9.9,0,0,0,1.1.4l4.48-1.8a13.144,13.144,0,0,0,3.04,1.763l.684,4.768a.877.877,0,0,0,.882.756h7.2a.877.877,0,0,0,.882-.756l.684-4.768a13.822,13.822,0,0,0,3.04-1.763l4.48,1.8a.878.878,0,0,0,1.1-.4l3.6-6.225a.908.908,0,0,0-.216-1.151l-3.8-2.969ZM20.91,27.288a6.3,6.3,0,1,1,6.3-6.3A6.3,6.3,0,0,1,20.91,27.288Z" transform="translate(-3.406 -3)"/>
</svg>
