<svg xmlns="http://www.w3.org/2000/svg" width="512" height="512" viewBox="0 0 512 512">
  <g id="sun" transform="translate(-2153.75 -929.75)">
    <path id="Path_76" data-name="Path 76" d="M2537.7,1124.726c-2.079,4.581-5.9,7.006-10.349,9-16.027,7.184-31.956,14.585-47.925,21.9-1.2.548-2.414,1.044-4.427,1.91,6.263-24.122,6.4-47.516-.075-71.675,4.025,1.787,7.174,3.147,10.292,4.574,14.724,6.741,29.408,13.572,44.182,20.2a17.09,17.09,0,0,1,8.3,8.09Z" transform="translate(128.048 64.013)" fill="#4ba2f9" fill-rule="evenodd"/>
    <path id="Path_77" data-name="Path 77" d="M2342.727,1313.7c-4.447-2.029-6.9-5.678-8.851-10.036-7.246-16.165-14.705-32.236-22.079-48.346-.512-1.118-.979-2.256-1.862-4.3a137.237,137.237,0,0,0,71.527-.037c-.819,1.972-1.277,3.173-1.811,4.339-7.37,16.111-14.834,32.181-22.076,48.348-1.953,4.362-4.413,8-8.849,10.033Z" transform="translate(64.013 128.048)" fill="#4ba2f9" fill-rule="evenodd"/>
    <path id="Path_78" data-name="Path 78" d="M2348.726,929.75c4.446,2.028,6.9,5.67,8.853,10.032,7.241,16.171,14.7,32.241,22.077,48.353.512,1.118.981,2.256,1.848,4.26-23.988-6.17-47.384-6.4-71.356.071.606-1.7.883-2.715,1.314-3.657,7.735-16.907,15.563-33.772,23.185-50.729a17.046,17.046,0,0,1,8.08-8.33Z" transform="translate(64.065)" fill="#4ba2f9" fill-rule="evenodd"/>
    <path id="Path_79" data-name="Path 79" d="M2153.75,1118.727c2.026-4.451,5.673-6.874,10.043-8.829,15.829-7.08,31.545-14.412,47.307-21.642,1.458-.669,2.941-1.285,5.3-2.315a137.295,137.295,0,0,0,.043,71.442c-1.814-.724-2.916-1.11-3.972-1.593-17.014-7.792-34.1-15.429-50.955-23.551-3.082-1.485-5.205-4.959-7.77-7.513Z" transform="translate(0 63.998)" fill="#4ba2f9" fill-rule="evenodd"/>
    <path id="Path_80" data-name="Path 80" d="M2409.644,1010.005c96.956-.063,175.969,78.984,175.852,175.928-.116,96.725-78.924,175.5-175.636,175.563-96.909.065-175.96-79.029-175.855-175.943C2234.111,1088.852,2312.939,1010.065,2409.644,1010.005Z" transform="translate(0 0)" fill="#4ba2f9" fill-rule="evenodd"/>
    <path id="Path_81" data-name="Path 81" d="M2279.7,1005.079a137.205,137.205,0,0,0-50.736,50.727c-4.207-11.315-8.2-22.042-12.185-32.771q-4.428-11.91-8.861-23.82c-1.8-4.8-1.724-9.331,2.112-13.175s8.364-3.921,13.172-2.132q26.97,10.033,53.946,20.045C2277.83,1004.209,2278.488,1004.544,2279.7,1005.079Z" fill="#4ba2f9" fill-rule="evenodd"/>
    <path id="Path_82" data-name="Path 82" d="M2279.88,1238.493c-13.48,5.005-26.2,9.725-38.909,14.448q-8.758,3.252-17.509,6.526c-4.925,1.855-9.6,1.836-13.517-2.137-3.806-3.855-3.791-8.4-2-13.2q9.933-26.607,19.819-53.233c.337-.907.754-1.783,1.312-3.089A137.225,137.225,0,0,0,2279.88,1238.493Z" transform="translate(0 128.048)" fill="#4ba2f9" fill-rule="evenodd"/>
    <path id="Path_83" data-name="Path 83" d="M2462.4,1055.681a136.9,136.9,0,0,0-50.434-50.513c1.114-.536,1.885-.986,2.709-1.293q26.644-9.946,53.3-19.874c4.939-1.849,9.6-1.894,13.527,2.1,3.8,3.868,3.792,8.421,2,13.227q-10.007,26.828-19.968,53.668C2463.273,1053.693,2462.956,1054.363,2462.4,1055.681Z" transform="translate(128.048)" fill="#4ba2f9" fill-rule="evenodd"/>
    <path id="Path_84" data-name="Path 84" d="M2462.472,1187.647c2.208,5.906,4.219,11.256,6.212,16.615,4.912,13.213,9.782,26.441,14.739,39.637,1.857,4.945,1.942,9.618-2.023,13.549s-8.6,3.781-13.556,1.922c-17.4-6.529-34.849-12.942-52.274-19.411-1.13-.421-2.224-.943-3.737-1.592A137.291,137.291,0,0,0,2462.472,1187.647Z" transform="translate(128.048 128.048)" fill="#4ba2f9" fill-rule="evenodd"/>
  </g>
</svg>
