<?xml version="1.0" encoding="utf-8"?>
<!-- Generator: Adobe Illustrator 16.0.0, SVG Export Plug-In . SVG Version: 6.00 Build 0)  -->
<!DOCTYPE svg PUBLIC "-//W3C//DTD SVG 1.0//EN" "http://www.w3.org/TR/2001/REC-SVG-20010904/DTD/svg10.dtd">
<svg version="1.0" id="Layer_1" xmlns="http://www.w3.org/2000/svg" xmlns:xlink="http://www.w3.org/1999/xlink" x="0px" y="0px"
	 width="3949.579px" height="4477.79px" viewBox="0 0 3949.579 4477.79" enable-background="new 0 0 3949.579 4477.79"
	 xml:space="preserve">
<g>
	<path fill-rule="evenodd" clip-rule="evenodd" d="M2020.976,77.795c181.449,40.141,289.527,168.276,377.95,318.255
		c18.938,32.128,36.128,47.577,77.536,44.836c116.405-7.699,225.826,65.469,269.945,172.479
		c46.006,111.594,20.645,235.22-65.287,318.308c-60.913,58.895-60.913,58.895-30.221,137.549
		c134.354-30.694,267.526-65.402,402.437-90.916c190.636-36.056,382.505-49.542,571.672,10.77
		c182.05,58.045,282.136,199.711,268.847,380.278c-7.229,98.187-41.564,188.727-86.295,275.616
		c-87.895,170.728-212.516,313.63-342.741,452.262c-45.087,47.997-90.646,95.558-137.128,144.511
		c25.62,26.333,53.347,55.754,82.05,84.181c136.251,134.944,263.907,277.002,362.266,442.779
		c56.206,94.724,101.044,193.948,117.306,304.613c27.761,188.958-61.875,343.384-244.454,405.451
		c-64.484,21.92-133.665,30.753-201.239,42.438c-22.016,3.806-33.712,9.583-41.882,32.027
		c-47.612,130.852-172.645,210.682-301.4,194.845c-137.306-16.891-236.609-116.679-254.196-257.55
		c-3.168-25.369-10.745-39.539-38.102-45.627c-51.841-11.541-102.68-27.627-157.607-42.845
		c-7.602,27.581-15.061,52.695-21.433,78.077c-50.034,199.382-107.815,396.695-213.116,574.585
		c-48.166,81.374-105.859,160.313-172.744,226.759c-159.957,158.912-366.301,156.191-530.969,2.822
		c-114.657-106.783-192.705-239.016-247.421-382.891c-61.234-161-110.675-326.48-166.932-495.058
		c-15.915,4.318-39.836,9.896-63.173,17.308c-200.949,63.806-407.592,95.392-617.497,104.38
		c-100.065,4.287-199.303-8.811-294.913-41.843c-202.375-69.912-300.63-245.813-246.337-453.29
		c19.364-73.991,53.282-144.341,82.863-215.386c8.663-20.814,13.16-34.735-1.798-56.467
		c-74.001-107.484-68.391-239.427,11.245-341.337c76.589-98.009,203.744-132.833,326.337-86.757
		c23.906,8.986,38.951,6.273,55.136-12.067c24.969-28.286,51.528-55.17,81.556-87.041c-32.076-31.111-66.488-63.672-100.001-97.128
		c-129.697-129.482-250.844-266.042-345.041-424.334c-54.884-92.231-100.09-188.484-117.319-295.821
		c-33.225-207.019,64.268-364.978,264.792-428.777c149.485-47.56,303.047-50.524,455.049-25.703
		c156.269,25.517,310.235,65.156,465.167,98.805c16.199,3.52,32.122,8.33,51.983,13.54c8.069-30.212,15.799-58.181,23.004-86.287
		c56.676-221.14,125.171-437.722,249.438-632.05c59.653-93.277,129.269-178.11,229.182-230.925
		c37.955-20.065,80.294-31.828,120.634-47.375C1959.072,77.795,1990.027,77.795,2020.976,77.795z M1338.988,2239.828
		c0,109.64,0.521,219.281-0.371,328.912c-0.219,26.928,9.432,43.897,33.063,57.429c192.527,110.213,384.719,221.036,576.412,332.695
		c22.524,13.125,39.716,11.689,61.507-0.984c190.551-110.827,381.502-220.971,572.815-330.483
		c23.233-13.297,34.264-29.347,34.169-56.643c-0.747-222.068-0.784-444.146-0.344-666.216c0.054-25.546-10.334-40.843-32.153-53.348
		c-192.474-110.308-384.197-221.932-577.243-331.226c-14.607-8.268-41.785-8.948-56.142-0.824
		c-194.288,109.949-387.704,221.465-580.014,334.844c-15.507,9.142-29.76,34.561-30.213,52.773
		C1337.703,2017.73,1339.091,2128.81,1338.988,2239.828z M1446.401,3362.463c2.904,12.638,5.912,26.257,9.169,39.815
		c48.986,204.094,111.31,403.389,213.325,588.217c46.558,84.359,100.922,162.729,180.956,219.299
		c86.685,61.27,172.259,62.394,257.194-2.107c39.787-30.215,77.557-66.274,106.92-106.492
		c161.78-221.59,232.998-479.939,296.967-741.075c-5.582-3.641-8.73-6.451-12.415-7.988
		c-167.1-69.784-334.161-139.663-501.601-208.626c-10.3-4.242-25.288-5.096-35.287-0.875
		C1791.112,3214.648,1621.034,3287.717,1446.401,3362.463z M1271.438,1218.497c-0.932-0.581-4.138-3.66-7.936-4.81
		c-218.39-66.445-439.781-117.447-669.446-118.935c-88.707-0.573-177.054,8.82-259.178,47.453
		c-64.376,30.286-110.812,76.189-124.516,148.858c-14.707,77.974,4.987,151.221,36.243,221.099
		c112.109,250.664,299.917,441.777,493.917,627.512c6.485-3.145,10.662-4.381,13.892-6.85
		c142.834-109.216,285.93-218.103,427.735-328.638c12.147-9.467,20.402-29.379,22.477-45.471
		C1227.596,1580.487,1248.987,1402.052,1271.438,1218.497z M3213.075,2140.536c143.885-132.017,277.839-270.24,384.457-431.498
		c49.189-74.396,94.725-153.883,125.716-237.095c74.634-200.403-3.686-327.718-214.978-364.203
		c-160.507-27.717-319.803-9.471-477.311,21.227c-117.855,22.974-233.831,55.622-346.688,83.006
		c23.32,192.095,45.121,375.909,68.948,559.463c1.784,13.754,15.739,28.695,27.953,37.888
		c85.294,64.206,172.376,126.052,257.361,190.656C3097.587,2044.869,3154.214,2092.951,3213.075,2140.536z M2684.549,3261.647
		c56.866,16.127,115.849,34.091,175.654,48.665c10.633,2.591,29.26-5.259,36.497-14.388
		c146.306-184.656,398.847-153.943,500.734,60.847c4.859,10.243,23.269,22.6,32.771,20.731
		c65.694-12.896,133.819-21.588,195.206-46.38c94.949-38.353,138.332-124.298,122.277-225.617
		c-7.398-46.69-16.217-96.404-38.655-136.83c-56.319-101.46-112.647-204.782-183.96-295.582
		c-93.978-119.66-202.287-228.062-300.597-337.05c-158.82,118.432-307.51,228.894-455.326,340.507
		c-9.554,7.213-16.214,22.848-17.78,35.368C2728.708,2892.919,2707.151,3074.063,2684.549,3261.647z M2509.353,1114.891
		c-3.107-15.118-7.926-31.416-9.566-48.026c-3.627-36.662-18.588-51.814-59.348-57.654
		c-156.317-22.406-256.553-154.18-243.747-311.863c6.344-78.105,44.84-140.256,99.427-192.283
		c-50.227-99.506-118.584-185.216-186.327-234.561c-86.894-63.293-176.957-68.243-260.073-0.326
		c-54.592,44.609-104.695,98.933-143.649,157.642c-105.041,158.322-166.354,336.646-217.345,518.423
		c-16.135,57.526-29.333,115.873-42.563,168.609c174.907,74.953,343.738,147.552,512.974,219.199
		c10.201,4.32,25.271,4.963,35.287,0.73C2164.935,1262.698,2335.003,1189.576,2509.353,1114.891z M742.302,2335.899
		c-32.015,30.377-63.758,58.145-92.1,89.028c-7.129,7.77-8.732,28.155-3.782,38.306c53.741,110.186,48.586,216.829-27.121,312.861
		c-76.544,97.094-179.256,129.634-301.019,100.292c-10.377-2.497-31.86,5.922-35.042,14.278
		c-26.814,70.422-59.126,140.367-73.23,213.643c-20.915,108.655,27.405,190.426,130.467,231.786
		c52.626,21.124,110.053,35.491,166.471,40.988c167.99,16.374,333.567-7.204,497.068-44.88
		c91.118-20.995,181.298-46.051,268.206-68.334c-23.274-189.525-45.111-371.897-69.058-553.994
		c-1.983-15.057-15.477-31.921-28.369-41.682c-86.219-65.282-174.479-127.871-260.553-193.339
		C856.288,2430.769,800.833,2383.394,742.302,2335.899z M3108.104,2238.768c-117.175-91.162-226.969-176.585-340.566-264.962
		c0,180.313,0,350.747,0,530.139C2882.022,2414.805,2991.218,2329.778,3108.104,2238.768z M847.84,2239.048
		c117.773,91.456,227.313,176.512,340.986,264.786c0-181.632,0-351.667,0-531.017
		C1073.082,2063.185,964.015,2148.343,847.84,2239.048z M1413.449,3217.026c135.923-54.954,265.322-107.274,400.097-161.771
		c-155.215-89.54-303.871-175.295-460.117-265.426C1373.801,2934.804,1393.076,3072.011,1413.449,3217.026z M1814.204,1422.071
		c-136.143-54.814-265.406-106.854-400.965-161.434c-20.414,146.171-39.5,282.882-59.562,426.531
		C1510.001,1597.184,1657.911,1512.043,1814.204,1422.071z M2602.042,2790.401c-158.76,91.441-306.096,176.299-460.106,265.006
		c135.751,54.703,265.069,106.813,400.909,161.553C2562.973,3071.939,2581.804,2936.218,2602.042,2790.401z M2540.768,1260.662
		c-135.54,54.905-264.129,106.995-398.469,161.414c155.547,89.65,302.968,174.614,456.701,263.223
		c-7.489-65.267-13.065-123.77-21.16-181.923C2567.028,1425.702,2554.255,1348.297,2540.768,1260.662z M3273.107,3465.678
		c0.644-80.479-63.403-145.854-142.874-145.836c-79.543,0.016-143.005,64.508-143.375,145.692
		c-0.348,76.358,65.389,140.979,143.421,140.986C3209.11,3606.524,3272.481,3544.035,3273.107,3465.678z M536.066,2598.198
		c0.272-77.363-63.544-141.332-141.764-142.104c-80.155-0.795-145.678,63.866-145.162,143.245
		c0.501,77.298,65.35,142.395,142.193,142.741C471.203,2742.44,535.785,2678.241,536.066,2598.198z M2480.259,583.113
		c-79.441,0.762-141.936,66.223-140.814,147.49c1.044,75.677,66.043,140.21,140.637,139.63
		c80.475-0.623,143.596-65.378,142.496-146.188C2621.492,644.621,2558.619,582.358,2480.259,583.113z"/>
	<path fill-rule="evenodd" clip-rule="evenodd" d="M1978.749,1807.488c237.006,0.256,431.066,194.963,430.77,432.208
		c-0.298,237.009-194.96,430.69-432.479,430.295c-237.747-0.396-430.835-194.267-430.355-432.105
		C1547.161,2000.053,1740.731,1807.229,1978.749,1807.488z M1691.029,2240.082c0.713,158.24,129.115,286.081,287.151,285.905
		c157.42-0.173,286.885-129.224,287.418-286.489c0.535-158.627-131.148-289.364-290.109-288.019
		C1817.396,1952.812,1690.32,2081.741,1691.029,2240.082z"/>
</g>
</svg>
