<?xml version="1.0" encoding="utf-8"?>
<!-- Generator: Adobe Illustrator 16.0.0, SVG Export Plug-In . SVG Version: 6.00 Build 0)  -->
<!DOCTYPE svg PUBLIC "-//W3C//DTD SVG 1.0//EN" "http://www.w3.org/TR/2001/REC-SVG-20010904/DTD/svg10.dtd">
<svg version="1.0" id="Layer_1" xmlns="http://www.w3.org/2000/svg" xmlns:xlink="http://www.w3.org/1999/xlink" x="0px" y="0px"
	 width="1035.102px" height="1035.104px" viewBox="0 0 1035.102 1035.104" enable-background="new 0 0 1035.102 1035.104"
	 xml:space="preserve">
<g>
	<path fill-rule="evenodd" clip-rule="evenodd" d="M321.444,549.756c-6.199,0-12.397,0.003-18.596,0
		c-17.209-0.007-34.425,0.226-51.623-0.23c-3.283-0.088-8.097-2.142-9.279-4.661c-1.152-2.452,0.501-7.421,2.55-9.985
		c12.62-15.786,25.711-31.196,38.616-46.754c1.834-2.212,3.521-4.546,6.658-8.622c-11.266,0-20.451,0.004-29.634,0
		c-3.005-0.003-6.177,0.586-8.972-0.187c-3.403-0.939-8.097-2.297-9.258-4.836c-1.131-2.472,0.533-7.458,2.621-9.97
		c15.529-18.702,31.478-37.057,47.277-55.535c2.635-3.08,5.178-6.239,9.575-11.551c-9.468,0-16.894,0.518-24.198-0.198
		c-4.155-0.41-10.306-1.844-11.557-4.623c-1.287-2.849,1.299-8.736,3.912-11.852c20.886-24.904,42.159-49.484,63.365-74.123
		c7.31-8.488,10.876-8.458,18.271,0.115c21.411,24.821,42.888,49.587,63.996,74.664c2.436,2.894,4.663,8.488,3.429,11.228
		c-1.203,2.667-6.886,4.226-10.757,4.584c-7.492,0.695-15.095,0.205-22.653,0.205c-0.36,0.693-0.72,1.387-1.082,2.081
		c11.167,13.043,22.335,26.089,34.093,39.821c11.03-12.936,21.289-24.962,31.542-36.994c3.011-3.535,5.901-7.178,9.017-10.616
		c12.966-14.311,30.453-14.429,43.412-0.067c7.449,8.258,14.457,16.915,22.406,26.264c2.65-3.395,4.668-5.834,6.534-8.384
		c19.848-27.108,39.637-54.259,59.512-81.347c14.458-19.703,34.617-19.556,49.126,0.295
		c65.443,89.529,130.843,179.093,196.453,268.5c2.875,3.918,7.277,7.181,11.644,9.447c10.942,5.683,16.247,14.861,15.152,29.17
		c-3.078,40.263-10.903,79.644-26.095,117.056c-60.152,148.119-168.996,239.687-326.692,263.927
		c-157.05,24.139-288.384-30.039-389.477-152.885C66.464,797.743,38.328,720.395,31.53,635.312
		c-1.481-18.521,9.217-30.426,27.793-30.639c18.573-0.214,37.154-0.224,55.726,0.033c6.033,0.083,8.881-1.284,8.753-8.146
		c-0.391-20.754-0.378-41.524-0.007-62.279c0.122-6.816-2.688-8.125-8.733-8.062c-24.309,0.257-48.627,0.301-72.932-0.104
		c-3.787-0.063-9.497-1.953-10.736-4.646c-1.247-2.713,1.017-8.236,3.389-11.22c12.412-15.601,25.355-30.778,38.088-46.126
		c1.69-2.041,3.221-4.217,6.252-8.21c-11.235,0-20.596,0.001-29.957-0.002c-3.005,0-6.184,0.614-8.969-0.168
		c-3.341-0.939-7.658-2.349-9.08-4.919c-1.148-2.083,0.468-6.922,2.398-9.274c11.26-13.725,22.983-27.068,34.527-40.558
		c7.06-8.25,14.082-16.532,22.977-26.979c-9.889,0-17.374,0.536-24.73-0.21c-4.146-0.419-9.607-1.924-11.582-4.877
		c-1.358-2.035,1.302-8.18,3.779-11.134c21.063-25.116,42.469-49.943,63.831-74.808c7.11-8.275,10.843-8.317,17.69-0.335
		c21.167,24.672,42.293,49.378,63.431,74.074c1.066,1.245,2.606,2.369,3.035,3.814c0.866,2.931,2.385,6.67,1.275,8.907
		c-1.115,2.251-5.026,4.146-7.835,4.333c-8.392,0.558-16.847,0.201-27.334,0.201c2.645,3.605,4.139,5.944,5.926,8.035
		c16.32,19.109,32.856,38.039,48.891,57.387c2.598,3.135,5.157,9.037,3.854,11.883c-1.257,2.74-7.483,4.211-11.623,4.428
		c-11.153,0.582-22.362,0.198-35.531,0.198c2.39,3.427,3.792,5.777,5.519,7.861c12.884,15.576,26.025,30.943,38.583,46.777
		c2.341,2.95,4.054,8.249,2.987,11.436c-0.776,2.321-6.589,4.097-10.184,4.149c-24.581,0.354-49.172,0.396-73.754,0.051
		c-6.558-0.091-8.482,2.046-8.381,8.439c0.326,20.482,0.289,40.977,0.02,61.461c-0.082,6.173,1.566,8.721,8.273,8.647
		c41.785-0.463,83.577-0.513,125.363-0.856c2.534-0.021,5.979-0.576,7.445-2.248c14.365-16.373,28.398-33.037,42.526-49.617
		C322.144,551.261,321.795,550.509,321.444,549.756z M174.532,621.462c-3.886-0.291-6.25-0.623-8.615-0.624
		c-34.416-0.032-68.831-0.064-103.245,0.006c-12.006,0.022-15.205,3.657-14.05,15.335c0.832,8.417,1.21,16.9,2.507,25.243
		c15.067,96.985,58.032,179.219,131.987,244.095c77.848,68.291,169.222,100.918,272.79,99.693c7.046-0.083,9.66-2.563,10.328-9.203
		c1.501-14.931,3.665-29.793,5.177-44.722c2.264-22.371,5.641-44.46,15.924-64.799c22.064-43.639,57.581-68.856,105.699-76.575
		c31.768-5.097,41.806-15.584,44.927-47.15c2.652-26.813,22.746-48.717,48.446-52.808c41.222-6.56,82.189,25.192,85.479,66.942
		c1.263,16.029,0.762,32.196,1.047,48.301c0.049,2.832,0.006,5.662,0.006,9.569c2.057-1.341,2.875-1.621,3.295-2.191
		c2.095-2.862,4.174-5.743,6.104-8.718c36.669-56.578,57.652-118.496,63.236-185.67c1.242-14.932-1.064-17.736-15.518-17.724
		c-133.833,0.103-267.666,0.228-401.499,0.38c-2.454,0.001-4.908,0.43-8.593,0.774c2.407,2.729,3.637,4.162,4.904,5.556
		c27.276,30.006,26.98,73.108-1.476,102.165c-23.854,24.356-36.935,53.105-38.212,87.107c-0.471,12.548,0.144,25.136-0.308,37.687
		c-1.073,29.857-28.753,52.018-58.142,46.393c-20.259-3.878-32.443-17.034-38.464-36.173
		c-12.457-39.595-24.797-79.229-36.956-118.917c-4.588-14.972-13.497-25.471-28.835-29.643c-4.698-1.277-9.71-1.37-14.563-2.106
		c-23.658-3.587-41.857-21.235-46.437-44.698C158.102,651.688,163.464,636.709,174.532,621.462z M294.419,621.524
		c-26.492,0-52.985-0.265-79.473,0.085c-20.246,0.266-36.016,16.103-36.481,35.745c-0.49,20.654,14.036,37.407,33.964,39.175
		c30.357,2.692,47.488,16.775,56.531,46.161c11.884,38.613,23.831,77.208,35.908,115.762c5.614,17.921,19.712,27.327,36.354,24.711
		c15.572-2.445,26.101-15.68,26.484-33.611c0.204-9.555,0.109-19.117,0.05-28.676c-0.246-39.985,13.832-74.046,41.912-102.492
		c17.685-17.917,22.258-39.048,13.184-62.49c-8.292-21.411-28.964-34.262-53.874-34.369
		C344.125,621.417,319.272,621.5,294.419,621.524z M819.82,603.085c-2.926-4.344-4.481-6.825-6.204-9.185
		c-19.487-26.686-39.006-53.347-58.506-80.022c-42.866-58.645-85.716-117.298-128.6-175.93
		c-7.882-10.775-14.842-10.926-22.551-0.411c-21.152,28.85-42.128,57.831-63.411,86.585c-3.377,4.562-3.664,7.76,0.37,11.982
		c8.097,8.478,15.971,17.186,23.587,26.097c37.063,43.358,74.129,86.713,110.864,130.347c5.434,6.456,11.064,9.187,19.533,9.194
		c29.724,0.026,59.447,0.884,89.173,1.317C795.214,603.222,806.358,603.085,819.82,603.085z M659.361,602.861
		c-1.384-2.257-1.825-3.249-2.501-4.045c-55.5-65.333-110.978-130.683-166.584-195.927c-6.678-7.834-13.077-7.564-19.874,0.308
		c-9.988,11.573-19.788,23.31-29.674,34.973c-10.719,12.646-10.509,12.487-0.509,26.005c2.104,2.848,3.742,8.124,2.475,10.805
		c-1.294,2.734-6.32,4.78-9.909,5.134c-7.843,0.773-15.826,0.015-23.72,0.466c-2.357,0.135-5.676,1.678-6.58,3.536
		c-0.789,1.62,0.57,5.13,2.063,6.883c11.491,13.493,23.572,26.495,34.708,40.269c3.013,3.726,5.339,9.909,4.55,14.356
		c-1.159,6.521-8.108,5.962-13.627,5.903c-24.015-0.258-48.028-0.418-72.037-0.854c-5.534-0.1-7.874,1.639-7.687,7.469
		c0.341,10.638,0.078,21.293,0.089,31.94c0.012,11.375,0.024,11.415,11.207,11.42c78.085,0.027,156.169,0.01,234.253,0.108
		c5.695,0.009,11.384,1.126,17.081,1.192C628.028,602.979,642.976,602.861,659.361,602.861z M495.796,911.021
		c2.545,0.976,3.281,1.472,4.037,1.497c1.352,0.052,2.723-0.108,4.067-0.309c97.41-14.415,179.527-57.743,245.934-130.502
		c2.129-2.331,3.291-7.092,2.597-10.203c-5.066-22.618-19.435-37.069-41.578-42.844c-30.674-7.999-53.416,9.398-55.533,41.318
		c-0.341,5.125-1.122,10.395-2.774,15.23c-8.729,25.543-27.618,38.196-53.68,41.589c-38.909,5.061-69.297,23.823-90.012,57.286
		C503.669,892.46,500.169,901.879,495.796,911.021z M205.267,509.271c-14.79-17.885-28.487-34.482-42.232-51.044
		c-3.328-4.011-8.265-8.538-4.199-13.439c2.712-3.267,8.586-5.015,13.203-5.37c10.133-0.779,20.367-0.242,32.597-0.242
		c-3.887-4.776-6.198-7.744-8.639-10.597c-15.442-18.046-31.09-35.923-46.188-54.253c-2.337-2.838-4.05-8.601-2.704-11.4
		c1.41-2.928,6.724-5.041,10.571-5.502c7.118-0.854,14.413-0.243,24.155-0.243c-17.832-20.646-33.896-39.245-50.676-58.67
		c-16.781,19.654-32.574,38.148-48.367,56.646c0.383,0.664,0.766,1.328,1.149,1.992c6.462,0,13.026-0.689,19.353,0.237
		c4.354,0.637,10.657,2.573,11.93,5.65c1.347,3.251-1.141,9.432-3.859,12.793c-12.867,15.916-26.398,31.298-39.668,46.89
		c-4.302,5.057-8.526,10.18-13.784,16.467c12.753,0,23.686-0.5,34.529,0.261c3.99,0.28,9.444,2.624,11.133,5.718
		c1.413,2.589-0.684,8.395-2.979,11.463c-7.84,10.481-16.453,20.385-24.773,30.507c-5.77,7.018-11.543,14.032-18.209,22.138
		C107.497,509.271,155.474,509.271,205.267,509.271z M268.557,532.212c49.956,0,97.538,0,146.844,0
		c-3.255-4.088-5.509-7.028-7.874-9.873c-11.698-14.055-23.646-27.91-34.96-42.268c-2.342-2.972-4.37-8.887-2.948-11.446
		c1.758-3.158,7.093-5.183,11.209-5.961c5.273-0.997,10.874-0.271,16.333-0.277c5.538-0.006,11.08-0.001,18.29-0.001
		c-3.141-3.822-4.809-5.926-6.553-7.966c-15.957-18.674-32.118-37.181-47.706-56.159c-2.503-3.048-4.476-9.146-3.061-12.081
		c1.47-3.046,7.21-5.005,11.338-5.571c6.539-0.898,13.294-0.24,19.956-0.24c0.268-0.718,0.535-1.435,0.804-2.153
		c-15.773-18.468-31.548-36.934-48.104-56.315c-17.103,19.885-32.991,38.357-50.3,58.481c9.116,0,16.198-0.673,23.065,0.253
		c4.11,0.557,9.848,2.721,11.246,5.804c1.357,2.983-0.864,8.856-3.326,12.079c-7.11,9.309-15.172,17.89-22.791,26.813
		c-10.016,11.731-19.967,23.521-30.755,36.24c2.995,0.396,4.518,0.761,6.043,0.773c9.825,0.087,19.688-0.384,29.456,0.384
		c3.548,0.28,8.472,2.701,9.826,5.545c1.296,2.725-0.33,7.831-2.263,10.885c-3.324,5.256-7.915,9.706-11.92,14.538
		C290.187,506.02,280,518.369,268.557,532.212z M300.685,602.946c10.96,0,19.307,0.23,27.62-0.189
		c1.712-0.086,4.666-2.543,4.724-4.001c0.412-10.394,0.221-20.812,0.221-31.223c-0.666-0.168-1.33-0.336-1.994-0.504
		C321.65,578.315,312.043,589.601,300.685,602.946z"/>
	<path fill-rule="evenodd" clip-rule="evenodd" d="M112.336,82.231c7.999-25.441,23.235-44.29,47.075-55.45
		c45.11-21.123,98.033,0.781,115.572,47.915c2.17,5.834,4.581,7.702,10.997,7.357c30.17-1.617,55.347,21.603,56.507,51.409
		c1.215,31.159-21.881,56.72-52.774,56.922c-63.052,0.409-126.11,0.409-189.163-0.017c-30.401-0.204-54.006-25.765-53.131-56.021
		c0.865-29.918,26.482-53.621,56.737-52.492C106.594,81.945,109.032,82.078,112.336,82.231z M195.19,175.373
		c30.023,0,60.047,0,90.071,0c0.546,0,1.092,0.003,1.638-0.003c16.839-0.225,29.574-7.546,36.756-22.826
		c6.745-14.35,4.997-28.477-5.03-40.738c-10.689-13.073-24.788-17.032-41.192-12.925c-9.246,2.315-11.473,0.846-13.714-8.583
		c-7.973-33.553-35.384-55.896-68.576-55.9c-33.317-0.005-60.326,22.121-68.366,56.003c-2.18,9.174-4.628,9.985-13.914,8.743
		c-7.629-1.018-15.975-1.546-23.232,0.474c-18.082,5.031-28.85,23.377-26.262,42.051c2.641,19.062,18.604,33.397,38.479,33.6
		C132.958,175.581,164.075,175.351,195.19,175.373z"/>
	<path fill-rule="evenodd" clip-rule="evenodd" d="M873.288,303.796c-30.318,0.002-60.641,0.295-90.953-0.087
		c-26.921-0.337-49.859-21.046-52.917-46.917c-3.281-27.74,13.174-52.885,39.69-60.075c4.917-1.331,10.316-2.074,15.33-1.543
		c5.59,0.594,7.401-1.408,9.203-6.319c12.676-34.509,44.5-56.893,80.281-56.935c36.107-0.042,67.213,21.824,80.379,56.697
		c1.545,4.095,2.629,6.912,8.307,6.618c30.516-1.582,55.458,21.846,56.379,52.377c0.918,30.44-22.563,55.643-53.111,56.084
		C935.021,304.145,904.151,303.796,873.288,303.796z M873.982,288.594c30.292,0,60.587,0.293,90.873-0.117
		c16.49-0.222,28.7-8.481,35.392-23.535c6.428-14.459,4.518-28.589-5.811-40.604c-10.184-11.851-23.033-16.851-38.852-12.051
		c-8.158,2.477-10.764,0.418-12.967-8.674c-8.26-34.096-35.65-56.243-69.264-56.007c-33.166,0.234-59.719,22.434-67.768,56.663
		c-1.994,8.476-4.748,9.889-13.533,8.01c-4.715-1.009-9.787-2.091-14.428-1.377c-20.975,3.218-34.105,20.444-32.713,42.024
		c1.255,19.428,17.934,35.363,38.199,35.579C813.398,288.832,843.693,288.592,873.982,288.594z"/>
</g>
</svg>
