<?xml version="1.0" encoding="utf-8"?>
<!-- Generator: Adobe Illustrator 16.0.0, SVG Export Plug-In . SVG Version: 6.00 Build 0)  -->
<!DOCTYPE svg PUBLIC "-//W3C//DTD SVG 1.0//EN" "http://www.w3.org/TR/2001/REC-SVG-20010904/DTD/svg10.dtd">
<svg version="1.0" id="Layer_1" xmlns="http://www.w3.org/2000/svg" xmlns:xlink="http://www.w3.org/1999/xlink" x="0px" y="0px"
	 width="654.065px" height="1278.125px" viewBox="0 0 654.065 1278.125" enable-background="new 0 0 654.065 1278.125"
	 xml:space="preserve">
<g>
	<path fill="none" stroke="#000000" stroke-width="4" stroke-miterlimit="10" d="M635.221,1165.773l-12.46-74.549
		c-0.688-4.113-0.673-8.342-0.009-12.461c24.144-149.587,4.371-238.803-0.159-256.256c-0.594-2.29-0.921-4.632-1.002-6.998
		l-11.256-329.248c-1.155-33.847-21.771-63.975-52.9-77.316L428.252,353.58c-22.309-9.56-36.775-31.496-36.775-55.77v-4.116
		c0-24.477,8.922-48.407,26.025-65.916c51.615-52.836,40.083-153.774-21.544-194.024c-25.325-16.54-51.385-17.69-80.473-18.329
		c-50.856-1.116-87.759,31.755-104.606,74.035l0,0v0.003c-3.295,8.27-5.818,16.893-7.529,25.694
		c-6.72,19.526-18.301,46.924-36.186,70.396c-2.414,3.165-2.374,7.589,0.058,10.741c3.821,4.955,9.846,11.714,15.872,14.227
		c9.961,4.15-7.058,17.228-4.774,21.17c2.283,3.944,8.704,5.604,8.704,5.604s-10.987,4.981-7.874,10.378
		c3.114,5.396,9.839,4.473,7.874,13.075c-10.533,46.08,48.493,41.161,70.429,35.853c1.103-0.27,2.138,0.742,2.138,0.742
		c0,24.556-14.633,46.748-37.204,56.418L93.631,408.945c-31.129,13.342-51.745,43.47-52.899,77.316L29.475,815.509
		c-0.081,2.366-0.408,4.708-1.002,6.998c-4.534,17.453-24.303,106.669-0.156,256.256c0.662,4.119,0.676,8.348-0.012,12.461
		l-12.461,74.549c-1.836,10.994,0.682,22.248,7.061,31.387c16.18,23.182,47.43,65.781,56.529,62.746
		c12.453-4.152-24.906-73.889-19.926-89.664c1.992-6.297,4.508-11.271,6.816-14.981c1.862-2.978,6.468-1.628,6.468,1.887v29.979
		c0,9.341,3.36,18.512,9.897,25.186c1.148,1.167,2.295,2.141,3.386,2.763c5.812,3.322,10.792-38.189,11.622-84.682
		c0.831-46.492-23.246-36.529-9.132-68.078c13.789-30.82,38.669-167.033,24.322-237.543c-0.706-3.483-0.709-7.063-0.119-10.566
		l27.271-162.015c0,0,38.189,147.778,29.887,220.007c-8.302,72.229-53.963,317.972-42.34,378.576h165.212l7.575-59.106
		c10.22,2.782,18.502,3.69,25.16,3.528c6.658,0.162,14.94-0.746,25.159-3.528l7.575,59.106h165.212
		c11.624-60.604-34.038-306.348-42.341-378.576c-8.302-72.229,29.888-220.007,29.888-220.007l27.271,162.015
		c0.591,3.503,0.588,7.083-0.123,10.566c-14.344,70.51,10.54,206.723,24.326,237.543c14.113,31.549-9.963,21.586-9.133,68.078
		s5.812,88.004,11.624,84.682c1.089-0.622,2.236-1.596,3.385-2.763c6.538-6.674,9.898-15.845,9.898-25.186v-29.979
		c0-3.515,4.608-4.864,6.466-1.887c2.309,3.71,4.829,8.685,6.817,14.981c4.98,15.775-32.379,85.512-19.925,89.664
		c9.099,3.035,40.349-39.564,56.528-62.746C634.54,1188.021,637.061,1176.767,635.221,1165.773z"/>
	<path fill="none" stroke="#231F20" stroke-width="2" stroke-miterlimit="10" d="M412.912,137c-0.032-0.004-0.07-0.008-0.175-0.004
		c-1.676,0-16.649,0.348-20.438,12.509c-0.393,1.261-1.556,2.068-2.815,2.068c-0.287,0-0.584-0.038-0.875-0.13
		c-1.557-0.486-2.423-2.141-1.939-3.693c2.978-9.562,10.737-13.625,17.071-15.356c-4.787-2.733-8.146-5.272-8.494-5.538
		c-1.138-0.876-1.354-2.504-0.482-3.643c0.872-1.135,2.494-1.353,3.642-0.482c2.786,2.127,8.299,5.746,14.272,8.373
		c0.13,0,0.257,0,0.299,0c0.854,0.017,1.599,0.405,2.124,0.999c4.582,1.751,9.252,2.746,13.037,1.912
		c16.303-19.535-2.902-33.429-2.902-33.429c0.609-16.513-10.245-21.975-16.018-23.713c-1.794,2.666-4.171,5.124-6.632,7.266
		c0.091,0.297,0.169,0.603,0.161,0.927c-0.006,0.183-0.34,17.869,11.785,20.97c1.58,0.402,2.531,2.01,2.128,3.586
		c-0.341,1.33-1.54,2.219-2.854,2.219c-0.243,0-0.49-0.033-0.732-0.094c-12.816-3.279-15.524-16.758-16.082-23.289
		c-3.436,2.372-6.182,3.841-6.486,4.002c-0.327,0.169-0.675,0.254-1.019,0.254c-0.791,0-1.557-0.429-1.948-1.182
		c-0.564-1.072-0.15-2.398,0.923-2.963c3.928-2.07,12.577-7.619,16.899-13.809c-5.254-21.236-28.278-16.929-28.278-16.929
		c-8.24-12.067-18.748-10.987-24.184-9.337c-5.863,6.291-15.002,18.086-15.692,31.123c-0.085,1.572-1.386,2.792-2.941,2.792
		c-0.053,0-0.104-0.003-0.159-0.003c-1.625-0.088-2.873-1.476-2.789-3.1c0.269-5.061,1.615-9.873,3.492-14.322
		c-6.924,1.1-19.299,4.884-24.445,18.025c-0.457,1.16-1.566,1.871-2.746,1.871c-0.357,0-0.721-0.065-1.074-0.205
		c-1.515-0.593-2.264-2.303-1.67-3.819c7.445-19.001,27.03-21.761,33.063-22.16c2.818-4.91,6.101-9.135,8.961-12.384
		c-9.328-11.747-25.023-3.425-25.023-3.425c-13.283-12.039-32.793,4.566-32.793,4.566c-11.441-2.437-18.811,3.45-22.974,8.739
		c3.151,3.097,7.679,7.196,11.882,9.681c1.401,0.83,1.861,2.64,1.034,4.041c-0.552,0.928-1.534,1.446-2.538,1.446
		c-0.514,0-1.029-0.136-1.5-0.412c-4.346-2.571-8.833-6.512-12.154-9.716c-0.675,1.281-1.012,2.131-1.012,2.131
		c-15.353,7.187-16.049,16.688-14.046,23.266c1.327-0.455,3.017-0.785,5.017-0.553c4.104,0.469,7.972,3.03,11.504,7.622
		c0.992,1.288,0.75,3.14-0.542,4.132c-0.532,0.412-1.167,0.61-1.793,0.61c-0.885,0-1.758-0.396-2.338-1.149
		c-4.066-5.285-7.434-5.688-9.39-5.253c0.896,1.46,1.625,2.322,1.625,2.322c-17.154,12.728-2.211,32.099-2.211,32.099
		c-3.937,16.449,3.904,23.171,9.949,25.887c0.306-0.429,0.678-0.805,1.187-1.025c0.198-0.091,3.567-1.66,4.888-5.559
		c1.217-3.604,0.354-8.144-2.564-13.494c-0.779-1.43-0.254-3.221,1.18-3.999c1.424-0.781,3.217-0.253,3.996,1.178
		c1.572,2.883,2.633,5.627,3.232,8.233c6.691-3.411,20.895-8.781,37.014-3.561c1.55,0.503,2.398,2.166,1.896,3.713
		c-0.504,1.547-2.163,2.406-3.713,1.897c-16.274-5.263-30.66,2.03-34.721,4.413c-0.13,1.252-0.376,2.469-0.777,3.633
		c-1.175,3.38-3.289,5.634-5.07,7.047c8.867,14.526,22.244,7.615,22.244,7.615c8.978,17.48,28.429,7.945,33.936,4.776
		c-1.382-9.855-6.928-16.607-6.995-16.688c-1.041-1.248-0.886-3.103,0.36-4.15c1.241-1.042,3.096-0.896,4.144,0.348
		c0.363,0.427,7.91,9.54,8.634,22.801c6.78,1.981,15.826-3.215,15.826-3.215c1.9,2.28,3.991,3.568,5.924,4.295
		c0.367-0.798,1.042-1.447,1.966-1.664c0.11-0.025,11.007-2.648,14.341-9.759c1.553-3.308,1.197-7.276-1.061-11.787
		c-0.729-1.456-0.14-3.228,1.32-3.953c1.462-0.728,3.227-0.138,3.953,1.315c3.109,6.221,3.482,11.922,1.112,16.955
		c-2.88,6.11-9.182,9.618-13.596,11.409c4.312,6.304,19.335,27.279,29.211,28.338c1.741,0.185,3.579,0.019,5.44-0.403
		c13.012-2.938,20.332-16.799,16.621-29.543c-9.829-2.952-19.48-3.705-23.434,4.002c-0.812,1.585-0.938,3.528-0.312,4.838
		c0.408,0.856,1.105,1.375,2.127,1.589c1.596,0.331,2.618,1.895,2.287,3.49c-0.289,1.388-1.519,2.345-2.884,2.345
		c-0.197,0-0.402-0.021-0.603-0.063c-2.824-0.59-5.043-2.299-6.246-4.819c-1.421-2.973-1.274-6.833,0.382-10.065
		c6.778-13.212,23.383-9.49,33.816-5.89c12.407-8.568,9.761-24.328,9.061-27.532c-3.474-0.229-7.066-1.162-10.495-2.472
		C413.117,136.947,413.022,137,412.912,137z M328.574,113.376c-2.107,0.143-4.132,0.211-6.064,0.211
		c-10.935,0-19.143-2.189-25.379-5.253c-0.091-0.023-0.183-0.004-0.273-0.036c-0.597-0.183-13.814-4.178-22.928,11.896
		c-0.537,0.956-1.537,1.491-2.565,1.491c-0.492,0-0.991-0.123-1.449-0.383c-1.417-0.805-1.914-2.602-1.108-4.018
		c5.823-10.277,13.315-13.913,19.344-14.986c-7.533-6.855-9.389-14.321-9.421-14.464c-0.356-1.589,0.646-3.165,2.234-3.522
		c1.572-0.362,3.151,0.639,3.516,2.222c0.236,0.999,6.022,23.516,43.696,20.96c1.658-0.084,3.033,1.121,3.143,2.744
		C331.426,111.863,330.195,113.266,328.574,113.376z M373.565,120.404c-0.571,0.834-1.495,1.281-2.437,1.281
		c-0.573,0-1.154-0.165-1.663-0.513c-2.546-1.744-4.79-3.509-6.858-5.282c-3.393,0.119-14.973,0.992-21.262,7.417
		c-2.941,3.002-4.293,6.765-4.135,11.499c0.055,1.629-1.219,2.991-2.847,3.049c-0.036,0-0.069,0-0.102,0
		c-1.583,0-2.893-1.256-2.944-2.848c-0.215-6.354,1.748-11.682,5.834-15.845c5.627-5.737,14.064-7.885,19.912-8.691
		c-4.534-5.16-7.167-10.423-7.744-15.749c-0.977-8.943,4.192-14.573,4.413-14.807c1.116-1.188,2.981-1.246,4.168-0.134
		c1.181,1.109,1.245,2.965,0.146,4.151c-0.178,0.197-3.58,4.064-2.854,10.277c0.84,7.141,6.928,14.781,17.607,22.098
		C374.143,117.229,374.486,119.061,373.565,120.404z"/>
	<g>
		<g>
			<path fill="none" stroke="#231F20" stroke-width="3" stroke-miterlimit="10" d="M309.137,480.291l-16.368,6.039l7.695,28.533l0,0
				c16.825-9.201,37.179-9.201,54.006,0l0,0l7.692-28.533l-16.363-6.039C333.968,475.926,320.967,475.926,309.137,480.291z"/>
			<path fill="none" stroke="#231F20" stroke-width="3" stroke-miterlimit="10" d="M264.48,551.157
				c0.259,4.185,1.825,14.66,10.932,20.729c1.527,1.02,1.936,3.082,0.92,4.606c-0.639,0.959-1.691,1.479-2.766,1.479
				c-0.632,0-1.271-0.182-1.842-0.558c-9.969-6.648-12.833-17.007-13.634-23.208c-5.022,2.063-9.425,3.098-13.325,3.658
				c3.098,6.766,8.246,19.978,6.294,29.622c-2.604,12.881-19.633,32.768-20.358,33.611c-0.655,0.758-1.583,1.154-2.518,1.154
				c-0.765,0-1.537-0.267-2.166-0.806c-1.389-1.199-1.544-3.294-0.35-4.682c2.192-2.55,6.135-7.492,9.878-12.966
				c-5.604-1.998-16.449-4.781-22.556,0.876c-0.639,0.596-1.449,0.889-2.258,0.889c-0.892,0-1.779-0.358-2.435-1.058
				c-1.245-1.349-1.167-3.451,0.175-4.695c9.37-8.699,24.533-4.158,30.754-1.739c2.572-4.293,4.644-8.542,5.325-11.902
				c1.638-8.106-3.688-21.293-6.801-27.63c-0.272,0.02-0.559,0.039-0.824,0.056c-8.334,0.528-14.619,0.938-23.252,12.495
				c-0.013,0.022-0.01,0.045-0.021,0.068c-0.077,0.139-0.2,0.227-0.291,0.35c-5.227,7.111-11.318,18.307-19.231,36.046
				c-0.551,1.232-1.765,1.966-3.032,1.966c-0.451,0-0.91-0.092-1.352-0.285c-1.674-0.746-2.426-2.712-1.681-4.385
				c6.681-14.977,12.233-25.623,17.201-33.241c-3.671-0.298-9.787,0.429-17.858,5.806c-0.568,0.376-1.207,0.558-1.84,0.558
				c-1.072,0-2.127-0.52-2.766-1.479c-1.016-1.528-0.606-3.587,0.917-4.606c12.239-8.155,21.44-7.391,25.802-6.239
				c9.236-11.733,16.832-13.037,26.981-13.682c0.935-0.06,1.895-0.126,2.871-0.201c0.009,0,0.022-0.003,0.028-0.003
				c5.591-0.435,11.971-1.379,20.218-5.533c21.948-11.071,33.564-30.767,38.585-41.666c-0.785-3.243-1.657-6.46-2.614-9.658
				c-4.647,7.752-11.541,16.456-20.055,18.748c-4.997,1.347-10.108,1.031-15.521,0.708c-11.008-0.662-22.396-1.359-34.281,12.628
				c-0.658,0.771-1.594,1.171-2.533,1.171c-0.763,0-1.524-0.261-2.147-0.792c-1.4-1.188-1.569-3.282-0.383-4.68
				c14.036-16.516,28.286-15.66,39.749-14.956c4.856,0.295,9.436,0.573,13.392-0.494c7.789-2.095,14.808-12.787,18.955-20.907
				c-2.147-5.974-4.614-11.843-7.553-17.563c-8.198-15.956-19.974-27.638-36.552-25.845
				c-30.719,3.322-102.946,132.835-76.38,223.331c14.207,48.398,54.1,30.199,80.845,3.288c36.523-36.749,56.679-84.15,50.17-136.641
				c-0.753-6.059-1.693-12.074-2.835-18.037C294.03,526.33,282.751,541.344,264.48,551.157z"/>
			<path fill="none" stroke="#231F20" stroke-width="3" stroke-miterlimit="10" d="M389.988,551.157
				c-0.257,4.185-1.822,14.66-10.93,20.729c-1.527,1.02-1.939,3.082-0.921,4.606c0.639,0.959,1.693,1.479,2.767,1.479
				c0.633,0,1.271-0.182,1.838-0.558c9.973-6.648,12.833-17.007,13.638-23.208c5.021,2.063,9.421,3.098,13.325,3.658
				c-3.1,6.766-8.247,19.978-6.295,29.622c2.605,12.881,19.634,32.768,20.357,33.611c0.658,0.758,1.585,1.154,2.52,1.154
				c0.766,0,1.537-0.267,2.162-0.806c1.392-1.199,1.547-3.294,0.352-4.682c-2.193-2.55-6.137-7.492-9.875-12.966
				c5.604-1.998,16.447-4.781,22.552,0.876c0.639,0.596,1.449,0.889,2.26,0.889c0.889,0,1.776-0.358,2.433-1.058
				c1.249-1.349,1.171-3.451-0.175-4.695c-9.37-8.699-24.53-4.158-30.755-1.739c-2.57-4.293-4.641-8.542-5.32-11.902
				c-1.642-8.106,3.684-21.293,6.801-27.63c0.271,0.02,0.557,0.039,0.823,0.056c8.331,0.528,14.62,0.938,23.252,12.495
				c0.011,0.022,0.011,0.045,0.02,0.068c0.074,0.139,0.201,0.227,0.292,0.35c5.225,7.111,11.314,18.307,19.228,36.046
				c0.552,1.232,1.765,1.966,3.036,1.966c0.45,0,0.911-0.092,1.35-0.285c1.676-0.746,2.428-2.712,1.679-4.385
				c-6.68-14.977-12.229-25.623-17.2-33.241c3.674-0.298,9.79,0.429,17.862,5.806c0.564,0.376,1.206,0.558,1.838,0.558
				c1.074,0,2.124-0.52,2.767-1.479c1.015-1.528,0.604-3.587-0.921-4.606c-12.239-8.155-21.439-7.391-25.798-6.239
				c-9.239-11.733-16.831-13.037-26.985-13.682c-0.934-0.06-1.895-0.126-2.87-0.201c-0.01,0-0.02-0.003-0.029-0.003
				c-5.591-0.435-11.971-1.379-20.213-5.533c-21.949-11.071-33.566-30.767-38.589-41.666c0.787-3.243,1.657-6.46,2.616-9.658
				c4.647,7.752,11.543,16.456,20.052,18.748c5.002,1.347,10.112,1.031,15.521,0.708c11.011-0.662,22.397-1.359,34.286,12.628
				c0.658,0.771,1.593,1.171,2.533,1.171c0.758,0,1.523-0.261,2.147-0.792c1.396-1.188,1.568-3.282,0.382-4.68
				c-14.036-16.516-28.285-15.66-39.75-14.956c-4.854,0.295-9.437,0.573-13.39-0.494c-7.791-2.095-14.809-12.787-18.959-20.907
				c2.149-5.974,4.615-11.843,7.556-17.563c8.195-15.956,19.972-27.638,36.553-25.845c30.718,3.322,102.946,132.835,76.379,223.331
				c-14.211,48.398-54.103,30.199-80.845,3.288c-36.523-36.749-56.682-84.15-50.17-136.641c0.749-6.059,1.689-12.074,2.835-18.037
				C360.44,526.33,371.717,541.344,389.988,551.157z"/>
			
				<rect x="315.988" y="374.735" fill="none" stroke="#231F20" stroke-width="3" stroke-miterlimit="10" width="22.957" height="113.462"/>
			<g>
				
					<rect x="315.988" y="393.554" fill="none" stroke="#231F20" stroke-width="3" stroke-miterlimit="10" width="22.957" height="5.532"/>
				
					<rect x="315.988" y="380.38" fill="none" stroke="#231F20" stroke-width="3" stroke-miterlimit="10" width="22.957" height="5.532"/>
				
					<rect x="315.988" y="407.667" fill="none" stroke="#231F20" stroke-width="3" stroke-miterlimit="10" width="22.957" height="5.532"/>
				
					<rect x="315.988" y="421.502" fill="none" stroke="#231F20" stroke-width="3" stroke-miterlimit="10" width="22.957" height="5.535"/>
				
					<rect x="315.988" y="435.616" fill="none" stroke="#231F20" stroke-width="3" stroke-miterlimit="10" width="22.957" height="5.535"/>
				
					<rect x="315.988" y="449.73" fill="none" stroke="#231F20" stroke-width="3" stroke-miterlimit="10" width="22.957" height="5.534"/>
				
					<rect x="315.988" y="463.843" fill="none" stroke="#231F20" stroke-width="3" stroke-miterlimit="10" width="22.957" height="5.535"/>
			</g>
		</g>
		<g>
			<g>
				<path fill="none" stroke="#231F20" stroke-width="3" stroke-miterlimit="10" d="M328.296,571.053
					c7.076-0.833,14.921,0.043,23.084,3.935c3.149-19.135-6.113-33.335-10.718-39.005c-1.326-1.637-3.604-2.116-5.487-1.17
					l-0.545,0.272c-2.462,1.232-3.198,4.346-1.628,6.609c1.547,2.23,2.721,4.662,3.612,7.072c1.407,3.805-2.445,7.385-6.12,5.666
					c-0.524-0.246-1.067-0.493-1.621-0.752c-2.757-1.291-4.174-4.882-4.9-8.004c-0.626-2.692-3.492-4.188-6.051-3.152
					c-2.093,0.849-3.228,3.116-2.656,5.299l1.193,4.54c0.344,1.317,0.098,2.733-0.746,3.801c-3.633,4.596,0.305,16.42-4.511,14.503
					c-3.665-1.453-4.333-9.288-4.394-14.036c-0.027-2.14-1.519-3.975-4.214-4.505l-3.911-0.762
					c-2.468-0.486-4.895,1.148-5.292,3.633c-2.578,16.118,3.577,31.379,5.429,35.498c0.107,0.233,0.279,0.408,0.477,0.551
					C304.92,580.52,315.188,572.601,328.296,571.053z"/>
				<path fill="none" stroke="#231F20" stroke-width="3" stroke-miterlimit="10" d="M358.353,580.857
					c-1.596-0.992-3.175-1.813-4.748-2.563c-3.654-1.744-7.238-2.853-10.725-3.506c5.824,4.537,10.481,11.686,13.37,20.889
					c0.004,0.014,0.014,0.033,0.017,0.046c0.224,0.727,0.454,1.439,0.658,2.186c2.634,9.639,5.341,20.963,5.455,31.905l-0.004,0.467
					c-0.013,1.557-1.286,2.827-2.844,2.814c-0.178-0.006-0.354-0.02-0.521-0.052c-1.304-0.259-2.28-1.394-2.264-2.769v-0.396
					c-0.077-7.427-1.463-15.151-3.175-22.363c-1.583,5.059-3.665,10.455-6.412,16.598c-2.053,4.592-3.775,9.022-2.286,12.647
					c1.534,3.749,4.476,7.024,8.74,9.723c1.313,0.837,1.702,2.575,0.872,3.885c-0.639,1.012-1.816,1.473-2.922,1.259
					c-0.334-0.064-0.661-0.188-0.967-0.383c-5.27-3.34-8.947-7.498-10.938-12.35c-2.523-6.155,0.415-12.731,2.358-17.077
					c4.432-9.911,7.086-17.759,8.584-25.349c-2.656-7.925-9.016-20.852-22.42-21.569c-0.094-0.002-0.172-0.055-0.262-0.067
					c-1.726,0.324-3.393,0.753-5.004,1.291c0.009,0.113,0.061,0.211,0.056,0.323c0,0.202-0.076,12.065,11.226,25.043
					c1.022,1.169,0.899,2.951-0.274,3.97c-0.682,0.597-1.567,0.805-2.39,0.642c-0.594-0.116-1.155-0.421-1.584-0.913
					c-10.075-11.572-12.105-22.346-12.505-26.774c-3.81,2.003-7.16,4.644-10.021,7.73c0.084,7.168,2.201,27.624,22.754,38.462
					c1.375,0.727,1.899,2.433,1.173,3.808c-0.591,1.129-1.843,1.687-3.029,1.453c-0.263-0.052-0.524-0.143-0.771-0.272
					c-2.773-1.459-5.235-3.094-7.447-4.833c1.557,8.725,5.026,20.568,11.643,24.868c1.305,0.85,1.674,2.594,0.823,3.898
					c-0.642,0.993-1.806,1.445-2.898,1.231c-0.344-0.07-0.682-0.2-0.995-0.401c-12-7.809-14.669-31.082-15.1-35.895
					c-7.3-8.613-10.103-18.478-11.153-25.593c-0.298,0.499-0.632,0.966-0.904,1.479c-5.665,10.598-6.626,23.836-1.028,35.894
					c12.729,27.397,45.014,46.835,58.881,38.332C379.477,656.251,389.916,600.419,358.353,580.857z"/>
			</g>
		</g>
	</g>
	<g>
		<path fill="none" stroke="#231F20" stroke-width="3" stroke-miterlimit="10" d="M387.525,771.91v-15.055h-16.824
			c-2.918,0-5.286,2.368-5.286,5.287v15.021c0,3.671-2.419,6.868-5.938,7.906c-3.745,1.104-8.646,2.99-12.8,6.084
			c-6.221,4.632-10.777,11.946-7.32,23.35c0.999,3.302,2.173,6.355,3.389,9.249c6.551,15.566,14.588,25.833,6.444,37.801
			c-4.245,6.232-11.292,10.06-18.813,10.682c-6.116,0.507-13.978,2.265-16.293,7.811h-19.384c-10.698,0-21.108,4.689-27.4,13.341
			c-6.151,8.465-8.292,19.063-5.869,29.304l7.936,33.572l26.486,3.509l-9.911-42.872c-0.753-3.191-0.02-6.499,2.018-9.075
			c2.036-2.567,5.084-5.668,8.36-5.668h18.16c0,0,31.587,35.142,82.126,16.585c50.539-18.558,61.99-62.383,64.358-75.018
			c2.295-12.239,1.997-60.754-66.505-64.529C390.585,778.98,387.525,775.794,387.525,771.91z"/>
		<g>
			<path fill="none" stroke="#231F20" stroke-width="3" stroke-miterlimit="10" d="M242.524,834.208c0,0-34.636,32.101-45.655,21.08
				c-11.02-11.02,4.722-43.294,0-60.605c0,0-17.317-84.222,61.396-83.437c78.711,0.785,117.277-27.553,141.678-7.874
				c20.697,16.688-7.173,39.014-16.117,45.409c-1.629,1.167-3.568,1.776-5.568,1.776H366.55c-4.104,0-7.433,3.327-7.433,7.434
				v13.068c0,3.425-2.523,6.298-5.921,6.733c-7.473,0.96-20.882,4.241-33.537,15.313
				C300.77,809.633,297.619,844.612,242.524,834.208z"/>
		</g>
	</g>
	<g>
		<path fill="none" stroke="#231F20" stroke-width="3" stroke-miterlimit="10" d="M439.012,994.426
			c0.13-0.228,0.26-0.454,0.383-0.675c10.823-19.639-8.11-42.957-29.122-35.79c-11.435,3.897-16.072,13.193-16.072,13.193
			c-16.153-14.283-38.56,2.113-38.56,2.113c-13.549-12.167-31.788,0.532-31.788,0.532c-10.419-14.814-27.617,0-27.617,0
			c-8.856-13.757-23.966-4.761-23.966-4.761c-34.914-28.571-53.672,10.579-53.672,10.579
			c-35.955,15.864-10.942,47.074-10.942,47.074c-14.068,20.633,7.815,34.916,7.815,34.916
			c-3.647,23.277,23.971,29.627,23.971,29.627c-2.086,8.465,6.252,17.986,6.252,17.986c10.718,6.719,14.564-3.982,15.936-13.484
			c-2.315-6.447,0.736-11.908,0.736-11.908c15.635-15.872,0.525-38.617,0.525-38.617c2.547-14.783-3.801-25.932-7.861-31.321
			c-1.024-1.077-1.751-2.323,0,0c17.678,18.575,34.389-3.309,34.389-3.309c13.122,18.453,36.115,4.566,36.115,4.566
			c13.831,13.114,36.883-1.68,36.883-1.68c23.969,16.403,40.642-9.521,40.642-9.521c-10.942,16.929,3.647,38.618,3.647,38.618
			c-7.815,5.291-3.647,19.574-3.647,19.574c-17.194-2.114-21.884,14.814-21.884,14.814c-18.239-12.701-32.308,10.047-32.308,10.047
			c-47.417,1.588-30.403,39.26-30.403,39.26c-1.465,2.516-6.531,6.869-7.291,9.061c-7.081,20.425,13.725,27.325,13.725,27.325
			s-4.689,19.044,10.942,22.747s15.112-23.804,15.112-23.804c18.758-12.693,7.294-32.269,7.294-32.269
			c23.969,1.59,35.955-13.225,35.955-13.225c40.122,3.704,39.604-31.211,39.604-31.211c32.824-15.871,14.586-47.081,14.586-47.081
			C468.192,1013.469,439.012,994.426,439.012,994.426z"/>
		<path fill="none" stroke="#231F20" stroke-width="3" stroke-miterlimit="10" d="M399.432,1039.873
			c-2.03-3.858-4.722-10.137-5.475-17.174c-12.388,5.636-14.24,16.532-14.311,16.993c-0.237,1.499-1.528,2.567-2.994,2.567
			c-0.152,0-0.305-0.006-0.46-0.031c-1.647-0.253-2.786-1.783-2.543-3.432c0.071-0.492,1.638-10.176,10.99-17.492
			c-2.442,0.771-5.065,1.277-7.902,1.277l0,0c-4.301,0-8.614-1.082-12.882-3.23c-1.148-0.576-2.5-0.453-3.45,0.416
			c-2.585,2.354-6.632,5.279-11.932,7.012c1.396-0.059,2.714,0.805,3.078,2.225c0.217,0.823,5.399,19.152,34.908,21.228
			c1.666,0.118,2.925,1.57,2.808,3.237c-0.113,1.596-1.443,2.814-3.02,2.814c-0.07,0-0.143,0-0.217-0.006
			c-11.013-0.771-19.063-3.646-24.969-7.2c0.552,3.126,0.666,6.694-0.488,10.015c-1.298,3.723-3.908,6.512-7.755,8.283
			c-0.408,0.188-0.839,0.279-1.265,0.279c-1.145,0-2.244-0.655-2.753-1.765c-0.7-1.524-0.032-3.321,1.485-4.021
			c2.324-1.069,3.816-2.633,4.563-4.774c1.689-4.851-0.84-11.629-1.955-13.834c-0.169-0.33-0.247-0.682-0.286-1.025
			c-5.325-5.811-6.819-11.291-6.937-11.752c-0.324-1.305,0.27-2.582,1.342-3.262c-2.334,0.635-4.873,1.043-7.649,1.043l0,0
			c-5.11,0-10.339-1.33-15.576-3.949c-0.693-0.344-1.479-0.441-2.219-0.215c-2.954,0.921-8.169,2.232-13.815,2.232
			c-6.46,0-11.855-1.752-15.89-5.111c-1.013-0.838-2.452-0.83-3.542-0.104c-3.38,2.257-8.441,4.716-14.463,4.722
			c-1.031,0-2.057-0.07-3.068-0.213c-1.207-0.169-2.271,0.389-2.884,1.271c5.653,0.688,17.152,3.916,28.29,18.179
			c1.027,1.324,0.794,3.224-0.526,4.255c-0.552,0.435-1.212,0.643-1.861,0.643c-0.901,0-1.793-0.402-2.394-1.167
			c-9.326-11.948-18.572-15.002-23.32-15.774c0.408,3.081,0.499,6.401,0.075,9.949c-0.081,0.656,0.045,1.311,0.376,1.874
			c4.352,7.46,8.619,20.679,2.866,32.073c6.351-3.125,15.755-5.467,27.403-1.536c1.59,0.532,2.439,2.251,1.9,3.833
			c-0.531,1.59-2.256,2.439-3.84,1.908c-2.95-1-5.713-1.48-8.298-1.642c1.002,0.7,1.981,1.479,2.844,2.425
			c2.581,2.835,3.749,6.39,3.38,10.268c-0.15,1.57-1.466,2.744-3.013,2.744c-0.095,0-0.192,0-0.289-0.014
			c-1.667-0.154-2.89-1.635-2.73-3.301c0.722-7.602-9.328-9.716-9.97-9.846c-0.604-0.078-1.115-0.363-1.557-0.746
			c-5.328,1.881-8.789,4.818-9.979,5.935c-0.077,1.407-0.197,2.977-0.397,4.644c-0.071,0.61,0.003,1.24,0.291,1.777
			c1.337,2.491,3.674,4.754,6.973,6.732l0.584,0.351l0.376,0.564c0.032,0.052,3.45,5.065,9.723,5.065
			c2.771,0,5.759-0.986,8.889-2.926l7.443-4.611l-3.003,8.238c-0.023,0.064-2.297,6.46,0.756,12.187
			c1.576,2.965,4.326,5.312,8.205,7.024c1.462,0.648,3.188,0.053,3.927-1.369c0.006-0.006,0.013-0.019,0.019-0.032
			c0.331-0.636,0.454-1.361,0.293-2.063c-0.953-4.086-2.265-12.745,0.882-21.145c-0.678-0.642-1.09-1.544-0.967-2.536
			c0.384-3.112-0.094-5.447-1.407-6.934c-1.738-1.959-4.586-2.049-4.611-2.049c-1.674,0-3.032-1.355-3.032-3.029
			s1.358-3.029,3.032-3.029c0.564,0,5.63,0.111,9.148,4.094c1.326,1.498,2.195,3.314,2.659,5.402
			c4.712-5.455,11.721-9.021,20.915-10.689c-11.128-11.324-22.436-7.057-22.572-6.998c-1.55,0.623-3.317-0.136-3.937-1.693
			c-0.624-1.557,0.132-3.32,1.687-3.937c0.188-0.071,17.457-6.675,32.096,11.682c0.83-0.071,1.602-0.448,2.117-1.108
			c3.26-4.171,10.942-12.299,21.275-12.299c2.383,0,4.753,0.436,7.085,1.304c1.329,0.493,2.802-0.052,3.555-1.251
			c2.812-4.495,7.656-9.172,14.931-10.391c1.537-0.26,2.581-1.654,2.494-3.211c-0.214-3.75,0.2-8.309,2.63-11.863
			C399.928,1041.968,399.932,1040.821,399.432,1039.873z M304.668,1067.4c-0.014,0-0.033,0-0.047,0
			c-13.444-0.213-22.853-3.521-27.963-9.832c-5.102-6.305-3.814-13.193-3.756-13.484c0.32-1.642,1.912-2.712,3.561-2.387
			c1.631,0.316,2.697,1.9,2.39,3.533c-0.038,0.24-0.739,4.574,2.595,8.614c3.898,4.729,11.944,7.315,23.266,7.491
			c1.674,0.025,3.009,1.408,2.983,3.081C307.67,1066.07,306.321,1067.4,304.668,1067.4z M320.746,1050.543
			c3.389,1.511,7.407,2.613,12.109,3.243c1.657,0.227,2.822,1.75,2.598,3.411c-0.204,1.519-1.509,2.627-3,2.627
			c-0.136,0-0.272-0.013-0.408-0.026c-12.025-1.621-20.606-5.98-25.51-12.945c-5.914-8.412-4.072-17.441-3.995-17.817
			c0.356-1.641,1.972-2.698,3.599-2.335c1.636,0.351,2.673,1.951,2.336,3.587c-0.029,0.136-1.32,6.979,3.074,13.153
			c0.477,0.668,1.006,1.305,1.579,1.914c3.888-0.24,20.763-1.778,21.446-10.307c0.134-1.674,1.573-2.906,3.266-2.783
			c1.668,0.137,2.912,1.596,2.776,3.27C339.831,1045.328,328.782,1049.091,320.746,1050.543z"/>
	</g>
</g>
</svg>
