<?xml version="1.0" encoding="utf-8"?>
<!-- Generator: Adobe Illustrator 16.0.0, SVG Export Plug-In . SVG Version: 6.00 Build 0)  -->
<!DOCTYPE svg PUBLIC "-//W3C//DTD SVG 1.0//EN" "http://www.w3.org/TR/2001/REC-SVG-20010904/DTD/svg10.dtd">
<svg version="1.0" id="Layer_1" xmlns="http://www.w3.org/2000/svg" xmlns:xlink="http://www.w3.org/1999/xlink" x="0px" y="0px"
	 width="1811.638px" height="2705.459px" viewBox="0 0 1811.638 2705.459" enable-background="new 0 0 1811.638 2705.459"
	 xml:space="preserve">
<g>
	<path fill-rule="evenodd" clip-rule="evenodd" d="M41.544,2568.243c1.643-21.521,3.693-43.02,4.837-64.566
		c2.302-43.382,16.685-59.085,59.08-58.514c231.665,3.131,463.317,7.076,694.978,10.316c59.666,0.834,119.351,0.123,180.982,0.123
		c0-42.935,0-87.516,0-134.052c-35.688,10.209-70.304,21.283-105.576,29.546c-11.641,2.725-27.032,1.959-37.212-3.605
		c-74.909-40.965-149.155-83.167-222.894-126.208c-7.55-4.407-10.382-16.896-15.832-26.38c-7.301-2.27-19.271-3.902-29.076-9.401
		c-41.971-23.532-82.676-49.386-125.182-71.86c-16.399-8.67-36.122-13.581-54.739-15.07c-61.151-4.881-122.491-7.381-183.751-10.883
		c-4.637-0.266-9.286-0.942-13.84-1.871c-49.869-10.194-63.164-33.836-43.715-81.722c2.907-7.157,15.021-14.173,23.436-14.911
		c49.454-4.342,99.158-10.282,148.622-9.113c82.995,1.963,165.973,7.635,248.761,14.2c39.342,3.119,45.896,10.731,42.828,49.365
		c-2.312,29.095,17.116,43.698,31.426,62.171c1.762,2.271,15.195,0.243,17.527-3.419c19.126-30.039,36.902-60.935,55.005-91.433
		c-75.741-58.475-77.661-161.934,7.087-219.801c-29.444-8.474-59.529-16.943-89.46-25.931c-5.042-1.516-9.626-4.951-14.071-8.01
		c-45.105-31.033-90.086-62.255-135.214-93.257c-30.88-21.215-30.896-40.82-1.307-61.063
		c-11.904-13.791-27.453-26.209-34.377-42.329c-3.156-7.346,10.728-22.011,17.171-33.891c-1.719-10.523-3.796-23.26-6.507-39.876
		c-6.313-3.857-17.1-9.961-27.302-16.92c-4.232-2.886-10.894-8.535-10.186-11.343c5.889-23.317-14.352-27.592-26.343-37.188
		c-38.673-30.944-78.268-60.76-116.387-92.358c-5.224-4.327-7.966-17.869-5.284-24.471c14.158-34.824,30.116-68.935,46.074-103
		c9.109-19.438,25.989-26.701,46.293-23.376c23.615,3.868,48.699,5.785,70.014,15.45c89.649,40.651,178.135,83.87,267.031,126.174
		c6.213,2.955,12.332,6.102,18.831,9.325c12.268-20.036,24.278-38.895,35.481-58.22c7.314-12.621,15.855-22.987,12.458-41.672
		c-2.242-12.322,13.68-27.946,22.957-44.792c0-9.623,0-24.335,0-40.842c-21.638-10.604-44.226-11.229-68.034,5.45
		c-22.797,15.969-47.848,28.838-72.483,41.997c-7.054,3.767-16.268,5.814-24.208,5.17c-25.17-2.048-63.429-40.355-67.341-65.343
		c-1.556-9.945-4.8-19.644-6.101-29.607c-2.859-21.912,2.402-38.261,25.409-48.762c27.432-12.519,52.718-29.678,79.279-44.195
		c5.413-2.96,12.365-3.106,18.606-4.549c-3.362-4.346-6.724-8.691-10.084-13.037c-30.062,5.133-60.129,10.232-90.181,15.422
		c-8.409,1.453-16.787,3.106-25.154,4.783c-42.06,8.43-42.464,8.175-49.778-32.844c-12.83-71.951-12.819-71.886,59.02-84.889
		c26.518-4.803,52.964-10.005,79.93-15.116c0-9.439,0.633-17.19-0.128-24.802c-1.774-17.72,8.897-22.338,22.525-31.379
		c29.737-19.733,62.633-21.923,95.141-26.588c12.204-1.752,28.599,1.92,38.021,9.453c20.437,16.333,37.759,36.605,56.054,55.558
		c7.951,8.235,15.158,17.188,23.932,27.216c36.07-61.776,71.24-121.137,105.56-180.986
		c54.832-95.622,109.509-191.338,163.321-287.535c13.871-24.794,35.279-23.566,56.471-19.045
		c15.805,3.371,23.455,0.139,31.408-13.726c53.314-92.945,107.584-185.341,161.301-278.058c5.004-8.637,11.689-18.224,11.775-27.424
		c0.259-27.247,13.5-42.994,37.939-51.439c14.001,0,28.002,0,42.004,0c3.43,1.529,6.723,3.599,10.311,4.505
		c47.977,12.124,85.905,39.065,113.9,79.358c18.246,26.258,12.414,52.045-13.219,70.867c-6.037,4.435-12.402,9.634-16.025,15.966
		c-56.211,98.271-112.024,196.772-167.801,295.293c-2.576,4.551-7.014,12.519-5.438,14.273
		c18.546,20.656,22.826,52.85,53.254,64.014c50.653,18.584,83.125,54.115,90.816,108.113c3.389,23.801,0.572,48.485,0.572,70.9
		c8.578,9.08,19.24,17.747,26.383,28.706c6.369,9.776,8.305,22.331,13.136,33.243c20.021,45.219,43.354,89.222,59.983,135.639
		c28.457,79.446,55.189,159.747,60.911,245.087c1.38,20.556,4.343,41.007,6.575,61.505c0,43.562,0,87.12,0,130.683
		c-3.734,28.272-6.766,56.657-11.322,84.797c-23.836,147.292-75.109,284.316-153.377,411.475
		c-20.979,34.083-38.494,70.288-58.268,105.142c-3.154,5.561-12.027,13.945-14.528,12.81c-14.849-6.734-18.71,5.503-25.715,12.529
		c-39.448,39.559-78.282,79.765-118.761,118.241c-10.249,9.742-10.517,16.453-5.15,27.589
		c12.787,26.538,24.753,53.469,36.971,80.278c23.477,51.508,46.382,103.284,70.613,154.435c9.119,19.25,17.404,41.39,43.722,43.604
		c20.037,1.688,34.131,9.474,36.521,31.788c37.789,0,74.293-0.128,110.794,0.042c29.251,0.136,46.296,16.729,46.489,45.832
		c0.273,40.427-0.91,80.879,0.267,121.27c0.521,17.777-7.12,25.73-22.928,28.735c-8.379,1.591-16.771,3.851-25.223,4.21
		c-79.2,3.349-158.425,9.241-237.616,8.884c-198.937-0.897-397.876-3.751-596.781-7.532
		c-214.473-4.074-428.923-9.584-643.348-15.744c-37.607-1.082-75.037-8.447-112.549-12.91
		C41.544,2618.026,41.544,2593.136,41.544,2568.243z M1423.249,1350.533c6.02,2.921,12.041,5.846,18.061,8.767
		c77.221,52.201,96.767,125.905,74.231,211.804c-20.973,79.943-57.089,154.173-98.989,225.174
		c-30.1,51.003-74.215,85.746-133.285,97.259c-22.98,4.479-47.025,3.486-67.668,4.801c34.12,74.111,68.495,148.777,106.311,230.914
		c48.179-51.509,92.617-98.925,136.844-146.541c2.479-2.67,3.893-6.834,4.623-10.538c5.51-27.853,24.508-45.817,44.818-63.259
		c9.199-7.9,18.533-16.571,24.896-26.716c121.406-193.616,179.539-403.147,166.154-633.036
		c-7.859-135.021-47.46-260.314-99.937-382.644c-12.967-30.232-26.69-63.329-62.897-75.689
		c-31.408,43.208-69.146,73.766-125.457,73.993c-6.063,0.025-14.273,7.816-17.794,14.08
		c-31.938,56.812-63.144,114.029-94.381,171.229c-39.718,72.725-79.267,145.544-119.63,219.682
		c40.464,23.172,79.35,45.634,118.508,67.601c4.402,2.472,10.612,3.74,15.543,2.918
		C1350.854,1334.045,1387.32,1339.019,1423.249,1350.533z M61.155,2629.411c48.949,2.829,94.599,6.713,140.318,7.899
		c217.585,5.656,435.168,12.063,652.795,15.342c212.101,3.194,424.254,3.485,636.389,3.763c49.653,0.063,99.301-5.323,148.979-7.66
		c15.939-0.75,21.04-7.843,20.618-23.552c-0.88-32.626,0.021-65.3,0.248-97.957c0.216-30.824-7.037-37.563-38.482-38.029
		c-232.399-3.456-464.802-7.033-697.199-10.707c-274.362-4.335-548.726-8.624-823.078-13.563
		c-21.556-0.388-32.256,7.32-33.413,28.354C65.899,2537.399,63.668,2581.508,61.155,2629.411z M1108.96,1777.367
		c5.927,8.145,11.307,14.783,15.884,21.937c48.687,76.063,173.962,79.03,229.705-0.2c49.376-70.183,85.274-147.912,107.224-230.98
		c21.025-79.583-26.547-149.628-105.719-159.665c-5.394-0.684-13.242,2.281-16.906,6.313c-20.082,22.112-32.975,26.84-58.586,11.346
		c-51.512-31.167-111.657-47.979-153.726-95.361c-13.364-15.053-33.696-24.16-51.44-35.009c-17.862-10.916-30.63-24.293-26.864-46.9
		c4.434-26.619,9.659-53.106,14.744-80.743c-4.854-1.398-13.508-3.893-21.507-6.198c-6.523,11.479-13.926,20.886-17.596,31.574
		c-17.635,51.382-69.982,75.143-94.815,120.606c-0.367,0.667-0.998,1.188-1.468,1.805c-22.88,30.195-45.756,60.394-69.58,91.844
		c10.801,6.787,16.734,10.224,22.366,14.099c70.89,48.792,142.871,96.119,211.934,147.378c22.189,16.47,37.745,42.595,53.982,65.938
		c5.194,7.471,5.556,20.812,3.413,30.417c-7.225,32.397-36.574,57.293-32.142,94.249
		C1118.468,1764.845,1112.533,1770.661,1108.96,1777.367z M1101.236,1115.989c56.305-96.206,114.634-196.745,174.106-296.604
		c9.582-16.091,12.569-29.062,4.176-46.719c-6.441-13.542-9.779-29.724-10.076-44.819c-1.49-75.853,40.098-130.958,125.879-165.688
		c-25.83-20.348-49.502-40.145-74.359-58.32c-41.164-30.092-85.99-53.257-137.065-60.21c-9.445-1.286-25.241,5.364-29.882,13.215
		c-85.333,144.293-169.305,289.389-253.978,434.074c-6.063,10.359-5.046,16.927,1.854,26.569
		c24.371,34.061,47.203,69.218,71.079,103.638c4.246,6.122,10.114,11.524,16.216,15.882
		C1026.155,1063.399,1063.409,1089.392,1101.236,1115.989z M1407.106,2367.15c-16.557,31.397-35.07,42.546-56.697,35.535
		c-20.538-6.655-35.396-27.605-28.767-46.78c4.122-11.926,14.081-24.838,24.968-30.563c10.585-5.565,25.696-2.525,39.889-3.325
		c-58.434-128.404-116.07-257.11-175.668-384.901c-21.018-45.067-74.889-66.369-124.583-54.279
		c-37.913,9.224-83.477,50.473-82.727,105.298c1.576,115.001-0.19,230.048-0.51,345.075c-0.116,41.081-0.019,82.162-0.019,125.405
		c165.963,3.587,330.612,7.144,495.261,10.701c1.369-2.2,2.739-4.399,4.108-6.6
		C1440.478,2460.007,1427.655,2411.411,1407.106,2367.15z M1394.868,490.08c54.686-96.051,111.207-195.04,167.123-294.368
		c2.946-5.235,3.773-16.395,0.483-19.679c-34.579-34.507-74.007-61.745-123.003-71.022c-6.812-1.29-18.934,3.863-22.396,9.708
		c-57.669,97.343-114.351,195.271-170.026,290.965C1296.224,433.761,1344.3,461.208,1394.868,490.08z M1050.073,1769.364
		c-95.514,171.15-190.525,341.409-285.936,512.379c29.03,16.8,55.548,32.875,82.876,47.429c6.518,3.47,16.281,4.045,23.621,2.216
		c30.033-7.484,59.538-17.104,89.585-24.529c15.791-3.902,22.177-10.512,22.143-28.135c-0.191-99.436,1.45-198.873,1.747-298.311
		c0.084-27.907,9.658-51.087,27.243-72.218c28.388-34.112,65.425-49.395,107.544-50.317
		C1096.061,1828.508,1073.882,1799.983,1050.073,1769.364z M1296.758,703.877c-0.389,68.078,54.19,123.327,121.896,123.392
		c66.46,0.063,121.266-54.712,121.573-121.507c0.317-68.513-53.937-123.239-122.028-123.094
		C1350.997,582.806,1297.142,636.558,1296.758,703.877z M1313.421,830.891c-75.983,133.167-151.982,266.363-229.03,401.395
		c23.97,13.639,46.505,26.465,69.963,39.814c75.313-137.758,149.599-273.632,223.866-409.472
		C1356.462,851.974,1336.47,842.181,1313.421,830.891z M314.704,1310.715c196.117,65.411,370.84,172.425,538.527,280.286
		c19.779-12.449,34.838-21.928,50.148-31.564c-0.556-0.396-3.389-2.751-6.529-4.571c-105.273-61.032-209.279-124.415-316.35-182.115
		c-65.86-35.491-135.656-64.153-205.179-92.175C341.753,1267.046,329.778,1276.205,314.704,1310.715z M689.326,1903.01
		c-0.29,52.393,43.187,95.201,97.075,95.588c53.162,0.382,98.853-42.8,99.49-94.029c0.634-51.002-44.493-95.052-97.961-95.623
		C734.218,1808.376,689.612,1850.926,689.326,1903.01z M685.527,1515.934c-15.263,13.246-10.522,20.802,2.354,29.867
		c61.495,43.295,122.653,87.079,183.296,131.559c9.555,7.011,16.309,18.131,23.543,27.952c9.471,12.857,17.195,27.086,27.357,39.326
		c16.442,19.811,25.504,42.771,18.623,66.817c-6.1,21.303-0.902,31.741,18.258,38.741c5.592,2.044,10.625,5.627,17.206,9.209
		c22.897-40.822,45.047-80.313,68.125-121.459c-25.331-18.084-49.119-35.38-73.334-52.056c-4.001-2.753-10.063-4.445-14.83-3.854
		c-52.232,6.465-86.562-14.308-102.729-62.527c-1.109-3.304-3.308-7.16-6.137-8.829
		C793.316,1578.846,739.201,1547.304,685.527,1515.934z M745.457,2271.188c73.698-132.271,146.374-262.707,219.708-394.329
		c-14.146-7.74-26.003-14.228-43.073-23.569c-3.696,19.003-8.421,33.433-8.979,48.026c-1.581,41.252-14.873,78.108-49.63,100.321
		c-25.982,16.602-40.205,39.273-53.885,64.391c-22.277,40.903-45.122,81.5-67.618,122.286
		c-11.068,20.067-21.885,40.271-33.124,60.979C721.313,2256.743,731.919,2263.088,745.457,2271.188z M608.04,1061.343
		c34.066,26.308,52.305,58.229,57.846,99.294c32.532-18.626,62.732-35.686,92.703-53.134c33.016-19.219,38.035-33.77,19.405-67.285
		c-8.05-14.485-20.2-27.504-33.007-38.163c-5.695-4.739-19.484-5.61-26.402-2.041
		C682.272,1018.746,646.983,1039.464,608.04,1061.343z M734.481,2021.509c-35.631,60.437-71.295,120.932-107.939,183.086
		c21.289,11.771,40.678,22.489,61.277,33.876c39.044-70.019,77.28-138.59,115.58-207.275
		C779.382,2027.821,758.151,2024.835,734.481,2021.509z M1124.024,1687.966c-3.283-8.611-4.188-18.534-9.611-23.837
		c-17.722-17.325-36.014-34.439-55.995-49.017c-142.032-103.615-292.62-193.623-448.409-274.581
		c-76.257-39.628-155.719-73.13-234.039-108.712c-14.463-6.571-30.019-14.148-50.252-6.078
		c20.186,7.855,36.934,13.867,53.283,20.815c206.402,87.701,399.575,199.693,586.47,322.674
		C1019.016,1604.465,1068.394,1646.031,1124.024,1687.966z M754.531,1317.462c35.013,19.886,68.824,39.091,103.497,58.781
		c10.121-16.642,20.044-35.148,32.128-52.117c9.079-12.751,6.425-21.452-5.376-28.603c-21.818-13.225-44.187-25.54-66.062-38.671
		c-16.224-9.74-26.307-5.279-34.676,11.184C775.35,1285.143,764.418,1301.11,754.531,1317.462z M426.794,2066.128
		c53.617,35.094,105.665,69.832,158.766,102.878c5.301,3.297,18.382-1.703,25.292-6.522c5.562-3.881,7.116-13.385,10.686-20.27
		c10.825-20.881,5.239-36.568-16.235-45.139C548.554,2074.422,490.367,2059.694,426.794,2066.128z M1370.149,1820.425
		c0.338-0.148,2.693-0.463,3.816-1.807c6.451-7.729,14.297-14.879,18.605-23.721c30.485-62.534,61.488-124.868,89.697-188.437
		c15.398-34.694,23.25-71.537,20.524-110.847c-5.886-84.907-81.542-147.072-166.738-134.574
		c9.515,23.861,9.515,23.861,31.259,28.099c76.662,14.94,127.434,77.031,116.82,153.872c-6.24,45.167-22.35,89.949-40.25,132.271
		C1422.71,1725.342,1394.823,1772.562,1370.149,1820.425z M644.084,898.661c-42.472,8.173-81.755,15.73-122.479,23.566
		c4.18,24.74,8.104,47.975,12.203,72.258c42.145-7.979,82.859-15.684,124.543-23.573
		C653.417,945.919,648.961,923.358,644.084,898.661z M360.833,1196.607c273.682,118.587,529.392,266.128,768.05,444.212
		c-16.819-16.856-32.703-35.537-52.212-48.945c-65.17-44.795-131.344-88.157-197.674-131.236
		c-131.041-85.107-267.504-160.466-410.455-223.655C433.529,1221.507,396.782,1209.96,360.833,1196.607z M990.328,1203.638
		c3.043-0.508,6.088-1.017,9.131-1.523c-3.411-13.793-4.716-28.56-10.563-41.229c-55.443-120.133-132.367-225.632-222.227-322.059
		c-7.901-8.477-18.254-14.674-27.468-21.93C834.777,939.104,925.538,1062.767,990.328,1203.638z M872.368,1036.144
		c3.813,53.52-6.479,80.17-37.848,96.223c43.486,24.472,88.479,49.789,137.968,77.637c-22.336-41.098-42.088-78.588-62.984-115.426
		C898.131,1074.528,884.812,1055.584,872.368,1036.144z M980.311,1664.361c33.284,26.353,68.681,54.379,104.729,82.923
		c9.694-15.379,26.148-31.027,8.84-50.702c-32.612-37.071-72.649-64.992-113.569-89.986
		C980.311,1625.981,980.311,1643.689,980.311,1664.361z M1160.766,1329.396c-1.171,2.375-2.34,4.752-3.512,7.128
		c46.729,25.292,93.278,50.938,140.467,75.341c4.861,2.515,17.049-0.195,19.683-4.368c4.217-6.682,6.922-18.542,3.656-24.717
		c-4.684-8.862-14.453-16.042-23.548-21.392c-39.386-23.172-79.28-45.475-119.104-67.89c-3.037-1.709-6.965-1.834-10.479-2.697
		c7.506,9.348,18.17,13.471,24.957,21.059c5.631,6.297,6.697,16.677,9.785,25.248c-8.158,0.086-16.482,1.201-24.42-0.074
		C1172.172,1336.054,1166.577,1332.055,1160.766,1329.396z M329.008,1333.493c-1.371,2.379-2.746,4.758-4.118,7.137
		c20.463,16.291,39.506,34.979,61.8,48.178c20.738,12.276,35.363,40.726,66.959,29.85c2.607-0.898,7.007,2.692,10.309,4.65
		c15.96,9.467,31.825,19.086,48.862,29.336c21.447-21.494,45.109-0.991,70.223-4.883
		C498.364,1409.671,413.688,1371.581,329.008,1333.493z M715.606,932.815c27.906-2.529,54.01-4.896,78.553-7.124
		c-28.192-30.643-47.875-75.37-95.14-100.279C705.161,865.179,710.655,900.751,715.606,932.815z M781.786,818.271
		c92.451,104.953,173.406,217.718,234.865,343.982C966.057,1028.598,885.632,915.346,781.786,818.271z M735.227,1764.476
		c-42.366-43.104-228.259-141.381-250.898-134.216c1.43,1.88,2.345,4.195,4.032,5.147c74.971,42.29,149.951,84.564,225.178,126.396
		C718.13,1764.356,724.726,1763.312,735.227,1764.476z M888.725,1743.031c-8.728,19.257-16.921,37.329-24.781,54.666
		c13.801,17.013,27.47,33.858,41.27,50.864C931.478,1805.919,926.616,1774.947,888.725,1743.031z M795.109,1111.9
		c16.757,9.437,21.423-1.226,24.737-11.725c14.569-46.128-18.096-118.656-62.711-138.241c-15.95-7.003-32.559-9.963-43.914,10.887
		c42.172-3.741,62.952,23.977,80.113,53.277C808.769,1052.452,817.094,1081.593,795.109,1111.9z M1431.071,82.763
		c64.247,9.965,109.825,43.135,154.018,80.007c-8.791-47.433-51.445-59.885-85.348-80.024
		C1480.862,71.534,1458.466,63.316,1431.071,82.763z M508.34,1490.945c24.259,9.294,47.626,17.268,70.156,27.153
		c22.259,9.768,43.669,21.466,65.185,32.186c8.957-13.346,6.63-21.045-6.301-26.859c-31.02-13.952-61.934-28.186-92.424-43.25
		C530.452,1473.009,518.903,1472.715,508.34,1490.945z M824.861,1735.904c-20.489,58.979-48.854,8.243-68.711,7.778
		c-6.603,16.133-12.204,29.826-15.953,38.986c31.547,0,66.86,0,107.042,0c2.165-3.818,7.632-13.468,13.375-23.599
		c-5.519-3.768-8.621-5.997-11.83-8.055C841.7,1746.477,834.559,1742.021,824.861,1735.904z M966.52,1635.072
		c0.457-19.173-12.639-33.527-31.207-32.442c-18.483,1.078-27.199,13.568-28.929,30.569c-1.666,16.358,12.943,31.764,29.414,32.798
		C951.357,1666.975,966.113,1652.124,966.52,1635.072z M163.85,2026.253c52.694,0,101.131,0.101,149.562-0.285
		c2.562-0.021,5.092-4.159,7.635-6.381c-2.938-2.695-5.926-7.784-8.809-7.729c-44.069,0.888-88.139,2.173-132.169,4.232
		C175.207,2016.316,170.592,2021.863,163.85,2026.253z M1084.02,1147.588c-15.75-40.401-49.098-55.891-79.362-74.837
		c2.742,8.86,6.583,16.534,11.806,23.109c8.481,10.676,21.806,19.252,25.994,31.199
		C1049.813,1148.039,1064.184,1146.632,1084.02,1147.588z M1403.657,542.669c-23.375-50.29-160.072-126.547-219.039-122.232
		C1270.621,436.758,1337.999,486.465,1403.657,542.669z M436.571,2013.552c25.873,16.738,126.541,31.37,160.563,22.098
		C542.657,2015.868,489.762,2021.696,436.571,2013.552z M690.675,987.11c7.422-50.013-0.063-98.13-12.297-145.633
		c-3.332,0.432-6.667,0.863-9.998,1.297C675.812,890.886,683.242,938.998,690.675,987.11z M1069.741,1247.056
		c0.601,21.563,51.673,62.127,77.506,65.273C1137.542,1273.041,1098.613,1268.965,1069.741,1247.056z M966.441,1242.645
		c-24.7-34.474-121.267-87.636-146.829-83.944C866.498,1185.504,915.15,1213.321,966.441,1242.645z M1394.231,2362.722
		c-15.365-10.536-24.621-21.775-32.168-20.725c-8.039,1.12-18.59,13.15-20.089,21.797c-0.952,5.492,12.404,18.727,19.699,19.003
		C1370.017,2383.108,1378.755,2372.903,1394.231,2362.722z M918.364,1283.825c-10.709-24.695-85.204-68.566-117.006-67.407
		C840.272,1238.837,880.734,1262.146,918.364,1283.825z M385.226,2075.529c0.404-2.484,0.809-4.97,1.213-7.454
		c-53.064,0-106.128,0-160.59,0C279.809,2070.601,332.518,2073.064,385.226,2075.529z M825.313,1184.493
		c-1.555,2.459-3.107,4.918-4.665,7.376c38.069,22.226,76.137,44.453,114.203,66.679c1.493-2.575,2.985-5.152,4.479-7.729
		C901.324,1228.71,863.318,1206.603,825.313,1184.493z M845.663,1087.944c11.863-50.809-15.249-115.648-51.104-127.428
		C827.278,996.27,847.091,1037.631,845.663,1087.944z M878.211,1637.75c13.112-21.741,22.763-37.738,32.413-53.735
		c-1.219-1.553-2.436-3.107-3.653-4.658c-10.138,8.643-22.525,15.808-29.562,26.494
		C873.239,1612.188,877.515,1624.083,878.211,1637.75z M726.853,1642.13c-1.32,1.912-2.637,3.824-3.956,5.736
		c23.104,16.484,46.21,32.967,69.316,49.447c1.844-2.676,3.687-5.351,5.532-8.026
		C774.114,1673.567,750.481,1657.851,726.853,1642.13z M1574.749,102.516c1.344-1.792,2.691-3.581,4.035-5.372
		c-28.641-16.287-57.281-32.577-85.924-48.864c-0.945,1.698-1.888,3.396-2.834,5.093
		C1518.267,69.754,1546.51,86.135,1574.749,102.516z M785.183,1725.042c1.16-1.732,2.322-3.467,3.482-5.198
		c-23.652-16.607-47.306-33.213-70.958-49.82c-1.545,2.308-3.091,4.613-4.638,6.919
		C737.106,1692.976,761.145,1709.009,785.183,1725.042z M483.991,1454.629c-12.55-2.612-24.486-5.096-36.424-7.58
		c3.49,4.779,5.99,11.443,10.692,13.909C465.829,1464.932,476.335,1480.972,483.991,1454.629z M517.796,1533.023
		c-1.147,3.206-2.297,6.413-3.445,9.619c17.399,7.012,34.802,14.023,52.203,21.037c1.061-2.653,2.117-5.306,3.176-7.958
		C552.418,1548.155,535.107,1540.589,517.796,1533.023z"/>
	<path fill-rule="evenodd" clip-rule="evenodd" d="M1423.249,1350.533c-33.938-24.655-58.177-55.384-60.52-99.157
		c-2.799-52.295,29.695-101.463,78.726-120.032c52.386-19.837,110.194-4.681,145.026,38.02
		c32.631,40.007,35.953,94.938,8.398,138.817c-28.238,44.967-84.949,67.327-137.842,54.405c-5.201-1.269-10.484-2.198-15.729-3.286
		C1435.29,1356.379,1429.269,1353.454,1423.249,1350.533z M1501.719,1272.22c35.617-0.226,64.067-28.048,64.534-63.112
		c0.474-35.369-29.73-64.883-65.839-64.337c-34.854,0.525-63.462,29.711-63.206,64.479
		C1437.463,1244.158,1466.438,1272.439,1501.719,1272.22z M1397.212,1294.687c18.906,44.205,76.414,65.901,122.779,46.479
		C1470.192,1349.182,1428.583,1335.504,1397.212,1294.687z"/>
	<path fill-rule="evenodd" clip-rule="evenodd" d="M1200.083,1992.497c0.252,46.814-34.875,83.064-81.447,84.055
		c-45.311,0.968-83.189-36.394-83.321-82.185c-0.138-46.616,35.708-83.564,81.503-84.019
		C1162.672,1909.893,1199.838,1946.563,1200.083,1992.497z M1116.908,2055.659c34.915,0.292,62.606-25.975,63.403-60.14
		c0.824-35.208-26.893-64.37-61.693-64.907c-34.33-0.532-64.183,28.91-64.061,63.176
		C1054.681,2027.614,1082.659,2055.376,1116.908,2055.659z"/>
	<path fill-rule="evenodd" clip-rule="evenodd" d="M1418.154,653.91c27.229-0.192,49.27,20.896,49.775,47.618
		c0.493,26.039-21.804,49.571-47.854,50.504c-27.118,0.972-50.6-22.167-50.566-49.826
		C1369.542,674.752,1390.34,654.106,1418.154,653.91z"/>
</g>
</svg>
