<?xml version="1.0" encoding="utf-8"?>
<!-- Generator: Adobe Illustrator 16.0.0, SVG Export Plug-In . SVG Version: 6.00 Build 0)  -->
<!DOCTYPE svg PUBLIC "-//W3C//DTD SVG 1.0//EN" "http://www.w3.org/TR/2001/REC-SVG-20010904/DTD/svg10.dtd">
<svg version="1.0" id="Layer_1" xmlns="http://www.w3.org/2000/svg" xmlns:xlink="http://www.w3.org/1999/xlink" x="0px" y="0px"
	 width="1269.127px" height="1331.555px" viewBox="0 0 1269.127 1331.555" enable-background="new 0 0 1269.127 1331.555"
	 xml:space="preserve">
<path fill-rule="evenodd" clip-rule="evenodd" d="M447.565,237.621c56.794,119.059,113.015,236.917,169.68,355.702
	c4.185-1.104,7.764-1.935,11.277-2.989c48.795-14.639,94.295-7.605,136.235,21.194c5.839,4.008,9.434,5.012,15.018-0.617
	c66.319-66.882,132.893-133.514,199.376-200.236c0.878-0.88,1.438-2.077,2.676-3.909c-23.269-29.876-32.918-63.632-24.599-101.368
	c6.096-27.654,20.734-50.183,43.233-67.399c45.819-35.064,110.625-30.938,152.007,9.531c41.23,40.321,46.844,105.375,12.67,151.779
	c-20.208,27.441-47.373,43.398-81.502,47.155c-33.496,3.686-62.971-6.274-87.08-25.265
	C926.1,491.054,856.593,559.97,786.465,629.502c39.164,42.902,51.023,93.331,37.083,151.225
	c68.85,24.977,137.403,49.844,205.653,74.603c46.818-68.713,102.859-88.849,162.172-59.088c51.297,25.74,76.03,86.194,57.662,140.94
	c-18.047,53.78-74.539,88.166-128.59,78.271c-67.451-12.352-100.294-60.998-96.457-144.549
	c-68.105-24.737-136.65-49.635-203.369-73.87c-12.672,16.956-22.697,34.129-36.262,47.785
	c-35.044,35.286-78.063,50.699-127.854,43.979c-10.852-1.463-15.577,1.369-19.072,11.925
	c-18.713,56.523-38.247,112.771-57.462,169.129c-1.335,3.916-2.403,7.925-2.755,9.098c15.423,13.218,30.941,23.511,42.631,37.1
	c34.365,39.948,35.826,98.248,5.359,140.994c-30.658,43.014-85.793,60.278-135.08,42.296
	c-49.458-18.044-80.376-66.589-75.93-119.213c5.832-69.042,66.875-116.066,136.408-104.838c6.407,1.032,10.189,0.37,12.532-6.562
	c20.421-60.441,41.134-120.783,61.724-181.171c0.397-1.162,0.354-2.478,0.612-4.472c-2.438-1.258-4.89-2.716-7.488-3.833
	c-47.744-20.565-78.703-55.772-91.272-106.281c-2.54-10.202-6.292-11.944-16.454-10.922c-68.631,6.902-137.354,12.865-206.04,19.209
	c-16.911,1.563-33.796,3.416-51.663,5.234c-2.785,41.65-19.786,74.897-54.919,97.681c-24.776,16.066-52.146,20.702-80.813,16.658
	c-55.185-7.786-97.642-57.572-98.219-114.076c-0.597-58.332,41.741-107.662,101.24-116.609
	c45.733-6.878,113.288,15.875,132.242,99.538c25.073-2.167,50.415-4.213,75.726-6.575c60.2-5.622,120.381-11.446,180.584-17.04
	c7.426-0.69,13.787-0.092,14.033-11.277c1.25-56.248,26.538-99.233,73.7-129.58c1.755-1.13,3.453-2.349,6.221-4.241
	c-1.964-4.397-3.722-8.576-5.67-12.663c-52.911-111.028-105.947-221.999-158.569-333.164c-4.196-8.865-7.993-11.064-18.086-8.933
	c-65.648,13.864-125.903-26.054-139.645-91.579c-12.842-61.22,27.732-121.829,91.028-135.978
	c53.199-11.891,108.769,17.127,130.694,68.25c22.013,51.327,4.491,110.892-41.894,142.364
	C456.372,231.871,452.472,234.382,447.565,237.621z M539.231,736.448c-0.126,75.632,60.793,137.029,136.044,137.112
	c75.616,0.083,137.561-61.485,137.149-136.315c-0.417-75.888-61.166-136.978-136.388-137.156
	C600.4,599.909,539.355,660.753,539.231,736.448z M530.519,1090.066c-55.231-0.448-100.472,44.114-100.744,99.235
	c-0.27,54.728,44.813,100.339,99.675,100.846c54.235,0.499,99.918-44.3,100.391-98.45
	C630.333,1135.054,586.819,1090.528,530.519,1090.066z M493.772,133.292c0.015-55.53-43.091-98.992-98.461-99.274
	c-55.157-0.282-99.632,43.238-100.172,98.024c-0.544,54.999,44.244,99.989,99.622,100.074
	C450.045,232.2,493.757,188.571,493.772,133.292z M1139.729,801.919c-55.503-0.579-100.057,42.505-100.664,97.342
	c-0.598,54.128,43.188,99.103,97.195,99.833c55.387,0.751,100.346-42.346,101.129-96.938
	C1238.182,846.958,1194.861,802.496,1139.729,801.919z M233.321,784.206c-0.915-56.071-44.856-97.829-101.857-96.792
	c-53.14,0.967-95.839,45.952-95.114,100.205c0.729,54.552,45.929,97.783,101.14,96.738
	C192.537,883.314,234.227,839.745,233.321,784.206z M1145.998,363.428c0.035-55.139-36.768-98.729-91.133-107.942
	c-34.967-5.925-54.909,1.812-69.162,26.833c-19.361,33.987-16.471,77.483,7.187,108.182c24.012,31.16,64.572,45.093,102.635,35.255
	C1133.422,415.96,1145.975,400.46,1145.998,363.428z"/>
</svg>
