<?xml version="1.0" encoding="utf-8"?>
<!-- Generator: Adobe Illustrator 16.0.0, SVG Export Plug-In . SVG Version: 6.00 Build 0)  -->
<!DOCTYPE svg PUBLIC "-//W3C//DTD SVG 1.0//EN" "http://www.w3.org/TR/2001/REC-SVG-20010904/DTD/svg10.dtd">
<svg version="1.0" id="Layer_1" xmlns="http://www.w3.org/2000/svg" xmlns:xlink="http://www.w3.org/1999/xlink" x="0px" y="0px"
	 width="798.956px" height="1331.555px" viewBox="0 0 798.956 1331.555" enable-background="new 0 0 798.956 1331.555"
	 xml:space="preserve">
<g>
	<path fill-rule="evenodd" clip-rule="evenodd" fill="#231F20" d="M304.928,48.664c7.71,2.451,15.424,4.88,23.126,7.356
		c41.692,13.403,74.862,40.898,102.132,77.366c57.519,76.924,76.59,165.304,60.537,262.803
		c-7.162,43.501-23.627,83.163-48.946,117.86c-1.894,2.595-4.033,4.97-8.307,6.959c0-4.508-0.063-9.016,0.012-13.521
		c0.946-56.666-2.372-112.748-16.677-167.618c-10.199-39.119-25.961-74.951-48.371-107.213c-0.748-1.078-1.414-2.223-3.183-2.871
		c55.18,94.863,54.806,199.02,43.572,307.759c-5.468-5.4-10.072-9.102-13.739-13.714c-22.767-28.622-46.65-56.31-67.657-86.45
		c-38.733-55.578-63.139-118.664-68.567-188.919c-2.793-36.149-0.541-72.777-0.556-109.188c-0.012-27.421-0.003-54.843-0.003-83.477
		c4.864-2.068,10.815-4.601,16.768-7.133C285.022,48.664,294.975,48.664,304.928,48.664z"/>
	<path fill-rule="evenodd" clip-rule="evenodd" fill="#231F20" d="M572.677,1124.142c0.895,1.958,1.362,4.476,2.755,5.784
		c7.256,6.821,14.363,13.979,22.277,19.749c6.204,4.523,13.459,7.315,20.35,10.617c2.143,1.027,4.611,1.215,8.952,2.285
		c-16.347,2.629-28.467-1.485-37.683-13.984c-7.906-10.722-18.576-14.475-30.419-15.239c-18.153-1.176-34.321-6.252-47.885-21.405
		c-3.788-4.234-13.413-2.064-20.989-2.902c3.314,23.997,11.273,42.781,22.782,59.743c9.821,14.477,13.699,30.73,12.205,48.472
		c-1.767,20.994,5.603,34.108,23.802,42.157c13.957,6.171,26.492,16.284,38.727,26.741c-3.828-2.091-7.631-4.238-11.487-6.263
		c-11.484-6.025-22.777-12.582-34.54-17.849c-13.969-6.255-22.662-17.219-21.681-33.581c1.569-26.117-5.801-48.005-18.403-69.618
		c-6.635-11.377-8.836-26.143-12.025-39.67c-1.484-6.294-3.521-9.021-9.348-8.029c-3.061,0.521-6.196,0.46-9.286,0.807
		c-18.607,2.083-19.115,2.109-18.73,23.351c0.293,16.107,1.37,32.296,3.436,48.236c1.889,14.559,2.945,28.632-2.858,42.364
		l0.178-0.27c-11.219,9.946-22.438,19.891-33.659,29.836c-0.505-0.65-1.01-1.299-1.516-1.949c7.67-7.731,15.228-15.603,23.037-23.16
		c9.286-8.985,12.188-19.861,10.364-33.345c-3.634-26.88-7.557-53.856-1.258-81.905c-13.8,0-26.995-0.253-40.159,0.345
		c-1.505,0.067-3.786,4.743-4.097,7.503c-2.479,22.023-5.166,25.538-25.137,29.494c14.365-7.157,21.771-18.533,18.694-36.866
		c-10.414,0-21.155,0-32.448,0c-1.02,5.013-2.347,9.968-2.991,15.032c-1.938,15.197-7.571,28.025-17.756,38.73
		c-2.217,2.331-3.563,8.451-2.411,11.469c6.032,15.788,12.852,31.219,19.673,46.625c7.493,16.923,15.803,33.479,18.016,54.919
		c-11.923-26.563-22.935-51.099-34.472-76.802c-0.86,12.974-1.652,24.913-2.445,36.852c-0.979-0.069-1.957-0.142-2.935-0.215
		c-1.285-20.908-2.571-41.818-3.89-63.234c-14.866,9.924-13.754,35.308-30.468,42.127c4.473-9.153,8.997-19.289,14.271-28.92
		c3.993-7.292,8.037-15.057,13.647-20.66c15.043-15.024,24.764-32.518,24.881-56.95c-13.109-1.094-26.914-2.286-40.729-3.331
		c-1.108-0.085-2.621,0.478-3.371,1.346c-11.255,13.055-26.496,22.943-30.976,41.609c-4.198,17.5-7.415,35.428-9.442,53.391
		c-2.061,18.279-6.074,24.689-23.393,28.046c14.181-7.673,18.808-20.348,16.963-35.02c-21.855,5.034-43.8,10.091-65.744,15.146
		c-0.182-0.762-0.363-1.524-0.542-2.286c15.207-4.446,30.231-10.076,45.675-12.979c13.24-2.489,22.222-10.411,24.227-23.475
		c4.11-26.758,15.853-47.301,34.772-63.597c0.393-0.338,0.387-1.243,0.79-2.669c-23.239-4.313-46.556-7.684-69.46-13.163
		c-22.684-5.427-44.95-12.98-67.4-19.602c-0.113-1.023-0.227-2.049-0.339-3.07c2.749-1.655,5.366-3.681,8.264-4.905
		c54.438-23.009,110.907-35.55,168.934-40.034c8.367-0.647,16.729-1.865,25.097-1.878c7.563-0.013,10.033-3.011,9.925-11.577
		c-0.725-57.843-1.228-115.695-1.33-173.545c-0.072-40.969,0.832-81.942,0.719-122.91c-0.021-7.267-1.773-15.135-4.66-21.678
		c-14.024-31.795-28.671-63.255-43.183-94.787c-4.833-10.504-11.085-20.422-10.163-33.266
		c25.867,33.058,46.017,70.233,67.51,108.516c2.716-10.586,5.809-21.074,8.081-31.775c6.963-32.812,13.379-65.767,20.567-98.517
		c1.546-7.032,5.442-13.434,9.713-19.669c2.481,39.894-5.665,78.483-8.449,117.744c17.259-28.688,34.518-57.376,51.775-86.065
		c1.105,0.388,2.211,0.775,3.315,1.162c-0.788,4.522-0.71,9.531-2.519,13.48c-6.732,14.706-13.347,29.589-21.359,43.445
		c-16.389,28.336-21.232,59.854-22.669,92.469c-4.468,101.434-8.814,202.874-13.183,304.313c-0.146,3.372-0.019,6.758-0.019,11.815
		c87.143,2.005,171.544,17.772,253.833,48.265c-50.509,15.77-102.085,24.604-154.069,31.657
		c4.947,17.203,41.809,23.365,55.937,17.158L572.677,1124.142z"/>
	<path fill-rule="evenodd" clip-rule="evenodd" fill="#231F20" d="M787.516,383.464c-19.344,26.642-37.018,50.903-54.613,75.236
		c-44.074,60.945-101.232,97.313-170.505,110.129c-21.725,4.02-43.796,5.743-65.716,8.419c-2.67,0.327-5.398,0.045-10.616,0.045
		c40.335-66.825,85.95-123.014,155.735-148.695c-34.309,5.911-64.367,22.782-90.38,46.841
		c-25.831,23.89-49.317,50.886-74.038,76.735c0-3.117-0.359-7.669,0.053-12.132c6.415-69.209,36.398-123.316,86.973-163.53
		c39.999-31.807,84.91-46.75,134.221-42.553c27.047,2.301,52.617,10.785,73.684,30.948
		C778.532,370.859,783.471,378.454,787.516,383.464z"/>
	<path fill-rule="evenodd" clip-rule="evenodd" fill="#231F20" d="M13,392.629c10.756-21.569,29.96-34.065,51.928-42.09
		c43.67-15.954,86.713-10.896,128.36,8.094c50.824,23.173,88.399,62.753,112.165,117.878c10.42,24.169,16.116,49.776,17.571,76.511
		c0.158,2.896-0.245,5.829-0.531,11.646c-45.876-61.077-94.992-112.797-166.236-128.954
		c70.762,25.468,117.138,82.277,158.506,150.578c-20.519-1.995-38.628-3.145-56.585-5.625
		c-42.665-5.893-83.338-18.984-120.291-44.025c-32.217-21.83-58.223-51.012-80.986-84.176C43.271,432.61,28.521,413.698,13,392.629z
		"/>
	<path fill-rule="evenodd" clip-rule="evenodd" fill="#231F20" d="M572.846,1124.327c12.248-1.619,24.547-4.904,36.732-4.454
		c16.884,0.625,33.684,4.058,50.52,6.289c-0.016,0.882-0.031,1.764-0.046,2.645c-6.218,0-12.444,0.247-18.649-0.044
		c-21.715-1.014-43.426-2.193-65.134-3.382c-1.188-0.065-2.352-0.766-3.561-1.206
		C572.677,1124.142,572.846,1124.327,572.846,1124.327z"/>
	<path fill-rule="evenodd" clip-rule="evenodd" fill="#231F20" d="M452.627,1225.907c0.17,0.287,0.472,0.564,0.49,0.861
		c1.967,31.563,3.914,63.129,4.433,94.786c-2.915-31.874-14.433-63.248-4.759-95.893
		C452.805,1225.638,452.627,1225.907,452.627,1225.907z"/>
	<path fill-rule="evenodd" clip-rule="evenodd" fill="#231F20" d="M179.458,1170.101c12.656-0.841,25.307-1.794,37.972-2.49
		c14.852-0.819,28.34,4.077,41.837,11.104c-27.45-2.333-53.995-4.587-80.541-6.843C178.97,1171.28,179.214,1170.69,179.458,1170.101
		z"/>
	<path fill-rule="evenodd" clip-rule="evenodd" fill="#231F20" d="M614.755,1248.01c-24.903-5.115-49.807-10.232-73.673-15.135
		c25.778-11.244,49.061,7.501,74.143,11.57C615.067,1245.634,614.911,1246.822,614.755,1248.01z"/>
	<path fill-rule="evenodd" clip-rule="evenodd" fill="#231F20" d="M406.798,1182.574c-1.021-12.938-2.041-25.875-3.061-38.813
		c1.571-0.134,3.144-0.271,4.715-0.404c0.935,13.097,1.867,26.191,2.801,39.287C409.768,1182.621,408.283,1182.597,406.798,1182.574
		z"/>
	<path fill-rule="evenodd" clip-rule="evenodd" fill="#231F20" d="M276.16,1267.012c-0.843-13.673-1.685-27.345-2.525-41.018
		c1.371-0.095,2.74-0.19,4.112-0.286c0.945,13.653,1.891,27.306,2.837,40.957C279.108,1266.78,277.634,1266.896,276.16,1267.012z"/>
</g>
</svg>
