<?xml version="1.0" encoding="utf-8"?>
<!-- Generator: Adobe Illustrator 16.0.0, SVG Export Plug-In . SVG Version: 6.00 Build 0)  -->
<!DOCTYPE svg PUBLIC "-//W3C//DTD SVG 1.0//EN" "http://www.w3.org/TR/2001/REC-SVG-20010904/DTD/svg10.dtd">
<svg version="1.0" id="Layer_1" xmlns="http://www.w3.org/2000/svg" xmlns:xlink="http://www.w3.org/1999/xlink" x="0px" y="0px"
	 width="1168.758px" height="121.292px" viewBox="0 0 1168.758 121.292" enable-background="new 0 0 1168.758 121.292"
	 xml:space="preserve">
<g>
	<g opacity="0.5">
		<path fill="none" stroke="#BCBEC0" stroke-miterlimit="10" d="M0,113.302c0,2.055,1.685,3.742,3.743,3.742h1161.271
			c2.059,0,3.744-1.688,3.744-3.742V4.74c0-2.055-1.686-3.74-3.744-3.74H3.743C1.685,1,0,2.686,0,4.74V113.302z M18.719,51.537
			c4.134,0,7.485,3.35,7.485,7.484s-3.352,7.488-7.485,7.488c-4.135,0-7.487-3.354-7.487-7.488S14.584,51.537,18.719,51.537z"/>
		<path fill="none" stroke="#BCBEC0" stroke-miterlimit="10" d="M0,115.173c0,2.057,1.685,3.744,3.743,3.744h1161.271
			c2.059,0,3.744-1.688,3.744-3.744V6.614c0-2.06-1.686-3.744-3.744-3.744H3.743C1.685,2.87,0,4.555,0,6.614V115.173z
			 M18.719,53.406c4.134,0,7.485,3.354,7.485,7.488c0,4.134-3.352,7.488-7.485,7.488c-4.135,0-7.487-3.354-7.487-7.488
			C11.231,56.76,14.584,53.406,18.719,53.406z"/>
	</g>
	<g>
		<g>
			<rect x="1158.921" y="94.933" width="0.958" height="23.984"/>
		</g>
		<g>
			<rect x="1062.995" y="94.933" width="0.958" height="23.984"/>
		</g>
		<g>
			<rect x="1111.078" y="102.128" width="0.718" height="16.789"/>
		</g>
		<g>
			<rect x="1120.85" y="109.324" width="0.359" height="9.594"/>
		</g>
		<g>
			<rect x="1130.442" y="109.324" width="0.358" height="9.594"/>
		</g>
		<g>
			<rect x="1140.035" y="109.324" width="0.359" height="9.594"/>
		</g>
		<g>
			<rect x="1149.628" y="109.324" width="0.358" height="9.594"/>
		</g>
		<g>
			<rect x="1125.645" y="113.164" width="0.359" height="5.754"/>
		</g>
		<g>
			<rect x="1116.053" y="113.164" width="0.359" height="5.754"/>
		</g>
		<g>
			<rect x="1135.237" y="113.164" width="0.358" height="5.754"/>
		</g>
		<g>
			<rect x="1144.83" y="113.164" width="0.359" height="5.754"/>
		</g>
		<g>
			<rect x="1154.423" y="113.164" width="0.358" height="5.754"/>
		</g>
		<g>
			<rect x="1072.887" y="109.324" width="0.359" height="9.594"/>
		</g>
		<g>
			<rect x="1082.48" y="109.324" width="0.358" height="9.594"/>
		</g>
		<g>
			<rect x="1092.072" y="109.324" width="0.359" height="9.594"/>
		</g>
		<g>
			<rect x="1101.665" y="109.324" width="0.358" height="9.594"/>
		</g>
		<g>
			<rect x="1077.682" y="113.164" width="0.359" height="5.754"/>
		</g>
		<g>
			<rect x="1068.092" y="113.164" width="0.359" height="5.754"/>
		</g>
		<g>
			<rect x="1087.274" y="113.164" width="0.359" height="5.754"/>
		</g>
		<g>
			<rect x="1096.867" y="113.164" width="0.359" height="5.754"/>
		</g>
		<g>
			<rect x="1106.459" y="113.164" width="0.359" height="5.754"/>
		</g>
		<g>
			<rect x="967.069" y="94.933" width="0.958" height="23.984"/>
		</g>
		<g>
			<rect x="1015.152" y="102.128" width="0.719" height="16.789"/>
		</g>
		<g>
			<rect x="1024.924" y="109.324" width="0.359" height="9.594"/>
		</g>
		<g>
			<rect x="1034.517" y="109.324" width="0.359" height="9.594"/>
		</g>
		<g>
			<rect x="1044.109" y="109.324" width="0.359" height="9.594"/>
		</g>
		<g>
			<rect x="1053.702" y="109.324" width="0.359" height="9.594"/>
		</g>
		<g>
			<rect x="1029.719" y="113.164" width="0.359" height="5.754"/>
		</g>
		<g>
			<rect x="1020.129" y="113.164" width="0.359" height="5.754"/>
		</g>
		<g>
			<rect x="1039.313" y="113.164" width="0.358" height="5.754"/>
		</g>
		<g>
			<rect x="1048.907" y="113.164" width="0.359" height="5.754"/>
		</g>
		<g>
			<rect x="1058.5" y="113.164" width="0.358" height="5.754"/>
		</g>
		<g>
			<rect x="976.961" y="109.324" width="0.359" height="9.594"/>
		</g>
		<g>
			<rect x="986.555" y="109.324" width="0.358" height="9.594"/>
		</g>
		<g>
			<rect x="996.146" y="109.324" width="0.359" height="9.594"/>
		</g>
		<g>
			<rect x="1005.739" y="109.324" width="0.358" height="9.594"/>
		</g>
		<g>
			<rect x="981.756" y="113.164" width="0.359" height="5.754"/>
		</g>
		<g>
			<rect x="972.164" y="113.164" width="0.359" height="5.754"/>
		</g>
		<g>
			<rect x="991.352" y="113.164" width="0.359" height="5.754"/>
		</g>
		<g>
			<rect x="1000.944" y="113.164" width="0.358" height="5.754"/>
		</g>
		<g>
			<rect x="1010.537" y="113.164" width="0.359" height="5.754"/>
		</g>
		<g>
			<rect x="871.148" y="94.933" width="0.955" height="23.984"/>
		</g>
		<g>
			<rect x="919.229" y="102.128" width="0.718" height="16.789"/>
		</g>
		<g>
			<rect x="929.002" y="109.324" width="0.358" height="9.594"/>
		</g>
		<g>
			<rect x="938.595" y="109.324" width="0.358" height="9.594"/>
		</g>
		<g>
			<rect x="948.187" y="109.324" width="0.359" height="9.594"/>
		</g>
		<g>
			<rect x="957.776" y="109.324" width="0.358" height="9.594"/>
		</g>
		<g>
			<rect x="933.797" y="113.164" width="0.358" height="5.754"/>
		</g>
		<g>
			<rect x="924.204" y="113.164" width="0.358" height="5.754"/>
		</g>
		<g>
			<rect x="943.389" y="113.164" width="0.359" height="5.754"/>
		</g>
		<g>
			<rect x="952.979" y="113.164" width="0.359" height="5.754"/>
		</g>
		<g>
			<rect x="962.571" y="113.164" width="0.359" height="5.754"/>
		</g>
		<g>
			<rect x="881.035" y="109.324" width="0.359" height="9.594"/>
		</g>
		<g>
			<rect x="890.631" y="109.324" width="0.359" height="9.594"/>
		</g>
		<g>
			<rect x="900.225" y="109.324" width="0.358" height="9.594"/>
		</g>
		<g>
			<rect x="909.816" y="109.324" width="0.359" height="9.594"/>
		</g>
		<g>
			<rect x="885.834" y="113.164" width="0.359" height="5.754"/>
		</g>
		<g>
			<rect x="876.241" y="113.164" width="0.358" height="5.754"/>
		</g>
		<g>
			<rect x="895.426" y="113.164" width="0.359" height="5.754"/>
		</g>
		<g>
			<rect x="905.019" y="113.164" width="0.358" height="5.754"/>
		</g>
		<g>
			<rect x="914.611" y="113.164" width="0.359" height="5.754"/>
		</g>
		<g>
			<rect x="775.223" y="94.933" width="0.955" height="23.984"/>
		</g>
		<g>
			<rect x="823.305" y="102.128" width="0.718" height="16.789"/>
		</g>
		<g>
			<rect x="833.076" y="109.324" width="0.359" height="9.594"/>
		</g>
		<g>
			<rect x="842.668" y="109.324" width="0.359" height="9.594"/>
		</g>
		<g>
			<rect x="852.262" y="109.324" width="0.359" height="9.594"/>
		</g>
		<g>
			<rect x="861.854" y="109.324" width="0.359" height="9.594"/>
		</g>
		<g>
			<rect x="837.871" y="113.164" width="0.359" height="5.754"/>
		</g>
		<g>
			<rect x="828.281" y="113.164" width="0.359" height="5.754"/>
		</g>
		<g>
			<rect x="847.463" y="113.164" width="0.359" height="5.754"/>
		</g>
		<g>
			<rect x="857.057" y="113.164" width="0.358" height="5.754"/>
		</g>
		<g>
			<rect x="866.648" y="113.164" width="0.359" height="5.754"/>
		</g>
		<g>
			<rect x="785.113" y="109.324" width="0.359" height="9.594"/>
		</g>
		<g>
			<rect x="794.706" y="109.324" width="0.358" height="9.594"/>
		</g>
		<g>
			<rect x="804.295" y="109.324" width="0.359" height="9.594"/>
		</g>
		<g>
			<rect x="813.889" y="109.324" width="0.358" height="9.594"/>
		</g>
		<g>
			<rect x="789.91" y="113.164" width="0.359" height="5.754"/>
		</g>
		<g>
			<rect x="780.318" y="113.164" width="0.359" height="5.754"/>
		</g>
		<g>
			<rect x="799.501" y="113.164" width="0.358" height="5.754"/>
		</g>
		<g>
			<rect x="809.094" y="113.164" width="0.358" height="5.754"/>
		</g>
		<g>
			<rect x="818.686" y="113.164" width="0.359" height="5.754"/>
		</g>
		<g>
			<rect x="679.297" y="94.933" width="0.962" height="23.984"/>
		</g>
		<g>
			<rect x="727.379" y="102.128" width="0.717" height="16.789"/>
		</g>
		<g>
			<rect x="737.15" y="109.324" width="0.359" height="9.594"/>
		</g>
		<g>
			<rect x="746.743" y="109.324" width="0.358" height="9.594"/>
		</g>
		<g>
			<rect x="756.336" y="109.324" width="0.358" height="9.594"/>
		</g>
		<g>
			<rect x="765.928" y="109.324" width="0.359" height="9.594"/>
		</g>
		<g>
			<rect x="741.948" y="113.164" width="0.358" height="5.754"/>
		</g>
		<g>
			<rect x="732.355" y="113.164" width="0.359" height="5.754"/>
		</g>
		<g>
			<rect x="751.541" y="113.164" width="0.359" height="5.754"/>
		</g>
		<g>
			<rect x="761.131" y="113.164" width="0.358" height="5.754"/>
		</g>
		<g>
			<rect x="770.723" y="113.164" width="0.359" height="5.754"/>
		</g>
		<g>
			<rect x="689.19" y="109.324" width="0.358" height="9.594"/>
		</g>
		<g>
			<rect x="698.783" y="109.324" width="0.359" height="9.594"/>
		</g>
		<g>
			<rect x="708.376" y="109.324" width="0.358" height="9.594"/>
		</g>
		<g>
			<rect x="717.966" y="109.324" width="0.358" height="9.594"/>
		</g>
		<g>
			<rect x="693.985" y="113.164" width="0.358" height="5.754"/>
		</g>
		<g>
			<rect x="684.393" y="113.164" width="0.359" height="5.754"/>
		</g>
		<g>
			<rect x="703.578" y="113.164" width="0.358" height="5.754"/>
		</g>
		<g>
			<rect x="713.171" y="113.164" width="0.358" height="5.754"/>
		</g>
		<g>
			<rect x="722.764" y="113.164" width="0.358" height="5.754"/>
		</g>
		<g>
			<rect x="583.371" y="94.933" width="0.961" height="23.984"/>
		</g>
		<g>
			<rect x="631.455" y="102.128" width="0.719" height="16.789"/>
		</g>
		<g>
			<rect x="641.229" y="109.324" width="0.359" height="9.594"/>
		</g>
		<g>
			<rect x="650.82" y="109.324" width="0.359" height="9.594"/>
		</g>
		<g>
			<rect x="660.412" y="109.324" width="0.359" height="9.594"/>
		</g>
		<g>
			<rect x="670.006" y="109.324" width="0.357" height="9.594"/>
		</g>
		<g>
			<rect x="646.023" y="113.164" width="0.357" height="5.754"/>
		</g>
		<g>
			<rect x="636.43" y="113.164" width="0.359" height="5.754"/>
		</g>
		<g>
			<rect x="655.615" y="113.164" width="0.359" height="5.754"/>
		</g>
		<g>
			<rect x="665.207" y="113.164" width="0.359" height="5.754"/>
		</g>
		<g>
			<rect x="674.798" y="113.164" width="0.358" height="5.754"/>
		</g>
		<g>
			<rect x="593.265" y="109.324" width="0.359" height="9.594"/>
		</g>
		<g>
			<rect x="602.857" y="109.324" width="0.359" height="9.594"/>
		</g>
		<g>
			<rect x="612.45" y="109.324" width="0.359" height="9.594"/>
		</g>
		<g>
			<rect x="622.043" y="109.324" width="0.359" height="9.594"/>
		</g>
		<g>
			<rect x="598.06" y="113.164" width="0.359" height="5.754"/>
		</g>
		<g>
			<rect x="588.47" y="113.164" width="0.359" height="5.754"/>
		</g>
		<g>
			<rect x="607.652" y="113.164" width="0.359" height="5.754"/>
		</g>
		<g>
			<rect x="617.245" y="113.164" width="0.358" height="5.754"/>
		</g>
		<g>
			<rect x="626.838" y="113.164" width="0.359" height="5.754"/>
		</g>
		<g>
			<rect x="487.445" y="94.933" width="0.961" height="23.984"/>
		</g>
		<g>
			<rect x="535.529" y="102.128" width="0.719" height="16.789"/>
		</g>
		<g>
			<rect x="391.523" y="94.933" width="0.961" height="23.984"/>
		</g>
		<g>
			<rect x="439.604" y="102.128" width="0.718" height="16.789"/>
		</g>
		<g>
			<rect x="545.302" y="109.324" width="0.359" height="9.594"/>
		</g>
		<g>
			<rect x="554.895" y="109.324" width="0.359" height="9.594"/>
		</g>
		<g>
			<rect x="564.487" y="109.324" width="0.358" height="9.594"/>
		</g>
		<g>
			<rect x="574.08" y="109.324" width="0.358" height="9.594"/>
		</g>
		<g>
			<rect x="550.1" y="113.164" width="0.359" height="5.754"/>
		</g>
		<g>
			<rect x="540.508" y="113.164" width="0.359" height="5.754"/>
		</g>
		<g>
			<rect x="559.692" y="113.164" width="0.358" height="5.754"/>
		</g>
		<g>
			<rect x="569.285" y="113.164" width="0.359" height="5.754"/>
		</g>
		<g>
			<rect x="578.877" y="113.164" width="0.359" height="5.754"/>
		</g>
		<g>
			<rect x="497.339" y="109.324" width="0.359" height="9.594"/>
		</g>
		<g>
			<rect x="506.932" y="109.324" width="0.359" height="9.594"/>
		</g>
		<g>
			<rect x="516.524" y="109.324" width="0.359" height="9.594"/>
		</g>
		<g>
			<rect x="526.117" y="109.324" width="0.359" height="9.594"/>
		</g>
		<g>
			<rect x="502.138" y="113.164" width="0.358" height="5.754"/>
		</g>
		<g>
			<rect x="492.544" y="113.164" width="0.359" height="5.754"/>
		</g>
		<g>
			<rect x="511.729" y="113.164" width="0.359" height="5.754"/>
		</g>
		<g>
			<rect x="521.322" y="113.164" width="0.359" height="5.754"/>
		</g>
		<g>
			<rect x="530.914" y="113.164" width="0.359" height="5.754"/>
		</g>
		<g>
			<rect x="449.377" y="109.324" width="0.358" height="9.594"/>
		</g>
		<g>
			<rect x="458.97" y="109.324" width="0.358" height="9.594"/>
		</g>
		<g>
			<rect x="468.562" y="109.324" width="0.359" height="9.594"/>
		</g>
		<g>
			<rect x="478.153" y="109.324" width="0.359" height="9.594"/>
		</g>
		<g>
			<rect x="454.175" y="113.164" width="0.358" height="5.754"/>
		</g>
		<g>
			<rect x="444.582" y="113.164" width="0.359" height="5.754"/>
		</g>
		<g>
			<rect x="463.767" y="113.164" width="0.359" height="5.754"/>
		</g>
		<g>
			<rect x="473.358" y="113.164" width="0.359" height="5.754"/>
		</g>
		<g>
			<rect x="482.952" y="113.164" width="0.359" height="5.754"/>
		</g>
		<g>
			<rect x="401.416" y="109.324" width="0.359" height="9.594"/>
		</g>
		<g>
			<rect x="411.01" y="109.324" width="0.358" height="9.594"/>
		</g>
		<g>
			<rect x="420.599" y="109.324" width="0.358" height="9.594"/>
		</g>
		<g>
			<rect x="430.188" y="109.324" width="0.359" height="9.594"/>
		</g>
		<g>
			<rect x="406.211" y="113.164" width="0.359" height="5.754"/>
		</g>
		<g>
			<rect x="396.619" y="113.164" width="0.358" height="5.754"/>
		</g>
		<g>
			<rect x="415.805" y="113.164" width="0.357" height="5.754"/>
		</g>
		<g>
			<rect x="425.396" y="113.164" width="0.359" height="5.754"/>
		</g>
		<g>
			<rect x="434.986" y="113.164" width="0.358" height="5.754"/>
		</g>
	</g>
	<g>
		<g>
			<rect x="295.597" y="94.933" width="0.962" height="23.984"/>
		</g>
		<g>
			<rect x="343.682" y="102.128" width="0.719" height="16.789"/>
		</g>
		<g>
			<rect x="353.45" y="109.324" width="0.359" height="9.594"/>
		</g>
		<g>
			<rect x="363.046" y="109.324" width="0.359" height="9.594"/>
		</g>
		<g>
			<rect x="372.636" y="109.324" width="0.359" height="9.594"/>
		</g>
		<g>
			<rect x="382.231" y="109.324" width="0.359" height="9.594"/>
		</g>
		<g>
			<rect x="358.249" y="113.164" width="0.359" height="5.754"/>
		</g>
		<g>
			<rect x="348.655" y="113.164" width="0.359" height="5.754"/>
		</g>
		<g>
			<rect x="367.841" y="113.164" width="0.359" height="5.754"/>
		</g>
		<g>
			<rect x="377.435" y="113.164" width="0.357" height="5.754"/>
		</g>
		<g>
			<rect x="387.026" y="113.164" width="0.359" height="5.754"/>
		</g>
		<g>
			<rect x="305.491" y="109.324" width="0.358" height="9.594"/>
		</g>
		<g>
			<rect x="315.081" y="109.324" width="0.358" height="9.594"/>
		</g>
		<g>
			<rect x="324.676" y="109.324" width="0.359" height="9.594"/>
		</g>
		<g>
			<rect x="334.267" y="109.324" width="0.358" height="9.594"/>
		</g>
		<g>
			<rect x="310.285" y="113.164" width="0.359" height="5.754"/>
		</g>
		<g>
			<rect x="300.696" y="113.164" width="0.359" height="5.754"/>
		</g>
		<g>
			<rect x="319.879" y="113.164" width="0.359" height="5.754"/>
		</g>
		<g>
			<rect x="329.471" y="113.164" width="0.359" height="5.754"/>
		</g>
		<g>
			<rect x="339.063" y="113.164" width="0.359" height="5.754"/>
		</g>
		<g>
			<rect x="199.668" y="94.933" width="0.962" height="23.984"/>
		</g>
		<g>
			<rect x="247.756" y="102.128" width="0.718" height="16.789"/>
		</g>
		<g>
			<rect x="257.528" y="109.324" width="0.359" height="9.594"/>
		</g>
		<g>
			<rect x="267.12" y="109.324" width="0.359" height="9.594"/>
		</g>
		<g>
			<rect x="276.713" y="109.324" width="0.359" height="9.594"/>
		</g>
		<g>
			<rect x="286.306" y="109.324" width="0.359" height="9.594"/>
		</g>
		<g>
			<rect x="262.323" y="113.164" width="0.359" height="5.754"/>
		</g>
		<g>
			<rect x="252.73" y="113.164" width="0.358" height="5.754"/>
		</g>
		<g>
			<rect x="271.916" y="113.164" width="0.358" height="5.754"/>
		</g>
		<g>
			<rect x="281.511" y="113.164" width="0.359" height="5.754"/>
		</g>
		<g>
			<rect x="291.1" y="113.164" width="0.359" height="5.754"/>
		</g>
		<g>
			<rect x="209.565" y="109.324" width="0.358" height="9.594"/>
		</g>
		<g>
			<rect x="219.157" y="109.324" width="0.359" height="9.594"/>
		</g>
		<g>
			<rect x="228.751" y="109.324" width="0.358" height="9.594"/>
		</g>
		<g>
			<rect x="238.343" y="109.324" width="0.359" height="9.594"/>
		</g>
		<g>
			<rect x="214.36" y="113.164" width="0.359" height="5.754"/>
		</g>
		<g>
			<rect x="204.768" y="113.164" width="0.359" height="5.754"/>
		</g>
		<g>
			<rect x="223.956" y="113.164" width="0.358" height="5.754"/>
		</g>
		<g>
			<rect x="233.546" y="113.164" width="0.359" height="5.754"/>
		</g>
		<g>
			<rect x="243.142" y="113.164" width="0.358" height="5.754"/>
		</g>
		<g>
			<rect x="103.749" y="94.933" width="0.961" height="23.984"/>
		</g>
		<g>
			<rect x="151.831" y="102.128" width="0.717" height="16.789"/>
		</g>
		<g>
			<rect x="161.605" y="109.324" width="0.358" height="9.594"/>
		</g>
		<g>
			<rect x="171.195" y="109.324" width="0.359" height="9.594"/>
		</g>
		<g>
			<rect x="180.791" y="109.324" width="0.358" height="9.594"/>
		</g>
		<g>
			<rect x="190.381" y="109.324" width="0.359" height="9.594"/>
		</g>
		<g>
			<rect x="166.4" y="113.164" width="0.358" height="5.754"/>
		</g>
		<g>
			<rect x="156.808" y="113.164" width="0.359" height="5.754"/>
		</g>
		<g>
			<rect x="175.993" y="113.164" width="0.359" height="5.754"/>
		</g>
		<g>
			<rect x="185.582" y="113.164" width="0.359" height="5.754"/>
		</g>
		<g>
			<rect x="195.176" y="113.164" width="0.359" height="5.754"/>
		</g>
		<g>
			<rect x="113.64" y="109.324" width="0.359" height="9.594"/>
		</g>
		<g>
			<rect x="123.235" y="109.324" width="0.359" height="9.594"/>
		</g>
		<g>
			<rect x="132.825" y="109.324" width="0.359" height="9.594"/>
		</g>
		<g>
			<rect x="142.421" y="109.324" width="0.358" height="9.594"/>
		</g>
		<g>
			<rect x="118.435" y="113.164" width="0.359" height="5.754"/>
		</g>
		<g>
			<rect x="108.845" y="113.164" width="0.359" height="5.754"/>
		</g>
		<g>
			<rect x="128.03" y="113.164" width="0.359" height="5.754"/>
		</g>
		<g>
			<rect x="137.622" y="113.164" width="0.359" height="5.754"/>
		</g>
		<g>
			<rect x="147.215" y="113.164" width="0.358" height="5.754"/>
		</g>
		<g>
			<rect x="7.823" y="94.933" width="0.961" height="23.984"/>
		</g>
		<g>
			<rect x="55.907" y="102.128" width="0.719" height="16.789"/>
		</g>
		<g>
			<rect x="65.68" y="109.324" width="0.359" height="9.594"/>
		</g>
		<g>
			<rect x="75.27" y="109.324" width="0.359" height="9.594"/>
		</g>
		<g>
			<rect x="84.865" y="109.324" width="0.359" height="9.594"/>
		</g>
		<g>
			<rect x="94.454" y="109.324" width="0.359" height="9.594"/>
		</g>
		<g>
			<rect x="70.475" y="113.164" width="0.359" height="5.754"/>
		</g>
		<g>
			<rect x="60.885" y="113.164" width="0.358" height="5.754"/>
		</g>
		<g>
			<rect x="80.067" y="113.164" width="0.358" height="5.754"/>
		</g>
		<g>
			<rect x="89.66" y="113.164" width="0.358" height="5.754"/>
		</g>
		<g>
			<rect x="99.253" y="113.164" width="0.358" height="5.754"/>
		</g>
		<g>
			<rect x="17.718" y="109.324" width="0.357" height="9.594"/>
		</g>
		<g>
			<rect x="27.31" y="109.324" width="0.359" height="9.594"/>
		</g>
		<g>
			<rect x="36.899" y="109.324" width="0.358" height="9.594"/>
		</g>
		<g>
			<rect x="46.492" y="109.324" width="0.358" height="9.594"/>
		</g>
		<g>
			<rect x="22.515" y="113.164" width="0.359" height="5.754"/>
		</g>
		<g>
			<rect x="12.919" y="113.164" width="0.359" height="5.754"/>
		</g>
		<g>
			<rect x="32.104" y="113.164" width="0.359" height="5.754"/>
		</g>
		<g>
			<rect x="41.693" y="113.164" width="0.359" height="5.754"/>
		</g>
		<g>
			<rect x="51.29" y="113.164" width="0.358" height="5.754"/>
		</g>
	</g>
	<g>
		<g>
			<rect x="397.96" y="2.87" width="0.961" height="23.979"/>
		</g>
		<g>
			<rect x="435.728" y="2.87" width="0.961" height="23.979"/>
		</g>
		<g>
			<rect x="416.962" y="2.87" width="0.719" height="16.787"/>
		</g>
		<g>
			<rect x="413.369" y="2.87" width="0.358" height="9.593"/>
		</g>
		<g>
			<rect x="409.594" y="2.87" width="0.358" height="9.593"/>
		</g>
		<g>
			<rect x="405.812" y="2.87" width="0.359" height="9.593"/>
		</g>
		<g>
			<rect x="402.036" y="2.87" width="0.359" height="9.593"/>
		</g>
		<g>
			<rect x="411.479" y="2.87" width="0.359" height="5.756"/>
		</g>
		<g>
			<rect x="415.257" y="2.87" width="0.359" height="5.756"/>
		</g>
		<g>
			<rect x="407.7" y="2.87" width="0.358" height="5.756"/>
		</g>
		<g>
			<rect x="403.924" y="2.87" width="0.358" height="5.756"/>
		</g>
		<g>
			<rect x="400.151" y="2.87" width="0.359" height="5.756"/>
		</g>
		<g>
			<rect x="432.25" y="2.87" width="0.358" height="9.593"/>
		</g>
		<g>
			<rect x="428.471" y="2.87" width="0.359" height="9.593"/>
		</g>
		<g>
			<rect x="424.695" y="2.87" width="0.359" height="9.593"/>
		</g>
		<g>
			<rect x="420.923" y="2.87" width="0.359" height="9.593"/>
		</g>
		<g>
			<rect x="430.362" y="2.87" width="0.359" height="5.756"/>
		</g>
		<g>
			<rect x="434.141" y="2.87" width="0.359" height="5.756"/>
		</g>
		<g>
			<rect x="426.584" y="2.87" width="0.359" height="5.756"/>
		</g>
		<g>
			<rect x="422.808" y="2.87" width="0.359" height="5.756"/>
		</g>
		<g>
			<rect x="419.032" y="2.87" width="0.359" height="5.756"/>
		</g>
		<g>
			<rect x="473.489" y="2.87" width="0.962" height="23.979"/>
		</g>
		<g>
			<rect x="454.733" y="2.87" width="0.718" height="16.787"/>
		</g>
		<g>
			<rect x="451.132" y="2.87" width="0.358" height="9.593"/>
		</g>
		<g>
			<rect x="447.355" y="2.87" width="0.358" height="9.593"/>
		</g>
		<g>
			<rect x="443.58" y="2.87" width="0.358" height="9.593"/>
		</g>
		<g>
			<rect x="439.805" y="2.87" width="0.359" height="9.593"/>
		</g>
		<g>
			<rect x="449.243" y="2.87" width="0.359" height="5.756"/>
		</g>
		<g>
			<rect x="453.019" y="2.87" width="0.359" height="5.756"/>
		</g>
		<g>
			<rect x="445.465" y="2.87" width="0.359" height="5.756"/>
		</g>
		<g>
			<rect x="441.689" y="2.87" width="0.359" height="5.756"/>
		</g>
		<g>
			<rect x="437.913" y="2.87" width="0.359" height="5.756"/>
		</g>
		<g>
			<rect x="470.016" y="2.87" width="0.359" height="9.593"/>
		</g>
		<g>
			<rect x="466.237" y="2.87" width="0.358" height="9.593"/>
		</g>
		<g>
			<rect x="462.461" y="2.87" width="0.358" height="9.593"/>
		</g>
		<g>
			<rect x="458.686" y="2.87" width="0.358" height="9.593"/>
		</g>
		<g>
			<rect x="468.127" y="2.87" width="0.359" height="5.756"/>
		</g>
		<g>
			<rect x="471.902" y="2.87" width="0.359" height="5.756"/>
		</g>
		<g>
			<rect x="464.353" y="2.87" width="0.358" height="5.756"/>
		</g>
		<g>
			<rect x="460.575" y="2.87" width="0.359" height="5.756"/>
		</g>
		<g>
			<rect x="456.797" y="2.87" width="0.359" height="5.756"/>
		</g>
		<g>
			<rect x="511.255" y="2.87" width="0.961" height="23.979"/>
		</g>
		<g>
			<rect x="492.495" y="2.87" width="0.719" height="16.787"/>
		</g>
		<g>
			<rect x="488.899" y="2.87" width="0.359" height="9.593"/>
		</g>
		<g>
			<rect x="485.123" y="2.87" width="0.359" height="9.593"/>
		</g>
		<g>
			<rect x="481.345" y="2.87" width="0.359" height="9.593"/>
		</g>
		<g>
			<rect x="477.569" y="2.87" width="0.359" height="9.593"/>
		</g>
		<g>
			<rect x="487.008" y="2.87" width="0.359" height="5.756"/>
		</g>
		<g>
			<rect x="490.784" y="2.87" width="0.359" height="5.756"/>
		</g>
		<g>
			<rect x="483.232" y="2.87" width="0.359" height="5.756"/>
		</g>
		<g>
			<rect x="479.458" y="2.87" width="0.358" height="5.756"/>
		</g>
		<g>
			<rect x="475.679" y="2.87" width="0.359" height="5.756"/>
		</g>
		<g>
			<rect x="507.78" y="2.87" width="0.359" height="9.593"/>
		</g>
		<g>
			<rect x="504.005" y="2.87" width="0.358" height="9.593"/>
		</g>
		<g>
			<rect x="500.229" y="2.87" width="0.359" height="9.593"/>
		</g>
		<g>
			<rect x="496.45" y="2.87" width="0.359" height="9.593"/>
		</g>
		<g>
			<rect x="505.896" y="2.87" width="0.359" height="5.756"/>
		</g>
		<g>
			<rect x="509.671" y="2.87" width="0.359" height="5.756"/>
		</g>
		<g>
			<rect x="502.117" y="2.87" width="0.358" height="5.756"/>
		</g>
		<g>
			<rect x="498.339" y="2.87" width="0.358" height="5.756"/>
		</g>
		<g>
			<rect x="494.563" y="2.87" width="0.358" height="5.756"/>
		</g>
		<g>
			<rect x="549.022" y="2.87" width="0.962" height="23.979"/>
		</g>
		<g>
			<rect x="530.264" y="2.87" width="0.718" height="16.787"/>
		</g>
		<g>
			<rect x="526.667" y="2.87" width="0.358" height="9.593"/>
		</g>
		<g>
			<rect x="522.886" y="2.87" width="0.359" height="9.593"/>
		</g>
		<g>
			<rect x="519.11" y="2.87" width="0.358" height="9.593"/>
		</g>
		<g>
			<rect x="515.332" y="2.87" width="0.358" height="9.593"/>
		</g>
		<g>
			<rect x="524.776" y="2.87" width="0.359" height="5.756"/>
		</g>
		<g>
			<rect x="528.552" y="2.87" width="0.359" height="5.756"/>
		</g>
		<g>
			<rect x="520.998" y="2.87" width="0.358" height="5.756"/>
		</g>
		<g>
			<rect x="517.223" y="2.87" width="0.359" height="5.756"/>
		</g>
		<g>
			<rect x="513.447" y="2.87" width="0.358" height="5.756"/>
		</g>
		<g>
			<rect x="545.549" y="2.87" width="0.358" height="9.593"/>
		</g>
		<g>
			<rect x="541.772" y="2.87" width="0.359" height="9.593"/>
		</g>
		<g>
			<rect x="537.993" y="2.87" width="0.359" height="9.593"/>
		</g>
		<g>
			<rect x="534.219" y="2.87" width="0.358" height="9.593"/>
		</g>
		<g>
			<rect x="543.657" y="2.87" width="0.359" height="5.756"/>
		</g>
		<g>
			<rect x="547.438" y="2.87" width="0.359" height="5.756"/>
		</g>
		<g>
			<rect x="539.882" y="2.87" width="0.359" height="5.756"/>
		</g>
		<g>
			<rect x="536.106" y="2.87" width="0.359" height="5.756"/>
		</g>
		<g>
			<rect x="532.328" y="2.87" width="0.359" height="5.756"/>
		</g>
		<g>
			<rect x="586.794" y="2.87" width="0.956" height="23.979"/>
		</g>
		<g>
			<rect x="568.025" y="2.87" width="0.718" height="16.787"/>
		</g>
		<g>
			<rect x="564.429" y="2.87" width="0.36" height="9.593"/>
		</g>
		<g>
			<rect x="560.654" y="2.87" width="0.357" height="9.593"/>
		</g>
		<g>
			<rect x="556.876" y="2.87" width="0.358" height="9.593"/>
		</g>
		<g>
			<rect x="553.1" y="2.87" width="0.358" height="9.593"/>
		</g>
		<g>
			<rect x="562.541" y="2.87" width="0.359" height="5.756"/>
		</g>
		<g>
			<rect x="566.32" y="2.87" width="0.358" height="5.756"/>
		</g>
		<g>
			<rect x="558.766" y="2.87" width="0.359" height="5.756"/>
		</g>
		<g>
			<rect x="554.99" y="2.87" width="0.359" height="5.756"/>
		</g>
		<g>
			<rect x="551.214" y="2.87" width="0.359" height="5.756"/>
		</g>
		<g>
			<rect x="583.313" y="2.87" width="0.359" height="9.593"/>
		</g>
		<g>
			<rect x="579.538" y="2.87" width="0.358" height="9.593"/>
		</g>
		<g>
			<rect x="575.762" y="2.87" width="0.359" height="9.593"/>
		</g>
		<g>
			<rect x="571.986" y="2.87" width="0.359" height="9.593"/>
		</g>
		<g>
			<rect x="581.426" y="2.87" width="0.358" height="5.756"/>
		</g>
		<g>
			<rect x="585.201" y="2.87" width="0.358" height="5.756"/>
		</g>
		<g>
			<rect x="577.646" y="2.87" width="0.359" height="5.756"/>
		</g>
		<g>
			<rect x="573.871" y="2.87" width="0.359" height="5.756"/>
		</g>
		<g>
			<rect x="570.096" y="2.87" width="0.358" height="5.756"/>
		</g>
		<g>
			<rect x="624.29" y="2.87" width="0.961" height="23.979"/>
		</g>
		<g>
			<rect x="605.529" y="2.87" width="0.719" height="16.787"/>
		</g>
		<g>
			<rect x="601.934" y="2.87" width="0.359" height="9.593"/>
		</g>
		<g>
			<rect x="598.156" y="2.87" width="0.358" height="9.593"/>
		</g>
		<g>
			<rect x="594.377" y="2.87" width="0.359" height="9.593"/>
		</g>
		<g>
			<rect x="590.601" y="2.87" width="0.359" height="9.593"/>
		</g>
		<g>
			<rect x="600.043" y="2.87" width="0.359" height="5.756"/>
		</g>
		<g>
			<rect x="603.819" y="2.87" width="0.358" height="5.756"/>
		</g>
		<g>
			<rect x="596.271" y="2.87" width="0.359" height="5.756"/>
		</g>
		<g>
			<rect x="592.488" y="2.87" width="0.359" height="5.756"/>
		</g>
		<g>
			<rect x="588.713" y="2.87" width="0.359" height="5.756"/>
		</g>
		<g>
			<rect x="620.814" y="2.87" width="0.359" height="9.593"/>
		</g>
		<g>
			<rect x="617.037" y="2.87" width="0.358" height="9.593"/>
		</g>
		<g>
			<rect x="613.262" y="2.87" width="0.358" height="9.593"/>
		</g>
		<g>
			<rect x="609.484" y="2.87" width="0.359" height="9.593"/>
		</g>
		<g>
			<rect x="618.927" y="2.87" width="0.359" height="5.756"/>
		</g>
		<g>
			<rect x="622.703" y="2.87" width="0.359" height="5.756"/>
		</g>
		<g>
			<rect x="615.148" y="2.87" width="0.359" height="5.756"/>
		</g>
		<g>
			<rect x="611.376" y="2.87" width="0.359" height="5.756"/>
		</g>
		<g>
			<rect x="607.6" y="2.87" width="0.359" height="5.756"/>
		</g>
		<g>
			<rect x="662.059" y="2.87" width="0.955" height="23.979"/>
		</g>
		<g>
			<rect x="643.295" y="2.87" width="0.719" height="16.787"/>
		</g>
		<g>
			<rect x="639.695" y="2.87" width="0.359" height="9.593"/>
		</g>
		<g>
			<rect x="635.92" y="2.87" width="0.359" height="9.593"/>
		</g>
		<g>
			<rect x="632.147" y="2.87" width="0.358" height="9.593"/>
		</g>
		<g>
			<rect x="628.367" y="2.87" width="0.358" height="9.593"/>
		</g>
		<g>
			<rect x="637.809" y="2.87" width="0.359" height="5.756"/>
		</g>
		<g>
			<rect x="641.588" y="2.87" width="0.358" height="5.756"/>
		</g>
		<g>
			<rect x="634.032" y="2.87" width="0.359" height="5.756"/>
		</g>
		<g>
			<rect x="630.257" y="2.87" width="0.359" height="5.756"/>
		</g>
		<g>
			<rect x="626.481" y="2.87" width="0.359" height="5.756"/>
		</g>
		<g>
			<rect x="658.58" y="2.87" width="0.359" height="9.593"/>
		</g>
		<g>
			<rect x="654.805" y="2.87" width="0.359" height="9.593"/>
		</g>
		<g>
			<rect x="651.029" y="2.87" width="0.359" height="9.593"/>
		</g>
		<g>
			<rect x="647.251" y="2.87" width="0.358" height="9.593"/>
		</g>
		<g>
			<rect x="656.689" y="2.87" width="0.359" height="5.756"/>
		</g>
		<g>
			<rect x="660.468" y="2.87" width="0.359" height="5.756"/>
		</g>
		<g>
			<rect x="652.914" y="2.87" width="0.359" height="5.756"/>
		</g>
		<g>
			<rect x="649.138" y="2.87" width="0.359" height="5.756"/>
		</g>
		<g>
			<rect x="645.362" y="2.87" width="0.359" height="5.756"/>
		</g>
		<g>
			<rect x="699.825" y="2.87" width="0.956" height="23.979"/>
		</g>
		<g>
			<rect x="681.063" y="2.87" width="0.719" height="16.787"/>
		</g>
		<g>
			<rect x="677.467" y="2.87" width="0.359" height="9.593"/>
		</g>
		<g>
			<rect x="673.686" y="2.87" width="0.359" height="9.593"/>
		</g>
		<g>
			<rect x="669.91" y="2.87" width="0.359" height="9.593"/>
		</g>
		<g>
			<rect x="666.135" y="2.87" width="0.357" height="9.593"/>
		</g>
		<g>
			<rect x="675.574" y="2.87" width="0.358" height="5.756"/>
		</g>
		<g>
			<rect x="679.352" y="2.87" width="0.359" height="5.756"/>
		</g>
		<g>
			<rect x="671.801" y="2.87" width="0.359" height="5.756"/>
		</g>
		<g>
			<rect x="668.021" y="2.87" width="0.359" height="5.756"/>
		</g>
		<g>
			<rect x="664.243" y="2.87" width="0.359" height="5.756"/>
		</g>
		<g>
			<rect x="696.348" y="2.87" width="0.359" height="9.593"/>
		</g>
		<g>
			<rect x="692.569" y="2.87" width="0.359" height="9.593"/>
		</g>
		<g>
			<rect x="688.794" y="2.87" width="0.359" height="9.593"/>
		</g>
		<g>
			<rect x="685.016" y="2.87" width="0.359" height="9.593"/>
		</g>
		<g>
			<rect x="694.457" y="2.87" width="0.359" height="5.756"/>
		</g>
		<g>
			<rect x="698.232" y="2.87" width="0.359" height="5.756"/>
		</g>
		<g>
			<rect x="690.682" y="2.87" width="0.359" height="5.756"/>
		</g>
		<g>
			<rect x="686.902" y="2.87" width="0.359" height="5.756"/>
		</g>
		<g>
			<rect x="683.127" y="2.87" width="0.359" height="5.756"/>
		</g>
		<g>
			<rect x="737.588" y="2.87" width="0.961" height="23.979"/>
		</g>
		<g>
			<rect x="718.826" y="2.87" width="0.718" height="16.787"/>
		</g>
		<g>
			<rect x="715.229" y="2.87" width="0.359" height="9.593"/>
		</g>
		<g>
			<rect x="711.453" y="2.87" width="0.359" height="9.593"/>
		</g>
		<g>
			<rect x="707.675" y="2.87" width="0.359" height="9.593"/>
		</g>
		<g>
			<rect x="703.899" y="2.87" width="0.359" height="9.593"/>
		</g>
		<g>
			<rect x="713.342" y="2.87" width="0.359" height="5.756"/>
		</g>
		<g>
			<rect x="717.12" y="2.87" width="0.358" height="5.756"/>
		</g>
		<g>
			<rect x="709.563" y="2.87" width="0.359" height="5.756"/>
		</g>
		<g>
			<rect x="705.787" y="2.87" width="0.359" height="5.756"/>
		</g>
		<g>
			<rect x="702.008" y="2.87" width="0.359" height="5.756"/>
		</g>
		<g>
			<rect x="734.113" y="2.87" width="0.359" height="9.593"/>
		</g>
		<g>
			<rect x="730.334" y="2.87" width="0.359" height="9.593"/>
		</g>
		<g>
			<rect x="726.556" y="2.87" width="0.359" height="9.593"/>
		</g>
		<g>
			<rect x="722.78" y="2.87" width="0.359" height="9.593"/>
		</g>
		<g>
			<rect x="732.223" y="2.87" width="0.359" height="5.756"/>
		</g>
		<g>
			<rect x="736.001" y="2.87" width="0.359" height="5.756"/>
		</g>
		<g>
			<rect x="728.443" y="2.87" width="0.359" height="5.756"/>
		</g>
		<g>
			<rect x="724.671" y="2.87" width="0.358" height="5.756"/>
		</g>
		<g>
			<rect x="720.896" y="2.87" width="0.359" height="5.756"/>
		</g>
		<g>
			<rect x="775.355" y="2.87" width="0.956" height="23.979"/>
		</g>
		<g>
			<rect x="756.594" y="2.87" width="0.718" height="16.787"/>
		</g>
		<g>
			<rect x="752.994" y="2.87" width="0.359" height="9.593"/>
		</g>
		<g>
			<rect x="749.219" y="2.87" width="0.359" height="9.593"/>
		</g>
		<g>
			<rect x="745.443" y="2.87" width="0.359" height="9.593"/>
		</g>
		<g>
			<rect x="741.668" y="2.87" width="0.358" height="9.593"/>
		</g>
		<g>
			<rect x="751.106" y="2.87" width="0.359" height="5.756"/>
		</g>
		<g>
			<rect x="754.882" y="2.87" width="0.359" height="5.756"/>
		</g>
		<g>
			<rect x="747.328" y="2.87" width="0.359" height="5.756"/>
		</g>
		<g>
			<rect x="743.553" y="2.87" width="0.358" height="5.756"/>
		</g>
		<g>
			<rect x="739.776" y="2.87" width="0.359" height="5.756"/>
		</g>
		<g>
			<rect x="771.875" y="2.87" width="0.359" height="9.593"/>
		</g>
		<g>
			<rect x="768.1" y="2.87" width="0.359" height="9.593"/>
		</g>
		<g>
			<rect x="764.324" y="2.87" width="0.359" height="9.593"/>
		</g>
		<g>
			<rect x="760.549" y="2.87" width="0.359" height="9.593"/>
		</g>
		<g>
			<rect x="769.987" y="2.87" width="0.359" height="5.756"/>
		</g>
		<g>
			<rect x="773.766" y="2.87" width="0.359" height="5.756"/>
		</g>
		<g>
			<rect x="766.212" y="2.87" width="0.359" height="5.756"/>
		</g>
		<g>
			<rect x="762.434" y="2.87" width="0.359" height="5.756"/>
		</g>
		<g>
			<rect x="758.658" y="2.87" width="0.358" height="5.756"/>
		</g>
		<g>
			<rect x="812.857" y="2.87" width="0.955" height="23.979"/>
		</g>
		<g>
			<rect x="794.092" y="2.87" width="0.719" height="16.787"/>
		</g>
		<g>
			<rect x="790.496" y="2.87" width="0.359" height="9.593"/>
		</g>
		<g>
			<rect x="786.72" y="2.87" width="0.359" height="9.593"/>
		</g>
		<g>
			<rect x="782.945" y="2.87" width="0.358" height="9.593"/>
		</g>
		<g>
			<rect x="779.166" y="2.87" width="0.359" height="9.593"/>
		</g>
		<g>
			<rect x="788.607" y="2.87" width="0.359" height="5.756"/>
		</g>
		<g>
			<rect x="792.383" y="2.87" width="0.359" height="5.756"/>
		</g>
		<g>
			<rect x="784.83" y="2.87" width="0.358" height="5.756"/>
		</g>
		<g>
			<rect x="781.054" y="2.87" width="0.359" height="5.756"/>
		</g>
		<g>
			<rect x="777.278" y="2.87" width="0.358" height="5.756"/>
		</g>
		<g>
			<rect x="809.377" y="2.87" width="0.359" height="9.593"/>
		</g>
		<g>
			<rect x="805.602" y="2.87" width="0.359" height="9.593"/>
		</g>
		<g>
			<rect x="801.822" y="2.87" width="0.359" height="9.593"/>
		</g>
		<g>
			<rect x="798.047" y="2.87" width="0.359" height="9.593"/>
		</g>
		<g>
			<rect x="807.488" y="2.87" width="0.359" height="5.756"/>
		</g>
		<g>
			<rect x="811.268" y="2.87" width="0.359" height="5.756"/>
		</g>
		<g>
			<rect x="803.714" y="2.87" width="0.358" height="5.756"/>
		</g>
		<g>
			<rect x="799.938" y="2.87" width="0.359" height="5.756"/>
		</g>
		<g>
			<rect x="796.162" y="2.87" width="0.359" height="5.756"/>
		</g>
		<g>
			<rect x="850.619" y="2.87" width="0.961" height="23.979"/>
		</g>
		<g>
			<rect x="831.857" y="2.87" width="0.718" height="16.787"/>
		</g>
		<g>
			<rect x="828.262" y="2.87" width="0.358" height="9.593"/>
		</g>
		<g>
			<rect x="824.482" y="2.87" width="0.359" height="9.593"/>
		</g>
		<g>
			<rect x="820.709" y="2.87" width="0.359" height="9.593"/>
		</g>
		<g>
			<rect x="816.934" y="2.87" width="0.359" height="9.593"/>
		</g>
		<g>
			<rect x="826.377" y="2.87" width="0.358" height="5.756"/>
		</g>
		<g>
			<rect x="830.148" y="2.87" width="0.359" height="5.756"/>
		</g>
		<g>
			<rect x="822.598" y="2.87" width="0.359" height="5.756"/>
		</g>
		<g>
			<rect x="818.822" y="2.87" width="0.359" height="5.756"/>
		</g>
		<g>
			<rect x="815.043" y="2.87" width="0.359" height="5.756"/>
		</g>
		<g>
			<rect x="847.143" y="2.87" width="0.358" height="9.593"/>
		</g>
		<g>
			<rect x="843.367" y="2.87" width="0.357" height="9.593"/>
		</g>
		<g>
			<rect x="839.594" y="2.87" width="0.359" height="9.593"/>
		</g>
		<g>
			<rect x="835.814" y="2.87" width="0.359" height="9.593"/>
		</g>
		<g>
			<rect x="845.254" y="2.87" width="0.359" height="5.756"/>
		</g>
		<g>
			<rect x="849.033" y="2.87" width="0.358" height="5.756"/>
		</g>
		<g>
			<rect x="841.479" y="2.87" width="0.359" height="5.756"/>
		</g>
		<g>
			<rect x="837.703" y="2.87" width="0.359" height="5.756"/>
		</g>
		<g>
			<rect x="833.928" y="2.87" width="0.359" height="5.756"/>
		</g>
		<g>
			<rect x="888.387" y="2.87" width="0.956" height="23.979"/>
		</g>
		<g>
			<rect x="869.625" y="2.87" width="0.719" height="16.787"/>
		</g>
		<g>
			<rect x="866.029" y="2.87" width="0.358" height="9.593"/>
		</g>
		<g>
			<rect x="862.251" y="2.87" width="0.358" height="9.593"/>
		</g>
		<g>
			<rect x="858.475" y="2.87" width="0.359" height="9.593"/>
		</g>
		<g>
			<rect x="854.696" y="2.87" width="0.358" height="9.593"/>
		</g>
		<g>
			<rect x="864.139" y="2.87" width="0.358" height="5.756"/>
		</g>
		<g>
			<rect x="867.914" y="2.87" width="0.359" height="5.756"/>
		</g>
		<g>
			<rect x="860.362" y="2.87" width="0.359" height="5.756"/>
		</g>
		<g>
			<rect x="856.588" y="2.87" width="0.357" height="5.756"/>
		</g>
		<g>
			<rect x="852.809" y="2.87" width="0.359" height="5.756"/>
		</g>
		<g>
			<rect x="884.91" y="2.87" width="0.359" height="9.593"/>
		</g>
		<g>
			<rect x="881.131" y="2.87" width="0.359" height="9.593"/>
		</g>
		<g>
			<rect x="877.355" y="2.87" width="0.359" height="9.593"/>
		</g>
		<g>
			<rect x="873.58" y="2.87" width="0.359" height="9.593"/>
		</g>
		<g>
			<rect x="883.021" y="2.87" width="0.359" height="5.756"/>
		</g>
		<g>
			<rect x="886.798" y="2.87" width="0.358" height="5.756"/>
		</g>
		<g>
			<rect x="879.246" y="2.87" width="0.359" height="5.756"/>
		</g>
		<g>
			<rect x="875.469" y="2.87" width="0.358" height="5.756"/>
		</g>
		<g>
			<rect x="871.689" y="2.87" width="0.359" height="5.756"/>
		</g>
		<g>
			<rect x="926.155" y="2.87" width="0.956" height="23.979"/>
		</g>
		<g>
			<rect x="907.391" y="2.87" width="0.718" height="16.787"/>
		</g>
		<g>
			<rect x="903.794" y="2.87" width="0.359" height="9.593"/>
		</g>
		<g>
			<rect x="900.016" y="2.87" width="0.359" height="9.593"/>
		</g>
		<g>
			<rect x="896.24" y="2.87" width="0.359" height="9.593"/>
		</g>
		<g>
			<rect x="892.461" y="2.87" width="0.359" height="9.593"/>
		</g>
		<g>
			<rect x="901.903" y="2.87" width="0.358" height="5.756"/>
		</g>
		<g>
			<rect x="905.682" y="2.87" width="0.359" height="5.756"/>
		</g>
		<g>
			<rect x="898.127" y="2.87" width="0.359" height="5.756"/>
		</g>
		<g>
			<rect x="894.349" y="2.87" width="0.359" height="5.756"/>
		</g>
		<g>
			<rect x="890.574" y="2.87" width="0.358" height="5.756"/>
		</g>
		<g>
			<rect x="922.675" y="2.87" width="0.359" height="9.593"/>
		</g>
		<g>
			<rect x="918.9" y="2.87" width="0.358" height="9.593"/>
		</g>
		<g>
			<rect x="915.121" y="2.87" width="0.359" height="9.593"/>
		</g>
		<g>
			<rect x="911.346" y="2.87" width="0.359" height="9.593"/>
		</g>
		<g>
			<rect x="920.787" y="2.87" width="0.359" height="5.756"/>
		</g>
		<g>
			<rect x="924.563" y="2.87" width="0.359" height="5.756"/>
		</g>
		<g>
			<rect x="917.009" y="2.87" width="0.359" height="5.756"/>
		</g>
		<g>
			<rect x="913.236" y="2.87" width="0.359" height="5.756"/>
		</g>
		<g>
			<rect x="909.461" y="2.87" width="0.358" height="5.756"/>
		</g>
		<g>
			<rect x="945.155" y="2.87" width="0.718" height="16.787"/>
		</g>
		<g>
			<rect x="941.559" y="2.87" width="0.359" height="9.593"/>
		</g>
		<g>
			<rect x="937.78" y="2.87" width="0.359" height="9.593"/>
		</g>
		<g>
			<rect x="934.006" y="2.87" width="0.357" height="9.593"/>
		</g>
		<g>
			<rect x="930.229" y="2.87" width="0.358" height="9.593"/>
		</g>
		<g>
			<rect x="939.669" y="2.87" width="0.358" height="5.756"/>
		</g>
		<g>
			<rect x="943.447" y="2.87" width="0.358" height="5.756"/>
		</g>
		<g>
			<rect x="935.893" y="2.87" width="0.359" height="5.756"/>
		</g>
		<g>
			<rect x="932.117" y="2.87" width="0.359" height="5.756"/>
		</g>
		<g>
			<rect x="928.338" y="2.87" width="0.359" height="5.756"/>
		</g>
		<g>
			<rect x="960.44" y="2.87" width="0.358" height="9.593"/>
		</g>
		<g>
			<rect x="956.664" y="2.87" width="0.359" height="9.593"/>
		</g>
		<g>
			<rect x="952.889" y="2.87" width="0.359" height="9.593"/>
		</g>
		<g>
			<rect x="949.113" y="2.87" width="0.359" height="9.593"/>
		</g>
		<g>
			<rect x="958.553" y="2.87" width="0.358" height="5.756"/>
		</g>
		<g>
			<rect x="962.328" y="2.87" width="0.359" height="5.756"/>
		</g>
		<g>
			<rect x="954.777" y="2.87" width="0.358" height="5.756"/>
		</g>
		<g>
			<rect x="950.998" y="2.87" width="0.359" height="5.756"/>
		</g>
		<g>
			<rect x="947.223" y="2.87" width="0.359" height="5.756"/>
		</g>
		<g>
			<rect x="963.652" y="2.87" width="0.959" height="23.979"/>
		</g>
		<g>
			<rect x="1001.418" y="2.87" width="0.958" height="23.979"/>
		</g>
		<g>
			<rect x="982.656" y="2.87" width="0.719" height="16.787"/>
		</g>
		<g>
			<rect x="979.058" y="2.87" width="0.359" height="9.593"/>
		</g>
		<g>
			<rect x="975.282" y="2.87" width="0.358" height="9.593"/>
		</g>
		<g>
			<rect x="971.507" y="2.87" width="0.358" height="9.593"/>
		</g>
		<g>
			<rect x="967.729" y="2.87" width="0.359" height="9.593"/>
		</g>
		<g>
			<rect x="977.17" y="2.87" width="0.359" height="5.756"/>
		</g>
		<g>
			<rect x="980.949" y="2.87" width="0.359" height="5.756"/>
		</g>
		<g>
			<rect x="973.395" y="2.87" width="0.359" height="5.756"/>
		</g>
		<g>
			<rect x="969.619" y="2.87" width="0.358" height="5.756"/>
		</g>
		<g>
			<rect x="965.84" y="2.87" width="0.359" height="5.756"/>
		</g>
		<g>
			<rect x="997.941" y="2.87" width="0.359" height="9.593"/>
		</g>
		<g>
			<rect x="994.166" y="2.87" width="0.359" height="9.593"/>
		</g>
		<g>
			<rect x="990.388" y="2.87" width="0.358" height="9.593"/>
		</g>
		<g>
			<rect x="986.612" y="2.87" width="0.358" height="9.593"/>
		</g>
		<g>
			<rect x="996.051" y="2.87" width="0.359" height="5.756"/>
		</g>
		<g>
			<rect x="999.83" y="2.87" width="0.358" height="5.756"/>
		</g>
		<g>
			<rect x="992.278" y="2.87" width="0.359" height="5.756"/>
		</g>
		<g>
			<rect x="988.502" y="2.87" width="0.359" height="5.756"/>
		</g>
		<g>
			<rect x="984.725" y="2.87" width="0.358" height="5.756"/>
		</g>
		<g>
			<rect x="1039.183" y="2.87" width="0.958" height="23.979"/>
		</g>
		<g>
			<rect x="1020.422" y="2.87" width="0.719" height="16.787"/>
		</g>
		<g>
			<rect x="1016.826" y="2.87" width="0.358" height="9.593"/>
		</g>
		<g>
			<rect x="1013.047" y="2.87" width="0.359" height="9.593"/>
		</g>
		<g>
			<rect x="1009.271" y="2.87" width="0.359" height="9.593"/>
		</g>
		<g>
			<rect x="1005.496" y="2.87" width="0.359" height="9.593"/>
		</g>
		<g>
			<rect x="1014.938" y="2.87" width="0.358" height="5.756"/>
		</g>
		<g>
			<rect x="1018.714" y="2.87" width="0.358" height="5.756"/>
		</g>
		<g>
			<rect x="1011.16" y="2.87" width="0.358" height="5.756"/>
		</g>
		<g>
			<rect x="1007.384" y="2.87" width="0.358" height="5.756"/>
		</g>
		<g>
			<rect x="1003.607" y="2.87" width="0.359" height="5.756"/>
		</g>
		<g>
			<rect x="1035.707" y="2.87" width="0.359" height="9.593"/>
		</g>
		<g>
			<rect x="1031.932" y="2.87" width="0.358" height="9.593"/>
		</g>
		<g>
			<rect x="1028.156" y="2.87" width="0.358" height="9.593"/>
		</g>
		<g>
			<rect x="1024.377" y="2.87" width="0.359" height="9.593"/>
		</g>
		<g>
			<rect x="1033.819" y="2.87" width="0.358" height="5.756"/>
		</g>
		<g>
			<rect x="1037.598" y="2.87" width="0.359" height="5.756"/>
		</g>
		<g>
			<rect x="1030.043" y="2.87" width="0.359" height="5.756"/>
		</g>
		<g>
			<rect x="1026.268" y="2.87" width="0.359" height="5.756"/>
		</g>
		<g>
			<rect x="1022.489" y="2.87" width="0.358" height="5.756"/>
		</g>
		<g>
			<rect x="1076.951" y="2.87" width="0.958" height="23.979"/>
		</g>
		<g>
			<rect x="1058.188" y="2.87" width="0.718" height="16.787"/>
		</g>
		<g>
			<rect x="1054.591" y="2.87" width="0.359" height="9.593"/>
		</g>
		<g>
			<rect x="1050.814" y="2.87" width="0.359" height="9.593"/>
		</g>
		<g>
			<rect x="1047.037" y="2.87" width="0.358" height="9.593"/>
		</g>
		<g>
			<rect x="1043.262" y="2.87" width="0.358" height="9.593"/>
		</g>
		<g>
			<rect x="1052.703" y="2.87" width="0.359" height="5.756"/>
		</g>
		<g>
			<rect x="1056.479" y="2.87" width="0.359" height="5.756"/>
		</g>
		<g>
			<rect x="1048.928" y="2.87" width="0.359" height="5.756"/>
		</g>
		<g>
			<rect x="1045.148" y="2.87" width="0.359" height="5.756"/>
		</g>
		<g>
			<rect x="1041.373" y="2.87" width="0.359" height="5.756"/>
		</g>
		<g>
			<rect x="1073.475" y="2.87" width="0.359" height="9.593"/>
		</g>
		<g>
			<rect x="1069.696" y="2.87" width="0.359" height="9.593"/>
		</g>
		<g>
			<rect x="1065.92" y="2.87" width="0.359" height="9.593"/>
		</g>
		<g>
			<rect x="1062.146" y="2.87" width="0.358" height="9.593"/>
		</g>
		<g>
			<rect x="1071.588" y="2.87" width="0.358" height="5.756"/>
		</g>
		<g>
			<rect x="1075.363" y="2.87" width="0.358" height="5.756"/>
		</g>
		<g>
			<rect x="1067.809" y="2.87" width="0.359" height="5.756"/>
		</g>
		<g>
			<rect x="1064.033" y="2.87" width="0.359" height="5.756"/>
		</g>
		<g>
			<rect x="1060.258" y="2.87" width="0.358" height="5.756"/>
		</g>
		<g>
			<rect x="1114.716" y="2.87" width="0.958" height="23.979"/>
		</g>
		<g>
			<rect x="1095.955" y="2.87" width="0.718" height="16.787"/>
		</g>
		<g>
			<rect x="1092.356" y="2.87" width="0.358" height="9.593"/>
		</g>
		<g>
			<rect x="1088.58" y="2.87" width="0.359" height="9.593"/>
		</g>
		<g>
			<rect x="1084.805" y="2.87" width="0.359" height="9.593"/>
		</g>
		<g>
			<rect x="1081.025" y="2.87" width="0.359" height="9.593"/>
		</g>
		<g>
			<rect x="1090.469" y="2.87" width="0.358" height="5.756"/>
		</g>
		<g>
			<rect x="1094.244" y="2.87" width="0.359" height="5.756"/>
		</g>
		<g>
			<rect x="1086.689" y="2.87" width="0.359" height="5.756"/>
		</g>
		<g>
			<rect x="1082.914" y="2.87" width="0.359" height="5.756"/>
		</g>
		<g>
			<rect x="1079.139" y="2.87" width="0.359" height="5.756"/>
		</g>
		<g>
			<rect x="1111.24" y="2.87" width="0.359" height="9.593"/>
		</g>
		<g>
			<rect x="1107.465" y="2.87" width="0.358" height="9.593"/>
		</g>
		<g>
			<rect x="1103.686" y="2.87" width="0.359" height="9.593"/>
		</g>
		<g>
			<rect x="1099.91" y="2.87" width="0.359" height="9.593"/>
		</g>
		<g>
			<rect x="1109.352" y="2.87" width="0.359" height="5.756"/>
		</g>
		<g>
			<rect x="1113.128" y="2.87" width="0.358" height="5.756"/>
		</g>
		<g>
			<rect x="1105.574" y="2.87" width="0.358" height="5.756"/>
		</g>
		<g>
			<rect x="1101.799" y="2.87" width="0.357" height="5.756"/>
		</g>
		<g>
			<rect x="1098.022" y="2.87" width="0.359" height="5.756"/>
		</g>
		<g>
			<rect x="1152.481" y="2.87" width="0.958" height="23.979"/>
		</g>
		<g>
			<rect x="1133.717" y="2.87" width="0.719" height="16.787"/>
		</g>
		<g>
			<rect x="1130.121" y="2.87" width="0.359" height="9.593"/>
		</g>
		<g>
			<rect x="1126.343" y="2.87" width="0.358" height="9.593"/>
		</g>
		<g>
			<rect x="1122.566" y="2.87" width="0.359" height="9.593"/>
		</g>
		<g>
			<rect x="1118.795" y="2.87" width="0.358" height="9.593"/>
		</g>
		<g>
			<rect x="1128.232" y="2.87" width="0.359" height="5.756"/>
		</g>
		<g>
			<rect x="1132.012" y="2.87" width="0.359" height="5.756"/>
		</g>
		<g>
			<rect x="1124.457" y="2.87" width="0.359" height="5.756"/>
		</g>
		<g>
			<rect x="1120.682" y="2.87" width="0.359" height="5.756"/>
		</g>
		<g>
			<rect x="1116.903" y="2.87" width="0.359" height="5.756"/>
		</g>
		<g>
			<rect x="1149.006" y="2.87" width="0.358" height="9.593"/>
		</g>
		<g>
			<rect x="1145.229" y="2.87" width="0.358" height="9.593"/>
		</g>
		<g>
			<rect x="1141.453" y="2.87" width="0.359" height="9.593"/>
		</g>
		<g>
			<rect x="1137.675" y="2.87" width="0.359" height="9.593"/>
		</g>
		<g>
			<rect x="1147.117" y="2.87" width="0.359" height="5.756"/>
		</g>
		<g>
			<rect x="1150.893" y="2.87" width="0.359" height="5.756"/>
		</g>
		<g>
			<rect x="1143.342" y="2.87" width="0.359" height="5.756"/>
		</g>
		<g>
			<rect x="1139.563" y="2.87" width="0.358" height="5.756"/>
		</g>
		<g>
			<rect x="1135.787" y="2.87" width="0.359" height="5.756"/>
		</g>
	</g>
	<g>
		<g>
			<rect x="20.839" y="2.87" width="0.961" height="23.979"/>
		</g>
		<g>
			<rect x="58.34" y="2.87" width="0.961" height="23.979"/>
		</g>
		<g>
			<rect x="39.578" y="2.87" width="0.718" height="16.787"/>
		</g>
		<g>
			<rect x="35.981" y="2.87" width="0.359" height="9.593"/>
		</g>
		<g>
			<rect x="32.206" y="2.87" width="0.359" height="9.593"/>
		</g>
		<g>
			<rect x="28.43" y="2.87" width="0.358" height="9.593"/>
		</g>
		<g>
			<rect x="24.652" y="2.87" width="0.357" height="9.593"/>
		</g>
		<g>
			<rect x="34.093" y="2.87" width="0.359" height="5.756"/>
		</g>
		<g>
			<rect x="37.869" y="2.87" width="0.359" height="5.756"/>
		</g>
		<g>
			<rect x="30.314" y="2.87" width="0.359" height="5.756"/>
		</g>
		<g>
			<rect x="26.539" y="2.87" width="0.359" height="5.756"/>
		</g>
		<g>
			<rect x="22.761" y="2.87" width="0.359" height="5.756"/>
		</g>
		<g>
			<rect x="54.862" y="2.87" width="0.359" height="9.593"/>
		</g>
		<g>
			<rect x="51.087" y="2.87" width="0.359" height="9.593"/>
		</g>
		<g>
			<rect x="47.308" y="2.87" width="0.359" height="9.593"/>
		</g>
		<g>
			<rect x="43.532" y="2.87" width="0.359" height="9.593"/>
		</g>
		<g>
			<rect x="52.975" y="2.87" width="0.359" height="5.756"/>
		</g>
		<g>
			<rect x="56.753" y="2.87" width="0.359" height="5.756"/>
		</g>
		<g>
			<rect x="49.198" y="2.87" width="0.359" height="5.756"/>
		</g>
		<g>
			<rect x="45.42" y="2.87" width="0.359" height="5.756"/>
		</g>
		<g>
			<rect x="41.645" y="2.87" width="0.359" height="5.756"/>
		</g>
		<g>
			<rect x="96.104" y="2.87" width="0.961" height="23.979"/>
		</g>
		<g>
			<rect x="77.343" y="2.87" width="0.719" height="16.787"/>
		</g>
		<g>
			<rect x="73.746" y="2.87" width="0.359" height="9.593"/>
		</g>
		<g>
			<rect x="69.968" y="2.87" width="0.359" height="9.593"/>
		</g>
		<g>
			<rect x="66.192" y="2.87" width="0.359" height="9.593"/>
		</g>
		<g>
			<rect x="62.417" y="2.87" width="0.359" height="9.593"/>
		</g>
		<g>
			<rect x="71.861" y="2.87" width="0.358" height="5.756"/>
		</g>
		<g>
			<rect x="75.634" y="2.87" width="0.359" height="5.756"/>
		</g>
		<g>
			<rect x="68.08" y="2.87" width="0.359" height="5.756"/>
		</g>
		<g>
			<rect x="64.304" y="2.87" width="0.359" height="5.756"/>
		</g>
		<g>
			<rect x="60.528" y="2.87" width="0.359" height="5.756"/>
		</g>
		<g>
			<rect x="92.628" y="2.87" width="0.359" height="9.593"/>
		</g>
		<g>
			<rect x="88.852" y="2.87" width="0.359" height="9.593"/>
		</g>
		<g>
			<rect x="85.076" y="2.87" width="0.359" height="9.593"/>
		</g>
		<g>
			<rect x="81.301" y="2.87" width="0.359" height="9.593"/>
		</g>
		<g>
			<rect x="90.739" y="2.87" width="0.359" height="5.756"/>
		</g>
		<g>
			<rect x="94.519" y="2.87" width="0.359" height="5.756"/>
		</g>
		<g>
			<rect x="86.964" y="2.87" width="0.359" height="5.756"/>
		</g>
		<g>
			<rect x="83.188" y="2.87" width="0.358" height="5.756"/>
		</g>
		<g>
			<rect x="79.413" y="2.87" width="0.359" height="5.756"/>
		</g>
		<g>
			<rect x="133.87" y="2.87" width="0.962" height="23.979"/>
		</g>
		<g>
			<rect x="115.107" y="2.87" width="0.719" height="16.787"/>
		</g>
		<g>
			<rect x="111.512" y="2.87" width="0.359" height="9.593"/>
		</g>
		<g>
			<rect x="107.735" y="2.87" width="0.359" height="9.593"/>
		</g>
		<g>
			<rect x="103.96" y="2.87" width="0.359" height="9.593"/>
		</g>
		<g>
			<rect x="100.182" y="2.87" width="0.359" height="9.593"/>
		</g>
		<g>
			<rect x="109.624" y="2.87" width="0.359" height="5.756"/>
		</g>
		<g>
			<rect x="113.399" y="2.87" width="0.359" height="5.756"/>
		</g>
		<g>
			<rect x="105.849" y="2.87" width="0.359" height="5.756"/>
		</g>
		<g>
			<rect x="102.072" y="2.87" width="0.359" height="5.756"/>
		</g>
		<g>
			<rect x="98.294" y="2.87" width="0.359" height="5.756"/>
		</g>
		<g>
			<rect x="130.396" y="2.87" width="0.359" height="9.593"/>
		</g>
		<g>
			<rect x="126.614" y="2.87" width="0.359" height="9.593"/>
		</g>
		<g>
			<rect x="122.841" y="2.87" width="0.359" height="9.593"/>
		</g>
		<g>
			<rect x="119.065" y="2.87" width="0.359" height="9.593"/>
		</g>
		<g>
			<rect x="128.508" y="2.87" width="0.359" height="5.756"/>
		</g>
		<g>
			<rect x="132.283" y="2.87" width="0.359" height="5.756"/>
		</g>
		<g>
			<rect x="124.732" y="2.87" width="0.359" height="5.756"/>
		</g>
		<g>
			<rect x="120.954" y="2.87" width="0.359" height="5.756"/>
		</g>
		<g>
			<rect x="117.176" y="2.87" width="0.358" height="5.756"/>
		</g>
		<g>
			<rect x="171.638" y="2.87" width="0.963" height="23.979"/>
		</g>
		<g>
			<rect x="152.876" y="2.87" width="0.718" height="16.787"/>
		</g>
		<g>
			<rect x="149.28" y="2.87" width="0.359" height="9.593"/>
		</g>
		<g>
			<rect x="145.502" y="2.87" width="0.358" height="9.593"/>
		</g>
		<g>
			<rect x="141.726" y="2.87" width="0.358" height="9.593"/>
		</g>
		<g>
			<rect x="137.946" y="2.87" width="0.359" height="9.593"/>
		</g>
		<g>
			<rect x="147.389" y="2.87" width="0.359" height="5.756"/>
		</g>
		<g>
			<rect x="151.167" y="2.87" width="0.359" height="5.756"/>
		</g>
		<g>
			<rect x="143.613" y="2.87" width="0.359" height="5.756"/>
		</g>
		<g>
			<rect x="139.835" y="2.87" width="0.359" height="5.756"/>
		</g>
		<g>
			<rect x="136.06" y="2.87" width="0.359" height="5.756"/>
		</g>
		<g>
			<rect x="168.161" y="2.87" width="0.359" height="9.593"/>
		</g>
		<g>
			<rect x="164.386" y="2.87" width="0.359" height="9.593"/>
		</g>
		<g>
			<rect x="160.607" y="2.87" width="0.358" height="9.593"/>
		</g>
		<g>
			<rect x="156.831" y="2.87" width="0.358" height="9.593"/>
		</g>
		<g>
			<rect x="166.272" y="2.87" width="0.359" height="5.756"/>
		</g>
		<g>
			<rect x="170.046" y="2.87" width="0.359" height="5.756"/>
		</g>
		<g>
			<rect x="162.494" y="2.87" width="0.359" height="5.756"/>
		</g>
		<g>
			<rect x="158.719" y="2.87" width="0.359" height="5.756"/>
		</g>
		<g>
			<rect x="154.943" y="2.87" width="0.359" height="5.756"/>
		</g>
		<g>
			<rect x="190.641" y="2.87" width="0.719" height="16.787"/>
		</g>
		<g>
			<rect x="187.045" y="2.87" width="0.359" height="9.593"/>
		</g>
		<g>
			<rect x="183.267" y="2.87" width="0.359" height="9.593"/>
		</g>
		<g>
			<rect x="179.491" y="2.87" width="0.358" height="9.593"/>
		</g>
		<g>
			<rect x="175.715" y="2.87" width="0.359" height="9.593"/>
		</g>
		<g>
			<rect x="185.154" y="2.87" width="0.358" height="5.756"/>
		</g>
		<g>
			<rect x="188.934" y="2.87" width="0.357" height="5.756"/>
		</g>
		<g>
			<rect x="181.378" y="2.87" width="0.359" height="5.756"/>
		</g>
		<g>
			<rect x="177.603" y="2.87" width="0.359" height="5.756"/>
		</g>
		<g>
			<rect x="173.824" y="2.87" width="0.359" height="5.756"/>
		</g>
		<g>
			<rect x="205.926" y="2.87" width="0.359" height="9.593"/>
		</g>
		<g>
			<rect x="202.15" y="2.87" width="0.358" height="9.593"/>
		</g>
		<g>
			<rect x="198.374" y="2.87" width="0.359" height="9.593"/>
		</g>
		<g>
			<rect x="194.599" y="2.87" width="0.359" height="9.593"/>
		</g>
		<g>
			<rect x="204.038" y="2.87" width="0.358" height="5.756"/>
		</g>
		<g>
			<rect x="207.814" y="2.87" width="0.357" height="5.756"/>
		</g>
		<g>
			<rect x="200.263" y="2.87" width="0.358" height="5.756"/>
		</g>
		<g>
			<rect x="196.483" y="2.87" width="0.359" height="5.756"/>
		</g>
		<g>
			<rect x="192.705" y="2.87" width="0.359" height="5.756"/>
		</g>
		<g>
			<rect x="209.134" y="2.87" width="0.961" height="23.979"/>
		</g>
		<g>
			<rect x="246.902" y="2.87" width="0.961" height="23.979"/>
		</g>
		<g>
			<rect x="228.14" y="2.87" width="0.718" height="16.787"/>
		</g>
		<g>
			<rect x="224.543" y="2.87" width="0.359" height="9.593"/>
		</g>
		<g>
			<rect x="220.768" y="2.87" width="0.359" height="9.593"/>
		</g>
		<g>
			<rect x="216.991" y="2.87" width="0.359" height="9.593"/>
		</g>
		<g>
			<rect x="213.213" y="2.87" width="0.359" height="9.593"/>
		</g>
		<g>
			<rect x="222.655" y="2.87" width="0.359" height="5.756"/>
		</g>
		<g>
			<rect x="226.434" y="2.87" width="0.359" height="5.756"/>
		</g>
		<g>
			<rect x="218.88" y="2.87" width="0.359" height="5.756"/>
		</g>
		<g>
			<rect x="215.104" y="2.87" width="0.359" height="5.756"/>
		</g>
		<g>
			<rect x="211.326" y="2.87" width="0.358" height="5.756"/>
		</g>
		<g>
			<rect x="243.428" y="2.87" width="0.358" height="9.593"/>
		</g>
		<g>
			<rect x="239.652" y="2.87" width="0.358" height="9.593"/>
		</g>
		<g>
			<rect x="235.873" y="2.87" width="0.359" height="9.593"/>
		</g>
		<g>
			<rect x="232.095" y="2.87" width="0.359" height="9.593"/>
		</g>
		<g>
			<rect x="241.537" y="2.87" width="0.359" height="5.756"/>
		</g>
		<g>
			<rect x="245.315" y="2.87" width="0.359" height="5.756"/>
		</g>
		<g>
			<rect x="237.764" y="2.87" width="0.359" height="5.756"/>
		</g>
		<g>
			<rect x="233.988" y="2.87" width="0.359" height="5.756"/>
		</g>
		<g>
			<rect x="230.21" y="2.87" width="0.359" height="5.756"/>
		</g>
		<g>
			<rect x="284.667" y="2.87" width="0.961" height="23.979"/>
		</g>
		<g>
			<rect x="265.908" y="2.87" width="0.717" height="16.787"/>
		</g>
		<g>
			<rect x="262.312" y="2.87" width="0.359" height="9.593"/>
		</g>
		<g>
			<rect x="258.533" y="2.87" width="0.358" height="9.593"/>
		</g>
		<g>
			<rect x="254.754" y="2.87" width="0.359" height="9.593"/>
		</g>
		<g>
			<rect x="250.979" y="2.87" width="0.358" height="9.593"/>
		</g>
		<g>
			<rect x="260.423" y="2.87" width="0.359" height="5.756"/>
		</g>
		<g>
			<rect x="264.199" y="2.87" width="0.359" height="5.756"/>
		</g>
		<g>
			<rect x="256.645" y="2.87" width="0.359" height="5.756"/>
		</g>
		<g>
			<rect x="252.866" y="2.87" width="0.359" height="5.756"/>
		</g>
		<g>
			<rect x="249.091" y="2.87" width="0.359" height="5.756"/>
		</g>
		<g>
			<rect x="281.192" y="2.87" width="0.359" height="9.593"/>
		</g>
		<g>
			<rect x="277.414" y="2.87" width="0.358" height="9.593"/>
		</g>
		<g>
			<rect x="273.642" y="2.87" width="0.359" height="9.593"/>
		</g>
		<g>
			<rect x="269.863" y="2.87" width="0.359" height="9.593"/>
		</g>
		<g>
			<rect x="279.305" y="2.87" width="0.359" height="5.756"/>
		</g>
		<g>
			<rect x="283.084" y="2.87" width="0.358" height="5.756"/>
		</g>
		<g>
			<rect x="275.526" y="2.87" width="0.359" height="5.756"/>
		</g>
		<g>
			<rect x="271.75" y="2.87" width="0.359" height="5.756"/>
		</g>
		<g>
			<rect x="267.975" y="2.87" width="0.359" height="5.756"/>
		</g>
		<g>
			<rect x="322.432" y="2.87" width="0.963" height="23.979"/>
		</g>
		<g>
			<rect x="303.672" y="2.87" width="0.719" height="16.787"/>
		</g>
		<g>
			<rect x="300.074" y="2.87" width="0.359" height="9.593"/>
		</g>
		<g>
			<rect x="296.298" y="2.87" width="0.359" height="9.593"/>
		</g>
		<g>
			<rect x="292.522" y="2.87" width="0.359" height="9.593"/>
		</g>
		<g>
			<rect x="288.747" y="2.87" width="0.359" height="9.593"/>
		</g>
		<g>
			<rect x="298.186" y="2.87" width="0.359" height="5.756"/>
		</g>
		<g>
			<rect x="301.961" y="2.87" width="0.359" height="5.756"/>
		</g>
		<g>
			<rect x="294.411" y="2.87" width="0.358" height="5.756"/>
		</g>
		<g>
			<rect x="290.634" y="2.87" width="0.359" height="5.756"/>
		</g>
		<g>
			<rect x="286.859" y="2.87" width="0.358" height="5.756"/>
		</g>
		<g>
			<rect x="318.958" y="2.87" width="0.359" height="9.593"/>
		</g>
		<g>
			<rect x="315.182" y="2.87" width="0.359" height="9.593"/>
		</g>
		<g>
			<rect x="311.406" y="2.87" width="0.359" height="9.593"/>
		</g>
		<g>
			<rect x="307.631" y="2.87" width="0.359" height="9.593"/>
		</g>
		<g>
			<rect x="317.073" y="2.87" width="0.359" height="5.756"/>
		</g>
		<g>
			<rect x="320.846" y="2.87" width="0.358" height="5.756"/>
		</g>
		<g>
			<rect x="313.295" y="2.87" width="0.359" height="5.756"/>
		</g>
		<g>
			<rect x="309.519" y="2.87" width="0.359" height="5.756"/>
		</g>
		<g>
			<rect x="305.743" y="2.87" width="0.359" height="5.756"/>
		</g>
		<g>
			<rect x="360.2" y="2.87" width="0.961" height="23.979"/>
		</g>
		<g>
			<rect x="341.438" y="2.87" width="0.718" height="16.787"/>
		</g>
		<g>
			<rect x="337.843" y="2.87" width="0.357" height="9.593"/>
		</g>
		<g>
			<rect x="334.065" y="2.87" width="0.359" height="9.593"/>
		</g>
		<g>
			<rect x="330.291" y="2.87" width="0.358" height="9.593"/>
		</g>
		<g>
			<rect x="326.512" y="2.87" width="0.359" height="9.593"/>
		</g>
		<g>
			<rect x="335.954" y="2.87" width="0.359" height="5.756"/>
		</g>
		<g>
			<rect x="339.729" y="2.87" width="0.359" height="5.756"/>
		</g>
		<g>
			<rect x="332.176" y="2.87" width="0.358" height="5.756"/>
		</g>
		<g>
			<rect x="328.4" y="2.87" width="0.358" height="5.756"/>
		</g>
		<g>
			<rect x="324.622" y="2.87" width="0.358" height="5.756"/>
		</g>
		<g>
			<rect x="356.726" y="2.87" width="0.358" height="9.593"/>
		</g>
		<g>
			<rect x="352.95" y="2.87" width="0.359" height="9.593"/>
		</g>
		<g>
			<rect x="349.171" y="2.87" width="0.359" height="9.593"/>
		</g>
		<g>
			<rect x="345.393" y="2.87" width="0.359" height="9.593"/>
		</g>
		<g>
			<rect x="354.838" y="2.87" width="0.358" height="5.756"/>
		</g>
		<g>
			<rect x="358.613" y="2.87" width="0.359" height="5.756"/>
		</g>
		<g>
			<rect x="351.057" y="2.87" width="0.358" height="5.756"/>
		</g>
		<g>
			<rect x="347.281" y="2.87" width="0.359" height="5.756"/>
		</g>
		<g>
			<rect x="343.506" y="2.87" width="0.358" height="5.756"/>
		</g>
		<g>
			<rect x="379.203" y="2.87" width="0.718" height="16.787"/>
		</g>
		<g>
			<rect x="375.606" y="2.87" width="0.358" height="9.593"/>
		</g>
		<g>
			<rect x="371.829" y="2.87" width="0.357" height="9.593"/>
		</g>
		<g>
			<rect x="368.052" y="2.87" width="0.359" height="9.593"/>
		</g>
		<g>
			<rect x="364.277" y="2.87" width="0.358" height="9.593"/>
		</g>
		<g>
			<rect x="373.716" y="2.87" width="0.359" height="5.756"/>
		</g>
		<g>
			<rect x="377.497" y="2.87" width="0.359" height="5.756"/>
		</g>
		<g>
			<rect x="369.94" y="2.87" width="0.359" height="5.756"/>
		</g>
		<g>
			<rect x="366.165" y="2.87" width="0.358" height="5.756"/>
		</g>
		<g>
			<rect x="362.389" y="2.87" width="0.359" height="5.756"/>
		</g>
		<g>
			<rect x="394.49" y="2.87" width="0.359" height="9.593"/>
		</g>
		<g>
			<rect x="390.712" y="2.87" width="0.358" height="9.593"/>
		</g>
		<g>
			<rect x="386.937" y="2.87" width="0.359" height="9.593"/>
		</g>
		<g>
			<rect x="383.161" y="2.87" width="0.359" height="9.593"/>
		</g>
		<g>
			<rect x="392.6" y="2.87" width="0.359" height="5.756"/>
		</g>
		<g>
			<rect x="396.378" y="2.87" width="0.359" height="5.756"/>
		</g>
		<g>
			<rect x="388.824" y="2.87" width="0.359" height="5.756"/>
		</g>
		<g>
			<rect x="385.048" y="2.87" width="0.359" height="5.756"/>
		</g>
		<g>
			<rect x="381.272" y="2.87" width="0.359" height="5.756"/>
		</g>
	</g>
	<g>
		<path d="M1162.264,85.664c0,3.174-1.033,4.928-2.859,4.928c-1.827,0-2.861-1.754-2.861-4.928c0-3.191,1.034-5.002,2.861-5.002
			C1161.23,80.662,1162.264,82.472,1162.264,85.664z M1157.219,85.664c0,2.92,0.852,4.359,2.186,4.359
			c1.317,0,2.186-1.439,2.186-4.359s-0.868-4.432-2.186-4.432C1158.07,81.232,1157.219,82.744,1157.219,85.664z"/>
	</g>
	<g>
		<path d="M1129.973,97.837c0,0.373-0.27,0.6-0.6,0.6c-0.329,0-0.598-0.227-0.598-0.6c0-0.344,0.269-0.582,0.598-0.582
			C1129.703,97.255,1129.973,97.494,1129.973,97.837z M1129.717,95.519h-0.658V88.33h0.658V95.519z"/>
		<path d="M1126.289,95.519h-0.568l-0.061-1.109h-0.045c-0.732,0.732-1.482,1.289-2.471,1.289c-1.482,0-2.172-0.9-2.172-2.758V88.33
			h0.659v4.521c0,1.527,0.479,2.244,1.647,2.244c0.854,0,1.468-0.445,2.352-1.346v-5.42h0.658V95.519z"/>
		<path d="M1115.643,95.699c-0.988,0-1.633-0.436-2.112-0.887l0.39-0.463c0.465,0.434,1.004,0.764,1.707,0.764
			c1.467,0,2.605-1.303,2.605-3.205c0-1.885-1.032-3.176-2.605-3.176c-0.764,0-1.422,0.377-1.917,0.824l-0.343-0.447
			c0.613-0.557,1.377-0.959,2.29-0.959c1.857,0,3.265,1.377,3.265,3.758C1118.922,94.32,1117.395,95.699,1115.643,95.699z"/>
		<path d="M1111.6,99.097h-0.659v-3.115v-1.586c-0.749,0.746-1.497,1.303-2.485,1.303c-1.482,0-2.172-0.9-2.172-2.758V88.33h0.658
			v4.521c0,1.527,0.479,2.244,1.648,2.244c0.854,0,1.468-0.445,2.351-1.346v-5.42h0.659V99.097z"/>
		<path d="M1101.162,95.699c-1.707,0-2.755-1.217-2.755-3.324c0-0.18,0-0.359,0.03-0.543h5.182
			c-0.031-1.809-1.093-3.111-2.711-3.111c-0.778,0-1.393,0.254-1.932,0.643l-0.27-0.51c0.569-0.344,1.213-0.703,2.262-0.703
			c1.842,0,3.324,1.406,3.324,3.758S1102.766,95.699,1101.162,95.699z M1099.035,92.341c0,1.842,0.824,2.787,2.113,2.787
			c1.227,0,2.32-1.063,2.471-2.787H1099.035z"/>
		<path d="M1096.971,89.632c-0.613-0.51-1.258-0.912-2.291-0.912c-1.122,0-1.707,0.656-1.707,1.42c0,0.898,0.93,1.289,1.752,1.588
			c1.095,0.391,2.292,0.826,2.292,2.053c0,1.049-0.824,1.918-2.321,1.918c-0.764,0-1.527-0.316-2.051-0.75l0.359-0.467
			c0.479,0.361,0.988,0.646,1.721,0.646c1.109,0,1.618-0.646,1.618-1.303c0-0.795-0.839-1.139-1.692-1.451
			c-1.123-0.424-2.351-0.793-2.351-2.205c0-1.076,0.868-2.02,2.425-2.02c1.064,0,1.992,0.447,2.637,0.986L1096.971,89.632z"/>
	</g>
	<g>
		<path d="M34.675,26.086c0.987,0,1.631,0.435,2.111,0.886l-0.391,0.464C35.933,27,35.394,26.67,34.69,26.67
			c-1.468,0-2.606,1.303-2.606,3.205c0,1.886,1.034,3.177,2.606,3.177c0.764,0,1.422-0.376,1.916-0.824l0.345,0.448
			c-0.614,0.556-1.378,0.959-2.292,0.959c-1.857,0-3.264-1.379-3.264-3.76C31.396,27.464,32.921,26.086,34.675,26.086z"/>
		<path d="M38.718,26.266h0.567l0.062,1.108h0.045c0.644-0.732,1.467-1.288,2.262-1.288c1.152,0,1.734,0.584,1.989,1.471
			c0.825-0.9,1.618-1.471,2.441-1.471c1.438,0,2.157,0.9,2.157,2.757v4.612h-0.676v-4.523c0-1.525-0.507-2.244-1.601-2.244
			c-0.675,0-1.363,0.446-2.157,1.347v5.421h-0.656v-4.523c0-1.525-0.511-2.244-1.619-2.244c-0.643,0-1.364,0.446-2.156,1.347v5.421
			h-0.658V26.266z"/>
	</g>
	<g>
		<path d="M18.311,36.173c0-3.176,1.034-4.928,2.861-4.928s2.86,1.752,2.86,4.928c0,3.191-1.033,5.001-2.86,5.001
			S18.311,39.364,18.311,36.173z M23.358,36.173c0-2.921-0.855-4.36-2.187-4.36c-1.318,0-2.187,1.439-2.187,4.36
			c0,2.919,0.868,4.431,2.187,4.431C22.503,40.604,23.358,39.092,23.358,36.173z"/>
	</g>
	<g>
		<path d="M56.57,40.412h2.247v-7.938h-1.705v-0.45c0.779-0.135,1.394-0.344,1.842-0.599h0.539v8.987h2.081v0.582H56.57V40.412z"/>
	</g>
	<g>
		<path d="M93.655,40.574c3.146-3.19,4.717-4.971,4.717-6.633c0-1.196-0.643-2.129-2.082-2.129c-0.868,0-1.646,0.542-2.229,1.261
			l-0.435-0.421c0.718-0.793,1.558-1.407,2.724-1.407c1.709,0,2.696,1.065,2.696,2.681c0,1.9-1.737,3.729-4.386,6.544
			c0.523-0.028,1.076-0.075,1.601-0.075h3.263v0.6h-5.869V40.574z"/>
	</g>
	<g>
		<path d="M131.591,39.364c0.57,0.626,1.336,1.228,2.653,1.228c1.288,0,2.229-0.839,2.229-2.113c0-1.318-0.958-2.218-3.34-2.218
			v-0.583c2.219,0,2.998-0.929,2.998-2.081c0-1.077-0.765-1.784-1.935-1.784c-0.882,0-1.647,0.467-2.2,1.048l-0.389-0.445
			c0.657-0.646,1.482-1.17,2.589-1.17c1.482,0,2.621,0.84,2.621,2.306c0,1.259-0.779,2.009-1.827,2.368v0.058
			c1.184,0.255,2.171,1.141,2.171,2.487c0,1.662-1.271,2.71-2.918,2.71c-1.528,0-2.427-0.704-3.04-1.346L131.591,39.364z"/>
	</g>
	<g>
		<path d="M175.208,38.134h-1.424v2.86h-0.644v-2.86h-4.404v-0.392l4.451-6.317h0.597v6.139h1.424V38.134z M173.141,37.563V34.06
			c0-0.434,0.029-1.21,0.058-1.645h-0.058c-0.24,0.403-0.509,0.765-0.779,1.198l-2.817,3.95H173.141z"/>
	</g>
	<g>
		<path d="M206.988,39.422c0.57,0.586,1.321,1.17,2.624,1.17c1.271,0,2.38-1.037,2.38-2.577c0-1.543-0.915-2.473-2.337-2.473
			c-0.732,0-1.213,0.255-1.781,0.646l-0.466-0.286l0.345-4.477h4.419v0.585h-3.819l-0.298,3.457
			c0.492-0.298,1.001-0.509,1.704-0.509c1.619,0,2.922,0.932,2.922,3.027c0,2.036-1.514,3.188-3.057,3.188
			c-1.526,0-2.396-0.675-3.01-1.288L206.988,39.422z"/>
	</g>
	<g>
		<path d="M249.864,32.623c-0.423-0.523-1.005-0.793-1.619-0.793c-1.514,0-2.816,1.199-2.846,4.717
			c0.66-0.808,1.529-1.335,2.411-1.335c1.678,0,2.668,1.036,2.668,2.965c0,1.737-1.199,2.997-2.624,2.997
			c-1.916,0-3.127-1.619-3.127-4.522c0-4.014,1.674-5.406,3.518-5.406c0.898,0,1.525,0.377,2.021,0.93L249.864,32.623z
			 M249.801,38.177c0-1.375-0.614-2.395-2.064-2.395c-0.675,0-1.544,0.391-2.319,1.439c0.115,2.021,0.897,3.382,2.455,3.382
			C248.978,40.604,249.801,39.544,249.801,38.177z"/>
	</g>
	<g>
		<path d="M287.38,32.01h-5.047v-0.585h5.884v0.388c-2.287,3.041-2.857,5.438-3.009,9.182h-0.719
			C284.638,37.129,285.448,34.705,287.38,32.01z"/>
	</g>
	<g>
		<path d="M321.914,35.844v-0.062c-0.706-0.463-1.378-1.184-1.378-2.2c0-1.378,1.105-2.337,2.501-2.337
			c1.63,0,2.589,1.065,2.589,2.502c0,1.049-0.811,1.975-1.361,2.426v0.059c0.823,0.509,1.674,1.152,1.674,2.444
			c0,1.39-1.167,2.498-2.901,2.498c-1.754,0-3.041-1.123-3.041-2.635C319.996,37.251,321.013,36.323,321.914,35.844z
			 M323.037,40.621c1.344,0,2.229-0.868,2.229-1.963c0-1.465-1.437-1.976-2.918-2.56c-0.977,0.566-1.695,1.36-1.695,2.409
			C320.653,39.691,321.659,40.621,323.037,40.621z M324.997,33.762c0-1.063-0.721-1.96-1.96-1.96c-1.065,0-1.844,0.746-1.844,1.78
			c0,1.363,1.288,1.902,2.545,2.395C324.549,35.319,324.997,34.587,324.997,33.762z"/>
	</g>
	<g>
		<path d="M358.367,39.795c0.417,0.524,1.002,0.797,1.633,0.797c1.512,0,2.814-1.198,2.844-4.72
			c-0.661,0.793-1.529,1.321-2.426,1.321c-1.663,0-2.65-1.037-2.65-2.966c0-1.737,1.196-2.982,2.621-2.982
			c1.902,0,3.115,1.604,3.115,4.508c0,4.014-1.663,5.421-3.521,5.421c-0.883,0-1.54-0.373-2.02-0.929L358.367,39.795z
			 M362.829,35.183c-0.118-2.021-0.912-3.37-2.47-3.37c-1.094,0-1.935,1.048-1.935,2.415c0,1.39,0.614,2.409,2.086,2.409
			C361.182,36.637,362.05,36.217,362.829,35.183z"/>
	</g>
	<g>
		<path d="M392.522,40.412h2.246v-7.938h-1.708v-0.45c0.781-0.135,1.396-0.344,1.845-0.599h0.538v8.987h2.082v0.582h-5.003V40.412z"
			/>
		<path d="M399.155,36.173c0-3.176,1.033-4.928,2.86-4.928s2.861,1.752,2.861,4.928c0,3.191-1.034,5.001-2.861,5.001
			S399.155,39.364,399.155,36.173z M404.202,36.173c0-2.921-0.852-4.36-2.187-4.36c-1.316,0-2.187,1.439-2.187,4.36
			c0,2.919,0.87,4.431,2.187,4.431C403.351,40.604,404.202,39.092,404.202,36.173z"/>
	</g>
	<g>
		<path d="M430.249,40.412h2.246v-7.938h-1.707v-0.45c0.781-0.135,1.396-0.344,1.845-0.599h0.537v8.987h2.083v0.582h-5.004V40.412z"
			/>
		<path d="M437.425,40.412h2.244v-7.938h-1.706v-0.45c0.776-0.135,1.39-0.344,1.842-0.599h0.537v8.987h2.083v0.582h-5V40.412z"/>
	</g>
	<g>
		<path d="M467.978,40.412h2.246v-7.938h-1.708v-0.45c0.781-0.135,1.396-0.344,1.844-0.599h0.539v8.987h2.082v0.582h-5.003V40.412z"
			/>
		<path d="M474.506,40.574c3.144-3.19,4.717-4.971,4.717-6.633c0-1.196-0.643-2.129-2.079-2.129c-0.868,0-1.65,0.542-2.235,1.261
			l-0.434-0.421c0.72-0.793,1.557-1.407,2.727-1.407c1.709,0,2.696,1.065,2.696,2.681c0,1.9-1.737,3.729-4.387,6.544
			c0.521-0.028,1.077-0.075,1.602-0.075h3.263v0.6h-5.869V40.574z"/>
	</g>
	<g>
		<path d="M505.704,40.412h2.247v-7.938h-1.708v-0.45c0.781-0.135,1.395-0.344,1.844-0.599h0.539v8.987h2.082v0.582h-5.004V40.412z"
			/>
		<path d="M512.444,39.364c0.567,0.626,1.333,1.228,2.649,1.228c1.288,0,2.233-0.839,2.233-2.113c0-1.318-0.962-2.218-3.343-2.218
			v-0.583c2.219,0,2.994-0.929,2.994-2.081c0-1.077-0.761-1.784-1.929-1.784c-0.886,0-1.649,0.467-2.202,1.048l-0.391-0.445
			c0.659-0.646,1.482-1.17,2.593-1.17c1.483,0,2.618,0.84,2.618,2.306c0,1.259-0.775,2.009-1.824,2.368v0.058
			c1.182,0.255,2.172,1.141,2.172,2.487c0,1.662-1.274,2.71-2.922,2.71c-1.525,0-2.426-0.704-3.04-1.346L512.444,39.364z"/>
	</g>
	<g>
		<path d="M543.425,40.412h2.248v-7.938h-1.709v-0.45c0.782-0.135,1.396-0.344,1.845-0.599h0.539v8.987h2.082v0.582h-5.005V40.412z"
			/>
		<path d="M556.05,38.134h-1.425v2.86h-0.643v-2.86h-4.4v-0.392l4.446-6.317h0.597v6.139h1.425V38.134z M553.982,37.563V34.06
			c0-0.434,0.028-1.21,0.062-1.645h-0.062c-0.237,0.403-0.51,0.765-0.775,1.198l-2.817,3.95H553.982z"/>
	</g>
	<g>
		<path d="M581.153,40.412h2.247v-7.938h-1.709v-0.45c0.781-0.135,1.396-0.344,1.846-0.599h0.538v8.987h2.081v0.582h-5.003V40.412z"
			/>
		<path d="M587.833,39.422c0.57,0.586,1.317,1.17,2.62,1.17c1.273,0,2.381-1.037,2.381-2.577c0-1.543-0.916-2.473-2.334-2.473
			c-0.735,0-1.217,0.255-1.784,0.646l-0.462-0.286l0.341-4.477h4.419v0.585h-3.816l-0.302,3.457
			c0.493-0.298,1.002-0.509,1.708-0.509c1.617,0,2.919,0.932,2.919,3.027c0,2.036-1.511,3.188-3.055,3.188
			c-1.526,0-2.394-0.675-3.008-1.288L587.833,39.422z"/>
	</g>
	<g>
		<path d="M618.875,40.412h2.247v-7.938h-1.709v-0.45c0.782-0.135,1.396-0.344,1.845-0.599h0.539v8.987h2.082v0.582h-5.004V40.412z"
			/>
		<path d="M630.705,32.623c-0.419-0.523-1.001-0.793-1.615-0.793c-1.515,0-2.816,1.199-2.849,4.717
			c0.659-0.808,1.529-1.335,2.415-1.335c1.674,0,2.663,1.036,2.663,2.965c0,1.737-1.198,2.997-2.62,2.997
			c-1.917,0-3.129-1.619-3.129-4.522c0-4.014,1.676-5.406,3.52-5.406c0.898,0,1.526,0.377,2.021,0.93L630.705,32.623z
			 M630.646,38.177c0-1.375-0.614-2.395-2.065-2.395c-0.674,0-1.543,0.391-2.321,1.439c0.118,2.021,0.897,3.382,2.455,3.382
			C629.822,40.604,630.646,39.544,630.646,38.177z"/>
	</g>
	<g>
		<path d="M656.603,40.412h2.247v-7.938h-1.709v-0.45c0.781-0.135,1.396-0.344,1.846-0.599h0.538v8.987h2.081v0.582h-5.003V40.412z"
			/>
		<path d="M668.225,32.01h-5.05v-0.585h5.886v0.388c-2.289,3.041-2.857,5.438-3.008,9.182h-0.718
			C665.482,37.129,666.291,34.705,668.225,32.01z"/>
	</g>
	<g>
		<path d="M694.33,40.412h2.246v-7.938h-1.708v-0.45c0.782-0.135,1.396-0.344,1.845-0.599h0.539v8.987h2.081v0.582h-5.003V40.412z"
			/>
		<path d="M702.762,35.844v-0.062c-0.703-0.463-1.378-1.184-1.378-2.2c0-1.378,1.108-2.337,2.501-2.337
			c1.633,0,2.589,1.065,2.589,2.502c0,1.049-0.808,1.975-1.36,2.426v0.059c0.821,0.509,1.676,1.152,1.676,2.444
			c0,1.39-1.166,2.498-2.904,2.498c-1.755,0-3.04-1.123-3.04-2.635C700.845,37.251,701.863,36.323,702.762,35.844z M703.885,40.621
			c1.346,0,2.229-0.868,2.229-1.963c0-1.465-1.437-1.976-2.919-2.56c-0.973,0.566-1.691,1.36-1.691,2.409
			C701.504,39.691,702.507,40.621,703.885,40.621z M705.848,33.762c0-1.063-0.721-1.96-1.963-1.96c-1.066,0-1.842,0.746-1.842,1.78
			c0,1.363,1.287,1.902,2.545,2.395C705.396,35.319,705.848,34.587,705.848,33.762z"/>
	</g>
	<g>
		<path d="M732.057,40.412h2.248v-7.938h-1.709v-0.45c0.782-0.135,1.396-0.344,1.845-0.599h0.538v8.987h2.082v0.582h-5.004V40.412z"
			/>
		<path d="M739.215,39.795c0.42,0.524,1.004,0.797,1.633,0.797c1.512,0,2.814-1.198,2.844-4.72
			c-0.657,0.793-1.526,1.321-2.424,1.321c-1.665,0-2.649-1.037-2.649-2.966c0-1.737,1.196-2.982,2.618-2.982
			c1.905,0,3.115,1.604,3.115,4.508c0,4.014-1.662,5.421-3.518,5.421c-0.883,0-1.544-0.373-2.024-0.929L739.215,39.795z
			 M743.68,35.183c-0.121-2.021-0.915-3.37-2.473-3.37c-1.094,0-1.932,1.048-1.932,2.415c0,1.39,0.614,2.409,2.082,2.409
			C742.029,36.637,742.897,36.217,743.68,35.183z"/>
	</g>
	<g>
		<path d="M769.142,40.574c3.146-3.19,4.717-4.971,4.717-6.633c0-1.196-0.643-2.129-2.081-2.129c-0.869,0-1.645,0.542-2.229,1.261
			l-0.435-0.421c0.718-0.793,1.558-1.407,2.725-1.407c1.705,0,2.695,1.065,2.695,2.681c0,1.9-1.736,3.729-4.389,6.544
			c0.526-0.028,1.079-0.075,1.604-0.075h3.266v0.6h-5.872V40.574z"/>
		<path d="M776.418,36.173c0-3.176,1.034-4.928,2.861-4.928c1.826,0,2.86,1.752,2.86,4.928c0,3.191-1.034,5.001-2.86,5.001
			C777.452,41.174,776.418,39.364,776.418,36.173z M781.465,36.173c0-2.921-0.852-4.36-2.186-4.36c-1.318,0-2.187,1.439-2.187,4.36
			c0,2.919,0.868,4.431,2.187,4.431C780.613,40.604,781.465,39.092,781.465,36.173z"/>
	</g>
	<g>
		<path d="M806.873,40.574c3.145-3.19,4.716-4.971,4.716-6.633c0-1.196-0.643-2.129-2.079-2.129c-0.868,0-1.65,0.542-2.234,1.261
			l-0.436-0.421c0.723-0.793,1.559-1.407,2.729-1.407c1.708,0,2.695,1.065,2.695,2.681c0,1.9-1.737,3.729-4.387,6.544
			c0.521-0.028,1.077-0.075,1.602-0.075h3.264v0.6h-5.869V40.574z"/>
		<path d="M814.688,40.412h2.246v-7.938h-1.708v-0.45c0.782-0.135,1.396-0.344,1.845-0.599h0.539v8.987h2.081v0.582h-5.003V40.412z"
			/>
	</g>
	<g>
		<path d="M844.604,40.574c3.144-3.19,4.717-4.971,4.717-6.633c0-1.196-0.645-2.129-2.082-2.129c-0.869,0-1.645,0.542-2.23,1.261
			l-0.434-0.421c0.718-0.793,1.557-1.407,2.725-1.407c1.705,0,2.695,1.065,2.695,2.681c0,1.9-1.737,3.729-4.389,6.544
			c0.525-0.028,1.08-0.075,1.604-0.075h3.266v0.6h-5.871V40.574z"/>
		<path d="M851.775,40.574c3.144-3.19,4.717-4.971,4.717-6.633c0-1.196-0.645-2.129-2.08-2.129c-0.868,0-1.65,0.542-2.234,1.261
			l-0.436-0.421c0.722-0.793,1.559-1.407,2.729-1.407c1.708,0,2.695,1.065,2.695,2.681c0,1.9-1.737,3.729-4.387,6.544
			c0.521-0.028,1.078-0.075,1.602-0.075h3.264v0.6h-5.869V40.574z"/>
	</g>
	<g>
		<path d="M882.333,40.574c3.145-3.19,4.717-4.971,4.717-6.633c0-1.196-0.643-2.129-2.079-2.129c-0.869,0-1.65,0.542-2.234,1.261
			l-0.436-0.421c0.721-0.793,1.559-1.407,2.729-1.407c1.708,0,2.695,1.065,2.695,2.681c0,1.9-1.738,3.729-4.387,6.544
			c0.521-0.028,1.077-0.075,1.602-0.075h3.263v0.6h-5.869V40.574z"/>
		<path d="M889.714,39.364c0.57,0.626,1.334,1.228,2.652,1.228c1.285,0,2.229-0.839,2.229-2.113c0-1.318-0.956-2.218-3.339-2.218
			v-0.583c2.215,0,2.997-0.929,2.997-2.081c0-1.077-0.765-1.784-1.935-1.784c-0.883,0-1.645,0.467-2.2,1.048l-0.388-0.445
			c0.657-0.646,1.481-1.17,2.588-1.17c1.483,0,2.623,0.84,2.623,2.306c0,1.259-0.781,2.009-1.829,2.368v0.058
			c1.184,0.255,2.171,1.141,2.171,2.487c0,1.662-1.271,2.71-2.918,2.71c-1.529,0-2.427-0.704-3.041-1.346L889.714,39.364z"/>
	</g>
	<g>
		<path d="M920.063,40.574c3.144-3.19,4.717-4.971,4.717-6.633c0-1.196-0.643-2.129-2.082-2.129c-0.868,0-1.646,0.542-2.229,1.261
			l-0.434-0.421c0.717-0.793,1.557-1.407,2.724-1.407c1.706,0,2.696,1.065,2.696,2.681c0,1.9-1.737,3.729-4.39,6.544
			c0.526-0.028,1.079-0.075,1.604-0.075h3.266v0.6h-5.872V40.574z"/>
		<path d="M933.33,38.134h-1.424v2.86h-0.644v-2.86h-4.401v-0.392l4.448-6.317h0.597v6.139h1.424V38.134z M931.263,37.563V34.06
			c0-0.434,0.029-1.21,0.062-1.645h-0.062c-0.237,0.403-0.509,0.765-0.776,1.198l-2.816,3.95H931.263z"/>
	</g>
	<g>
		<path d="M957.794,40.574c3.145-3.19,4.716-4.971,4.716-6.633c0-1.196-0.643-2.129-2.08-2.129c-0.868,0-1.647,0.542-2.231,1.261
			l-0.435-0.421c0.719-0.793,1.558-1.407,2.726-1.407c1.707,0,2.696,1.065,2.696,2.681c0,1.9-1.738,3.729-4.389,6.544
			c0.524-0.028,1.078-0.075,1.603-0.075h3.265v0.6h-5.87V40.574z"/>
		<path d="M965.116,39.422c0.569,0.586,1.317,1.17,2.62,1.17c1.273,0,2.381-1.037,2.381-2.577c0-1.543-0.914-2.473-2.336-2.473
			c-0.734,0-1.213,0.255-1.781,0.646l-0.465-0.286l0.344-4.477h4.418v0.585h-3.818l-0.299,3.457
			c0.492-0.298,1.003-0.509,1.706-0.509c1.618,0,2.92,0.932,2.92,3.027c0,2.036-1.513,3.188-3.055,3.188
			c-1.526,0-2.396-0.675-3.01-1.288L965.116,39.422z"/>
	</g>
	<g>
		<path d="M995.524,40.574c3.144-3.19,4.716-4.971,4.716-6.633c0-1.196-0.643-2.129-2.08-2.129c-0.869,0-1.646,0.542-2.232,1.261
			l-0.434-0.421c0.719-0.793,1.558-1.407,2.727-1.407c1.705,0,2.695,1.065,2.695,2.681c0,1.9-1.738,3.729-4.389,6.544
			c0.524-0.028,1.079-0.075,1.604-0.075h3.264v0.6h-5.87V40.574z"/>
		<path d="M1007.998,32.623c-0.42-0.523-1.004-0.793-1.617-0.793c-1.514,0-2.816,1.199-2.847,4.717
			c0.659-0.808,1.527-1.335,2.412-1.335c1.677,0,2.665,1.036,2.665,2.965c0,1.737-1.199,2.997-2.619,2.997
			c-1.918,0-3.131-1.619-3.131-4.522c0-4.014,1.676-5.406,3.52-5.406c0.896,0,1.527,0.377,2.021,0.93L1007.998,32.623z
			 M1007.938,38.177c0-1.375-0.614-2.395-2.066-2.395c-0.673,0-1.542,0.391-2.32,1.439c0.118,2.021,0.896,3.382,2.455,3.382
			C1007.115,40.604,1007.938,39.544,1007.938,38.177z"/>
	</g>
	<g>
		<path d="M1033.254,40.574c3.145-3.19,4.717-4.971,4.717-6.633c0-1.196-0.643-2.129-2.08-2.129c-0.868,0-1.646,0.542-2.232,1.261
			l-0.435-0.421c0.72-0.793,1.558-1.407,2.727-1.407c1.707,0,2.695,1.065,2.695,2.681c0,1.9-1.737,3.729-4.388,6.544
			c0.523-0.028,1.078-0.075,1.603-0.075h3.265v0.6h-5.871V40.574z"/>
		<path d="M1045.519,32.01h-5.048v-0.585h5.886v0.388c-2.29,3.041-2.858,5.438-3.01,9.182h-0.718
			C1042.777,37.129,1043.586,34.705,1045.519,32.01z"/>
	</g>
	<g>
		<path d="M1070.984,40.574c3.145-3.19,4.717-4.971,4.717-6.633c0-1.196-0.643-2.129-2.08-2.129c-0.868,0-1.647,0.542-2.232,1.261
			l-0.434-0.421c0.719-0.793,1.557-1.407,2.726-1.407c1.707,0,2.696,1.065,2.696,2.681c0,1.9-1.738,3.729-4.389,6.544
			c0.523-0.028,1.078-0.075,1.603-0.075h3.265v0.6h-5.871V40.574z"/>
		<path d="M1080.059,35.844v-0.062c-0.703-0.463-1.378-1.184-1.378-2.2c0-1.378,1.109-2.337,2.502-2.337
			c1.632,0,2.59,1.065,2.59,2.502c0,1.049-0.81,1.975-1.362,2.426v0.059c0.824,0.509,1.677,1.152,1.677,2.444
			c0,1.39-1.169,2.498-2.904,2.498c-1.753,0-3.04-1.123-3.04-2.635C1078.143,37.251,1079.16,36.323,1080.059,35.844z
			 M1081.183,40.621c1.347,0,2.231-0.868,2.231-1.963c0-1.465-1.438-1.976-2.921-2.56c-0.974,0.566-1.692,1.36-1.692,2.409
			C1078.801,39.691,1079.805,40.621,1081.183,40.621z M1083.145,33.762c0-1.063-0.721-1.96-1.962-1.96
			c-1.063,0-1.843,0.746-1.843,1.78c0,1.363,1.289,1.902,2.547,2.395C1082.693,35.319,1083.145,34.587,1083.145,33.762z"/>
	</g>
	<g>
		<path d="M1108.715,40.574c3.145-3.19,4.717-4.971,4.717-6.633c0-1.196-0.643-2.129-2.08-2.129c-0.869,0-1.648,0.542-2.232,1.261
			l-0.434-0.421c0.719-0.793,1.557-1.407,2.725-1.407c1.707,0,2.696,1.065,2.696,2.681c0,1.9-1.737,3.729-4.388,6.544
			c0.523-0.028,1.078-0.075,1.602-0.075h3.266v0.6h-5.871V40.574z"/>
		<path d="M1116.518,39.795c0.418,0.524,1.003,0.797,1.631,0.797c1.514,0,2.816-1.198,2.845-4.72
			c-0.658,0.793-1.527,1.321-2.425,1.321c-1.664,0-2.65-1.037-2.65-2.966c0-1.737,1.197-2.982,2.62-2.982
			c1.902,0,3.114,1.604,3.114,4.508c0,4.014-1.662,5.421-3.518,5.421c-0.885,0-1.544-0.373-2.023-0.929L1116.518,39.795z
			 M1120.979,35.183c-0.119-2.021-0.913-3.37-2.471-3.37c-1.094,0-1.932,1.048-1.932,2.415c0,1.39,0.613,2.409,2.082,2.409
			C1119.332,36.637,1120.2,36.217,1120.979,35.183z"/>
	</g>
	<g>
		<path d="M1146.656,39.364c0.568,0.626,1.332,1.228,2.65,1.228c1.287,0,2.23-0.839,2.23-2.113c0-1.318-0.958-2.218-3.34-2.218
			v-0.583c2.217,0,2.996-0.929,2.996-2.081c0-1.077-0.764-1.784-1.932-1.784c-0.885,0-1.648,0.467-2.202,1.048l-0.39-0.445
			c0.658-0.646,1.482-1.17,2.592-1.17c1.482,0,2.62,0.84,2.62,2.306c0,1.259-0.778,2.009-1.827,2.368v0.058
			c1.183,0.255,2.172,1.141,2.172,2.487c0,1.662-1.272,2.71-2.92,2.71c-1.527,0-2.427-0.704-3.041-1.346L1146.656,39.364z"/>
		<path d="M1153.723,36.173c0-3.176,1.033-4.928,2.859-4.928c1.827,0,2.861,1.752,2.861,4.928c0,3.191-1.034,5.001-2.861,5.001
			C1154.756,41.174,1153.723,39.364,1153.723,36.173z M1158.769,36.173c0-2.921-0.853-4.36-2.187-4.36
			c-1.316,0-2.186,1.439-2.186,4.36c0,2.919,0.869,4.431,2.186,4.431C1157.916,40.604,1158.769,39.092,1158.769,36.173z"/>
	</g>
	<g>
		<path d="M1065.802,81.423h-2.245v7.939h1.707v0.449c-0.779,0.135-1.393,0.344-1.843,0.6h-0.539v-8.988h-2.081v-0.582h5.001V81.423
			z"/>
	</g>
	<g>
		<path d="M970.52,81.261c-3.145,3.191-4.717,4.973-4.717,6.633c0,1.197,0.643,2.129,2.08,2.129c0.869,0,1.647-0.541,2.232-1.26
			l0.435,0.42c-0.72,0.793-1.558,1.408-2.727,1.408c-1.707,0-2.694-1.066-2.694-2.682c0-1.9,1.736-3.73,4.387-6.545
			c-0.523,0.029-1.078,0.076-1.603,0.076h-3.265v-0.6h5.871V81.261z"/>
	</g>
	<g>
		<path d="M874.385,82.472c-0.566-0.627-1.332-1.229-2.648-1.229c-1.289,0-2.233,0.84-2.233,2.113c0,1.318,0.962,2.219,3.342,2.219
			v0.582c-2.218,0-2.993,0.93-2.993,2.082c0,1.076,0.761,1.783,1.928,1.783c0.886,0,1.65-0.467,2.203-1.049l0.391,0.447
			c-0.659,0.645-1.482,1.17-2.594,1.17c-1.482,0-2.617-0.842-2.617-2.307c0-1.258,0.775-2.008,1.824-2.367v-0.059
			c-1.182-0.254-2.172-1.141-2.172-2.486c0-1.662,1.274-2.711,2.922-2.711c1.525,0,2.426,0.703,3.039,1.346L874.385,82.472z"/>
	</g>
	<g>
		<path d="M772.576,83.703H774v-2.861h0.643v2.861h4.401v0.391l-4.447,6.318H774v-6.139h-1.424V83.703z M774.643,84.273v3.504
			c0,0.434-0.028,1.209-0.061,1.645h0.061c0.238-0.404,0.51-0.766,0.776-1.199l2.817-3.949H774.643z"/>
	</g>
	<g>
		<path d="M682.598,82.414c-0.57-0.586-1.32-1.17-2.623-1.17c-1.271,0-2.38,1.037-2.38,2.578c0,1.543,0.915,2.473,2.337,2.473
			c0.732,0,1.213-0.256,1.779-0.646l0.467,0.287l-0.344,4.477h-4.419v-0.586h3.819l0.298-3.457c-0.492,0.299-1.001,0.51-1.706,0.51
			c-1.617,0-2.92-0.932-2.92-3.029c0-2.035,1.514-3.188,3.057-3.188c1.525,0,2.395,0.676,3.008,1.289L682.598,82.414z"/>
	</g>
	<g>
		<path d="M581.524,89.212c0.417,0.523,1.001,0.793,1.614,0.793c1.513,0,2.814-1.199,2.848-4.717
			c-0.657,0.809-1.526,1.336-2.412,1.336c-1.677,0-2.664-1.037-2.664-2.965c0-1.738,1.199-2.998,2.617-2.998
			c1.917,0,3.134,1.619,3.134,4.523c0,4.012-1.681,5.406-3.522,5.406c-0.896,0-1.527-0.377-2.021-0.93L581.524,89.212z
			 M581.582,83.66c0,1.373,0.613,2.395,2.066,2.395c0.675,0,1.541-0.391,2.322-1.439c-0.121-2.021-0.896-3.383-2.455-3.383
			C582.406,81.232,581.582,82.292,581.582,83.66z"/>
	</g>
	<g>
		<path d="M485.81,89.826h5.044v0.586h-5.884v-0.389c2.291-3.041,2.861-5.438,3.009-9.182h0.721
			C488.549,84.707,487.74,87.13,485.81,89.826z"/>
	</g>
	<g>
		<path d="M393.072,85.992v0.063c0.704,0.463,1.378,1.184,1.378,2.199c0,1.379-1.109,2.338-2.502,2.338
			c-1.633,0-2.588-1.066-2.588-2.502c0-1.049,0.807-1.975,1.36-2.426v-0.059c-0.822-0.51-1.677-1.152-1.677-2.443
			c0-1.391,1.167-2.5,2.904-2.5c1.752,0,3.04,1.123,3.04,2.635C394.988,84.585,393.97,85.511,393.072,85.992z M391.948,81.214
			c-1.346,0-2.229,0.869-2.229,1.963c0,1.465,1.437,1.975,2.919,2.561c0.973-0.568,1.693-1.361,1.693-2.41
			C394.331,82.144,393.327,81.214,391.948,81.214z M389.989,88.074c0,1.063,0.717,1.961,1.959,1.961
			c1.063,0,1.842-0.746,1.842-1.781c0-1.363-1.285-1.902-2.545-2.395C390.438,86.517,389.989,87.25,389.989,88.074z"/>
	</g>
	<g>
		<path d="M298.423,82.041c-0.42-0.523-1.004-0.797-1.633-0.797c-1.511,0-2.814,1.199-2.847,4.719
			c0.661-0.793,1.529-1.32,2.428-1.32c1.661,0,2.651,1.037,2.651,2.967c0,1.736-1.199,2.982-2.62,2.982
			c-1.902,0-3.116-1.605-3.116-4.51c0-4.012,1.662-5.42,3.519-5.42c0.883,0,1.543,0.373,2.021,0.93L298.423,82.041z M293.961,86.654
			c0.119,2.02,0.912,3.369,2.47,3.369c1.093,0,1.932-1.049,1.932-2.414c0-1.391-0.614-2.41-2.082-2.41
			C295.605,85.199,294.737,85.619,293.961,86.654z"/>
	</g>
	<g>
		<path d="M206.07,81.423h-2.247v7.939h1.706v0.449c-0.778,0.135-1.393,0.344-1.841,0.6h-0.54v-8.988h-2.081v-0.582h5.003V81.423z"
			/>
		<path d="M199.438,85.664c0,3.174-1.034,4.928-2.861,4.928s-2.861-1.754-2.861-4.928c0-3.191,1.034-5.002,2.861-5.002
			S199.438,82.472,199.438,85.664z M194.39,85.664c0,2.92,0.854,4.359,2.187,4.359c1.318,0,2.187-1.439,2.187-4.359
			s-0.868-4.432-2.187-4.432C195.244,81.232,194.39,82.744,194.39,85.664z"/>
	</g>
	<g>
		<path d="M110.147,81.423h-2.246v7.939h1.705v0.449c-0.779,0.135-1.393,0.344-1.842,0.6h-0.538v-8.988h-2.082v-0.582h5.003V81.423z
			"/>
		<path d="M102.976,81.423h-2.246v7.939h1.705v0.449c-0.779,0.135-1.393,0.344-1.842,0.6h-0.538v-8.988h-2.082v-0.582h5.003V81.423z
			"/>
	</g>
	<g>
		<path d="M14.226,81.423h-2.247v7.939h1.704v0.449c-0.777,0.135-1.392,0.344-1.841,0.6h-0.538v-8.988H9.222v-0.582h5.004V81.423z"
			/>
		<path d="M7.695,81.261c-3.144,3.191-4.717,4.973-4.717,6.633c0,1.197,0.644,2.129,2.083,2.129c0.869,0,1.647-0.541,2.229-1.26
			l0.435,0.42c-0.717,0.793-1.558,1.408-2.724,1.408c-1.709,0-2.696-1.066-2.696-2.682c0-1.9,1.737-3.73,4.388-6.545
			c-0.525,0.029-1.078,0.076-1.603,0.076H1.827v-0.6h5.868V81.261z"/>
	</g>
</g>
</svg>
