<?xml version="1.0" encoding="utf-8"?>
<!-- Generator: Adobe Illustrator 16.0.0, SVG Export Plug-In . SVG Version: 6.00 Build 0)  -->
<!DOCTYPE svg PUBLIC "-//W3C//DTD SVG 1.0//EN" "http://www.w3.org/TR/2001/REC-SVG-20010904/DTD/svg10.dtd">
<svg version="1.0" id="Layer_1" xmlns="http://www.w3.org/2000/svg" xmlns:xlink="http://www.w3.org/1999/xlink" x="0px" y="0px"
	 width="3594.36px" height="370.48px" viewBox="104.725 14.899 3594.36 370.48"
	 enable-background="new 104.725 14.899 3594.36 370.48" xml:space="preserve">
<g>
	<path fill="none" stroke="#000000" stroke-width="3" d="M121.107,366.177c0,6.28,5.142,11.423,11.422,11.423h3543.135
		c6.281,0,11.422-5.143,11.422-11.423V34.956c0-6.28-5.141-11.422-11.422-11.422H132.53c-6.281,0-11.422,5.142-11.422,11.422
		V366.177z"/>
	<g>
		<g>
			<rect x="3657.072" y="304.392" width="2.925" height="73.164"/>
		</g>
		<g>
			<rect x="3364.394" y="304.392" width="2.925" height="73.164"/>
		</g>
		<g>
			<rect x="3511.1" y="326.335" width="2.191" height="51.221"/>
		</g>
		<g>
			<rect x="3540.916" y="348.297" width="1.095" height="29.259"/>
		</g>
		<g>
			<rect x="3570.182" y="348.297" width="1.097" height="29.259"/>
		</g>
		<g>
			<rect x="3599.452" y="348.297" width="1.096" height="29.259"/>
		</g>
		<g>
			<rect x="3628.719" y="348.297" width="1.095" height="29.259"/>
		</g>
		<g>
			<rect x="3555.545" y="360.003" width="1.095" height="17.553"/>
		</g>
		<g>
			<rect x="3526.277" y="360.003" width="1.097" height="17.553"/>
		</g>
		<g>
			<rect x="3584.813" y="360.003" width="1.096" height="17.553"/>
		</g>
		<g>
			<rect x="3614.082" y="360.003" width="1.095" height="17.553"/>
		</g>
		<g>
			<rect x="3643.348" y="360.003" width="1.096" height="17.553"/>
		</g>
		<g>
			<rect x="3394.577" y="348.297" width="1.096" height="29.259"/>
		</g>
		<g>
			<rect x="3423.845" y="348.297" width="1.095" height="29.259"/>
		</g>
		<g>
			<rect x="3453.112" y="348.297" width="1.096" height="29.259"/>
		</g>
		<g>
			<rect x="3482.379" y="348.297" width="1.098" height="29.259"/>
		</g>
		<g>
			<rect x="3409.206" y="360.003" width="1.096" height="17.553"/>
		</g>
		<g>
			<rect x="3379.947" y="360.003" width="1.096" height="17.553"/>
		</g>
		<g>
			<rect x="3438.475" y="360.003" width="1.095" height="17.553"/>
		</g>
		<g>
			<rect x="3467.742" y="360.003" width="1.095" height="17.553"/>
		</g>
		<g>
			<rect x="3497.008" y="360.003" width="1.098" height="17.553"/>
		</g>
		<g>
			<rect x="3071.718" y="304.392" width="2.924" height="73.164"/>
		</g>
		<g>
			<rect x="3218.423" y="326.335" width="2.19" height="51.221"/>
		</g>
		<g>
			<rect x="3248.239" y="348.297" width="1.095" height="29.259"/>
		</g>
		<g>
			<rect x="3277.506" y="348.297" width="1.095" height="29.259"/>
		</g>
		<g>
			<rect x="3306.774" y="348.297" width="1.095" height="29.259"/>
		</g>
		<g>
			<rect x="3336.042" y="348.297" width="1.096" height="29.259"/>
		</g>
		<g>
			<rect x="3262.868" y="360.003" width="1.096" height="17.553"/>
		</g>
		<g>
			<rect x="3233.61" y="360.003" width="1.095" height="17.553"/>
		</g>
		<g>
			<rect x="3292.135" y="360.003" width="1.095" height="17.553"/>
		</g>
		<g>
			<rect x="3321.413" y="360.003" width="1.095" height="17.553"/>
		</g>
		<g>
			<rect x="3350.68" y="360.003" width="1.095" height="17.553"/>
		</g>
		<g>
			<rect x="3101.9" y="348.297" width="1.095" height="29.259"/>
		</g>
		<g>
			<rect x="3131.168" y="348.297" width="1.094" height="29.259"/>
		</g>
		<g>
			<rect x="3160.436" y="348.297" width="1.095" height="29.259"/>
		</g>
		<g>
			<rect x="3189.703" y="348.297" width="1.096" height="29.259"/>
		</g>
		<g>
			<rect x="3116.53" y="360.003" width="1.094" height="17.553"/>
		</g>
		<g>
			<rect x="3087.261" y="360.003" width="1.096" height="17.553"/>
		</g>
		<g>
			<rect x="3145.806" y="360.003" width="1.095" height="17.553"/>
		</g>
		<g>
			<rect x="3175.073" y="360.003" width="1.097" height="17.553"/>
		</g>
		<g>
			<rect x="3204.341" y="360.003" width="1.096" height="17.553"/>
		</g>
		<g>
			<rect x="2779.049" y="304.392" width="2.924" height="73.164"/>
		</g>
		<g>
			<rect x="2925.754" y="326.335" width="2.191" height="51.221"/>
		</g>
		<g>
			<rect x="2955.57" y="348.297" width="1.096" height="29.259"/>
		</g>
		<g>
			<rect x="2984.837" y="348.297" width="1.097" height="29.259"/>
		</g>
		<g>
			<rect x="3014.105" y="348.297" width="1.097" height="29.259"/>
		</g>
		<g>
			<rect x="3043.364" y="348.297" width="1.097" height="29.259"/>
		</g>
		<g>
			<rect x="2970.2" y="360.003" width="1.095" height="17.553"/>
		</g>
		<g>
			<rect x="2940.932" y="360.003" width="1.096" height="17.553"/>
		</g>
		<g>
			<rect x="2999.466" y="360.003" width="1.098" height="17.553"/>
		</g>
		<g>
			<rect x="3028.725" y="360.003" width="1.098" height="17.553"/>
		</g>
		<g>
			<rect x="3057.994" y="360.003" width="1.096" height="17.553"/>
		</g>
		<g>
			<rect x="2809.222" y="348.297" width="1.095" height="29.259"/>
		</g>
		<g>
			<rect x="2838.5" y="348.297" width="1.095" height="29.259"/>
		</g>
		<g>
			<rect x="2867.767" y="348.297" width="1.095" height="29.259"/>
		</g>
		<g>
			<rect x="2897.034" y="348.297" width="1.097" height="29.259"/>
		</g>
		<g>
			<rect x="2823.861" y="360.003" width="1.097" height="17.553"/>
		</g>
		<g>
			<rect x="2794.593" y="360.003" width="1.095" height="17.553"/>
		</g>
		<g>
			<rect x="2853.129" y="360.003" width="1.095" height="17.553"/>
		</g>
		<g>
			<rect x="2882.396" y="360.003" width="1.095" height="17.553"/>
		</g>
		<g>
			<rect x="2911.664" y="360.003" width="1.096" height="17.553"/>
		</g>
		<g>
			<rect x="2486.373" y="304.392" width="2.924" height="73.164"/>
		</g>
		<g>
			<rect x="2633.078" y="326.335" width="2.19" height="51.221"/>
		</g>
		<g>
			<rect x="2662.893" y="348.297" width="1.096" height="29.259"/>
		</g>
		<g>
			<rect x="2692.161" y="348.297" width="1.096" height="29.259"/>
		</g>
		<g>
			<rect x="2721.428" y="348.297" width="1.097" height="29.259"/>
		</g>
		<g>
			<rect x="2750.696" y="348.297" width="1.096" height="29.259"/>
		</g>
		<g>
			<rect x="2677.523" y="360.003" width="1.095" height="17.553"/>
		</g>
		<g>
			<rect x="2648.264" y="360.003" width="1.095" height="17.553"/>
		</g>
		<g>
			<rect x="2706.79" y="360.003" width="1.096" height="17.553"/>
		</g>
		<g>
			<rect x="2736.058" y="360.003" width="1.096" height="17.553"/>
		</g>
		<g>
			<rect x="2765.326" y="360.003" width="1.096" height="17.553"/>
		</g>
		<g>
			<rect x="2516.555" y="348.297" width="1.095" height="29.259"/>
		</g>
		<g>
			<rect x="2545.822" y="348.297" width="1.097" height="29.259"/>
		</g>
		<g>
			<rect x="2575.081" y="348.297" width="1.096" height="29.259"/>
		</g>
		<g>
			<rect x="2604.349" y="348.297" width="1.095" height="29.259"/>
		</g>
		<g>
			<rect x="2531.192" y="360.003" width="1.097" height="17.553"/>
		</g>
		<g>
			<rect x="2501.925" y="360.003" width="1.095" height="17.553"/>
		</g>
		<g>
			<rect x="2560.452" y="360.003" width="1.096" height="17.553"/>
		</g>
		<g>
			<rect x="2589.719" y="360.003" width="1.096" height="17.553"/>
		</g>
		<g>
			<rect x="2618.988" y="360.003" width="1.094" height="17.553"/>
		</g>
		<g>
			<rect x="2193.704" y="304.392" width="2.925" height="73.164"/>
		</g>
		<g>
			<rect x="2340.401" y="326.335" width="2.189" height="51.221"/>
		</g>
		<g>
			<rect x="2370.215" y="348.297" width="1.096" height="29.259"/>
		</g>
		<g>
			<rect x="2399.483" y="348.297" width="1.096" height="29.259"/>
		</g>
		<g>
			<rect x="2428.75" y="348.297" width="1.096" height="29.259"/>
		</g>
		<g>
			<rect x="2458.02" y="348.297" width="1.095" height="29.259"/>
		</g>
		<g>
			<rect x="2384.854" y="360.003" width="1.095" height="17.553"/>
		</g>
		<g>
			<rect x="2355.586" y="360.003" width="1.096" height="17.553"/>
		</g>
		<g>
			<rect x="2414.122" y="360.003" width="1.096" height="17.553"/>
		</g>
		<g>
			<rect x="2443.381" y="360.003" width="1.095" height="17.553"/>
		</g>
		<g>
			<rect x="2472.649" y="360.003" width="1.095" height="17.553"/>
		</g>
		<g>
			<rect x="2223.886" y="348.297" width="1.095" height="29.259"/>
		</g>
		<g>
			<rect x="2253.153" y="348.297" width="1.097" height="29.259"/>
		</g>
		<g>
			<rect x="2282.421" y="348.297" width="1.095" height="29.259"/>
		</g>
		<g>
			<rect x="2311.68" y="348.297" width="1.095" height="29.259"/>
		</g>
		<g>
			<rect x="2238.515" y="360.003" width="1.096" height="17.553"/>
		</g>
		<g>
			<rect x="2209.248" y="360.003" width="1.096" height="17.553"/>
		</g>
		<g>
			<rect x="2267.783" y="360.003" width="1.096" height="17.553"/>
		</g>
		<g>
			<rect x="2297.051" y="360.003" width="1.095" height="17.553"/>
		</g>
		<g>
			<rect x="2326.319" y="360.003" width="1.095" height="17.553"/>
		</g>
		<g>
			<rect x="1901.026" y="304.392" width="2.925" height="73.164"/>
		</g>
		<g>
			<rect x="2047.732" y="326.335" width="2.191" height="51.221"/>
		</g>
		<g>
			<rect x="2077.547" y="348.297" width="1.096" height="29.259"/>
		</g>
		<g>
			<rect x="2106.815" y="348.297" width="1.096" height="29.259"/>
		</g>
		<g>
			<rect x="2136.083" y="348.297" width="1.096" height="29.259"/>
		</g>
		<g>
			<rect x="2165.351" y="348.297" width="1.095" height="29.259"/>
		</g>
		<g>
			<rect x="2092.177" y="360.003" width="1.095" height="17.553"/>
		</g>
		<g>
			<rect x="2062.909" y="360.003" width="1.097" height="17.553"/>
		</g>
		<g>
			<rect x="2121.445" y="360.003" width="1.096" height="17.553"/>
		</g>
		<g>
			<rect x="2150.712" y="360.003" width="1.095" height="17.553"/>
		</g>
		<g>
			<rect x="2179.971" y="360.003" width="1.096" height="17.553"/>
		</g>
		<g>
			<rect x="1931.208" y="348.297" width="1.096" height="29.259"/>
		</g>
		<g>
			<rect x="1960.477" y="348.297" width="1.096" height="29.259"/>
		</g>
		<g>
			<rect x="1989.745" y="348.297" width="1.095" height="29.259"/>
		</g>
		<g>
			<rect x="2019.012" y="348.297" width="1.096" height="29.259"/>
		</g>
		<g>
			<rect x="1945.837" y="360.003" width="1.097" height="17.553"/>
		</g>
		<g>
			<rect x="1916.579" y="360.003" width="1.096" height="17.553"/>
		</g>
		<g>
			<rect x="1975.107" y="360.003" width="1.094" height="17.553"/>
		</g>
		<g>
			<rect x="2004.374" y="360.003" width="1.097" height="17.553"/>
		</g>
		<g>
			<rect x="2033.642" y="360.003" width="1.095" height="17.553"/>
		</g>
		<g>
			<rect x="1608.345" y="304.392" width="2.933" height="73.164"/>
		</g>
		<g>
			<rect x="1755.055" y="326.335" width="2.19" height="51.221"/>
		</g>
		<g>
			<rect x="1315.676" y="304.392" width="2.934" height="73.164"/>
		</g>
		<g>
			<rect x="1462.378" y="326.335" width="2.19" height="51.221"/>
		</g>
		<g>
			<rect x="1784.871" y="348.297" width="1.095" height="29.259"/>
		</g>
		<g>
			<rect x="1814.138" y="348.297" width="1.095" height="29.259"/>
		</g>
		<g>
			<rect x="1843.406" y="348.297" width="1.096" height="29.259"/>
		</g>
		<g>
			<rect x="1872.673" y="348.297" width="1.096" height="29.259"/>
		</g>
		<g>
			<rect x="1799.508" y="360.003" width="1.095" height="17.553"/>
		</g>
		<g>
			<rect x="1770.24" y="360.003" width="1.096" height="17.553"/>
		</g>
		<g>
			<rect x="1828.777" y="360.003" width="1.095" height="17.553"/>
		</g>
		<g>
			<rect x="1858.043" y="360.003" width="1.096" height="17.553"/>
		</g>
		<g>
			<rect x="1887.312" y="360.003" width="1.095" height="17.553"/>
		</g>
		<g>
			<rect x="1638.532" y="348.297" width="1.094" height="29.259"/>
		</g>
		<g>
			<rect x="1667.799" y="348.297" width="1.095" height="29.259"/>
		</g>
		<g>
			<rect x="1697.067" y="348.297" width="1.095" height="29.259"/>
		</g>
		<g>
			<rect x="1726.334" y="348.297" width="1.096" height="29.259"/>
		</g>
		<g>
			<rect x="1653.17" y="360.003" width="1.095" height="17.553"/>
		</g>
		<g>
			<rect x="1623.903" y="360.003" width="1.095" height="17.553"/>
		</g>
		<g>
			<rect x="1682.438" y="360.003" width="1.095" height="17.553"/>
		</g>
		<g>
			<rect x="1711.705" y="360.003" width="1.096" height="17.553"/>
		</g>
		<g>
			<rect x="1740.973" y="360.003" width="1.095" height="17.553"/>
		</g>
		<g>
			<rect x="1492.193" y="348.297" width="1.095" height="29.259"/>
		</g>
		<g>
			<rect x="1521.461" y="348.297" width="1.096" height="29.259"/>
		</g>
		<g>
			<rect x="1550.729" y="348.297" width="1.096" height="29.259"/>
		</g>
		<g>
			<rect x="1579.996" y="348.297" width="1.096" height="29.259"/>
		</g>
		<g>
			<rect x="1506.832" y="360.003" width="1.095" height="17.553"/>
		</g>
		<g>
			<rect x="1477.564" y="360.003" width="1.095" height="17.553"/>
		</g>
		<g>
			<rect x="1536.099" y="360.003" width="1.096" height="17.553"/>
		</g>
		<g>
			<rect x="1565.367" y="360.003" width="1.096" height="17.553"/>
		</g>
		<g>
			<rect x="1594.634" y="360.003" width="1.096" height="17.553"/>
		</g>
		<g>
			<rect x="1345.864" y="348.297" width="1.095" height="29.259"/>
		</g>
		<g>
			<rect x="1375.131" y="348.297" width="1.096" height="29.259"/>
		</g>
		<g>
			<rect x="1404.39" y="348.297" width="1.096" height="29.259"/>
		</g>
		<g>
			<rect x="1433.648" y="348.297" width="1.096" height="29.259"/>
		</g>
		<g>
			<rect x="1360.493" y="360.003" width="1.096" height="17.553"/>
		</g>
		<g>
			<rect x="1331.226" y="360.003" width="1.095" height="17.553"/>
		</g>
		<g>
			<rect x="1389.761" y="360.003" width="1.096" height="17.553"/>
		</g>
		<g>
			<rect x="1419.028" y="360.003" width="1.096" height="17.553"/>
		</g>
		<g>
			<rect x="1448.287" y="360.003" width="1.096" height="17.553"/>
		</g>
	</g>
	<g>
		<g>
			<rect x="1023" y="304.392" width="2.934" height="73.164"/>
		</g>
		<g>
			<rect x="1169.709" y="326.335" width="2.191" height="51.221"/>
		</g>
		<g>
			<rect x="1199.516" y="348.297" width="1.096" height="29.259"/>
		</g>
		<g>
			<rect x="1228.792" y="348.297" width="1.096" height="29.259"/>
		</g>
		<g>
			<rect x="1258.051" y="348.297" width="1.096" height="29.259"/>
		</g>
		<g>
			<rect x="1287.328" y="348.297" width="1.096" height="29.259"/>
		</g>
		<g>
			<rect x="1214.154" y="360.003" width="1.096" height="17.553"/>
		</g>
		<g>
			<rect x="1184.887" y="360.003" width="1.095" height="17.553"/>
		</g>
		<g>
			<rect x="1243.422" y="360.003" width="1.096" height="17.553"/>
		</g>
		<g>
			<rect x="1272.689" y="360.003" width="1.096" height="17.553"/>
		</g>
		<g>
			<rect x="1301.958" y="360.003" width="1.095" height="17.553"/>
		</g>
		<g>
			<rect x="1053.187" y="348.297" width="1.095" height="29.259"/>
		</g>
		<g>
			<rect x="1082.445" y="348.297" width="1.095" height="29.259"/>
		</g>
		<g>
			<rect x="1111.722" y="348.297" width="1.095" height="29.259"/>
		</g>
		<g>
			<rect x="1140.981" y="348.297" width="1.095" height="29.259"/>
		</g>
		<g>
			<rect x="1067.816" y="360.003" width="1.095" height="17.553"/>
		</g>
		<g>
			<rect x="1038.557" y="360.003" width="1.095" height="17.553"/>
		</g>
		<g>
			<rect x="1097.083" y="360.003" width="1.096" height="17.553"/>
		</g>
		<g>
			<rect x="1126.351" y="360.003" width="1.096" height="17.553"/>
		</g>
		<g>
			<rect x="1155.619" y="360.003" width="1.095" height="17.553"/>
		</g>
		<g>
			<rect x="730.314" y="304.392" width="2.933" height="73.164"/>
		</g>
		<g>
			<rect x="877.032" y="326.335" width="2.191" height="51.221"/>
		</g>
		<g>
			<rect x="906.847" y="348.297" width="1.096" height="29.259"/>
		</g>
		<g>
			<rect x="936.116" y="348.297" width="1.095" height="29.259"/>
		</g>
		<g>
			<rect x="965.382" y="348.297" width="1.096" height="29.259"/>
		</g>
		<g>
			<rect x="994.651" y="348.297" width="1.095" height="29.259"/>
		</g>
		<g>
			<rect x="921.477" y="360.003" width="1.096" height="17.553"/>
		</g>
		<g>
			<rect x="892.21" y="360.003" width="1.095" height="17.553"/>
		</g>
		<g>
			<rect x="950.745" y="360.003" width="1.095" height="17.553"/>
		</g>
		<g>
			<rect x="980.022" y="360.003" width="1.095" height="17.553"/>
		</g>
		<g>
			<rect x="1009.281" y="360.003" width="1.095" height="17.553"/>
		</g>
		<g>
			<rect x="760.509" y="348.297" width="1.096" height="29.259"/>
		</g>
		<g>
			<rect x="789.776" y="348.297" width="1.096" height="29.259"/>
		</g>
		<g>
			<rect x="819.045" y="348.297" width="1.094" height="29.259"/>
		</g>
		<g>
			<rect x="848.313" y="348.297" width="1.094" height="29.259"/>
		</g>
		<g>
			<rect x="775.138" y="360.003" width="1.096" height="17.553"/>
		</g>
		<g>
			<rect x="745.871" y="360.003" width="1.096" height="17.553"/>
		</g>
		<g>
			<rect x="804.416" y="360.003" width="1.095" height="17.553"/>
		</g>
		<g>
			<rect x="833.674" y="360.003" width="1.095" height="17.553"/>
		</g>
		<g>
			<rect x="862.951" y="360.003" width="1.095" height="17.553"/>
		</g>
		<g>
			<rect x="437.655" y="304.392" width="2.932" height="73.164"/>
		</g>
		<g>
			<rect x="584.355" y="326.335" width="2.191" height="51.221"/>
		</g>
		<g>
			<rect x="614.179" y="348.297" width="1.096" height="29.259"/>
		</g>
		<g>
			<rect x="643.438" y="348.297" width="1.095" height="29.259"/>
		</g>
		<g>
			<rect x="672.715" y="348.297" width="1.095" height="29.259"/>
		</g>
		<g>
			<rect x="701.974" y="348.297" width="1.096" height="29.259"/>
		</g>
		<g>
			<rect x="628.809" y="360.003" width="1.096" height="17.553"/>
		</g>
		<g>
			<rect x="599.541" y="360.003" width="1.096" height="17.553"/>
		</g>
		<g>
			<rect x="658.077" y="360.003" width="1.095" height="17.553"/>
		</g>
		<g>
			<rect x="687.335" y="360.003" width="1.095" height="17.553"/>
		</g>
		<g>
			<rect x="716.603" y="360.003" width="1.096" height="17.553"/>
		</g>
		<g>
			<rect x="467.832" y="348.297" width="1.096" height="29.259"/>
		</g>
		<g>
			<rect x="497.109" y="348.297" width="1.095" height="29.259"/>
		</g>
		<g>
			<rect x="526.368" y="348.297" width="1.095" height="29.259"/>
		</g>
		<g>
			<rect x="555.644" y="348.297" width="1.096" height="29.259"/>
		</g>
		<g>
			<rect x="482.462" y="360.003" width="1.095" height="17.553"/>
		</g>
		<g>
			<rect x="453.202" y="360.003" width="1.096" height="17.553"/>
		</g>
		<g>
			<rect x="511.738" y="360.003" width="1.095" height="17.553"/>
		</g>
		<g>
			<rect x="541.006" y="360.003" width="1.096" height="17.553"/>
		</g>
		<g>
			<rect x="570.273" y="360.003" width="1.096" height="17.553"/>
		</g>
		<g>
			<rect x="144.977" y="304.392" width="2.934" height="73.164"/>
		</g>
		<g>
			<rect x="291.688" y="326.335" width="2.19" height="51.221"/>
		</g>
		<g>
			<rect x="321.503" y="348.297" width="1.095" height="29.259"/>
		</g>
		<g>
			<rect x="350.761" y="348.297" width="1.095" height="29.259"/>
		</g>
		<g>
			<rect x="380.038" y="348.297" width="1.096" height="29.259"/>
		</g>
		<g>
			<rect x="409.296" y="348.297" width="1.096" height="29.259"/>
		</g>
		<g>
			<rect x="336.132" y="360.003" width="1.095" height="17.553"/>
		</g>
		<g>
			<rect x="306.873" y="360.003" width="1.096" height="17.553"/>
		</g>
		<g>
			<rect x="365.399" y="360.003" width="1.095" height="17.553"/>
		</g>
		<g>
			<rect x="394.667" y="360.003" width="1.096" height="17.553"/>
		</g>
		<g>
			<rect x="423.935" y="360.003" width="1.096" height="17.553"/>
		</g>
		<g>
			<rect x="175.164" y="348.297" width="1.095" height="29.259"/>
		</g>
		<g>
			<rect x="204.432" y="348.297" width="1.095" height="29.259"/>
		</g>
		<g>
			<rect x="233.69" y="348.297" width="1.096" height="29.259"/>
		</g>
		<g>
			<rect x="262.958" y="348.297" width="1.096" height="29.259"/>
		</g>
		<g>
			<rect x="189.802" y="360.003" width="1.095" height="17.553"/>
		</g>
		<g>
			<rect x="160.526" y="360.003" width="1.095" height="17.553"/>
		</g>
		<g>
			<rect x="219.061" y="360.003" width="1.096" height="17.553"/>
		</g>
		<g>
			<rect x="248.32" y="360.003" width="1.096" height="17.553"/>
		</g>
		<g>
			<rect x="277.596" y="360.003" width="1.096" height="17.553"/>
		</g>
	</g>
	<g>
		<g>
			<rect x="1335.315" y="23.5" width="2.933" height="73.165"/>
		</g>
		<g>
			<rect x="1450.549" y="23.5" width="2.933" height="73.165"/>
		</g>
		<g>
			<rect x="1393.294" y="23.5" width="2.192" height="51.22"/>
		</g>
		<g>
			<rect x="1382.331" y="23.5" width="1.096" height="29.259"/>
		</g>
		<g>
			<rect x="1370.811" y="23.5" width="1.096" height="29.259"/>
		</g>
		<g>
			<rect x="1359.274" y="23.5" width="1.096" height="29.259"/>
		</g>
		<g>
			<rect x="1347.754" y="23.5" width="1.095" height="29.259"/>
		</g>
		<g>
			<rect x="1376.563" y="23.5" width="1.095" height="17.553"/>
		</g>
		<g>
			<rect x="1388.091" y="23.5" width="1.095" height="17.553"/>
		</g>
		<g>
			<rect x="1365.034" y="23.5" width="1.095" height="17.553"/>
		</g>
		<g>
			<rect x="1353.514" y="23.5" width="1.096" height="17.553"/>
		</g>
		<g>
			<rect x="1342.003" y="23.5" width="1.096" height="17.553"/>
		</g>
		<g>
			<rect x="1439.939" y="23.5" width="1.095" height="29.259"/>
		</g>
		<g>
			<rect x="1428.41" y="23.5" width="1.095" height="29.259"/>
		</g>
		<g>
			<rect x="1416.891" y="23.5" width="1.095" height="29.259"/>
		</g>
		<g>
			<rect x="1405.379" y="23.5" width="1.095" height="29.259"/>
		</g>
		<g>
			<rect x="1434.179" y="23.5" width="1.096" height="17.553"/>
		</g>
		<g>
			<rect x="1445.708" y="23.5" width="1.095" height="17.553"/>
		</g>
		<g>
			<rect x="1422.65" y="23.5" width="1.095" height="17.553"/>
		</g>
		<g>
			<rect x="1411.13" y="23.5" width="1.096" height="17.553"/>
		</g>
		<g>
			<rect x="1399.611" y="23.5" width="1.096" height="17.553"/>
		</g>
		<g>
			<rect x="1565.765" y="23.5" width="2.933" height="73.165"/>
		</g>
		<g>
			<rect x="1508.536" y="23.5" width="2.191" height="51.22"/>
		</g>
		<g>
			<rect x="1497.547" y="23.5" width="1.094" height="29.259"/>
		</g>
		<g>
			<rect x="1486.027" y="23.5" width="1.095" height="29.259"/>
		</g>
		<g>
			<rect x="1474.507" y="23.5" width="1.096" height="29.259"/>
		</g>
		<g>
			<rect x="1462.988" y="23.5" width="1.095" height="29.259"/>
		</g>
		<g>
			<rect x="1491.787" y="23.5" width="1.096" height="17.553"/>
		</g>
		<g>
			<rect x="1503.306" y="23.5" width="1.096" height="17.553"/>
		</g>
		<g>
			<rect x="1480.259" y="23.5" width="1.095" height="17.553"/>
		</g>
		<g>
			<rect x="1468.738" y="23.5" width="1.095" height="17.553"/>
		</g>
		<g>
			<rect x="1457.219" y="23.5" width="1.096" height="17.553"/>
		</g>
		<g>
			<rect x="1555.163" y="23.5" width="1.095" height="29.259"/>
		</g>
		<g>
			<rect x="1543.634" y="23.5" width="1.096" height="29.259"/>
		</g>
		<g>
			<rect x="1532.115" y="23.5" width="1.096" height="29.259"/>
		</g>
		<g>
			<rect x="1520.596" y="23.5" width="1.095" height="29.259"/>
		</g>
		<g>
			<rect x="1549.403" y="23.5" width="1.096" height="17.553"/>
		</g>
		<g>
			<rect x="1560.923" y="23.5" width="1.096" height="17.553"/>
		</g>
		<g>
			<rect x="1537.884" y="23.5" width="1.095" height="17.553"/>
		</g>
		<g>
			<rect x="1526.364" y="23.5" width="1.095" height="17.553"/>
		</g>
		<g>
			<rect x="1514.835" y="23.5" width="1.096" height="17.553"/>
		</g>
		<g>
			<rect x="1680.989" y="23.5" width="2.933" height="73.165"/>
		</g>
		<g>
			<rect x="1623.752" y="23.5" width="2.191" height="51.22"/>
		</g>
		<g>
			<rect x="1612.78" y="23.5" width="1.095" height="29.259"/>
		</g>
		<g>
			<rect x="1601.26" y="23.5" width="1.096" height="29.259"/>
		</g>
		<g>
			<rect x="1589.732" y="23.5" width="1.096" height="29.259"/>
		</g>
		<g>
			<rect x="1578.212" y="23.5" width="1.094" height="29.259"/>
		</g>
		<g>
			<rect x="1607.011" y="23.5" width="1.096" height="17.553"/>
		</g>
		<g>
			<rect x="1618.531" y="23.5" width="1.095" height="17.553"/>
		</g>
		<g>
			<rect x="1595.492" y="23.5" width="1.095" height="17.553"/>
		</g>
		<g>
			<rect x="1583.972" y="23.5" width="1.096" height="17.553"/>
		</g>
		<g>
			<rect x="1572.443" y="23.5" width="1.096" height="17.553"/>
		</g>
		<g>
			<rect x="1670.388" y="23.5" width="1.095" height="29.259"/>
		</g>
		<g>
			<rect x="1658.868" y="23.5" width="1.095" height="29.259"/>
		</g>
		<g>
			<rect x="1647.348" y="23.5" width="1.096" height="29.259"/>
		</g>
		<g>
			<rect x="1635.819" y="23.5" width="1.095" height="29.259"/>
		</g>
		<g>
			<rect x="1664.637" y="23.5" width="1.095" height="17.553"/>
		</g>
		<g>
			<rect x="1676.156" y="23.5" width="1.096" height="17.553"/>
		</g>
		<g>
			<rect x="1653.109" y="23.5" width="1.094" height="17.553"/>
		</g>
		<g>
			<rect x="1641.58" y="23.5" width="1.096" height="17.553"/>
		</g>
		<g>
			<rect x="1630.06" y="23.5" width="1.095" height="17.553"/>
		</g>
		<g>
			<rect x="1796.222" y="23.5" width="2.934" height="73.165"/>
		</g>
		<g>
			<rect x="1738.985" y="23.5" width="2.192" height="51.22"/>
		</g>
		<g>
			<rect x="1728.014" y="23.5" width="1.095" height="29.259"/>
		</g>
		<g>
			<rect x="1716.476" y="23.5" width="1.096" height="29.259"/>
		</g>
		<g>
			<rect x="1704.957" y="23.5" width="1.095" height="29.259"/>
		</g>
		<g>
			<rect x="1693.427" y="23.5" width="1.096" height="29.259"/>
		</g>
		<g>
			<rect x="1722.244" y="23.5" width="1.096" height="17.553"/>
		</g>
		<g>
			<rect x="1733.764" y="23.5" width="1.096" height="17.553"/>
		</g>
		<g>
			<rect x="1710.717" y="23.5" width="1.094" height="17.553"/>
		</g>
		<g>
			<rect x="1699.196" y="23.5" width="1.096" height="17.553"/>
		</g>
		<g>
			<rect x="1687.676" y="23.5" width="1.095" height="17.553"/>
		</g>
		<g>
			<rect x="1785.621" y="23.5" width="1.095" height="29.259"/>
		</g>
		<g>
			<rect x="1774.101" y="23.5" width="1.096" height="29.259"/>
		</g>
		<g>
			<rect x="1762.573" y="23.5" width="1.096" height="29.259"/>
		</g>
		<g>
			<rect x="1751.053" y="23.5" width="1.096" height="29.259"/>
		</g>
		<g>
			<rect x="1779.853" y="23.5" width="1.095" height="17.553"/>
		</g>
		<g>
			<rect x="1791.39" y="23.5" width="1.096" height="17.553"/>
		</g>
		<g>
			<rect x="1768.333" y="23.5" width="1.095" height="17.553"/>
		</g>
		<g>
			<rect x="1756.813" y="23.5" width="1.096" height="17.553"/>
		</g>
		<g>
			<rect x="1745.284" y="23.5" width="1.095" height="17.553"/>
		</g>
		<g>
			<rect x="1911.459" y="23.5" width="2.925" height="73.165"/>
		</g>
		<g>
			<rect x="1854.201" y="23.5" width="2.191" height="51.22"/>
		</g>
		<g>
			<rect x="1843.229" y="23.5" width="1.095" height="29.259"/>
		</g>
		<g>
			<rect x="1831.709" y="23.5" width="1.096" height="29.259"/>
		</g>
		<g>
			<rect x="1820.181" y="23.5" width="1.095" height="29.259"/>
		</g>
		<g>
			<rect x="1808.661" y="23.5" width="1.096" height="29.259"/>
		</g>
		<g>
			<rect x="1837.469" y="23.5" width="1.096" height="17.553"/>
		</g>
		<g>
			<rect x="1848.998" y="23.5" width="1.096" height="17.553"/>
		</g>
		<g>
			<rect x="1825.95" y="23.5" width="1.095" height="17.553"/>
		</g>
		<g>
			<rect x="1814.43" y="23.5" width="1.095" height="17.553"/>
		</g>
		<g>
			<rect x="1802.91" y="23.5" width="1.095" height="17.553"/>
		</g>
		<g>
			<rect x="1900.846" y="23.5" width="1.095" height="29.259"/>
		</g>
		<g>
			<rect x="1889.326" y="23.5" width="1.095" height="29.259"/>
		</g>
		<g>
			<rect x="1877.806" y="23.5" width="1.095" height="29.259"/>
		</g>
		<g>
			<rect x="1866.286" y="23.5" width="1.096" height="29.259"/>
		</g>
		<g>
			<rect x="1895.086" y="23.5" width="1.096" height="17.553"/>
		</g>
		<g>
			<rect x="1906.605" y="23.5" width="1.096" height="17.553"/>
		</g>
		<g>
			<rect x="1883.557" y="23.5" width="1.096" height="17.553"/>
		</g>
		<g>
			<rect x="1872.038" y="23.5" width="1.096" height="17.553"/>
		</g>
		<g>
			<rect x="1860.518" y="23.5" width="1.095" height="17.553"/>
		</g>
		<g>
			<rect x="2025.872" y="23.5" width="2.924" height="73.165"/>
		</g>
		<g>
			<rect x="1968.63" y="23.5" width="2.191" height="51.22"/>
		</g>
		<g>
			<rect x="1957.658" y="23.5" width="1.097" height="29.259"/>
		</g>
		<g>
			<rect x="1946.129" y="23.5" width="1.096" height="29.259"/>
		</g>
		<g>
			<rect x="1934.601" y="23.5" width="1.095" height="29.259"/>
		</g>
		<g>
			<rect x="1923.081" y="23.5" width="1.097" height="29.259"/>
		</g>
		<g>
			<rect x="1951.891" y="23.5" width="1.094" height="17.553"/>
		</g>
		<g>
			<rect x="1963.41" y="23.5" width="1.097" height="17.553"/>
		</g>
		<g>
			<rect x="1940.379" y="23.5" width="1.095" height="17.553"/>
		</g>
		<g>
			<rect x="1928.841" y="23.5" width="1.095" height="17.553"/>
		</g>
		<g>
			<rect x="1917.321" y="23.5" width="1.096" height="17.553"/>
		</g>
		<g>
			<rect x="2015.267" y="23.5" width="1.095" height="29.259"/>
		</g>
		<g>
			<rect x="2003.739" y="23.5" width="1.095" height="29.259"/>
		</g>
		<g>
			<rect x="1992.217" y="23.5" width="1.096" height="29.259"/>
		</g>
		<g>
			<rect x="1980.698" y="23.5" width="1.096" height="29.259"/>
		</g>
		<g>
			<rect x="2009.506" y="23.5" width="1.096" height="17.553"/>
		</g>
		<g>
			<rect x="2021.026" y="23.5" width="1.096" height="17.553"/>
		</g>
		<g>
			<rect x="1997.977" y="23.5" width="1.096" height="17.553"/>
		</g>
		<g>
			<rect x="1986.467" y="23.5" width="1.094" height="17.553"/>
		</g>
		<g>
			<rect x="1974.946" y="23.5" width="1.097" height="17.553"/>
		</g>
		<g>
			<rect x="2141.096" y="23.5" width="2.925" height="73.165"/>
		</g>
		<g>
			<rect x="2083.855" y="23.5" width="2.19" height="51.22"/>
		</g>
		<g>
			<rect x="2072.874" y="23.5" width="1.096" height="29.259"/>
		</g>
		<g>
			<rect x="2061.354" y="23.5" width="1.097" height="29.259"/>
		</g>
		<g>
			<rect x="2049.843" y="23.5" width="1.096" height="29.259"/>
		</g>
		<g>
			<rect x="2038.306" y="23.5" width="1.096" height="29.259"/>
		</g>
		<g>
			<rect x="2067.115" y="23.5" width="1.095" height="17.553"/>
		</g>
		<g>
			<rect x="2078.643" y="23.5" width="1.096" height="17.553"/>
		</g>
		<g>
			<rect x="2055.594" y="23.5" width="1.096" height="17.553"/>
		</g>
		<g>
			<rect x="2044.075" y="23.5" width="1.095" height="17.553"/>
		</g>
		<g>
			<rect x="2032.554" y="23.5" width="1.096" height="17.553"/>
		</g>
		<g>
			<rect x="2130.491" y="23.5" width="1.096" height="29.259"/>
		</g>
		<g>
			<rect x="2118.971" y="23.5" width="1.096" height="29.259"/>
		</g>
		<g>
			<rect x="2107.452" y="23.5" width="1.095" height="29.259"/>
		</g>
		<g>
			<rect x="2095.923" y="23.5" width="1.095" height="29.259"/>
		</g>
		<g>
			<rect x="2124.722" y="23.5" width="1.095" height="17.553"/>
		</g>
		<g>
			<rect x="2136.25" y="23.5" width="1.096" height="17.553"/>
		</g>
		<g>
			<rect x="2113.202" y="23.5" width="1.097" height="17.553"/>
		</g>
		<g>
			<rect x="2101.683" y="23.5" width="1.095" height="17.553"/>
		</g>
		<g>
			<rect x="2090.163" y="23.5" width="1.096" height="17.553"/>
		</g>
		<g>
			<rect x="2256.33" y="23.5" width="2.924" height="73.165"/>
		</g>
		<g>
			<rect x="2199.088" y="23.5" width="2.191" height="51.22"/>
		</g>
		<g>
			<rect x="2188.116" y="23.5" width="1.097" height="29.259"/>
		</g>
		<g>
			<rect x="2176.58" y="23.5" width="1.095" height="29.259"/>
		</g>
		<g>
			<rect x="2165.059" y="23.5" width="1.095" height="29.259"/>
		</g>
		<g>
			<rect x="2153.539" y="23.5" width="1.097" height="29.259"/>
		</g>
		<g>
			<rect x="2182.338" y="23.5" width="1.096" height="17.553"/>
		</g>
		<g>
			<rect x="2193.868" y="23.5" width="1.096" height="17.553"/>
		</g>
		<g>
			<rect x="2170.828" y="23.5" width="1.096" height="17.553"/>
		</g>
		<g>
			<rect x="2159.299" y="23.5" width="1.095" height="17.553"/>
		</g>
		<g>
			<rect x="2147.771" y="23.5" width="1.095" height="17.553"/>
		</g>
		<g>
			<rect x="2245.723" y="23.5" width="1.097" height="29.259"/>
		</g>
		<g>
			<rect x="2234.196" y="23.5" width="1.095" height="29.259"/>
		</g>
		<g>
			<rect x="2222.675" y="23.5" width="1.096" height="29.259"/>
		</g>
		<g>
			<rect x="2211.147" y="23.5" width="1.096" height="29.259"/>
		</g>
		<g>
			<rect x="2239.956" y="23.5" width="1.095" height="17.553"/>
		</g>
		<g>
			<rect x="2251.475" y="23.5" width="1.097" height="17.553"/>
		</g>
		<g>
			<rect x="2228.435" y="23.5" width="1.097" height="17.553"/>
		</g>
		<g>
			<rect x="2216.907" y="23.5" width="1.096" height="17.553"/>
		</g>
		<g>
			<rect x="2205.387" y="23.5" width="1.096" height="17.553"/>
		</g>
		<g>
			<rect x="2371.555" y="23.5" width="2.924" height="73.165"/>
		</g>
		<g>
			<rect x="2314.304" y="23.5" width="2.19" height="51.22"/>
		</g>
		<g>
			<rect x="2303.332" y="23.5" width="1.096" height="29.259"/>
		</g>
		<g>
			<rect x="2291.812" y="23.5" width="1.096" height="29.259"/>
		</g>
		<g>
			<rect x="2280.283" y="23.5" width="1.097" height="29.259"/>
		</g>
		<g>
			<rect x="2268.764" y="23.5" width="1.096" height="29.259"/>
		</g>
		<g>
			<rect x="2297.572" y="23.5" width="1.096" height="17.553"/>
		</g>
		<g>
			<rect x="2309.101" y="23.5" width="1.095" height="17.553"/>
		</g>
		<g>
			<rect x="2286.043" y="23.5" width="1.096" height="17.553"/>
		</g>
		<g>
			<rect x="2274.524" y="23.5" width="1.095" height="17.553"/>
		</g>
		<g>
			<rect x="2262.995" y="23.5" width="1.096" height="17.553"/>
		</g>
		<g>
			<rect x="2360.949" y="23.5" width="1.096" height="29.259"/>
		</g>
		<g>
			<rect x="2349.42" y="23.5" width="1.095" height="29.259"/>
		</g>
		<g>
			<rect x="2337.892" y="23.5" width="1.095" height="29.259"/>
		</g>
		<g>
			<rect x="2326.372" y="23.5" width="1.096" height="29.259"/>
		</g>
		<g>
			<rect x="2355.179" y="23.5" width="1.096" height="17.553"/>
		</g>
		<g>
			<rect x="2366.708" y="23.5" width="1.095" height="17.553"/>
		</g>
		<g>
			<rect x="2343.652" y="23.5" width="1.095" height="17.553"/>
		</g>
		<g>
			<rect x="2332.141" y="23.5" width="1.095" height="17.553"/>
		</g>
		<g>
			<rect x="2320.621" y="23.5" width="1.096" height="17.553"/>
		</g>
		<g>
			<rect x="2486.78" y="23.5" width="2.923" height="73.165"/>
		</g>
		<g>
			<rect x="2429.538" y="23.5" width="2.19" height="51.22"/>
		</g>
		<g>
			<rect x="2418.556" y="23.5" width="1.097" height="29.259"/>
		</g>
		<g>
			<rect x="2407.038" y="23.5" width="1.095" height="29.259"/>
		</g>
		<g>
			<rect x="2395.517" y="23.5" width="1.095" height="29.259"/>
		</g>
		<g>
			<rect x="2383.997" y="23.5" width="1.097" height="29.259"/>
		</g>
		<g>
			<rect x="2412.796" y="23.5" width="1.096" height="17.553"/>
		</g>
		<g>
			<rect x="2424.316" y="23.5" width="1.096" height="17.553"/>
		</g>
		<g>
			<rect x="2401.268" y="23.5" width="1.096" height="17.553"/>
		</g>
		<g>
			<rect x="2389.749" y="23.5" width="1.096" height="17.553"/>
		</g>
		<g>
			<rect x="2378.229" y="23.5" width="1.095" height="17.553"/>
		</g>
		<g>
			<rect x="2476.165" y="23.5" width="1.096" height="29.259"/>
		</g>
		<g>
			<rect x="2464.645" y="23.5" width="1.095" height="29.259"/>
		</g>
		<g>
			<rect x="2453.125" y="23.5" width="1.096" height="29.259"/>
		</g>
		<g>
			<rect x="2441.605" y="23.5" width="1.096" height="29.259"/>
		</g>
		<g>
			<rect x="2470.404" y="23.5" width="1.097" height="17.553"/>
		</g>
		<g>
			<rect x="2481.933" y="23.5" width="1.096" height="17.553"/>
		</g>
		<g>
			<rect x="2458.885" y="23.5" width="1.095" height="17.553"/>
		</g>
		<g>
			<rect x="2447.357" y="23.5" width="1.095" height="17.553"/>
		</g>
		<g>
			<rect x="2435.836" y="23.5" width="1.095" height="17.553"/>
		</g>
		<g>
			<rect x="2601.199" y="23.5" width="2.925" height="73.165"/>
		</g>
		<g>
			<rect x="2543.95" y="23.5" width="2.191" height="51.22"/>
		</g>
		<g>
			<rect x="2532.978" y="23.5" width="1.094" height="29.259"/>
		</g>
		<g>
			<rect x="2521.457" y="23.5" width="1.097" height="29.259"/>
		</g>
		<g>
			<rect x="2509.938" y="23.5" width="1.095" height="29.259"/>
		</g>
		<g>
			<rect x="2498.41" y="23.5" width="1.095" height="29.259"/>
		</g>
		<g>
			<rect x="2527.217" y="23.5" width="1.096" height="17.553"/>
		</g>
		<g>
			<rect x="2538.737" y="23.5" width="1.096" height="17.553"/>
		</g>
		<g>
			<rect x="2515.688" y="23.5" width="1.096" height="17.553"/>
		</g>
		<g>
			<rect x="2504.168" y="23.5" width="1.096" height="17.553"/>
		</g>
		<g>
			<rect x="2492.649" y="23.5" width="1.097" height="17.553"/>
		</g>
		<g>
			<rect x="2590.584" y="23.5" width="1.096" height="29.259"/>
		</g>
		<g>
			<rect x="2579.065" y="23.5" width="1.096" height="29.259"/>
		</g>
		<g>
			<rect x="2567.536" y="23.5" width="1.097" height="29.259"/>
		</g>
		<g>
			<rect x="2556.017" y="23.5" width="1.095" height="29.259"/>
		</g>
		<g>
			<rect x="2584.826" y="23.5" width="1.095" height="17.553"/>
		</g>
		<g>
			<rect x="2596.354" y="23.5" width="1.095" height="17.553"/>
		</g>
		<g>
			<rect x="2573.305" y="23.5" width="1.096" height="17.553"/>
		</g>
		<g>
			<rect x="2561.786" y="23.5" width="1.095" height="17.553"/>
		</g>
		<g>
			<rect x="2550.265" y="23.5" width="1.097" height="17.553"/>
		</g>
		<g>
			<rect x="2716.424" y="23.5" width="2.924" height="73.165"/>
		</g>
		<g>
			<rect x="2659.173" y="23.5" width="2.192" height="51.22"/>
		</g>
		<g>
			<rect x="2648.202" y="23.5" width="1.095" height="29.259"/>
		</g>
		<g>
			<rect x="2636.673" y="23.5" width="1.095" height="29.259"/>
		</g>
		<g>
			<rect x="2625.162" y="23.5" width="1.096" height="29.259"/>
		</g>
		<g>
			<rect x="2613.642" y="23.5" width="1.096" height="29.259"/>
		</g>
		<g>
			<rect x="2642.451" y="23.5" width="1.096" height="17.553"/>
		</g>
		<g>
			<rect x="2653.96" y="23.5" width="1.097" height="17.553"/>
		</g>
		<g>
			<rect x="2630.922" y="23.5" width="1.096" height="17.553"/>
		</g>
		<g>
			<rect x="2619.403" y="23.5" width="1.095" height="17.553"/>
		</g>
		<g>
			<rect x="2607.875" y="23.5" width="1.095" height="17.553"/>
		</g>
		<g>
			<rect x="2705.809" y="23.5" width="1.096" height="29.259"/>
		</g>
		<g>
			<rect x="2694.29" y="23.5" width="1.096" height="29.259"/>
		</g>
		<g>
			<rect x="2682.779" y="23.5" width="1.096" height="29.259"/>
		</g>
		<g>
			<rect x="2671.25" y="23.5" width="1.095" height="29.259"/>
		</g>
		<g>
			<rect x="2700.049" y="23.5" width="1.096" height="17.553"/>
		</g>
		<g>
			<rect x="2711.578" y="23.5" width="1.097" height="17.553"/>
		</g>
		<g>
			<rect x="2688.531" y="23.5" width="1.094" height="17.553"/>
		</g>
		<g>
			<rect x="2677.009" y="23.5" width="1.096" height="17.553"/>
		</g>
		<g>
			<rect x="2665.49" y="23.5" width="1.096" height="17.553"/>
		</g>
		<g>
			<rect x="2831.648" y="23.5" width="2.925" height="73.165"/>
		</g>
		<g>
			<rect x="2774.408" y="23.5" width="2.19" height="51.22"/>
		</g>
		<g>
			<rect x="2763.436" y="23.5" width="1.094" height="29.259"/>
		</g>
		<g>
			<rect x="2751.907" y="23.5" width="1.096" height="29.259"/>
		</g>
		<g>
			<rect x="2740.386" y="23.5" width="1.097" height="29.259"/>
		</g>
		<g>
			<rect x="2728.857" y="23.5" width="1.096" height="29.259"/>
		</g>
		<g>
			<rect x="2757.667" y="23.5" width="1.095" height="17.553"/>
		</g>
		<g>
			<rect x="2769.186" y="23.5" width="1.096" height="17.553"/>
		</g>
		<g>
			<rect x="2746.146" y="23.5" width="1.096" height="17.553"/>
		</g>
		<g>
			<rect x="2734.626" y="23.5" width="1.096" height="17.553"/>
		</g>
		<g>
			<rect x="2723.098" y="23.5" width="1.095" height="17.553"/>
		</g>
		<g>
			<rect x="2821.042" y="23.5" width="1.095" height="29.259"/>
		</g>
		<g>
			<rect x="2809.514" y="23.5" width="1.096" height="29.259"/>
		</g>
		<g>
			<rect x="2797.995" y="23.5" width="1.095" height="29.259"/>
		</g>
		<g>
			<rect x="2786.474" y="23.5" width="1.096" height="29.259"/>
		</g>
		<g>
			<rect x="2815.284" y="23.5" width="1.095" height="17.553"/>
		</g>
		<g>
			<rect x="2826.803" y="23.5" width="1.096" height="17.553"/>
		</g>
		<g>
			<rect x="2803.763" y="23.5" width="1.096" height="17.553"/>
		</g>
		<g>
			<rect x="2792.235" y="23.5" width="1.096" height="17.553"/>
		</g>
		<g>
			<rect x="2780.707" y="23.5" width="1.095" height="17.553"/>
		</g>
		<g>
			<rect x="2946.881" y="23.5" width="2.924" height="73.165"/>
		</g>
		<g>
			<rect x="2889.631" y="23.5" width="2.189" height="51.22"/>
		</g>
		<g>
			<rect x="2878.66" y="23.5" width="1.095" height="29.259"/>
		</g>
		<g>
			<rect x="2867.131" y="23.5" width="1.095" height="29.259"/>
		</g>
		<g>
			<rect x="2855.611" y="23.5" width="1.096" height="29.259"/>
		</g>
		<g>
			<rect x="2844.083" y="23.5" width="1.096" height="29.259"/>
		</g>
		<g>
			<rect x="2872.89" y="23.5" width="1.097" height="17.553"/>
		</g>
		<g>
			<rect x="2884.418" y="23.5" width="1.097" height="17.553"/>
		</g>
		<g>
			<rect x="2861.37" y="23.5" width="1.097" height="17.553"/>
		</g>
		<g>
			<rect x="2849.842" y="23.5" width="1.096" height="17.553"/>
		</g>
		<g>
			<rect x="2838.323" y="23.5" width="1.096" height="17.553"/>
		</g>
		<g>
			<rect x="2936.268" y="23.5" width="1.095" height="29.259"/>
		</g>
		<g>
			<rect x="2924.748" y="23.5" width="1.096" height="29.259"/>
		</g>
		<g>
			<rect x="2913.219" y="23.5" width="1.095" height="29.259"/>
		</g>
		<g>
			<rect x="2901.699" y="23.5" width="1.097" height="29.259"/>
		</g>
		<g>
			<rect x="2930.507" y="23.5" width="1.097" height="17.553"/>
		</g>
		<g>
			<rect x="2942.028" y="23.5" width="1.095" height="17.553"/>
		</g>
		<g>
			<rect x="2918.979" y="23.5" width="1.096" height="17.553"/>
		</g>
		<g>
			<rect x="2907.467" y="23.5" width="1.096" height="17.553"/>
		</g>
		<g>
			<rect x="2895.948" y="23.5" width="1.096" height="17.553"/>
		</g>
		<g>
			<rect x="3004.856" y="23.5" width="2.191" height="51.22"/>
		</g>
		<g>
			<rect x="2993.884" y="23.5" width="1.095" height="29.259"/>
		</g>
		<g>
			<rect x="2982.355" y="23.5" width="1.097" height="29.259"/>
		</g>
		<g>
			<rect x="2970.836" y="23.5" width="1.094" height="29.259"/>
		</g>
		<g>
			<rect x="2959.315" y="23.5" width="1.096" height="29.259"/>
		</g>
		<g>
			<rect x="2988.116" y="23.5" width="1.095" height="17.553"/>
		</g>
		<g>
			<rect x="2999.643" y="23.5" width="1.097" height="17.553"/>
		</g>
		<g>
			<rect x="2976.595" y="23.5" width="1.096" height="17.553"/>
		</g>
		<g>
			<rect x="2965.076" y="23.5" width="1.096" height="17.553"/>
		</g>
		<g>
			<rect x="2953.547" y="23.5" width="1.096" height="17.553"/>
		</g>
		<g>
			<rect x="3051.491" y="23.5" width="1.097" height="29.259"/>
		</g>
		<g>
			<rect x="3039.972" y="23.5" width="1.095" height="29.259"/>
		</g>
		<g>
			<rect x="3028.452" y="23.5" width="1.096" height="29.259"/>
		</g>
		<g>
			<rect x="3016.932" y="23.5" width="1.096" height="29.259"/>
		</g>
		<g>
			<rect x="3045.732" y="23.5" width="1.095" height="17.553"/>
		</g>
		<g>
			<rect x="3057.251" y="23.5" width="1.096" height="17.553"/>
		</g>
		<g>
			<rect x="3034.211" y="23.5" width="1.097" height="17.553"/>
		</g>
		<g>
			<rect x="3022.684" y="23.5" width="1.096" height="17.553"/>
		</g>
		<g>
			<rect x="3011.165" y="23.5" width="1.094" height="17.553"/>
		</g>
		<g>
			<rect x="3061.294" y="23.5" width="2.923" height="73.165"/>
		</g>
		<g>
			<rect x="3176.518" y="23.5" width="2.924" height="73.165"/>
		</g>
		<g>
			<rect x="3119.277" y="23.5" width="2.19" height="51.22"/>
		</g>
		<g>
			<rect x="3108.295" y="23.5" width="1.096" height="29.259"/>
		</g>
		<g>
			<rect x="3096.776" y="23.5" width="1.095" height="29.259"/>
		</g>
		<g>
			<rect x="3085.255" y="23.5" width="1.097" height="29.259"/>
		</g>
		<g>
			<rect x="3073.727" y="23.5" width="1.096" height="29.259"/>
		</g>
		<g>
			<rect x="3102.537" y="23.5" width="1.095" height="17.553"/>
		</g>
		<g>
			<rect x="3114.065" y="23.5" width="1.096" height="17.553"/>
		</g>
		<g>
			<rect x="3091.016" y="23.5" width="1.096" height="17.553"/>
		</g>
		<g>
			<rect x="3079.497" y="23.5" width="1.096" height="17.553"/>
		</g>
		<g>
			<rect x="3067.967" y="23.5" width="1.096" height="17.553"/>
		</g>
		<g>
			<rect x="3165.913" y="23.5" width="1.096" height="29.259"/>
		</g>
		<g>
			<rect x="3154.393" y="23.5" width="1.095" height="29.259"/>
		</g>
		<g>
			<rect x="3142.865" y="23.5" width="1.095" height="29.259"/>
		</g>
		<g>
			<rect x="3131.344" y="23.5" width="1.096" height="29.259"/>
		</g>
		<g>
			<rect x="3160.143" y="23.5" width="1.096" height="17.553"/>
		</g>
		<g>
			<rect x="3171.672" y="23.5" width="1.096" height="17.553"/>
		</g>
		<g>
			<rect x="3148.633" y="23.5" width="1.096" height="17.553"/>
		</g>
		<g>
			<rect x="3137.114" y="23.5" width="1.095" height="17.553"/>
		</g>
		<g>
			<rect x="3125.584" y="23.5" width="1.096" height="17.553"/>
		</g>
		<g>
			<rect x="3291.743" y="23.5" width="2.924" height="73.165"/>
		</g>
		<g>
			<rect x="3234.501" y="23.5" width="2.19" height="51.22"/>
		</g>
		<g>
			<rect x="3223.529" y="23.5" width="1.097" height="29.259"/>
		</g>
		<g>
			<rect x="3212" y="23.5" width="1.096" height="29.259"/>
		</g>
		<g>
			<rect x="3200.481" y="23.5" width="1.096" height="29.259"/>
		</g>
		<g>
			<rect x="3188.961" y="23.5" width="1.095" height="29.259"/>
		</g>
		<g>
			<rect x="3217.769" y="23.5" width="1.095" height="17.553"/>
		</g>
		<g>
			<rect x="3229.29" y="23.5" width="1.095" height="17.553"/>
		</g>
		<g>
			<rect x="3206.241" y="23.5" width="1.095" height="17.553"/>
		</g>
		<g>
			<rect x="3194.72" y="23.5" width="1.095" height="17.553"/>
		</g>
		<g>
			<rect x="3183.201" y="23.5" width="1.096" height="17.553"/>
		</g>
		<g>
			<rect x="3281.137" y="23.5" width="1.095" height="29.259"/>
		</g>
		<g>
			<rect x="3269.617" y="23.5" width="1.095" height="29.259"/>
		</g>
		<g>
			<rect x="3258.096" y="23.5" width="1.097" height="29.259"/>
		</g>
		<g>
			<rect x="3246.568" y="23.5" width="1.097" height="29.259"/>
		</g>
		<g>
			<rect x="3275.376" y="23.5" width="1.097" height="17.553"/>
		</g>
		<g>
			<rect x="3286.906" y="23.5" width="1.096" height="17.553"/>
		</g>
		<g>
			<rect x="3263.858" y="23.5" width="1.095" height="17.553"/>
		</g>
		<g>
			<rect x="3252.337" y="23.5" width="1.095" height="17.553"/>
		</g>
		<g>
			<rect x="3240.809" y="23.5" width="1.096" height="17.553"/>
		</g>
		<g>
			<rect x="3406.976" y="23.5" width="2.924" height="73.165"/>
		</g>
		<g>
			<rect x="3349.725" y="23.5" width="2.191" height="51.22"/>
		</g>
		<g>
			<rect x="3338.754" y="23.5" width="1.095" height="29.259"/>
		</g>
		<g>
			<rect x="3327.234" y="23.5" width="1.095" height="29.259"/>
		</g>
		<g>
			<rect x="3315.706" y="23.5" width="1.095" height="29.259"/>
		</g>
		<g>
			<rect x="3304.185" y="23.5" width="1.097" height="29.259"/>
		</g>
		<g>
			<rect x="3332.993" y="23.5" width="1.098" height="17.553"/>
		</g>
		<g>
			<rect x="3344.514" y="23.5" width="1.094" height="17.553"/>
		</g>
		<g>
			<rect x="3321.473" y="23.5" width="1.097" height="17.553"/>
		</g>
		<g>
			<rect x="3309.946" y="23.5" width="1.095" height="17.553"/>
		</g>
		<g>
			<rect x="3298.425" y="23.5" width="1.096" height="17.553"/>
		</g>
		<g>
			<rect x="3396.371" y="23.5" width="1.096" height="29.259"/>
		</g>
		<g>
			<rect x="3384.842" y="23.5" width="1.096" height="29.259"/>
		</g>
		<g>
			<rect x="3373.321" y="23.5" width="1.097" height="29.259"/>
		</g>
		<g>
			<rect x="3361.802" y="23.5" width="1.095" height="29.259"/>
		</g>
		<g>
			<rect x="3390.61" y="23.5" width="1.096" height="17.553"/>
		</g>
		<g>
			<rect x="3402.129" y="23.5" width="1.096" height="17.553"/>
		</g>
		<g>
			<rect x="3379.082" y="23.5" width="1.096" height="17.553"/>
		</g>
		<g>
			<rect x="3367.562" y="23.5" width="1.096" height="17.553"/>
		</g>
		<g>
			<rect x="3356.042" y="23.5" width="1.097" height="17.553"/>
		</g>
		<g>
			<rect x="3522.201" y="23.5" width="2.925" height="73.165"/>
		</g>
		<g>
			<rect x="3464.959" y="23.5" width="2.19" height="51.22"/>
		</g>
		<g>
			<rect x="3453.977" y="23.5" width="1.097" height="29.259"/>
		</g>
		<g>
			<rect x="3442.458" y="23.5" width="1.095" height="29.259"/>
		</g>
		<g>
			<rect x="3430.938" y="23.5" width="1.097" height="29.259"/>
		</g>
		<g>
			<rect x="3419.411" y="23.5" width="1.095" height="29.259"/>
		</g>
		<g>
			<rect x="3448.218" y="23.5" width="1.096" height="17.553"/>
		</g>
		<g>
			<rect x="3459.739" y="23.5" width="1.095" height="17.553"/>
		</g>
		<g>
			<rect x="3436.69" y="23.5" width="1.096" height="17.553"/>
		</g>
		<g>
			<rect x="3425.17" y="23.5" width="1.095" height="17.553"/>
		</g>
		<g>
			<rect x="3413.65" y="23.5" width="1.095" height="17.553"/>
		</g>
		<g>
			<rect x="3511.594" y="23.5" width="1.096" height="29.259"/>
		</g>
		<g>
			<rect x="3500.075" y="23.5" width="1.095" height="29.259"/>
		</g>
		<g>
			<rect x="3488.546" y="23.5" width="1.095" height="29.259"/>
		</g>
		<g>
			<rect x="3477.026" y="23.5" width="1.096" height="29.259"/>
		</g>
		<g>
			<rect x="3505.834" y="23.5" width="1.096" height="17.553"/>
		</g>
		<g>
			<rect x="3517.355" y="23.5" width="1.095" height="17.553"/>
		</g>
		<g>
			<rect x="3494.306" y="23.5" width="1.097" height="17.553"/>
		</g>
		<g>
			<rect x="3482.788" y="23.5" width="1.095" height="17.553"/>
		</g>
		<g>
			<rect x="3471.267" y="23.5" width="1.095" height="17.553"/>
		</g>
		<g>
			<rect x="3637.423" y="23.5" width="2.925" height="73.165"/>
		</g>
		<g>
			<rect x="3580.175" y="23.5" width="2.19" height="51.22"/>
		</g>
		<g>
			<rect x="3569.203" y="23.5" width="1.096" height="29.259"/>
		</g>
		<g>
			<rect x="3557.674" y="23.5" width="1.095" height="29.259"/>
		</g>
		<g>
			<rect x="3546.154" y="23.5" width="1.097" height="29.259"/>
		</g>
		<g>
			<rect x="3534.643" y="23.5" width="1.096" height="29.259"/>
		</g>
		<g>
			<rect x="3563.442" y="23.5" width="1.096" height="17.553"/>
		</g>
		<g>
			<rect x="3574.972" y="23.5" width="1.094" height="17.553"/>
		</g>
		<g>
			<rect x="3551.922" y="23.5" width="1.098" height="17.553"/>
		</g>
		<g>
			<rect x="3540.402" y="23.5" width="1.097" height="17.553"/>
		</g>
		<g>
			<rect x="3528.874" y="23.5" width="1.097" height="17.553"/>
		</g>
		<g>
			<rect x="3626.82" y="23.5" width="1.096" height="29.259"/>
		</g>
		<g>
			<rect x="3615.3" y="23.5" width="1.095" height="29.259"/>
		</g>
		<g>
			<rect x="3603.78" y="23.5" width="1.096" height="29.259"/>
		</g>
		<g>
			<rect x="3592.252" y="23.5" width="1.094" height="29.259"/>
		</g>
		<g>
			<rect x="3621.059" y="23.5" width="1.096" height="17.553"/>
		</g>
		<g>
			<rect x="3632.58" y="23.5" width="1.095" height="17.553"/>
		</g>
		<g>
			<rect x="3609.54" y="23.5" width="1.096" height="17.553"/>
		</g>
		<g>
			<rect x="3598.011" y="23.5" width="1.095" height="17.553"/>
		</g>
		<g>
			<rect x="3586.491" y="23.5" width="1.096" height="17.553"/>
		</g>
	</g>
	<g>
		<g>
			<rect x="184.687" y="23.5" width="2.933" height="73.165"/>
		</g>
		<g>
			<rect x="299.108" y="23.5" width="2.933" height="73.165"/>
		</g>
		<g>
			<rect x="241.862" y="23.5" width="2.191" height="51.22"/>
		</g>
		<g>
			<rect x="230.89" y="23.5" width="1.095" height="29.259"/>
		</g>
		<g>
			<rect x="219.37" y="23.5" width="1.095" height="29.259"/>
		</g>
		<g>
			<rect x="207.85" y="23.5" width="1.096" height="29.259"/>
		</g>
		<g>
			<rect x="196.322" y="23.5" width="1.095" height="29.259"/>
		</g>
		<g>
			<rect x="225.13" y="23.5" width="1.096" height="17.553"/>
		</g>
		<g>
			<rect x="236.649" y="23.5" width="1.096" height="17.553"/>
		</g>
		<g>
			<rect x="213.602" y="23.5" width="1.095" height="17.553"/>
		</g>
		<g>
			<rect x="202.082" y="23.5" width="1.096" height="17.553"/>
		</g>
		<g>
			<rect x="190.553" y="23.5" width="1.096" height="17.553"/>
		</g>
		<g>
			<rect x="288.498" y="23.5" width="1.095" height="29.259"/>
		</g>
		<g>
			<rect x="276.978" y="23.5" width="1.096" height="29.259"/>
		</g>
		<g>
			<rect x="265.449" y="23.5" width="1.096" height="29.259"/>
		</g>
		<g>
			<rect x="253.93" y="23.5" width="1.095" height="29.259"/>
		</g>
		<g>
			<rect x="282.738" y="23.5" width="1.096" height="17.553"/>
		</g>
		<g>
			<rect x="294.266" y="23.5" width="1.096" height="17.553"/>
		</g>
		<g>
			<rect x="271.218" y="23.5" width="1.095" height="17.553"/>
		</g>
		<g>
			<rect x="259.689" y="23.5" width="1.096" height="17.553"/>
		</g>
		<g>
			<rect x="248.169" y="23.5" width="1.096" height="17.553"/>
		</g>
		<g>
			<rect x="414.333" y="23.5" width="2.933" height="73.165"/>
		</g>
		<g>
			<rect x="357.086" y="23.5" width="2.191" height="51.22"/>
		</g>
		<g>
			<rect x="346.115" y="23.5" width="1.095" height="29.259"/>
		</g>
		<g>
			<rect x="334.585" y="23.5" width="1.096" height="29.259"/>
		</g>
		<g>
			<rect x="323.066" y="23.5" width="1.096" height="29.259"/>
		</g>
		<g>
			<rect x="311.547" y="23.5" width="1.094" height="29.259"/>
		</g>
		<g>
			<rect x="340.364" y="23.5" width="1.096" height="17.553"/>
		</g>
		<g>
			<rect x="351.874" y="23.5" width="1.095" height="17.553"/>
		</g>
		<g>
			<rect x="328.827" y="23.5" width="1.094" height="17.553"/>
		</g>
		<g>
			<rect x="317.306" y="23.5" width="1.096" height="17.553"/>
		</g>
		<g>
			<rect x="305.786" y="23.5" width="1.095" height="17.553"/>
		</g>
		<g>
			<rect x="403.723" y="23.5" width="1.095" height="29.259"/>
		</g>
		<g>
			<rect x="392.202" y="23.5" width="1.096" height="29.259"/>
		</g>
		<g>
			<rect x="380.683" y="23.5" width="1.095" height="29.259"/>
		</g>
		<g>
			<rect x="369.162" y="23.5" width="1.096" height="29.259"/>
		</g>
		<g>
			<rect x="397.962" y="23.5" width="1.096" height="17.553"/>
		</g>
		<g>
			<rect x="409.49" y="23.5" width="1.096" height="17.553"/>
		</g>
		<g>
			<rect x="386.443" y="23.5" width="1.095" height="17.553"/>
		</g>
		<g>
			<rect x="374.922" y="23.5" width="1.096" height="17.553"/>
		</g>
		<g>
			<rect x="363.403" y="23.5" width="1.095" height="17.553"/>
		</g>
		<g>
			<rect x="529.557" y="23.5" width="2.933" height="73.165"/>
		</g>
		<g>
			<rect x="472.311" y="23.5" width="2.192" height="51.22"/>
		</g>
		<g>
			<rect x="461.339" y="23.5" width="1.095" height="29.259"/>
		</g>
		<g>
			<rect x="449.819" y="23.5" width="1.096" height="29.259"/>
		</g>
		<g>
			<rect x="438.299" y="23.5" width="1.096" height="29.259"/>
		</g>
		<g>
			<rect x="426.771" y="23.5" width="1.096" height="29.259"/>
		</g>
		<g>
			<rect x="455.579" y="23.5" width="1.096" height="17.553"/>
		</g>
		<g>
			<rect x="467.099" y="23.5" width="1.096" height="17.553"/>
		</g>
		<g>
			<rect x="444.06" y="23.5" width="1.095" height="17.553"/>
		</g>
		<g>
			<rect x="432.54" y="23.5" width="1.096" height="17.553"/>
		</g>
		<g>
			<rect x="421.011" y="23.5" width="1.095" height="17.553"/>
		</g>
		<g>
			<rect x="518.956" y="23.5" width="1.095" height="29.259"/>
		</g>
		<g>
			<rect x="507.418" y="23.5" width="1.096" height="29.259"/>
		</g>
		<g>
			<rect x="495.907" y="23.5" width="1.095" height="29.259"/>
		</g>
		<g>
			<rect x="484.387" y="23.5" width="1.096" height="29.259"/>
		</g>
		<g>
			<rect x="513.196" y="23.5" width="1.096" height="17.553"/>
		</g>
		<g>
			<rect x="524.715" y="23.5" width="1.096" height="17.553"/>
		</g>
		<g>
			<rect x="501.676" y="23.5" width="1.095" height="17.553"/>
		</g>
		<g>
			<rect x="490.147" y="23.5" width="1.096" height="17.553"/>
		</g>
		<g>
			<rect x="478.619" y="23.5" width="1.095" height="17.553"/>
		</g>
		<g>
			<rect x="644.791" y="23.5" width="2.933" height="73.165"/>
		</g>
		<g>
			<rect x="587.544" y="23.5" width="2.19" height="51.22"/>
		</g>
		<g>
			<rect x="576.573" y="23.5" width="1.095" height="29.259"/>
		</g>
		<g>
			<rect x="565.043" y="23.5" width="1.096" height="29.259"/>
		</g>
		<g>
			<rect x="553.524" y="23.5" width="1.095" height="29.259"/>
		</g>
		<g>
			<rect x="541.995" y="23.5" width="1.095" height="29.259"/>
		</g>
		<g>
			<rect x="570.804" y="23.5" width="1.096" height="17.553"/>
		</g>
		<g>
			<rect x="582.332" y="23.5" width="1.095" height="17.553"/>
		</g>
		<g>
			<rect x="559.283" y="23.5" width="1.096" height="17.553"/>
		</g>
		<g>
			<rect x="547.755" y="23.5" width="1.096" height="17.553"/>
		</g>
		<g>
			<rect x="536.235" y="23.5" width="1.095" height="17.553"/>
		</g>
		<g>
			<rect x="634.181" y="23.5" width="1.095" height="29.259"/>
		</g>
		<g>
			<rect x="622.66" y="23.5" width="1.096" height="29.259"/>
		</g>
		<g>
			<rect x="611.132" y="23.5" width="1.094" height="29.259"/>
		</g>
		<g>
			<rect x="599.611" y="23.5" width="1.096" height="29.259"/>
		</g>
		<g>
			<rect x="628.42" y="23.5" width="1.096" height="17.553"/>
		</g>
		<g>
			<rect x="639.931" y="23.5" width="1.096" height="17.553"/>
		</g>
		<g>
			<rect x="616.891" y="23.5" width="1.096" height="17.553"/>
		</g>
		<g>
			<rect x="605.372" y="23.5" width="1.096" height="17.553"/>
		</g>
		<g>
			<rect x="593.853" y="23.5" width="1.095" height="17.553"/>
		</g>
		<g>
			<rect x="702.769" y="23.5" width="2.191" height="51.22"/>
		</g>
		<g>
			<rect x="691.797" y="23.5" width="1.095" height="29.259"/>
		</g>
		<g>
			<rect x="680.268" y="23.5" width="1.096" height="29.259"/>
		</g>
		<g>
			<rect x="668.749" y="23.5" width="1.095" height="29.259"/>
		</g>
		<g>
			<rect x="657.228" y="23.5" width="1.096" height="29.259"/>
		</g>
		<g>
			<rect x="686.028" y="23.5" width="1.095" height="17.553"/>
		</g>
		<g>
			<rect x="697.557" y="23.5" width="1.096" height="17.553"/>
		</g>
		<g>
			<rect x="674.508" y="23.5" width="1.096" height="17.553"/>
		</g>
		<g>
			<rect x="662.989" y="23.5" width="1.096" height="17.553"/>
		</g>
		<g>
			<rect x="651.46" y="23.5" width="1.094" height="17.553"/>
		</g>
		<g>
			<rect x="749.404" y="23.5" width="1.096" height="29.259"/>
		</g>
		<g>
			<rect x="737.885" y="23.5" width="1.096" height="29.259"/>
		</g>
		<g>
			<rect x="726.365" y="23.5" width="1.095" height="29.259"/>
		</g>
		<g>
			<rect x="714.845" y="23.5" width="1.096" height="29.259"/>
		</g>
		<g>
			<rect x="743.645" y="23.5" width="1.095" height="17.553"/>
		</g>
		<g>
			<rect x="755.165" y="23.5" width="1.096" height="17.553"/>
		</g>
		<g>
			<rect x="732.125" y="23.5" width="1.095" height="17.553"/>
		</g>
		<g>
			<rect x="720.596" y="23.5" width="1.096" height="17.553"/>
		</g>
		<g>
			<rect x="709.068" y="23.5" width="1.095" height="17.553"/>
		</g>
		<g>
			<rect x="759.193" y="23.5" width="2.934" height="73.165"/>
		</g>
		<g>
			<rect x="874.426" y="23.5" width="2.933" height="73.165"/>
		</g>
		<g>
			<rect x="817.181" y="23.5" width="2.19" height="51.22"/>
		</g>
		<g>
			<rect x="806.208" y="23.5" width="1.096" height="29.259"/>
		</g>
		<g>
			<rect x="794.689" y="23.5" width="1.095" height="29.259"/>
		</g>
		<g>
			<rect x="783.169" y="23.5" width="1.095" height="29.259"/>
		</g>
		<g>
			<rect x="771.641" y="23.5" width="1.095" height="29.259"/>
		</g>
		<g>
			<rect x="800.449" y="23.5" width="1.095" height="17.553"/>
		</g>
		<g>
			<rect x="811.978" y="23.5" width="1.095" height="17.553"/>
		</g>
		<g>
			<rect x="788.929" y="23.5" width="1.096" height="17.553"/>
		</g>
		<g>
			<rect x="777.409" y="23.5" width="1.095" height="17.553"/>
		</g>
		<g>
			<rect x="765.88" y="23.5" width="1.096" height="17.553"/>
		</g>
		<g>
			<rect x="863.825" y="23.5" width="1.095" height="29.259"/>
		</g>
		<g>
			<rect x="852.306" y="23.5" width="1.095" height="29.259"/>
		</g>
		<g>
			<rect x="840.776" y="23.5" width="1.096" height="29.259"/>
		</g>
		<g>
			<rect x="829.248" y="23.5" width="1.096" height="29.259"/>
		</g>
		<g>
			<rect x="858.056" y="23.5" width="1.096" height="17.553"/>
		</g>
		<g>
			<rect x="869.585" y="23.5" width="1.096" height="17.553"/>
		</g>
		<g>
			<rect x="846.545" y="23.5" width="1.096" height="17.553"/>
		</g>
		<g>
			<rect x="835.026" y="23.5" width="1.095" height="17.553"/>
		</g>
		<g>
			<rect x="823.497" y="23.5" width="1.095" height="17.553"/>
		</g>
		<g>
			<rect x="989.651" y="23.5" width="2.933" height="73.165"/>
		</g>
		<g>
			<rect x="932.414" y="23.5" width="2.191" height="51.22"/>
		</g>
		<g>
			<rect x="921.441" y="23.5" width="1.096" height="29.259"/>
		</g>
		<g>
			<rect x="909.913" y="23.5" width="1.095" height="29.259"/>
		</g>
		<g>
			<rect x="898.384" y="23.5" width="1.096" height="29.259"/>
		</g>
		<g>
			<rect x="886.865" y="23.5" width="1.096" height="29.259"/>
		</g>
		<g>
			<rect x="915.682" y="23.5" width="1.096" height="17.553"/>
		</g>
		<g>
			<rect x="927.202" y="23.5" width="1.096" height="17.553"/>
		</g>
		<g>
			<rect x="904.153" y="23.5" width="1.096" height="17.553"/>
		</g>
		<g>
			<rect x="892.625" y="23.5" width="1.095" height="17.553"/>
		</g>
		<g>
			<rect x="881.104" y="23.5" width="1.096" height="17.553"/>
		</g>
		<g>
			<rect x="979.049" y="23.5" width="1.096" height="29.259"/>
		</g>
		<g>
			<rect x="967.521" y="23.5" width="1.095" height="29.259"/>
		</g>
		<g>
			<rect x="956.01" y="23.5" width="1.096" height="29.259"/>
		</g>
		<g>
			<rect x="944.482" y="23.5" width="1.096" height="29.259"/>
		</g>
		<g>
			<rect x="973.29" y="23.5" width="1.096" height="17.553"/>
		</g>
		<g>
			<rect x="984.819" y="23.5" width="1.094" height="17.553"/>
		</g>
		<g>
			<rect x="961.761" y="23.5" width="1.096" height="17.553"/>
		</g>
		<g>
			<rect x="950.242" y="23.5" width="1.095" height="17.553"/>
		</g>
		<g>
			<rect x="938.721" y="23.5" width="1.096" height="17.553"/>
		</g>
		<g>
			<rect x="1104.875" y="23.5" width="2.933" height="73.165"/>
		</g>
		<g>
			<rect x="1047.639" y="23.5" width="2.19" height="51.22"/>
		</g>
		<g>
			<rect x="1036.658" y="23.5" width="1.096" height="29.259"/>
		</g>
		<g>
			<rect x="1025.138" y="23.5" width="1.095" height="29.259"/>
		</g>
		<g>
			<rect x="1013.618" y="23.5" width="1.095" height="29.259"/>
		</g>
		<g>
			<rect x="1002.098" y="23.5" width="1.096" height="29.259"/>
		</g>
		<g>
			<rect x="1030.897" y="23.5" width="1.096" height="17.553"/>
		</g>
		<g>
			<rect x="1042.417" y="23.5" width="1.095" height="17.553"/>
		</g>
		<g>
			<rect x="1019.378" y="23.5" width="1.096" height="17.553"/>
		</g>
		<g>
			<rect x="1007.858" y="23.5" width="1.095" height="17.553"/>
		</g>
		<g>
			<rect x="996.338" y="23.5" width="1.096" height="17.553"/>
		</g>
		<g>
			<rect x="1094.274" y="23.5" width="1.095" height="29.259"/>
		</g>
		<g>
			<rect x="1082.754" y="23.5" width="1.095" height="29.259"/>
		</g>
		<g>
			<rect x="1071.234" y="23.5" width="1.096" height="29.259"/>
		</g>
		<g>
			<rect x="1059.715" y="23.5" width="1.096" height="29.259"/>
		</g>
		<g>
			<rect x="1088.523" y="23.5" width="1.096" height="17.553"/>
		</g>
		<g>
			<rect x="1100.034" y="23.5" width="1.095" height="17.553"/>
		</g>
		<g>
			<rect x="1076.995" y="23.5" width="1.096" height="17.553"/>
		</g>
		<g>
			<rect x="1065.475" y="23.5" width="1.095" height="17.553"/>
		</g>
		<g>
			<rect x="1053.955" y="23.5" width="1.095" height="17.553"/>
		</g>
		<g>
			<rect x="1220.108" y="23.5" width="2.933" height="73.165"/>
		</g>
		<g>
			<rect x="1162.863" y="23.5" width="2.191" height="51.22"/>
		</g>
		<g>
			<rect x="1151.891" y="23.5" width="1.096" height="29.259"/>
		</g>
		<g>
			<rect x="1140.371" y="23.5" width="1.095" height="29.259"/>
		</g>
		<g>
			<rect x="1128.851" y="23.5" width="1.096" height="29.259"/>
		</g>
		<g>
			<rect x="1117.323" y="23.5" width="1.095" height="29.259"/>
		</g>
		<g>
			<rect x="1146.131" y="23.5" width="1.095" height="17.553"/>
		</g>
		<g>
			<rect x="1157.651" y="23.5" width="1.095" height="17.553"/>
		</g>
		<g>
			<rect x="1134.603" y="23.5" width="1.095" height="17.553"/>
		</g>
		<g>
			<rect x="1123.083" y="23.5" width="1.095" height="17.553"/>
		</g>
		<g>
			<rect x="1111.554" y="23.5" width="1.096" height="17.553"/>
		</g>
		<g>
			<rect x="1209.507" y="23.5" width="1.096" height="29.259"/>
		</g>
		<g>
			<rect x="1197.988" y="23.5" width="1.095" height="29.259"/>
		</g>
		<g>
			<rect x="1186.459" y="23.5" width="1.096" height="29.259"/>
		</g>
		<g>
			<rect x="1174.931" y="23.5" width="1.095" height="29.259"/>
		</g>
		<g>
			<rect x="1203.747" y="23.5" width="1.096" height="17.553"/>
		</g>
		<g>
			<rect x="1215.268" y="23.5" width="1.094" height="17.553"/>
		</g>
		<g>
			<rect x="1192.21" y="23.5" width="1.096" height="17.553"/>
		</g>
		<g>
			<rect x="1180.69" y="23.5" width="1.096" height="17.553"/>
		</g>
		<g>
			<rect x="1169.17" y="23.5" width="1.096" height="17.553"/>
		</g>
		<g>
			<rect x="1278.087" y="23.5" width="2.191" height="51.22"/>
		</g>
		<g>
			<rect x="1267.116" y="23.5" width="1.096" height="29.259"/>
		</g>
		<g>
			<rect x="1255.587" y="23.5" width="1.094" height="29.259"/>
		</g>
		<g>
			<rect x="1244.066" y="23.5" width="1.096" height="29.259"/>
		</g>
		<g>
			<rect x="1232.547" y="23.5" width="1.095" height="29.259"/>
		</g>
		<g>
			<rect x="1261.346" y="23.5" width="1.096" height="17.553"/>
		</g>
		<g>
			<rect x="1272.884" y="23.5" width="1.095" height="17.553"/>
		</g>
		<g>
			<rect x="1249.827" y="23.5" width="1.096" height="17.553"/>
		</g>
		<g>
			<rect x="1238.307" y="23.5" width="1.096" height="17.553"/>
		</g>
		<g>
			<rect x="1226.788" y="23.5" width="1.096" height="17.553"/>
		</g>
		<g>
			<rect x="1324.732" y="23.5" width="1.096" height="29.259"/>
		</g>
		<g>
			<rect x="1313.204" y="23.5" width="1.095" height="29.259"/>
		</g>
		<g>
			<rect x="1301.684" y="23.5" width="1.096" height="29.259"/>
		</g>
		<g>
			<rect x="1290.164" y="23.5" width="1.095" height="29.259"/>
		</g>
		<g>
			<rect x="1318.963" y="23.5" width="1.096" height="17.553"/>
		</g>
		<g>
			<rect x="1330.492" y="23.5" width="1.095" height="17.553"/>
		</g>
		<g>
			<rect x="1307.444" y="23.5" width="1.095" height="17.553"/>
		</g>
		<g>
			<rect x="1295.924" y="23.5" width="1.095" height="17.553"/>
		</g>
		<g>
			<rect x="1284.404" y="23.5" width="1.096" height="17.553"/>
		</g>
	</g>
	<g>
		<path d="M3667.27,276.105c0,9.682-3.148,15.035-8.723,15.035s-8.729-5.354-8.729-15.035c0-9.736,3.154-15.266,8.729-15.266
			S3667.27,266.369,3667.27,276.105z M3651.877,276.105c0,8.903,2.602,13.294,6.67,13.294c4.02,0,6.67-4.391,6.67-13.294
			c0-8.906-2.65-13.526-6.67-13.526C3654.479,262.579,3651.877,267.199,3651.877,276.105z"/>
	</g>
	<g>
		<path d="M3568.749,313.245c0,1.147-0.822,1.836-1.829,1.836c-1.003,0-1.825-0.688-1.825-1.836c0-1.044,0.822-1.776,1.825-1.776
			C3567.926,311.468,3568.749,312.201,3568.749,313.245z M3567.971,306.167h-2.012v-21.936h2.012V306.167z"/>
		<path d="M3557.51,306.167h-1.735l-0.181-3.383h-0.139c-2.239,2.244-4.522,3.93-7.539,3.93c-4.523,0-6.626-2.746-6.626-8.401
			v-14.081h2.01v13.799c0,4.664,1.464,6.854,5.026,6.854c2.606,0,4.479-1.368,7.174-4.116v-16.537h2.01V306.167z"/>
		<path d="M3525.028,306.714c-3.018,0-4.982-1.325-6.444-2.693l1.188-1.414c1.416,1.326,3.06,2.331,5.206,2.331
			c4.479,0,7.951-3.975,7.951-9.787c0-5.752-3.148-9.682-7.951-9.682c-2.327,0-4.337,1.148-5.849,2.509l-1.046-1.36
			c1.872-1.697,4.201-2.935,6.987-2.935c5.668,0,9.962,4.207,9.962,11.468C3535.033,302.519,3530.373,306.714,3525.028,306.714z"/>
		<path d="M3512.69,317.086h-2.01v-9.497v-4.851c-2.283,2.29-4.567,3.976-7.584,3.976c-4.523,0-6.626-2.746-6.626-8.401v-14.081
			h2.011v13.799c0,4.664,1.461,6.854,5.025,6.854c2.606,0,4.48-1.368,7.174-4.116v-16.537h2.01V317.086z"/>
		<path d="M3480.847,306.714c-5.208,0-8.405-3.7-8.405-10.141c0-0.549,0-1.096,0.092-1.651h15.81
			c-0.093-5.523-3.335-9.498-8.272-9.498c-2.373,0-4.25,0.778-5.893,1.97l-0.822-1.555c1.736-1.06,3.701-2.156,6.899-2.156
			c5.618,0,10.142,4.295,10.142,11.468S3485.737,306.714,3480.847,306.714z M3474.359,296.476c0,5.618,2.513,8.498,6.444,8.498
			c3.746,0,7.08-3.233,7.54-8.498H3474.359z"/>
		<path d="M3468.059,288.208c-1.872-1.555-3.838-2.783-6.991-2.783c-3.423,0-5.208,2.005-5.208,4.338
			c0,2.739,2.836,3.931,5.345,4.842c3.339,1.191,6.992,2.517,6.992,6.264c0,3.197-2.513,5.847-7.08,5.847
			c-2.332,0-4.661-0.963-6.259-2.287l1.095-1.413c1.462,1.095,3.017,1.96,5.252,1.96c3.384,0,4.938-1.96,4.938-3.976
			c0-2.42-2.563-3.462-5.164-4.425c-3.428-1.281-7.173-2.421-7.173-6.724c0-3.285,2.649-6.167,7.398-6.167
			c3.245,0,6.077,1.379,8.044,3.022L3468.059,288.208z"/>
	</g>
	<g>
		<path d="M226.906,94.333c3.012,0,4.973,1.325,6.439,2.694l-1.192,1.422c-1.414-1.325-3.057-2.332-5.203-2.332
			c-4.479,0-7.951,3.975-7.951,9.771c0,5.76,3.154,9.691,7.951,9.691c2.332,0,4.337-1.14,5.848-2.518l1.051,1.378
			c-1.873,1.688-4.205,2.915-6.996,2.915c-5.663,0-9.957-4.205-9.957-11.466C216.896,98.537,221.552,94.333,226.906,94.333z"/>
		<path d="M239.238,94.879h1.731l0.186,3.375h0.141c1.961-2.227,4.47-3.922,6.899-3.922c3.517,0,5.292,1.784,6.069,4.478
			c2.518-2.748,4.938-4.478,7.447-4.478c4.391,0,6.581,2.738,6.581,8.41v14.064h-2.058v-13.799c0-4.656-1.546-6.847-4.885-6.847
			c-2.058,0-4.162,1.369-6.582,4.108v16.538h-2.005v-13.799c0-4.656-1.556-6.847-4.939-6.847c-1.961,0-4.161,1.369-6.582,4.108
			v16.538h-2.005V94.879z"/>
	</g>
	<g>
		<path d="M176.974,125.102c0-9.691,3.154-15.027,8.729-15.027c5.573,0,8.728,5.335,8.728,15.027c0,9.736-3.155,15.256-8.728,15.256
			C180.128,140.358,176.974,134.837,176.974,125.102z M192.373,125.102c0-8.914-2.606-13.295-6.669-13.295
			c-4.021,0-6.67,4.382-6.67,13.295c0,8.914,2.65,13.525,6.67,13.525C189.767,138.626,192.373,134.016,192.373,125.102z"/>
	</g>
	<g>
		<path d="M293.71,138.036h6.855V113.82h-5.204v-1.378c2.377-0.407,4.25-1.043,5.619-1.82h1.643v27.414h6.352v1.775H293.71V138.036z
			"/>
	</g>
	<g>
		<path d="M406.858,138.539c9.594-9.735,14.391-15.178,14.391-20.248c0-3.649-1.961-6.484-6.351-6.484
			c-2.65,0-5.027,1.643-6.803,3.834l-1.325-1.272c2.191-2.421,4.752-4.293,8.313-4.293c5.212,0,8.224,3.242,8.224,8.181
			c0,5.794-5.3,11.369-13.383,19.965c1.599-0.097,3.287-0.23,4.885-0.23h9.956v1.82h-17.907V138.539z"/>
	</g>
	<g>
		<path d="M522.604,134.837c1.741,1.917,4.073,3.745,8.092,3.745c3.932,0,6.803-2.561,6.803-6.439c0-4.028-2.924-6.768-10.186-6.768
			v-1.784c6.767,0,9.144-2.827,9.144-6.344c0-3.295-2.332-5.441-5.901-5.441c-2.695,0-5.026,1.414-6.714,3.198l-1.184-1.369
			c2.005-1.97,4.523-3.561,7.898-3.561c4.523,0,7.995,2.553,7.995,7.032c0,3.833-2.376,6.122-5.574,7.217v0.185
			c3.613,0.777,6.626,3.472,6.626,7.581c0,5.069-3.878,8.268-8.906,8.268c-4.665,0-7.403-2.137-9.275-4.107L522.604,134.837z"/>
	</g>
	<g>
		<path d="M655.683,131.082h-4.347v8.729h-1.961v-8.729h-13.437v-1.184l13.579-19.276h1.819v18.728h4.347V131.082z M649.375,129.35
			v-10.688c0-1.326,0.089-3.702,0.177-5.026h-0.177c-0.733,1.228-1.555,2.332-2.376,3.657l-8.595,12.058H649.375z"/>
	</g>
	<g>
		<path d="M752.646,135.022c1.741,1.776,4.028,3.56,8.004,3.56c3.878,0,7.262-3.153,7.262-7.853c0-4.718-2.792-7.544-7.129-7.544
			c-2.236,0-3.702,0.777-5.434,1.961l-1.422-0.866l1.051-13.658h13.48v1.785h-11.651l-0.91,10.547
			c1.502-0.919,3.056-1.555,5.203-1.555c4.938,0,8.914,2.836,8.914,9.232c0,6.21-4.62,9.726-9.329,9.726
			c-4.657,0-7.307-2.049-9.179-3.922L752.646,135.022z"/>
	</g>
	<g>
		<path d="M883.463,114.28c-1.29-1.608-3.065-2.421-4.938-2.421c-4.62,0-8.596,3.649-8.684,14.382
			c2.014-2.464,4.665-4.063,7.358-4.063c5.115,0,8.137,3.154,8.137,9.046c0,5.301-3.658,9.134-8.004,9.134
			c-5.848,0-9.541-4.929-9.541-13.799c0-12.244,5.106-16.484,10.733-16.484c2.739,0,4.656,1.14,6.167,2.827L883.463,114.28z
			 M883.27,131.224c0-4.206-1.873-7.314-6.299-7.314c-2.059,0-4.709,1.192-7.077,4.391c0.354,6.175,2.739,10.327,7.492,10.327
			C880.761,138.626,883.27,135.385,883.27,131.224z"/>
	</g>
	<g>
		<path d="M997.929,112.407H982.53v-1.785h17.951v1.184c-6.978,9.276-8.719,16.591-9.178,28.004h-2.191
			C989.563,128.025,992.036,120.622,997.929,112.407z"/>
	</g>
	<g>
		<path d="M1103.294,124.104v-0.194c-2.156-1.414-4.205-3.604-4.205-6.714c0-4.205,3.374-7.12,7.633-7.12
			c4.974,0,7.898,3.242,7.898,7.633c0,3.198-2.474,6.024-4.152,7.394v0.185c2.509,1.556,5.106,3.517,5.106,7.448
			c0,4.249-3.561,7.623-8.852,7.623c-5.353,0-9.276-3.427-9.276-8.039C1097.446,128.397,1100.546,125.561,1103.294,124.104z
			 M1106.722,138.671c4.099,0,6.802-2.65,6.802-5.98c0-4.479-4.382-6.034-8.904-7.81c-2.978,1.731-5.168,4.152-5.168,7.35
			C1099.451,135.835,1102.516,138.671,1106.722,138.671z M1112.702,117.743c0-3.233-2.199-5.981-5.98-5.981
			c-3.251,0-5.627,2.288-5.627,5.433c0,4.161,3.931,5.813,7.766,7.314C1111.333,122.495,1112.702,120.26,1112.702,117.743z"/>
	</g>
	<g>
		<path d="M1214.517,136.154c1.271,1.607,3.056,2.428,4.981,2.428c4.612,0,8.587-3.657,8.675-14.39
			c-2.014,2.42-4.665,4.02-7.402,4.02c-5.071,0-8.083-3.155-8.083-9.047c0-5.301,3.648-9.09,7.995-9.09
			c5.805,0,9.505,4.885,9.505,13.746c0,12.244-5.07,16.537-10.742,16.537c-2.694,0-4.7-1.131-6.166-2.827L1214.517,136.154z
			 M1228.13,122.089c-0.362-6.167-2.783-10.283-7.535-10.283c-3.339,0-5.901,3.198-5.901,7.359c0,4.25,1.873,7.358,6.36,7.358
			C1223.104,126.523,1225.754,125.234,1228.13,122.089z"/>
	</g>
	<g>
		<path d="M1318.725,138.036h6.855V113.82h-5.212v-1.378c2.386-0.407,4.258-1.043,5.628-1.82h1.643v27.414h6.352v1.775h-15.266
			V138.036z"/>
		<path d="M1338.963,125.102c0-9.691,3.154-15.027,8.729-15.027c5.574,0,8.728,5.335,8.728,15.027
			c0,9.736-3.154,15.256-8.728,15.256C1342.118,140.358,1338.963,134.837,1338.963,125.102z M1354.362,125.102
			c0-8.914-2.597-13.295-6.669-13.295c-4.02,0-6.67,4.382-6.67,13.295c0,8.914,2.65,13.525,6.67,13.525
			C1351.765,138.626,1354.362,134.016,1354.362,125.102z"/>
	</g>
	<g>
		<path d="M1433.834,138.036h6.855V113.82h-5.212v-1.378c2.386-0.407,4.258-1.043,5.628-1.82h1.643v27.414h6.352v1.775h-15.266
			V138.036z"/>
		<path d="M1455.726,138.036h6.846V113.82h-5.203v-1.378c2.368-0.407,4.241-1.043,5.619-1.82h1.643v27.414h6.353v1.775h-15.257
			V138.036z"/>
	</g>
	<g>
		<path d="M1548.944,138.036h6.856V113.82h-5.212v-1.378c2.385-0.407,4.258-1.043,5.627-1.82h1.644v27.414h6.352v1.775h-15.266
			V138.036z"/>
		<path d="M1568.865,138.539c9.594-9.735,14.391-15.178,14.391-20.248c0-3.649-1.96-6.484-6.342-6.484
			c-2.65,0-5.036,1.643-6.821,3.834l-1.325-1.272c2.2-2.421,4.752-4.293,8.322-4.293c5.212,0,8.225,3.242,8.225,8.181
			c0,5.794-5.301,11.369-13.384,19.965c1.59-0.097,3.287-0.23,4.885-0.23h9.956v1.82h-17.906V138.539z"/>
	</g>
	<g>
		<path d="M1664.054,138.036h6.855V113.82h-5.211v-1.378c2.385-0.407,4.258-1.043,5.626-1.82h1.644v27.414h6.353v1.775h-15.266
			V138.036z"/>
		<path d="M1684.62,134.837c1.731,1.917,4.063,3.745,8.083,3.745c3.931,0,6.812-2.561,6.812-6.439c0-4.028-2.933-6.768-10.195-6.768
			v-1.784c6.767,0,9.135-2.827,9.135-6.344c0-3.295-2.324-5.441-5.884-5.441c-2.703,0-5.035,1.414-6.723,3.198l-1.192-1.369
			c2.014-1.97,4.523-3.561,7.915-3.561c4.523,0,7.986,2.553,7.986,7.032c0,3.833-2.367,6.122-5.565,7.217v0.185
			c3.604,0.777,6.625,3.472,6.625,7.581c0,5.069-3.887,8.268-8.914,8.268c-4.655,0-7.402-2.137-9.276-4.107L1684.62,134.837z"/>
	</g>
	<g>
		<path d="M1779.146,138.036h6.855V113.82h-5.212v-1.378c2.386-0.407,4.258-1.043,5.627-1.82h1.643v27.414h6.353v1.775h-15.266
			V138.036z"/>
		<path d="M1817.664,131.082h-4.348v8.729h-1.961v-8.729h-13.427v-1.184l13.569-19.276h1.819v18.728h4.348V131.082z
			 M1811.354,129.35v-10.688c0-1.326,0.089-3.702,0.187-5.026h-0.187c-0.723,1.228-1.554,2.332-2.367,3.657l-8.595,12.058H1811.354z
			"/>
	</g>
	<g>
		<path d="M1894.256,138.036h6.855V113.82h-5.207v-1.378c2.375-0.407,4.249-1.043,5.622-1.82h1.643v27.414h6.353v1.775h-15.265
			V138.036z"/>
		<path d="M1914.636,135.022c1.735,1.776,4.019,3.56,7.995,3.56c3.882,0,7.262-3.153,7.262-7.853c0-4.718-2.787-7.544-7.125-7.544
			c-2.239,0-3.701,0.777-5.438,1.961l-1.418-0.866l1.051-13.658h13.477v1.785h-11.648l-0.914,10.547
			c1.506-0.919,3.061-1.555,5.209-1.555c4.934,0,8.909,2.836,8.909,9.232c0,6.21-4.616,9.726-9.32,9.726
			c-4.659,0-7.311-2.049-9.183-3.922L1914.636,135.022z"/>
	</g>
	<g>
		<path d="M2009.352,138.036h6.852V113.82h-5.209v-1.378c2.377-0.407,4.249-1.043,5.623-1.82h1.644v27.414h6.352v1.775h-15.261
			V138.036z"/>
		<path d="M2045.445,114.28c-1.281-1.608-3.062-2.421-4.935-2.421c-4.616,0-8.592,3.649-8.684,14.382
			c2.009-2.464,4.659-4.063,7.357-4.063c5.115,0,8.133,3.154,8.133,9.046c0,5.301-3.658,9.134-7.994,9.134
			c-5.849,0-9.551-4.929-9.551-13.799c0-12.244,5.115-16.484,10.738-16.484c2.738,0,4.659,1.14,6.166,2.827L2045.445,114.28z
			 M2045.258,131.224c0-4.206-1.872-7.314-6.303-7.314c-2.055,0-4.704,1.192-7.082,4.391c0.364,6.175,2.739,10.327,7.493,10.327
			C2042.75,138.626,2045.258,135.385,2045.258,131.224z"/>
	</g>
	<g>
		<path d="M2124.462,138.036h6.85V113.82h-5.207v-1.378c2.376-0.407,4.249-1.043,5.622-1.82h1.645v27.414h6.351v1.775h-15.26
			V138.036z"/>
		<path d="M2159.913,112.407h-15.397v-1.785h17.955v1.184c-6.987,9.276-8.724,16.591-9.183,28.004h-2.191
			C2151.551,128.025,2154.02,120.622,2159.913,112.407z"/>
	</g>
	<g>
		<path d="M2239.571,138.036h6.852V113.82h-5.209v-1.378c2.377-0.407,4.25-1.043,5.624-1.82h1.643v27.414h6.353v1.775h-15.262
			V138.036z"/>
		<path d="M2265.292,124.104v-0.194c-2.147-1.414-4.206-3.604-4.206-6.714c0-4.205,3.384-7.12,7.633-7.12
			c4.979,0,7.902,3.242,7.902,7.633c0,3.198-2.469,6.024-4.155,7.394v0.185c2.513,1.556,5.114,3.517,5.114,7.448
			c0,4.249-3.564,7.623-8.861,7.623c-5.349,0-9.275-3.427-9.275-8.039C2259.444,128.397,2262.548,125.561,2265.292,124.104z
			 M2268.719,138.671c4.108,0,6.808-2.65,6.808-5.98c0-4.479-4.387-6.034-8.909-7.81c-2.973,1.731-5.164,4.152-5.164,7.35
			C2261.454,135.835,2264.515,138.671,2268.719,138.671z M2274.704,117.743c0-3.233-2.194-5.981-5.984-5.981
			c-3.247,0-5.622,2.288-5.622,5.433c0,4.161,3.931,5.813,7.769,7.314C2273.332,122.495,2274.704,120.26,2274.704,117.743z"/>
	</g>
	<g>
		<path d="M2354.68,138.036h6.852V113.82h-5.208v-1.378c2.377-0.407,4.25-1.043,5.624-1.82h1.643v27.414h6.352v1.775h-15.262
			V138.036z"/>
		<path d="M2376.519,136.154c1.277,1.607,3.061,2.428,4.979,2.428c4.616,0,8.591-3.657,8.68-14.39c-2.01,2.42-4.661,4.02-7.399,4.02
			c-5.075,0-8.088-3.155-8.088-9.047c0-5.301,3.653-9.09,7.994-9.09c5.805,0,9.502,4.885,9.502,13.746
			c0,12.244-5.07,16.537-10.733,16.537c-2.699,0-4.708-1.131-6.171-2.827L2376.519,136.154z M2390.132,122.089
			c-0.366-6.167-2.787-10.283-7.54-10.283c-3.335,0-5.893,3.198-5.893,7.359c0,4.25,1.874,7.358,6.352,7.358
			C2385.106,126.523,2387.756,125.234,2390.132,122.089z"/>
	</g>
	<g>
		<path d="M2467.825,138.539c9.594-9.735,14.392-15.178,14.392-20.248c0-3.649-1.962-6.484-6.349-6.484
			c-2.649,0-5.025,1.643-6.811,3.834l-1.324-1.272c2.195-2.421,4.753-4.293,8.317-4.293c5.207,0,8.224,3.242,8.224,8.181
			c0,5.794-5.301,11.369-13.388,19.965c1.6-0.097,3.29-0.23,4.889-0.23h9.961v1.82h-17.911V138.539z"/>
		<path d="M2490.026,125.102c0-9.691,3.153-15.027,8.727-15.027c5.575,0,8.729,5.335,8.729,15.027
			c0,9.736-3.154,15.256-8.729,15.256C2493.179,140.358,2490.026,134.837,2490.026,125.102z M2505.422,125.102
			c0-8.914-2.601-13.295-6.67-13.295c-4.019,0-6.669,4.382-6.669,13.295c0,8.914,2.65,13.525,6.669,13.525
			C2502.822,138.626,2505.422,134.016,2505.422,125.102z"/>
	</g>
	<g>
		<path d="M2582.944,138.539c9.594-9.735,14.391-15.178,14.391-20.248c0-3.649-1.962-6.484-6.348-6.484
			c-2.65,0-5.026,1.643-6.812,3.834l-1.324-1.272c2.194-2.421,4.753-4.293,8.317-4.293c5.207,0,8.225,3.242,8.225,8.181
			c0,5.794-5.301,11.369-13.39,19.965c1.601-0.097,3.292-0.23,4.891-0.23h9.96v1.82h-17.91V138.539z"/>
		<path d="M2606.792,138.036h6.851V113.82h-5.208v-1.378c2.377-0.407,4.25-1.043,5.623-1.82h1.645v27.414h6.351v1.775h-15.261
			V138.036z"/>
	</g>
	<g>
		<path d="M2698.062,138.539c9.593-9.735,14.392-15.178,14.392-20.248c0-3.649-1.962-6.484-6.348-6.484
			c-2.65,0-5.027,1.643-6.813,3.834l-1.324-1.272c2.195-2.421,4.753-4.293,8.317-4.293c5.208,0,8.225,3.242,8.225,8.181
			c0,5.794-5.301,11.369-13.389,19.965c1.6-0.097,3.292-0.23,4.891-0.23h9.96v1.82h-17.911V138.539z"/>
		<path d="M2719.944,138.539c9.594-9.735,14.392-15.178,14.392-20.248c0-3.649-1.962-6.484-6.348-6.484
			c-2.65,0-5.026,1.643-6.811,3.834l-1.326-1.272c2.195-2.421,4.754-4.293,8.317-4.293c5.209,0,8.226,3.242,8.226,8.181
			c0,5.794-5.302,11.369-13.39,19.965c1.601-0.097,3.292-0.23,4.89-0.23h9.962v1.82h-17.912V138.539z"/>
	</g>
	<g>
		<path d="M2813.18,138.539c9.594-9.735,14.391-15.178,14.391-20.248c0-3.649-1.961-6.484-6.348-6.484
			c-2.65,0-5.025,1.643-6.811,3.834l-1.325-1.272c2.196-2.421,4.753-4.293,8.317-4.293c5.209,0,8.225,3.242,8.225,8.181
			c0,5.794-5.3,11.369-13.388,19.965c1.599-0.097,3.29-0.23,4.89-0.23h9.959v1.82h-17.91V138.539z"/>
		<path d="M2835.704,134.837c1.735,1.917,4.067,3.745,8.088,3.745c3.927,0,6.806-2.561,6.806-6.439
			c0-4.028-2.924-6.768-10.189-6.768v-1.784c6.763,0,9.138-2.827,9.138-6.344c0-3.295-2.326-5.441-5.891-5.441
			c-2.7,0-5.026,1.414-6.719,3.198l-1.189-1.369c2.01-1.97,4.523-3.561,7.908-3.561c4.522,0,7.994,2.553,7.994,7.032
			c0,3.833-2.377,6.122-5.574,7.217v0.185c3.608,0.777,6.626,3.472,6.626,7.581c0,5.069-3.883,8.268-8.909,8.268
			c-4.66,0-7.403-2.137-9.276-4.107L2835.704,134.837z"/>
	</g>
	<g>
		<path d="M2928.298,138.539c9.595-9.735,14.392-15.178,14.392-20.248c0-3.649-1.961-6.484-6.347-6.484
			c-2.651,0-5.026,1.643-6.812,3.834l-1.326-1.272c2.196-2.421,4.753-4.293,8.317-4.293c5.208,0,8.225,3.242,8.225,8.181
			c0,5.794-5.301,11.369-13.388,19.965c1.599-0.097,3.291-0.23,4.89-0.23h9.961v1.82h-17.912V138.539z"/>
		<path d="M2968.778,131.082h-4.343v8.729h-1.961v-8.729h-13.433v-1.184l13.569-19.276h1.824v18.728h4.343V131.082z
			 M2962.474,129.35v-10.688c0-1.326,0.089-3.702,0.181-5.026h-0.181c-0.733,1.228-1.555,2.332-2.377,3.657l-8.591,12.058H2962.474z
			"/>
	</g>
	<g>
		<path d="M3043.417,138.539c9.596-9.735,14.392-15.178,14.392-20.248c0-3.649-1.96-6.484-6.347-6.484
			c-2.65,0-5.027,1.643-6.811,3.834l-1.326-1.272c2.195-2.421,4.753-4.293,8.317-4.293c5.208,0,8.224,3.242,8.224,8.181
			c0,5.794-5.299,11.369-13.387,19.965c1.599-0.097,3.291-0.23,4.889-0.23h9.962v1.82h-17.913V138.539z"/>
		<path d="M3065.759,135.022c1.735,1.776,4.02,3.56,7.995,3.56c3.881,0,7.262-3.153,7.262-7.853c0-4.718-2.789-7.544-7.125-7.544
			c-2.24,0-3.701,0.777-5.438,1.961l-1.419-0.866l1.052-13.658h13.478v1.785h-11.647l-0.915,10.547
			c1.507-0.919,3.062-1.555,5.207-1.555c4.935,0,8.909,2.836,8.909,9.232c0,6.21-4.615,9.726-9.32,9.726
			c-4.659,0-7.31-2.049-9.183-3.922L3065.759,135.022z"/>
	</g>
	<g>
		<path d="M3158.536,138.539c9.594-9.735,14.391-15.178,14.391-20.248c0-3.649-1.96-6.484-6.347-6.484
			c-2.649,0-5.026,1.643-6.812,3.834l-1.325-1.272c2.195-2.421,4.754-4.293,8.316-4.293c5.209,0,8.226,3.242,8.226,8.181
			c0,5.794-5.301,11.369-13.389,19.965c1.601-0.097,3.292-0.23,4.891-0.23h9.961v1.82h-17.912V138.539z"/>
		<path d="M3196.594,114.28c-1.281-1.608-3.063-2.421-4.934-2.421c-4.616,0-8.593,3.649-8.686,14.382
			c2.01-2.464,4.66-4.063,7.359-4.063c5.115,0,8.132,3.154,8.132,9.046c0,5.301-3.657,9.134-7.995,9.134
			c-5.849,0-9.55-4.929-9.55-13.799c0-12.244,5.115-16.484,10.739-16.484c2.738,0,4.659,1.14,6.165,2.827L3196.594,114.28z
			 M3196.408,131.224c0-4.206-1.872-7.314-6.304-7.314c-2.054,0-4.703,1.192-7.08,4.391c0.363,6.175,2.739,10.327,7.492,10.327
			C3193.899,138.626,3196.408,135.385,3196.408,131.224z"/>
	</g>
	<g>
		<path d="M3273.655,138.539c9.594-9.735,14.391-15.178,14.391-20.248c0-3.649-1.961-6.484-6.348-6.484
			c-2.649,0-5.026,1.643-6.811,3.834l-1.326-1.272c2.195-2.421,4.753-4.293,8.318-4.293c5.208,0,8.225,3.242,8.225,8.181
			c0,5.794-5.301,11.369-13.389,19.965c1.599-0.097,3.291-0.23,4.889-0.23h9.962v1.82h-17.911V138.539z"/>
		<path d="M3311.073,112.407h-15.398v-1.785h17.955v1.184c-6.988,9.276-8.724,16.591-9.184,28.004h-2.189
			C3302.71,128.025,3305.179,120.622,3311.073,112.407z"/>
	</g>
	<g>
		<path d="M3388.774,138.539c9.593-9.735,14.389-15.178,14.389-20.248c0-3.649-1.96-6.484-6.347-6.484
			c-2.649,0-5.026,1.643-6.811,3.834l-1.325-1.272c2.195-2.421,4.753-4.293,8.318-4.293c5.206,0,8.223,3.242,8.223,8.181
			c0,5.794-5.3,11.369-13.387,19.965c1.599-0.097,3.29-0.23,4.89-0.23h9.96v1.82h-17.91V138.539z"/>
		<path d="M3416.459,124.104v-0.194c-2.146-1.414-4.205-3.604-4.205-6.714c0-4.205,3.383-7.12,7.633-7.12
			c4.979,0,7.901,3.242,7.901,7.633c0,3.198-2.468,6.024-4.156,7.394v0.185c2.514,1.556,5.115,3.517,5.115,7.448
			c0,4.249-3.565,7.623-8.86,7.623c-5.35,0-9.276-3.427-9.276-8.039C3410.611,128.397,3413.716,125.561,3416.459,124.104z
			 M3419.887,138.671c4.107,0,6.807-2.65,6.807-5.98c0-4.479-4.387-6.034-8.91-7.81c-2.973,1.731-5.162,4.152-5.162,7.35
			C3412.622,135.835,3415.682,138.671,3419.887,138.671z M3425.872,117.743c0-3.233-2.195-5.981-5.984-5.981
			c-3.247,0-5.622,2.288-5.622,5.433c0,4.161,3.931,5.813,7.769,7.314C3424.5,122.495,3425.872,120.26,3425.872,117.743z"/>
	</g>
	<g>
		<path d="M3503.891,138.539c9.594-9.735,14.391-15.178,14.391-20.248c0-3.649-1.961-6.484-6.348-6.484
			c-2.649,0-5.026,1.643-6.811,3.834l-1.324-1.272c2.195-2.421,4.752-4.293,8.317-4.293c5.207,0,8.224,3.242,8.224,8.181
			c0,5.794-5.301,11.369-13.389,19.965c1.6-0.097,3.291-0.23,4.891-0.23h9.96v1.82h-17.911V138.539z"/>
		<path d="M3527.696,136.154c1.275,1.607,3.06,2.428,4.978,2.428c4.615,0,8.591-3.657,8.679-14.39
			c-2.009,2.42-4.659,4.02-7.398,4.02c-5.074,0-8.088-3.155-8.088-9.047c0-5.301,3.654-9.09,7.995-9.09
			c5.805,0,9.502,4.885,9.502,13.746c0,12.244-5.071,16.537-10.733,16.537c-2.699,0-4.709-1.131-6.172-2.827L3527.696,136.154z
			 M3541.309,122.089c-0.366-6.167-2.787-10.283-7.541-10.283c-3.334,0-5.893,3.198-5.893,7.359c0,4.25,1.874,7.358,6.352,7.358
			C3536.283,126.523,3538.932,125.234,3541.309,122.089z"/>
	</g>
	<g>
		<path d="M3619.651,134.837c1.735,1.917,4.066,3.745,8.087,3.745c3.927,0,6.807-2.561,6.807-6.439
			c0-4.028-2.923-6.768-10.189-6.768v-1.784c6.763,0,9.14-2.827,9.14-6.344c0-3.295-2.329-5.441-5.894-5.441
			c-2.699,0-5.026,1.414-6.719,3.198l-1.187-1.369c2.009-1.97,4.522-3.561,7.905-3.561c4.523,0,7.995,2.553,7.995,7.032
			c0,3.833-2.377,6.122-5.575,7.217v0.185c3.609,0.777,6.626,3.472,6.626,7.581c0,5.069-3.882,8.268-8.909,8.268
			c-4.66,0-7.403-2.137-9.276-4.107L3619.651,134.837z"/>
		<path d="M3641.209,125.102c0-9.691,3.154-15.027,8.729-15.027s8.729,5.335,8.729,15.027c0,9.736-3.154,15.256-8.729,15.256
			S3641.209,134.837,3641.209,125.102z M3656.608,125.102c0-8.914-2.602-13.295-6.67-13.295c-4.019,0-6.67,4.382-6.67,13.295
			c0,8.914,2.651,13.525,6.67,13.525C3654.006,138.626,3656.608,134.016,3656.608,125.102z"/>
	</g>
	<g>
		<path d="M3372.96,263.171h-6.853v24.223h5.209v1.361c-2.377,0.415-4.249,1.06-5.624,1.838h-1.643v-27.422h-6.353v-1.784h15.263
			V263.171z"/>
	</g>
	<g>
		<path d="M3082.244,262.677c-9.595,9.726-14.392,15.158-14.392,20.23c0,3.657,1.962,6.491,6.348,6.491
			c2.65,0,5.027-1.651,6.813-3.842l1.324,1.28c-2.195,2.432-4.753,4.303-8.317,4.303c-5.208,0-8.225-3.25-8.225-8.18
			c0-5.805,5.301-11.38,13.389-19.966c-1.6,0.088-3.292,0.23-4.891,0.23h-9.96v-1.838h17.911V262.677z"/>
	</g>
	<g>
		<path d="M2788.935,266.369c-1.735-1.918-4.068-3.744-8.088-3.744c-3.927,0-6.806,2.561-6.806,6.447
			c0,4.011,2.924,6.759,10.188,6.759v1.776c-6.762,0-9.138,2.835-9.138,6.36c0,3.286,2.327,5.432,5.892,5.432
			c2.7,0,5.026-1.421,6.719-3.196l1.188,1.368c-2.01,1.962-4.523,3.569-7.907,3.569c-4.522,0-7.994-2.562-7.994-7.041
			c0-3.842,2.376-6.122,5.574-7.218v-0.185c-3.609-0.778-6.626-3.472-6.626-7.59c0-5.068,3.882-8.268,8.909-8.268
			c4.66,0,7.403,2.155,9.276,4.116L2788.935,266.369z"/>
	</g>
	<g>
		<path d="M2478.302,270.115h4.342v-8.728h1.961v8.728h13.438v1.193l-13.573,19.285h-1.825v-18.738h-4.342V270.115z
			 M2484.605,271.855v10.689c0,1.325-0.088,3.701-0.182,5.026h0.182c0.733-1.236,1.556-2.331,2.377-3.656l8.591-12.06H2484.605z"/>
	</g>
	<g>
		<path d="M2203.766,266.192c-1.736-1.783-4.02-3.567-7.995-3.567c-3.882,0-7.262,3.152-7.262,7.861c0,4.7,2.787,7.536,7.125,7.536
			c2.239,0,3.701-0.777,5.438-1.97l1.418,0.874l-1.052,13.667h-13.477v-1.785h11.648l0.914-10.557
			c-1.506,0.91-3.062,1.555-5.208,1.555c-4.934,0-8.909-2.836-8.909-9.23c0-6.221,4.616-9.736,9.32-9.736
			c4.66,0,7.311,2.059,9.184,3.932L2203.766,266.192z"/>
	</g>
	<g>
		<path d="M1895.382,286.935c1.28,1.59,3.061,2.422,4.934,2.422c4.615,0,8.591-3.658,8.685-14.401
			c-2.01,2.474-4.661,4.072-7.359,4.072c-5.115,0-8.127-3.153-8.127-9.044c0-5.302,3.653-9.145,7.991-9.145
			c5.848,0,9.549,4.938,9.549,13.8c0,12.243-5.115,16.501-10.737,16.501c-2.738,0-4.661-1.149-6.167-2.845L1895.382,286.935z
			 M1895.567,269.984c0,4.194,1.874,7.305,6.303,7.305c2.058,0,4.705-1.184,7.08-4.382c-0.361-6.166-2.738-10.328-7.491-10.328
			C1898.081,262.579,1895.567,265.822,1895.567,269.984z"/>
	</g>
	<g>
		<path d="M1603.354,288.808h15.389v1.785h-17.951v-1.194c6.987-9.275,8.728-16.581,9.178-28.012h2.201
			C1611.711,273.181,1609.246,280.574,1603.354,288.808z"/>
	</g>
	<g>
		<path d="M1320.403,277.111v0.178c2.147,1.414,4.206,3.612,4.206,6.714c0,4.205-3.383,7.138-7.633,7.138
			c-4.982,0-7.898-3.25-7.898-7.633c0-3.198,2.465-6.034,4.152-7.402v-0.187c-2.509-1.546-5.115-3.516-5.115-7.446
			c0-4.25,3.561-7.633,8.861-7.633c5.344,0,9.276,3.428,9.276,8.039C1326.251,272.818,1323.142,275.644,1320.403,277.111z
			 M1316.976,262.535c-4.108,0-6.802,2.65-6.802,5.99c0,4.47,4.382,6.025,8.904,7.81c2.969-1.741,5.168-4.162,5.168-7.359
			C1324.246,265.363,1321.181,262.535,1316.976,262.535z M1310.995,283.454c0,3.252,2.191,5.991,5.98,5.991
			c3.242,0,5.619-2.279,5.619-5.442c0-4.151-3.922-5.797-7.766-7.306C1312.364,278.703,1310.995,280.945,1310.995,283.454z"/>
	</g>
	<g>
		<path d="M1031.622,265.043c-1.28-1.598-3.065-2.419-4.982-2.419c-4.611,0-8.586,3.655-8.683,14.398
			c2.014-2.43,4.664-4.028,7.402-4.028c5.071,0,8.092,3.153,8.092,9.046c0,5.301-3.657,9.1-7.995,9.1
			c-5.805,0-9.505-4.895-9.505-13.764c0-12.245,5.07-16.537,10.733-16.537c2.694,0,4.708,1.148,6.166,2.836L1031.622,265.043z
			 M1018.009,279.116c0.362,6.177,2.783,10.283,7.535,10.283c3.331,0,5.893-3.196,5.893-7.358c0-4.25-1.873-7.349-6.351-7.349
			C1023.026,274.692,1020.376,275.964,1018.009,279.116z"/>
	</g>
	<g>
		<path d="M749.846,263.171h-6.855v24.223h5.203v1.361c-2.376,0.415-4.25,1.06-5.619,1.838h-1.643v-27.422h-6.352v-1.784h15.265
			V263.171z"/>
		<path d="M729.607,276.105c0,9.682-3.154,15.035-8.729,15.035c-5.574,0-8.728-5.354-8.728-15.035
			c0-9.736,3.154-15.266,8.728-15.266C726.454,260.839,729.607,266.369,729.607,276.105z M714.209,276.105
			c0,8.903,2.606,13.294,6.669,13.294c4.02,0,6.67-4.391,6.67-13.294c0-8.906-2.65-13.526-6.67-13.526
			C716.815,262.579,714.209,267.199,714.209,276.105z"/>
	</g>
	<g>
		<path d="M457.178,263.171h-6.855v24.223h5.204v1.361c-2.377,0.415-4.25,1.06-5.619,1.838h-1.643v-27.422h-6.352v-1.784h15.265
			V263.171z"/>
		<path d="M435.295,263.171h-6.855v24.223h5.204v1.361c-2.377,0.415-4.25,1.06-5.619,1.838h-1.643v-27.422h-6.352v-1.784h15.266
			V263.171z"/>
	</g>
	<g>
		<path d="M164.51,263.171h-6.856v24.223h5.204v1.361c-2.377,0.415-4.249,1.06-5.618,1.838h-1.644v-27.422h-6.351v-1.784h15.266
			V263.171z"/>
		<path d="M144.589,262.677c-9.595,9.726-14.392,15.158-14.392,20.23c0,3.657,1.961,6.491,6.352,6.491
			c2.65,0,5.027-1.651,6.803-3.842l1.325,1.28c-2.191,2.432-4.753,4.303-8.313,4.303c-5.212,0-8.225-3.25-8.225-8.18
			c0-5.805,5.3-11.38,13.384-19.966c-1.6,0.088-3.287,0.23-4.885,0.23h-9.957v-1.838h17.908V262.677z"/>
	</g>
</g>
</svg>
