<?xml version="1.0" encoding="utf-8"?>
<!-- Generator: Adobe Illustrator 16.0.0, SVG Export Plug-In . SVG Version: 6.00 Build 0)  -->
<!DOCTYPE svg PUBLIC "-//W3C//DTD SVG 1.0//EN" "http://www.w3.org/TR/2001/REC-SVG-20010904/DTD/svg10.dtd">
<svg version="1.0" id="Layer_1" xmlns="http://www.w3.org/2000/svg" xmlns:xlink="http://www.w3.org/1999/xlink" x="0px" y="0px"
	 width="408.297px" height="517.832px" viewBox="0 0 408.297 517.832" enable-background="new 0 0 408.297 517.832"
	 xml:space="preserve">
<g>
	<path fill="none" stroke="#231F20" stroke-miterlimit="10" d="M0,516.714c0,0.484,0.126,1.114,0.521,1.114
		c0.393,0,1.618,0.009,1.751,0c0.292-0.015,0.677-0.269,1.081-0.785L407.902,3.272c0.924-1.173,0.171-2.134-1.67-2.134H3.354
		C1.511,1.138,0,2.25,0,3.604l1.676,71.479c0,1.354,0,3.571,0,4.93L0,516.714z"/>
	<path fill="none" stroke="#231F20" stroke-miterlimit="10" d="M97.239,230.291c-0.828,1.162-1.509,1.016-1.509-0.319V78.952
		c0-1.335,1.368-2.43,3.042-2.43h105.556c1.674,0,2.36,0.95,1.528,2.111L97.239,230.291z"/>
	<g>
		<rect y="501.42" width="19.833" height="0.795"/>
	</g>
	<g>
		<rect y="470.184" width="19.833" height="0.79"/>
	</g>
	<g>
		<rect y="485.9" width="13.88" height="0.598"/>
	</g>
	<g>
		<rect y="489.168" width="7.931" height="0.301"/>
	</g>
	<g>
		<rect y="492.295" width="7.931" height="0.296"/>
	</g>
	<g>
		<rect y="495.421" width="7.931" height="0.296"/>
	</g>
	<g>
		<rect y="498.543" width="7.931" height="0.296"/>
	</g>
	<g>
		<rect y="490.733" width="4.755" height="0.297"/>
	</g>
	<g>
		<rect y="487.612" width="4.755" height="0.296"/>
	</g>
	<g>
		<rect y="493.86" width="4.755" height="0.296"/>
	</g>
	<g>
		<rect y="496.986" width="4.755" height="0.292"/>
	</g>
	<g>
		<rect y="500.104" width="4.755" height="0.297"/>
	</g>
	<g>
		<rect y="473.555" width="7.931" height="0.297"/>
	</g>
	<g>
		<rect y="476.682" width="7.931" height="0.296"/>
	</g>
	<g>
		<rect y="479.803" width="7.931" height="0.297"/>
	</g>
	<g>
		<rect y="482.925" width="7.931" height="0.296"/>
	</g>
	<g>
		<rect y="475.116" width="4.755" height="0.296"/>
	</g>
	<g>
		<rect y="471.989" width="4.755" height="0.296"/>
	</g>
	<g>
		<rect y="478.242" width="4.755" height="0.296"/>
	</g>
	<g>
		<rect y="481.364" width="4.755" height="0.296"/>
	</g>
	<g>
		<rect y="484.485" width="4.755" height="0.297"/>
	</g>
	<g>
		<rect y="438.948" width="19.833" height="0.794"/>
	</g>
	<g>
		<rect y="454.665" width="13.88" height="0.592"/>
	</g>
	<g>
		<rect y="457.937" width="7.931" height="0.297"/>
	</g>
	<g>
		<rect y="461.059" width="7.931" height="0.296"/>
	</g>
	<g>
		<rect y="464.186" width="7.931" height="0.296"/>
	</g>
	<g>
		<rect y="467.307" width="7.931" height="0.297"/>
	</g>
	<g>
		<rect y="459.503" width="4.755" height="0.291"/>
	</g>
	<g>
		<rect y="456.376" width="4.755" height="0.296"/>
	</g>
	<g>
		<rect y="462.624" width="4.755" height="0.296"/>
	</g>
	<g>
		<rect y="465.746" width="4.755" height="0.296"/>
	</g>
	<g>
		<rect y="468.867" width="4.755" height="0.302"/>
	</g>
	<g>
		<rect y="442.319" width="7.931" height="0.296"/>
	</g>
	<g>
		<rect y="445.445" width="7.931" height="0.296"/>
	</g>
	<g>
		<rect y="448.567" width="7.931" height="0.296"/>
	</g>
	<g>
		<rect y="451.688" width="7.931" height="0.297"/>
	</g>
	<g>
		<rect y="443.88" width="4.755" height="0.296"/>
	</g>
	<g>
		<rect y="440.758" width="4.755" height="0.297"/>
	</g>
	<g>
		<rect y="447.006" width="4.755" height="0.297"/>
	</g>
	<g>
		<rect y="450.128" width="4.755" height="0.296"/>
	</g>
	<g>
		<rect y="453.25" width="4.755" height="0.296"/>
	</g>
	<g>
		<rect y="407.712" width="19.833" height="0.795"/>
	</g>
	<g>
		<rect y="423.429" width="13.88" height="0.597"/>
	</g>
	<g>
		<rect y="426.701" width="7.931" height="0.296"/>
	</g>
	<g>
		<rect y="429.822" width="7.931" height="0.297"/>
	</g>
	<g>
		<rect y="432.949" width="7.931" height="0.296"/>
	</g>
	<g>
		<rect y="436.07" width="7.931" height="0.297"/>
	</g>
	<g>
		<rect y="428.267" width="4.755" height="0.291"/>
	</g>
	<g>
		<rect y="425.14" width="4.755" height="0.297"/>
	</g>
	<g>
		<rect y="431.389" width="4.755" height="0.296"/>
	</g>
	<g>
		<rect y="434.51" width="4.755" height="0.297"/>
	</g>
	<g>
		<rect y="437.632" width="4.755" height="0.301"/>
	</g>
	<g>
		<rect y="411.083" width="7.931" height="0.296"/>
	</g>
	<g>
		<rect y="414.209" width="7.931" height="0.297"/>
	</g>
	<g>
		<rect y="417.331" width="7.931" height="0.296"/>
	</g>
	<g>
		<rect y="420.453" width="7.931" height="0.296"/>
	</g>
	<g>
		<rect y="412.644" width="4.755" height="0.297"/>
	</g>
	<g>
		<rect y="409.522" width="4.755" height="0.296"/>
	</g>
	<g>
		<rect y="415.771" width="4.755" height="0.291"/>
	</g>
	<g>
		<rect y="418.896" width="4.755" height="0.292"/>
	</g>
	<g>
		<rect y="422.019" width="4.755" height="0.296"/>
	</g>
	<g>
		<rect y="376.477" width="19.833" height="0.794"/>
	</g>
	<g>
		<rect y="392.192" width="13.88" height="0.598"/>
	</g>
	<g>
		<rect y="395.465" width="7.931" height="0.296"/>
	</g>
	<g>
		<rect y="398.592" width="7.931" height="0.296"/>
	</g>
	<g>
		<rect y="401.713" width="7.931" height="0.297"/>
	</g>
	<g>
		<rect y="404.84" width="7.931" height="0.296"/>
	</g>
	<g>
		<rect y="397.025" width="4.755" height="0.297"/>
	</g>
	<g>
		<rect y="393.904" width="4.755" height="0.296"/>
	</g>
	<g>
		<rect y="400.152" width="4.755" height="0.296"/>
	</g>
	<g>
		<rect y="403.274" width="4.755" height="0.296"/>
	</g>
	<g>
		<rect y="406.396" width="4.755" height="0.301"/>
	</g>
	<g>
		<rect y="379.847" width="7.931" height="0.297"/>
	</g>
	<g>
		<rect y="382.974" width="7.931" height="0.291"/>
	</g>
	<g>
		<rect y="386.095" width="7.931" height="0.297"/>
	</g>
	<g>
		<rect y="389.217" width="7.931" height="0.296"/>
	</g>
	<g>
		<rect y="381.412" width="4.755" height="0.297"/>
	</g>
	<g>
		<rect y="378.286" width="4.755" height="0.296"/>
	</g>
	<g>
		<rect y="384.534" width="4.755" height="0.296"/>
	</g>
	<g>
		<rect y="387.656" width="4.755" height="0.296"/>
	</g>
	<g>
		<rect y="390.782" width="4.755" height="0.296"/>
	</g>
	<g>
		<rect y="345.24" width="19.833" height="0.79"/>
	</g>
	<g>
		<rect y="360.962" width="13.88" height="0.592"/>
	</g>
	<g>
		<rect y="364.229" width="7.931" height="0.297"/>
	</g>
	<g>
		<rect y="367.355" width="7.931" height="0.296"/>
	</g>
	<g>
		<rect y="370.478" width="7.931" height="0.296"/>
	</g>
	<g>
		<rect y="373.599" width="7.931" height="0.301"/>
	</g>
	<g>
		<rect y="365.79" width="4.755" height="0.296"/>
	</g>
	<g>
		<rect y="362.668" width="4.755" height="0.296"/>
	</g>
	<g>
		<rect y="368.916" width="4.755" height="0.297"/>
	</g>
	<g>
		<rect y="372.038" width="4.755" height="0.296"/>
	</g>
	<g>
		<rect y="375.16" width="4.755" height="0.296"/>
	</g>
	<g>
		<rect y="348.611" width="7.931" height="0.296"/>
	</g>
	<g>
		<rect y="351.737" width="7.931" height="0.296"/>
	</g>
	<g>
		<rect y="354.859" width="7.931" height="0.296"/>
	</g>
	<g>
		<rect y="357.98" width="7.931" height="0.297"/>
	</g>
	<g>
		<rect y="350.172" width="4.755" height="0.301"/>
	</g>
	<g>
		<rect y="347.05" width="4.755" height="0.297"/>
	</g>
	<g>
		<rect y="353.298" width="4.755" height="0.297"/>
	</g>
	<g>
		<rect y="356.42" width="4.755" height="0.296"/>
	</g>
	<g>
		<rect y="359.547" width="4.755" height="0.296"/>
	</g>
	<g>
		<rect y="314.225" width="19.833" height="0.795"/>
	</g>
	<g>
		<rect y="329.941" width="13.88" height="0.598"/>
	</g>
	<g>
		<rect y="333.214" width="7.931" height="0.296"/>
	</g>
	<g>
		<rect y="336.336" width="7.931" height="0.296"/>
	</g>
	<g>
		<rect y="339.462" width="7.931" height="0.296"/>
	</g>
	<g>
		<rect y="342.589" width="7.931" height="0.291"/>
	</g>
	<g>
		<rect y="334.774" width="4.755" height="0.297"/>
	</g>
	<g>
		<rect y="331.653" width="4.755" height="0.296"/>
	</g>
	<g>
		<rect y="337.896" width="4.755" height="0.296"/>
	</g>
	<g>
		<rect y="341.022" width="4.755" height="0.297"/>
	</g>
	<g>
		<rect y="344.145" width="4.755" height="0.296"/>
	</g>
	<g>
		<rect y="317.596" width="7.931" height="0.297"/>
	</g>
	<g>
		<rect y="320.718" width="7.931" height="0.296"/>
	</g>
	<g>
		<rect y="323.84" width="7.931" height="0.296"/>
	</g>
	<g>
		<rect y="326.966" width="7.931" height="0.296"/>
	</g>
	<g>
		<rect y="319.157" width="4.755" height="0.296"/>
	</g>
	<g>
		<rect y="316.035" width="4.755" height="0.291"/>
	</g>
	<g>
		<rect y="322.283" width="4.755" height="0.296"/>
	</g>
	<g>
		<rect y="325.4" width="4.755" height="0.301"/>
	</g>
	<g>
		<rect y="328.526" width="4.755" height="0.297"/>
	</g>
	<g>
		<rect y="282.984" width="19.833" height="0.799"/>
	</g>
	<g>
		<rect y="298.706" width="13.88" height="0.592"/>
	</g>
	<g>
		<rect y="301.978" width="7.931" height="0.297"/>
	</g>
	<g>
		<rect y="305.104" width="7.931" height="0.296"/>
	</g>
	<g>
		<rect y="308.222" width="7.931" height="0.296"/>
	</g>
	<g>
		<rect y="311.348" width="7.931" height="0.301"/>
	</g>
	<g>
		<rect y="303.539" width="4.755" height="0.296"/>
	</g>
	<g>
		<rect y="300.417" width="4.755" height="0.296"/>
	</g>
	<g>
		<rect y="306.665" width="4.755" height="0.292"/>
	</g>
	<g>
		<rect y="309.787" width="4.755" height="0.296"/>
	</g>
	<g>
		<rect y="312.913" width="4.755" height="0.292"/>
	</g>
	<g>
		<rect y="286.36" width="7.931" height="0.296"/>
	</g>
	<g>
		<rect y="289.481" width="7.931" height="0.296"/>
	</g>
	<g>
		<rect y="292.608" width="7.931" height="0.296"/>
	</g>
	<g>
		<rect y="295.729" width="7.931" height="0.297"/>
	</g>
	<g>
		<rect y="287.926" width="4.755" height="0.296"/>
	</g>
	<g>
		<rect y="284.799" width="4.755" height="0.297"/>
	</g>
	<g>
		<rect y="291.047" width="4.755" height="0.297"/>
	</g>
	<g>
		<rect y="294.169" width="4.755" height="0.296"/>
	</g>
	<g>
		<rect y="297.291" width="4.755" height="0.301"/>
	</g>
	<g>
		<rect y="251.753" width="19.833" height="0.79"/>
	</g>
	<g>
		<rect y="267.47" width="13.88" height="0.593"/>
	</g>
	<g>
		<rect y="270.737" width="7.931" height="0.301"/>
	</g>
	<g>
		<rect y="273.868" width="7.931" height="0.296"/>
	</g>
	<g>
		<rect y="276.99" width="7.931" height="0.296"/>
	</g>
	<g>
		<rect y="280.111" width="7.931" height="0.297"/>
	</g>
	<g>
		<rect y="272.308" width="4.755" height="0.296"/>
	</g>
	<g>
		<rect y="269.177" width="4.755" height="0.296"/>
	</g>
	<g>
		<rect y="275.43" width="4.755" height="0.296"/>
	</g>
	<g>
		<rect y="278.551" width="4.755" height="0.296"/>
	</g>
	<g>
		<rect y="281.678" width="4.755" height="0.291"/>
	</g>
	<g>
		<rect y="255.124" width="7.931" height="0.292"/>
	</g>
	<g>
		<rect y="258.25" width="7.931" height="0.296"/>
	</g>
	<g>
		<rect y="261.372" width="7.931" height="0.296"/>
	</g>
	<g>
		<rect y="264.498" width="7.931" height="0.292"/>
	</g>
	<g>
		<rect y="256.685" width="4.755" height="0.301"/>
	</g>
	<g>
		<rect y="253.563" width="4.755" height="0.296"/>
	</g>
	<g>
		<rect y="259.811" width="4.755" height="0.296"/>
	</g>
	<g>
		<rect y="262.933" width="4.755" height="0.297"/>
	</g>
	<g>
		<rect y="266.055" width="4.755" height="0.296"/>
	</g>
	<g>
		<rect y="220.517" width="19.833" height="0.79"/>
	</g>
	<g>
		<rect y="236.234" width="13.88" height="0.597"/>
	</g>
	<g>
		<rect y="239.506" width="7.931" height="0.296"/>
	</g>
	<g>
		<rect y="242.627" width="7.931" height="0.301"/>
	</g>
	<g>
		<rect y="245.754" width="7.931" height="0.296"/>
	</g>
	<g>
		<rect y="248.876" width="7.931" height="0.296"/>
	</g>
	<g>
		<rect y="241.067" width="4.755" height="0.296"/>
	</g>
	<g>
		<rect y="237.945" width="4.755" height="0.296"/>
	</g>
	<g>
		<rect y="244.198" width="4.755" height="0.292"/>
	</g>
	<g>
		<rect y="247.319" width="4.755" height="0.292"/>
	</g>
	<g>
		<rect y="250.441" width="4.755" height="0.296"/>
	</g>
	<g>
		<rect y="223.888" width="7.931" height="0.296"/>
	</g>
	<g>
		<rect y="227.014" width="7.931" height="0.292"/>
	</g>
	<g>
		<rect y="230.136" width="7.931" height="0.301"/>
	</g>
	<g>
		<rect y="233.263" width="7.931" height="0.296"/>
	</g>
	<g>
		<rect y="225.449" width="4.755" height="0.296"/>
	</g>
	<g>
		<rect y="222.327" width="4.755" height="0.296"/>
	</g>
	<g>
		<rect y="228.575" width="4.755" height="0.301"/>
	</g>
	<g>
		<rect y="231.697" width="4.755" height="0.296"/>
	</g>
	<g>
		<rect y="234.823" width="4.755" height="0.292"/>
	</g>
	<g>
		<rect y="189.285" width="19.833" height="0.79"/>
	</g>
	<g>
		<rect y="204.998" width="13.88" height="0.597"/>
	</g>
	<g>
		<rect y="208.27" width="7.931" height="0.296"/>
	</g>
	<g>
		<rect y="211.392" width="7.931" height="0.296"/>
	</g>
	<g>
		<rect y="214.518" width="7.931" height="0.292"/>
	</g>
	<g>
		<rect y="217.645" width="7.931" height="0.292"/>
	</g>
	<g>
		<rect y="209.835" width="4.755" height="0.296"/>
	</g>
	<g>
		<rect y="206.714" width="4.755" height="0.292"/>
	</g>
	<g>
		<rect y="212.957" width="4.755" height="0.296"/>
	</g>
	<g>
		<rect y="216.079" width="4.755" height="0.301"/>
	</g>
	<g>
		<rect y="219.205" width="4.755" height="0.296"/>
	</g>
	<g>
		<rect y="192.655" width="7.931" height="0.296"/>
	</g>
	<g>
		<rect y="195.777" width="7.931" height="0.297"/>
	</g>
	<g>
		<rect y="198.9" width="7.931" height="0.296"/>
	</g>
	<g>
		<rect y="202.022" width="7.931" height="0.301"/>
	</g>
	<g>
		<rect y="194.211" width="4.755" height="0.303"/>
	</g>
	<g>
		<rect y="191.09" width="4.755" height="0.296"/>
	</g>
	<g>
		<rect y="197.339" width="4.755" height="0.296"/>
	</g>
	<g>
		<rect y="200.461" width="4.755" height="0.296"/>
	</g>
	<g>
		<rect y="203.587" width="4.755" height="0.296"/>
	</g>
	<g>
		<rect y="158.267" width="19.833" height="0.794"/>
	</g>
	<g>
		<rect y="173.986" width="13.88" height="0.592"/>
	</g>
	<g>
		<rect y="177.256" width="7.931" height="0.294"/>
	</g>
	<g>
		<rect y="180.38" width="7.931" height="0.296"/>
	</g>
	<g>
		<rect y="183.502" width="7.931" height="0.298"/>
	</g>
	<g>
		<rect y="186.626" width="7.931" height="0.296"/>
	</g>
	<g>
		<rect y="178.814" width="4.755" height="0.296"/>
	</g>
	<g>
		<rect y="175.69" width="4.755" height="0.296"/>
	</g>
	<g>
		<rect y="181.941" width="4.755" height="0.296"/>
	</g>
	<g>
		<rect y="185.065" width="4.755" height="0.296"/>
	</g>
	<g>
		<rect y="188.187" width="4.755" height="0.296"/>
	</g>
	<g>
		<rect y="161.638" width="7.931" height="0.296"/>
	</g>
	<g>
		<rect y="164.762" width="7.931" height="0.296"/>
	</g>
	<g>
		<rect y="167.884" width="7.931" height="0.296"/>
	</g>
	<g>
		<rect y="171.005" width="7.931" height="0.299"/>
	</g>
	<g>
		<rect y="163.199" width="4.755" height="0.299"/>
	</g>
	<g>
		<rect y="160.077" width="4.755" height="0.296"/>
	</g>
	<g>
		<rect y="166.323" width="4.755" height="0.296"/>
	</g>
	<g>
		<rect y="169.445" width="4.755" height="0.298"/>
	</g>
	<g>
		<rect y="172.569" width="4.755" height="0.296"/>
	</g>
	<g>
		<rect y="127.029" width="19.833" height="0.794"/>
	</g>
	<g>
		<rect y="142.748" width="13.88" height="0.595"/>
	</g>
	<g>
		<rect y="146.02" width="7.931" height="0.296"/>
	</g>
	<g>
		<rect y="149.146" width="7.931" height="0.294"/>
	</g>
	<g>
		<rect y="152.266" width="7.931" height="0.296"/>
	</g>
	<g>
		<rect y="155.388" width="7.931" height="0.298"/>
	</g>
	<g>
		<rect y="147.581" width="4.755" height="0.292"/>
	</g>
	<g>
		<rect y="144.459" width="4.755" height="0.296"/>
	</g>
	<g>
		<rect y="150.705" width="4.755" height="0.296"/>
	</g>
	<g>
		<rect y="153.827" width="4.755" height="0.296"/>
	</g>
	<g>
		<rect y="156.953" width="4.755" height="0.294"/>
	</g>
	<g>
		<rect y="130.402" width="7.931" height="0.296"/>
	</g>
	<g>
		<rect y="133.524" width="7.931" height="0.296"/>
	</g>
	<g>
		<rect y="136.65" width="7.931" height="0.293"/>
	</g>
	<g>
		<rect y="139.774" width="7.931" height="0.292"/>
	</g>
	<g>
		<rect y="131.968" width="4.755" height="0.296"/>
	</g>
	<g>
		<rect y="128.839" width="4.755" height="0.298"/>
	</g>
	<g>
		<rect y="135.089" width="4.755" height="0.298"/>
	</g>
	<g>
		<rect y="138.213" width="4.755" height="0.296"/>
	</g>
	<g>
		<rect y="141.335" width="4.755" height="0.296"/>
	</g>
	<g>
		<rect y="95.797" width="19.833" height="0.79"/>
	</g>
	<g>
		<rect y="111.512" width="13.88" height="0.593"/>
	</g>
	<g>
		<rect y="114.782" width="7.931" height="0.298"/>
	</g>
	<g>
		<rect y="117.906" width="7.931" height="0.296"/>
	</g>
	<g>
		<rect y="121.032" width="7.931" height="0.298"/>
	</g>
	<g>
		<rect y="124.156" width="7.931" height="0.296"/>
	</g>
	<g>
		<rect y="116.343" width="4.755" height="0.298"/>
	</g>
	<g>
		<rect y="113.221" width="4.755" height="0.296"/>
	</g>
	<g>
		<rect y="119.471" width="4.755" height="0.292"/>
	</g>
	<g>
		<rect y="122.593" width="4.755" height="0.299"/>
	</g>
	<g>
		<rect y="125.717" width="4.755" height="0.296"/>
	</g>
	<g>
		<rect y="99.168" width="7.931" height="0.292"/>
	</g>
	<g>
		<rect y="102.29" width="7.931" height="0.299"/>
	</g>
	<g>
		<rect y="105.414" width="7.931" height="0.296"/>
	</g>
	<g>
		<rect y="108.536" width="7.931" height="0.298"/>
	</g>
	<g>
		<rect y="100.729" width="4.755" height="0.298"/>
	</g>
	<g>
		<rect y="97.607" width="4.755" height="0.296"/>
	</g>
	<g>
		<rect y="103.854" width="4.755" height="0.296"/>
	</g>
	<g>
		<rect y="106.975" width="4.755" height="0.296"/>
	</g>
	<g>
		<rect y="110.099" width="4.755" height="0.296"/>
	</g>
	<g>
		<rect y="64.559" width="19.833" height="0.79"/>
	</g>
	<g>
		<rect y="80.273" width="13.88" height="0.6"/>
	</g>
	<g>
		<rect y="83.55" width="7.931" height="0.296"/>
	</g>
	<g>
		<rect y="86.672" width="7.931" height="0.296"/>
	</g>
	<g>
		<rect y="89.796" width="7.931" height="0.296"/>
	</g>
	<g>
		<rect y="92.918" width="7.931" height="0.296"/>
	</g>
	<g>
		<rect y="85.111" width="4.755" height="0.296"/>
	</g>
	<g>
		<rect y="81.987" width="4.755" height="0.294"/>
	</g>
	<g>
		<rect y="88.233" width="4.755" height="0.298"/>
	</g>
	<g>
		<rect y="91.362" width="4.755" height="0.292"/>
	</g>
	<g>
		<rect y="94.483" width="4.755" height="0.299"/>
	</g>
	<g>
		<rect y="67.93" width="7.931" height="0.298"/>
	</g>
	<g>
		<rect y="71.054" width="7.931" height="0.296"/>
	</g>
	<g>
		<rect y="74.181" width="7.931" height="0.294"/>
	</g>
	<g>
		<rect y="77.305" width="7.931" height="0.296"/>
	</g>
	<g>
		<rect y="69.493" width="4.755" height="0.296"/>
	</g>
	<g>
		<rect y="66.369" width="4.755" height="0.299"/>
	</g>
	<g>
		<rect y="72.62" width="4.755" height="0.296"/>
	</g>
	<g>
		<rect y="75.739" width="4.755" height="0.296"/>
	</g>
	<g>
		<rect y="78.861" width="4.755" height="0.296"/>
	</g>
	<g>
		<rect y="49.042" width="13.88" height="0.593"/>
	</g>
	<g>
		<rect y="52.312" width="7.931" height="0.296"/>
	</g>
	<g>
		<rect y="55.436" width="7.931" height="0.296"/>
	</g>
	<g>
		<rect y="58.558" width="7.931" height="0.296"/>
	</g>
	<g>
		<rect y="61.687" width="7.931" height="0.292"/>
	</g>
	<g>
		<rect y="53.877" width="4.755" height="0.294"/>
	</g>
	<g>
		<rect y="50.751" width="4.755" height="0.296"/>
	</g>
	<g>
		<rect y="57.001" width="4.755" height="0.296"/>
	</g>
	<g>
		<rect y="60.124" width="4.755" height="0.298"/>
	</g>
	<g>
		<rect y="63.248" width="4.755" height="0.296"/>
	</g>
	<g>
		<rect y="36.699" width="7.931" height="0.296"/>
	</g>
	<g>
		<rect y="39.82" width="7.931" height="0.299"/>
	</g>
	<g>
		<rect y="42.94" width="7.931" height="0.296"/>
	</g>
	<g>
		<rect y="46.066" width="7.931" height="0.298"/>
	</g>
	<g>
		<rect y="38.255" width="4.755" height="0.296"/>
	</g>
	<g>
		<rect y="35.133" width="4.755" height="0.296"/>
	</g>
	<g>
		<rect y="41.379" width="4.755" height="0.296"/>
	</g>
	<g>
		<rect y="44.505" width="4.755" height="0.296"/>
	</g>
	<g>
		<rect y="47.627" width="4.755" height="0.299"/>
	</g>
	<g>
		<rect y="33.542" width="19.833" height="0.794"/>
	</g>
	<g>
		<rect y="18.025" width="13.88" height="0.592"/>
	</g>
	<g>
		<rect y="21.299" width="7.931" height="0.294"/>
	</g>
	<g>
		<rect y="24.423" width="7.931" height="0.296"/>
	</g>
	<g>
		<rect y="27.545" width="7.931" height="0.299"/>
	</g>
	<g>
		<rect y="30.669" width="7.931" height="0.296"/>
	</g>
	<g>
		<rect y="22.855" width="4.755" height="0.298"/>
	</g>
	<g>
		<rect y="19.734" width="4.755" height="0.296"/>
	</g>
	<g>
		<rect y="25.979" width="4.755" height="0.296"/>
	</g>
	<g>
		<rect y="29.101" width="4.755" height="0.299"/>
	</g>
	<g>
		<rect y="32.23" width="4.755" height="0.296"/>
	</g>
	<g>
		<rect y="5.677" width="7.931" height="0.296"/>
	</g>
	<g>
		<rect y="8.798" width="7.931" height="0.298"/>
	</g>
	<g>
		<rect y="11.927" width="7.931" height="0.296"/>
	</g>
	<g>
		<rect y="15.049" width="7.931" height="0.298"/>
	</g>
	<g>
		<rect y="7.242" width="4.755" height="0.298"/>
	</g>
	<g>
		<rect y="4.121" width="4.755" height="0.292"/>
	</g>
	<g>
		<rect y="10.366" width="4.755" height="0.296"/>
	</g>
	<g>
		<rect y="13.488" width="4.755" height="0.296"/>
	</g>
	<g>
		<rect y="16.612" width="4.755" height="0.296"/>
	</g>
	<g>
		<rect y="0.992" width="4.755" height="0.298"/>
	</g>
	<g>
		<path d="M20.486,460.631c0-0.818,0.36-1.35,0.733-1.749l0.383,0.324c-0.359,0.386-0.632,0.828-0.632,1.411
			c0,1.213,1.079,2.157,2.654,2.157c1.561,0,2.623-0.855,2.623-2.157c0-0.631-0.31-1.176-0.679-1.585l0.369-0.282
			c0.46,0.508,0.794,1.138,0.794,1.895c0,1.533-1.14,2.699-3.107,2.699C21.626,463.344,20.486,462.079,20.486,460.631z"/>
		<path d="M20.637,457.288v-0.47l0.919-0.052v-0.038c-0.609-0.531-1.07-1.213-1.07-1.871c0-0.949,0.484-1.434,1.218-1.646
			c-0.743-0.682-1.218-1.34-1.218-2.017c0-1.189,0.748-1.787,2.28-1.787h3.818v0.56h-3.74c-1.265,0-1.859,0.419-1.859,1.326
			c0,0.555,0.369,1.124,1.117,1.782h4.483v0.545h-3.74c-1.265,0-1.859,0.418-1.859,1.34c0,0.531,0.369,1.124,1.117,1.782h4.483
			v0.545H20.637z"/>
	</g>
	<g>
		<path d="M31.041,472.535v-1.857h-6.565v1.41h-0.369c-0.11-0.644-0.289-1.151-0.498-1.523v-0.446h7.433v-1.721h0.484v4.138H31.041z
			"/>
	</g>
	<g>
		<path d="M31.175,441.863c-2.633-2.601-4.109-3.902-5.484-3.902c-0.992,0-1.758,0.531-1.758,1.721c0,0.719,0.447,1.363,1.042,1.848
			l-0.35,0.357c-0.656-0.593-1.164-1.288-1.164-2.252c0-1.415,0.882-2.229,2.217-2.229c1.575,0,3.084,1.434,5.412,3.629
			c-0.024-0.437-0.061-0.893-0.061-1.325v-2.703h0.498v4.856H31.175z"/>
	</g>
	<g>
		<path d="M30.173,410.486c0.517-0.471,1.016-1.101,1.016-2.191c0-1.067-0.694-1.848-1.747-1.848c-1.088,0-1.832,0.795-1.832,2.765
			h-0.484c0-1.834-0.771-2.478-1.723-2.478c-0.891,0-1.472,0.63-1.472,1.599c0,0.729,0.383,1.363,0.868,1.819l-0.374,0.324
			c-0.531-0.546-0.966-1.228-0.966-2.144c0-1.228,0.694-2.168,1.911-2.168c1.039,0,1.657,0.645,1.954,1.51h0.047
			c0.212-0.979,0.945-1.796,2.06-1.796c1.375,0,2.242,1.053,2.242,2.416c0,1.265-0.585,2.008-1.116,2.516L30.173,410.486z"/>
	</g>
	<g>
		<path d="M29.158,374.417v1.175h2.367v0.531h-2.367v3.644h-0.32l-5.23-3.681v-0.494h5.082v-1.175H29.158z M28.69,376.123h-2.903
			c-0.359,0-1.001-0.023-1.361-0.047v0.047c0.336,0.202,0.632,0.424,0.992,0.645l3.272,2.332V376.123z"/>
	</g>
	<g>
		<path d="M30.223,348.127c0.482-0.466,0.966-1.086,0.966-2.168c0-1.048-0.851-1.965-2.13-1.965c-1.274,0-2.045,0.752-2.045,1.933
			c0,0.606,0.209,1.001,0.536,1.472l-0.235,0.385l-3.707-0.286v-3.653h0.484v3.159l2.863,0.245c-0.249-0.409-0.42-0.828-0.42-1.411
			c0-1.335,0.766-2.416,2.499-2.416c1.688,0,2.64,1.255,2.64,2.529c0,1.265-0.559,1.983-1.067,2.491L30.223,348.127z"/>
	</g>
	<g>
		<path d="M24.6,312.664c-0.432,0.348-0.656,0.832-0.656,1.34c0,1.251,0.99,2.327,3.902,2.351c-0.67-0.545-1.103-1.26-1.103-1.993
			c0-1.387,0.854-2.205,2.454-2.205c1.437,0,2.475,0.992,2.475,2.168c0,1.584-1.335,2.59-3.74,2.59c-3.319,0-4.474-1.387-4.474-2.91
			c0-0.742,0.311-1.265,0.771-1.674L24.6,312.664z M29.198,312.716c-1.14,0-1.984,0.508-1.984,1.707c0,0.56,0.322,1.273,1.187,1.918
			c1.674-0.094,2.802-0.738,2.802-2.026C31.203,313.393,30.321,312.716,29.198,312.716z"/>
	</g>
	<g>
		<path d="M24.092,281.64v4.17h-0.484v-4.865h0.324c2.515,1.899,4.495,2.369,7.593,2.491v0.593
			C28.331,283.906,26.323,283.238,24.092,281.64z"/>
	</g>
	<g>
		<path d="M27.263,253.074h-0.049c-0.383,0.587-0.978,1.143-1.819,1.143c-1.14,0-1.935-0.917-1.935-2.069
			c0-1.354,0.882-2.144,2.069-2.144c0.867,0,1.638,0.672,2.007,1.128h0.047c0.42-0.682,0.959-1.387,2.021-1.387
			c1.149,0,2.068,0.964,2.068,2.402c0,1.448-0.928,2.51-2.179,2.51C28.427,254.658,27.661,253.817,27.263,253.074z M31.212,252.148
			c0-1.114-0.717-1.848-1.622-1.848c-1.213,0-1.634,1.189-2.118,2.417c0.47,0.804,1.126,1.401,1.994,1.401
			C30.446,254.118,31.212,253.286,31.212,252.148z M25.542,250.526c-0.882,0-1.625,0.597-1.625,1.622
			c0,0.879,0.618,1.523,1.477,1.523c1.126,0,1.57-1.067,1.977-2.106C26.831,250.897,26.222,250.526,25.542,250.526z"/>
	</g>
	<g>
		<path d="M30.533,222.924c0.431-0.343,0.656-0.828,0.656-1.35c0-1.25-0.992-2.327-3.902-2.351c0.656,0.545,1.091,1.265,1.091,2.007
			c0,1.373-0.855,2.191-2.452,2.191c-1.437,0-2.466-0.992-2.466-2.167c0-1.57,1.326-2.576,3.731-2.576
			c3.319,0,4.482,1.373,4.482,2.91c0,0.729-0.31,1.274-0.771,1.674L30.533,222.924z M26.715,219.238
			c-1.671,0.094-2.783,0.752-2.783,2.041c0,0.902,0.868,1.598,1.994,1.598c1.149,0,1.993-0.508,1.993-1.725
			C27.919,220.597,27.573,219.877,26.715,219.238z"/>
	</g>
	<g>
		<path d="M31.041,194.677v-1.859h-6.565v1.408h-0.369c-0.11-0.642-0.289-1.149-0.498-1.523v-0.444h7.433v-1.721h0.484v4.139H31.041
			z"/>
		<path d="M27.536,189.188c-2.625,0-4.076-0.853-4.076-2.367c0-1.506,1.451-2.365,4.076-2.365c2.638,0,4.137,0.858,4.137,2.365
			C31.673,188.335,30.173,189.188,27.536,189.188z M27.536,185.016c-2.414,0-3.604,0.705-3.604,1.805c0,1.093,1.189,1.81,3.604,1.81
			c2.412,0,3.667-0.717,3.667-1.81C31.203,185.721,29.948,185.016,27.536,185.016z"/>
	</g>
	<g>
		<path d="M31.041,163.472v-1.857h-6.565v1.413h-0.369c-0.11-0.646-0.289-1.154-0.498-1.523v-0.444h7.433v-1.725h0.484v4.137H31.041
			z"/>
		<path d="M31.041,157.543v-1.857h-6.565v1.408h-0.369c-0.11-0.642-0.289-1.149-0.498-1.523v-0.447h7.433v-1.718h0.484v4.137H31.041
			z"/>
	</g>
	<g>
		<path d="M31.041,132.269v-1.857h-6.565v1.413h-0.369c-0.11-0.646-0.289-1.154-0.498-1.523v-0.446h7.433v-1.723h0.484v4.137H31.041
			z"/>
		<path d="M31.175,126.871c-2.633-2.6-4.109-3.904-5.484-3.904c-0.992,0-1.758,0.534-1.758,1.726c0,0.717,0.447,1.358,1.042,1.843
			l-0.35,0.359c-0.656-0.595-1.164-1.288-1.164-2.256c0-1.413,0.882-2.226,2.217-2.226c1.575,0,3.084,1.436,5.412,3.625
			c-0.024-0.43-0.061-0.891-0.061-1.321v-2.701h0.498v4.856H31.175z"/>
	</g>
	<g>
		<path d="M31.041,101.07v-1.859h-6.565v1.408h-0.369c-0.11-0.642-0.289-1.149-0.498-1.523v-0.444h7.433v-1.721h0.484v4.14H31.041z"
			/>
		<path d="M30.173,95.494c0.517-0.468,1.016-1.1,1.016-2.193c0-1.063-0.694-1.843-1.747-1.843c-1.088,0-1.832,0.794-1.832,2.762
			h-0.484c0-1.833-0.771-2.48-1.723-2.48c-0.891,0-1.472,0.632-1.472,1.599c0,0.733,0.383,1.366,0.868,1.822l-0.374,0.319
			c-0.531-0.541-0.966-1.225-0.966-2.141c0-1.225,0.694-2.165,1.911-2.165c1.039,0,1.657,0.642,1.954,1.509h0.047
			c0.212-0.976,0.945-1.796,2.06-1.796c1.375,0,2.242,1.053,2.242,2.414c0,1.265-0.585,2.008-1.116,2.516L30.173,95.494z"/>
	</g>
	<g>
		<path d="M31.041,69.867v-1.859h-6.565v1.413h-0.369c-0.11-0.646-0.289-1.154-0.498-1.523v-0.444h7.433v-1.725h0.484v4.14H31.041z"
			/>
		<path d="M29.158,59.425v1.178h2.367v0.531h-2.367v3.641h-0.32l-5.23-3.679v-0.494h5.082v-1.178H29.158z M28.69,61.134h-2.903
			c-0.359,0-1.001-0.023-1.361-0.047v0.047c0.336,0.197,0.632,0.42,0.992,0.646l3.272,2.327V61.134z"/>
	</g>
	<g>
		<path d="M31.041,38.666v-1.857h-6.565v1.408h-0.369c-0.11-0.642-0.289-1.149-0.498-1.523v-0.446h7.433v-1.719h0.484v4.137H31.041z
			"/>
		<path d="M30.223,33.14c0.482-0.47,0.966-1.088,0.966-2.165c0-1.053-0.851-1.967-2.13-1.967c-1.274,0-2.045,0.752-2.045,1.93
			c0,0.609,0.209,1.006,0.536,1.474l-0.235,0.383l-3.707-0.287v-3.65h0.484v3.157l2.863,0.25c-0.249-0.412-0.42-0.828-0.42-1.413
			c0-1.335,0.766-2.414,2.499-2.414c1.688,0,2.64,1.25,2.64,2.525c0,1.265-0.559,1.981-1.067,2.489L30.223,33.14z"/>
	</g>
	<g>
		<rect x="1.274" y="1.379" width="0.778" height="19.469"/>
	</g>
	<g>
		<rect x="79.152" y="1.379" width="0.776" height="19.469"/>
	</g>
	<g>
		<rect x="40.31" y="1.379" width="0.583" height="13.629"/>
	</g>
	<g>
		<rect x="32.67" y="1.379" width="0.292" height="7.786"/>
	</g>
	<g>
		<rect x="24.879" y="1.379" width="0.292" height="7.786"/>
	</g>
	<g>
		<rect x="17.094" y="1.379" width="0.291" height="7.786"/>
	</g>
	<g>
		<rect x="9.304" y="1.379" width="0.292" height="7.786"/>
	</g>
	<g>
		<rect x="28.774" y="1.379" width="0.292" height="4.671"/>
	</g>
	<g>
		<rect x="36.563" y="1.379" width="0.292" height="4.671"/>
	</g>
	<g>
		<rect x="20.987" y="1.379" width="0.292" height="4.671"/>
	</g>
	<g>
		<rect x="13.199" y="1.379" width="0.292" height="4.671"/>
	</g>
	<g>
		<rect x="5.411" y="1.379" width="0.292" height="4.671"/>
	</g>
	<g>
		<rect x="71.606" y="1.379" width="0.292" height="7.786"/>
	</g>
	<g>
		<rect x="63.821" y="1.379" width="0.292" height="7.786"/>
	</g>
	<g>
		<rect x="56.031" y="1.379" width="0.292" height="7.786"/>
	</g>
	<g>
		<rect x="48.246" y="1.379" width="0.291" height="7.786"/>
	</g>
	<g>
		<rect x="67.714" y="1.379" width="0.292" height="4.671"/>
	</g>
	<g>
		<rect x="75.5" y="1.379" width="0.292" height="4.671"/>
	</g>
	<g>
		<rect x="59.926" y="1.379" width="0.291" height="4.671"/>
	</g>
	<g>
		<rect x="52.138" y="1.379" width="0.292" height="4.671"/>
	</g>
	<g>
		<rect x="44.35" y="1.379" width="0.292" height="4.671"/>
	</g>
	<g>
		<rect x="157.031" y="1.379" width="0.778" height="19.469"/>
	</g>
	<g>
		<rect x="118.188" y="1.379" width="0.583" height="13.629"/>
	</g>
	<g>
		<rect x="110.546" y="1.379" width="0.292" height="7.786"/>
	</g>
	<g>
		<rect x="102.758" y="1.379" width="0.292" height="7.786"/>
	</g>
	<g>
		<rect x="94.97" y="1.379" width="0.292" height="7.786"/>
	</g>
	<g>
		<rect x="87.182" y="1.379" width="0.292" height="7.786"/>
	</g>
	<g>
		<rect x="106.653" y="1.379" width="0.292" height="4.671"/>
	</g>
	<g>
		<rect x="114.441" y="1.379" width="0.292" height="4.671"/>
	</g>
	<g>
		<rect x="98.865" y="1.379" width="0.292" height="4.671"/>
	</g>
	<g>
		<rect x="91.075" y="1.379" width="0.292" height="4.671"/>
	</g>
	<g>
		<rect x="83.29" y="1.379" width="0.292" height="4.671"/>
	</g>
	<g>
		<rect x="149.485" y="1.379" width="0.292" height="7.786"/>
	</g>
	<g>
		<rect x="141.697" y="1.379" width="0.292" height="7.786"/>
	</g>
	<g>
		<rect x="133.909" y="1.379" width="0.292" height="7.786"/>
	</g>
	<g>
		<rect x="126.122" y="1.379" width="0.292" height="7.786"/>
	</g>
	<g>
		<rect x="145.592" y="1.379" width="0.292" height="4.671"/>
	</g>
	<g>
		<rect x="153.38" y="1.379" width="0.291" height="4.671"/>
	</g>
	<g>
		<rect x="137.802" y="1.379" width="0.292" height="4.671"/>
	</g>
	<g>
		<rect x="130.017" y="1.379" width="0.292" height="4.671"/>
	</g>
	<g>
		<rect x="122.227" y="1.379" width="0.292" height="4.671"/>
	</g>
	<g>
		<rect x="234.907" y="1.379" width="0.778" height="19.469"/>
	</g>
	<g>
		<rect x="196.066" y="1.379" width="0.583" height="13.629"/>
	</g>
	<g>
		<rect x="188.422" y="1.379" width="0.292" height="7.786"/>
	</g>
	<g>
		<rect x="180.636" y="1.379" width="0.292" height="7.786"/>
	</g>
	<g>
		<rect x="172.846" y="1.379" width="0.292" height="7.786"/>
	</g>
	<g>
		<rect x="165.061" y="1.379" width="0.292" height="7.786"/>
	</g>
	<g>
		<rect x="184.529" y="1.379" width="0.292" height="4.671"/>
	</g>
	<g>
		<rect x="192.317" y="1.379" width="0.292" height="4.671"/>
	</g>
	<g>
		<rect x="176.741" y="1.379" width="0.292" height="4.671"/>
	</g>
	<g>
		<rect x="168.956" y="1.379" width="0.292" height="4.671"/>
	</g>
	<g>
		<rect x="161.168" y="1.379" width="0.292" height="4.671"/>
	</g>
	<g>
		<rect x="227.364" y="1.379" width="0.291" height="7.786"/>
	</g>
	<g>
		<rect x="219.574" y="1.379" width="0.291" height="7.786"/>
	</g>
	<g>
		<rect x="211.788" y="1.379" width="0.292" height="7.786"/>
	</g>
	<g>
		<rect x="203.998" y="1.379" width="0.292" height="7.786"/>
	</g>
	<g>
		<rect x="223.471" y="1.379" width="0.291" height="4.671"/>
	</g>
	<g>
		<rect x="231.256" y="1.379" width="0.291" height="4.671"/>
	</g>
	<g>
		<rect x="215.68" y="1.379" width="0.292" height="4.671"/>
	</g>
	<g>
		<rect x="207.893" y="1.379" width="0.291" height="4.671"/>
	</g>
	<g>
		<rect x="200.105" y="1.379" width="0.292" height="4.671"/>
	</g>
	<g>
		<rect x="312.783" y="1.379" width="0.78" height="19.469"/>
	</g>
	<g>
		<rect x="273.943" y="1.379" width="0.583" height="13.629"/>
	</g>
	<g>
		<rect x="266.3" y="1.379" width="0.292" height="7.786"/>
	</g>
	<g>
		<rect x="258.515" y="1.379" width="0.291" height="7.786"/>
	</g>
	<g>
		<rect x="250.725" y="1.379" width="0.291" height="7.786"/>
	</g>
	<g>
		<rect x="242.939" y="1.379" width="0.292" height="7.786"/>
	</g>
	<g>
		<rect x="262.408" y="1.379" width="0.291" height="4.671"/>
	</g>
	<g>
		<rect x="270.193" y="1.379" width="0.292" height="4.671"/>
	</g>
	<g>
		<rect x="254.62" y="1.379" width="0.292" height="4.671"/>
	</g>
	<g>
		<rect x="246.832" y="1.379" width="0.292" height="4.671"/>
	</g>
	<g>
		<rect x="239.044" y="1.379" width="0.291" height="4.671"/>
	</g>
	<g>
		<rect x="305.24" y="1.379" width="0.291" height="7.786"/>
	</g>
	<g>
		<rect x="297.452" y="1.379" width="0.292" height="7.786"/>
	</g>
	<g>
		<rect x="289.667" y="1.379" width="0.291" height="7.786"/>
	</g>
	<g>
		<rect x="281.878" y="1.379" width="0.291" height="7.786"/>
	</g>
	<g>
		<rect x="301.344" y="1.379" width="0.292" height="4.671"/>
	</g>
	<g>
		<rect x="309.134" y="1.379" width="0.292" height="4.671"/>
	</g>
	<g>
		<rect x="293.559" y="1.379" width="0.291" height="4.671"/>
	</g>
	<g>
		<rect x="285.774" y="1.379" width="0.291" height="4.671"/>
	</g>
	<g>
		<rect x="277.983" y="1.379" width="0.292" height="4.671"/>
	</g>
	<g>
		<rect x="390.662" y="1.379" width="0.777" height="19.469"/>
	</g>
	<g>
		<rect x="351.821" y="1.379" width="0.583" height="13.629"/>
	</g>
	<g>
		<rect x="344.179" y="1.379" width="0.291" height="7.786"/>
	</g>
	<g>
		<rect x="336.391" y="1.379" width="0.291" height="7.786"/>
	</g>
	<g>
		<rect x="328.603" y="1.379" width="0.292" height="7.786"/>
	</g>
	<g>
		<rect x="320.818" y="1.379" width="0.291" height="7.786"/>
	</g>
	<g>
		<rect x="340.286" y="1.379" width="0.292" height="4.671"/>
	</g>
	<g>
		<rect x="348.072" y="1.379" width="0.291" height="4.671"/>
	</g>
	<g>
		<rect x="332.496" y="1.379" width="0.292" height="4.671"/>
	</g>
	<g>
		<rect x="324.71" y="1.379" width="0.291" height="4.671"/>
	</g>
	<g>
		<rect x="316.922" y="1.379" width="0.292" height="4.671"/>
	</g>
	<g>
		<rect x="383.116" y="1.379" width="0.291" height="7.786"/>
	</g>
	<g>
		<rect x="375.331" y="1.379" width="0.291" height="7.786"/>
	</g>
	<g>
		<rect x="367.54" y="1.379" width="0.292" height="7.786"/>
	</g>
	<g>
		<rect x="359.754" y="1.379" width="0.292" height="7.786"/>
	</g>
	<g>
		<rect x="379.223" y="1.379" width="0.291" height="4.671"/>
	</g>
	<g>
		<rect x="387.011" y="1.379" width="0.291" height="4.671"/>
	</g>
	<g>
		<rect x="371.435" y="1.379" width="0.291" height="4.671"/>
	</g>
	<g>
		<rect x="363.647" y="1.379" width="0.292" height="4.671"/>
	</g>
	<g>
		<rect x="355.862" y="1.379" width="0.291" height="4.671"/>
	</g>
	<g>
		<path d="M102.894,20.74c0-0.303,0.221-0.486,0.489-0.486c0.266,0,0.484,0.183,0.484,0.486c0,0.28-0.219,0.475-0.484,0.475
			C103.115,21.215,102.894,21.02,102.894,20.74z M103.101,22.625h0.536v5.834h-0.536V22.625z"/>
		<path d="M105.884,22.625h0.463l0.049,0.898h0.035c0.595-0.595,1.204-1.043,2.005-1.043c1.204,0,1.763,0.729,1.763,2.235v3.745
			h-0.534v-3.672c0-1.239-0.388-1.822-1.337-1.822c-0.693,0-1.192,0.364-1.909,1.093v4.4h-0.536V22.625z"/>
		<path d="M114.53,22.479c0.802,0,1.326,0.353,1.713,0.717l-0.317,0.376c-0.376-0.353-0.813-0.621-1.385-0.621
			c-1.192,0-2.116,1.058-2.116,2.603c0,1.533,0.839,2.579,2.116,2.579c0.618,0,1.154-0.306,1.556-0.67l0.28,0.364
			c-0.499,0.451-1.119,0.778-1.862,0.778c-1.507,0-2.649-1.119-2.649-3.051C111.867,23.596,113.106,22.479,114.53,22.479z"/>
		<path d="M117.812,19.72h0.536v2.527v1.291c0.606-0.609,1.213-1.058,2.017-1.058c1.204,0,1.763,0.729,1.763,2.235v3.745h-0.536
			v-3.672c0-1.239-0.388-1.822-1.335-1.822c-0.696,0-1.194,0.364-1.909,1.093v4.4h-0.536V19.72z"/>
		<path d="M126.284,22.479c1.387,0,2.238,0.985,2.238,2.698c0,0.146,0,0.292-0.023,0.438h-4.208c0.023,1.472,0.888,2.529,2.2,2.529
			c0.632,0,1.133-0.207,1.57-0.524l0.216,0.414c-0.46,0.28-0.982,0.571-1.833,0.571c-1.495,0-2.698-1.143-2.698-3.051
			S124.984,22.479,126.284,22.479z M128.011,25.202c0-1.495-0.67-2.262-1.713-2.262c-0.997,0-1.885,0.863-2.007,2.262H128.011z"/>
		<path d="M129.688,27.402c0.499,0.414,1.02,0.743,1.862,0.743c0.91,0,1.385-0.536,1.385-1.157c0-0.729-0.755-1.043-1.422-1.288
			c-0.889-0.315-1.862-0.667-1.862-1.664c0-0.851,0.67-1.556,1.885-1.556c0.621,0,1.241,0.254,1.665,0.606l-0.292,0.378
			c-0.388-0.294-0.801-0.524-1.396-0.524c-0.9,0-1.314,0.524-1.314,1.058c0,0.644,0.682,0.924,1.375,1.18
			c0.912,0.341,1.909,0.645,1.909,1.787c0,0.875-0.705,1.641-1.97,1.641c-0.865,0-1.617-0.365-2.139-0.802L129.688,27.402z"/>
	</g>
	<g>
		<path d="M77.65,31.816h1.822v-6.446h-1.385v-0.364c0.632-0.108,1.131-0.28,1.498-0.487h0.437v7.297h1.688v0.473h-4.06V31.816z"/>
	</g>
	<g>
		<path d="M155.007,31.948c2.553-2.588,3.829-4.036,3.829-5.385c0-0.971-0.522-1.726-1.688-1.726c-0.706,0-1.34,0.438-1.815,1.021
			l-0.353-0.338c0.585-0.646,1.265-1.145,2.214-1.145c1.387,0,2.188,0.865,2.188,2.177c0,1.544-1.411,3.028-3.561,5.313
			c0.423-0.023,0.874-0.061,1.3-0.061h2.649v0.487h-4.765V31.948z"/>
	</g>
	<g>
		<path d="M233.052,30.965c0.463,0.51,1.084,0.997,2.153,0.997c1.044,0,1.81-0.682,1.81-1.716c0-1.069-0.775-1.798-2.71-1.798
			v-0.475c1.798,0,2.433-0.752,2.433-1.69c0-0.875-0.62-1.446-1.57-1.446c-0.717,0-1.335,0.376-1.786,0.851l-0.315-0.364
			c0.534-0.524,1.204-0.95,2.102-0.95c1.204,0,2.13,0.682,2.13,1.874c0,1.02-0.635,1.629-1.485,1.92v0.049
			c0.961,0.207,1.763,0.924,1.763,2.017c0,1.349-1.032,2.2-2.369,2.2c-1.241,0-1.97-0.571-2.469-1.093L233.052,30.965z"/>
	</g>
	<g>
		<path d="M315.709,29.966h-1.154v2.323h-0.521v-2.323h-3.578v-0.315l3.613-5.132h0.486v4.986h1.154V29.966z M314.034,29.506v-2.845
			c0-0.353,0.023-0.985,0.047-1.337h-0.047c-0.197,0.327-0.414,0.621-0.635,0.973l-2.285,3.209H314.034z"/>
	</g>
</g>
</svg>
