<?xml version="1.0" encoding="utf-8"?>
<!-- Generator: Adobe Illustrator 16.0.0, SVG Export Plug-In . SVG Version: 6.00 Build 0)  -->
<!DOCTYPE svg PUBLIC "-//W3C//DTD SVG 1.0//EN" "http://www.w3.org/TR/2001/REC-SVG-20010904/DTD/svg10.dtd">
<svg version="1.0" id="Layer_1" xmlns="http://www.w3.org/2000/svg" xmlns:xlink="http://www.w3.org/1999/xlink" x="0px" y="0px"
	 width="521.034px" height="2193.12px" viewBox="0 0 521.034 2193.12" enable-background="new 0 0 521.034 2193.12"
	 xml:space="preserve">
<g>
	<path fill-rule="evenodd" clip-rule="evenodd" d="M60.759,1084.5c-0.02-282.277,1.238-564.562-1.588-846.809
		c-0.365-35.936-17.355-74.5-35.04-106.754C-1.526,84.146,13.053,27.731,63.624,25.834c131.529-4.917,263.415-4.94,394.973-0.558
		c54.822,1.822,70.182,58.847,40.71,108.379c-17.464,29.356-32.521,66.474-32.637,100.166
		c-1.968,569.673-1.13,1139.355-1.639,1709.042c-0.129,139.884-73.565,233.844-185.629,241.688
		c-125.775,8.803-217.49-85.626-218.198-230.138C59.794,1664.451,60.79,1374.47,60.759,1084.5z M104.769,723.319
		c0,34.098,0,61.715,0,89.323c0,248.887-0.05,497.771,0.013,746.659c0.037,138.557-2.454,277.188,1.318,415.629
		c2.627,96.215,67.703,161.512,152.191,163.741c88.121,2.326,153.787-62.979,162.31-161.692c0.88-10.193,0.588-20.51,0.588-30.771
		c0.021-387.442,0.115-774.884-0.243-1162.327c-0.023-19.53-3.93-39.052-6.249-60.563
		C312.311,723.319,215.162,723.319,104.769,723.319z M417.396,670.872c0-175.14,0-340.708,0-511.458c-104.441,0-205.03,0-307.688,0
		c0,173.257,0,340.89,0,511.458C213.675,670.872,312.689,670.872,417.396,670.872z M465.904,100.37
		c-0.121-6.422-0.25-12.844-0.373-19.258c-135.244,0-270.486,0-405.722,0c0.1,6.415,0.201,12.836,0.299,19.258
		C195.375,100.37,330.639,100.37,465.904,100.37z"/>
	<path fill-rule="evenodd" clip-rule="evenodd" d="M155.711,1699.963c0-200.33,0-387.388,0-577.419
		C200.111,1156.644,205.379,1632.106,155.711,1699.963z"/>
	<path fill-rule="evenodd" clip-rule="evenodd" d="M156.87,1012.192c0-60.637,0-121.285,0-181.923
		c7.229,0.029,14.457,0.06,21.685,0.097c0,60.64,0,121.277,0,181.923C171.327,1012.258,164.1,1012.221,156.87,1012.192z"/>
</g>
</svg>
